G04 #@! TF.GenerationSoftware,KiCad,Pcbnew,(6.0.6)*
G04 #@! TF.CreationDate,2022-10-28T15:12:27+11:00*
G04 #@! TF.ProjectId,CE-LoRa-E5-Breakout-Module,43452d4c-6f52-4612-9d45-352d42726561,rev?*
G04 #@! TF.SameCoordinates,Original*
G04 #@! TF.FileFunction,Legend,Bot*
G04 #@! TF.FilePolarity,Positive*
%FSLAX46Y46*%
G04 Gerber Fmt 4.6, Leading zero omitted, Abs format (unit mm)*
G04 Created by KiCad (PCBNEW (6.0.6)) date 2022-10-28 15:12:27*
%MOMM*%
%LPD*%
G01*
G04 APERTURE LIST*
%ADD10C,0.300000*%
%ADD11C,0.010000*%
%ADD12C,3.200000*%
%ADD13R,1.700000X1.700000*%
%ADD14O,1.700000X1.700000*%
%ADD15C,1.700000*%
G04 APERTURE END LIST*
D10*
X122770428Y-101950857D02*
X123770428Y-101950857D01*
X123627571Y-101950857D02*
X123699000Y-101879428D01*
X123770428Y-101736571D01*
X123770428Y-101522285D01*
X123699000Y-101379428D01*
X123556142Y-101308000D01*
X122770428Y-101308000D01*
X123556142Y-101308000D02*
X123699000Y-101236571D01*
X123770428Y-101093714D01*
X123770428Y-100879428D01*
X123699000Y-100736571D01*
X123556142Y-100665142D01*
X122770428Y-100665142D01*
X122770428Y-99950857D02*
X124270428Y-99950857D01*
X123341857Y-99808000D02*
X122770428Y-99379428D01*
X123770428Y-99379428D02*
X123199000Y-99950857D01*
X122770428Y-98736571D02*
X123770428Y-98736571D01*
X123484714Y-98736571D02*
X123627571Y-98665142D01*
X123699000Y-98593714D01*
X123770428Y-98450857D01*
X123770428Y-98308000D01*
X123770428Y-97950857D02*
X122770428Y-97593714D01*
X123770428Y-97236571D01*
X122770428Y-96665142D02*
X123770428Y-96665142D01*
X123484714Y-96665142D02*
X123627571Y-96593714D01*
X123699000Y-96522285D01*
X123770428Y-96379428D01*
X123770428Y-96236571D01*
X122841857Y-95808000D02*
X122770428Y-95665142D01*
X122770428Y-95379428D01*
X122841857Y-95236571D01*
X122984714Y-95165142D01*
X123056142Y-95165142D01*
X123199000Y-95236571D01*
X123270428Y-95379428D01*
X123270428Y-95593714D01*
X123341857Y-95736571D01*
X123484714Y-95808000D01*
X123556142Y-95808000D01*
X123699000Y-95736571D01*
X123770428Y-95593714D01*
X123770428Y-95379428D01*
X123699000Y-95236571D01*
X122913285Y-94522285D02*
X122841857Y-94450857D01*
X122770428Y-94522285D01*
X122841857Y-94593714D01*
X122913285Y-94522285D01*
X122770428Y-94522285D01*
X122770428Y-93808000D02*
X123770428Y-93808000D01*
X124270428Y-93808000D02*
X124199000Y-93879428D01*
X124127571Y-93808000D01*
X124199000Y-93736571D01*
X124270428Y-93808000D01*
X124127571Y-93808000D01*
X122770428Y-92879428D02*
X122841857Y-93022285D01*
X122913285Y-93093714D01*
X123056142Y-93165142D01*
X123484714Y-93165142D01*
X123627571Y-93093714D01*
X123699000Y-93022285D01*
X123770428Y-92879428D01*
X123770428Y-92665142D01*
X123699000Y-92522285D01*
X123627571Y-92450857D01*
X123484714Y-92379428D01*
X123056142Y-92379428D01*
X122913285Y-92450857D01*
X122841857Y-92522285D01*
X122770428Y-92665142D01*
X122770428Y-92879428D01*
X124341857Y-90665142D02*
X122413285Y-91950857D01*
X124270428Y-89879428D02*
X124270428Y-89736571D01*
X124199000Y-89593714D01*
X124127571Y-89522285D01*
X123984714Y-89450857D01*
X123699000Y-89379428D01*
X123341857Y-89379428D01*
X123056142Y-89450857D01*
X122913285Y-89522285D01*
X122841857Y-89593714D01*
X122770428Y-89736571D01*
X122770428Y-89879428D01*
X122841857Y-90022285D01*
X122913285Y-90093714D01*
X123056142Y-90165142D01*
X123341857Y-90236571D01*
X123699000Y-90236571D01*
X123984714Y-90165142D01*
X124127571Y-90093714D01*
X124199000Y-90022285D01*
X124270428Y-89879428D01*
X122841857Y-88165142D02*
X122770428Y-88308000D01*
X122770428Y-88593714D01*
X122841857Y-88736571D01*
X122984714Y-88808000D01*
X123556142Y-88808000D01*
X123699000Y-88736571D01*
X123770428Y-88593714D01*
X123770428Y-88308000D01*
X123699000Y-88165142D01*
X123556142Y-88093714D01*
X123413285Y-88093714D01*
X123270428Y-88808000D01*
G36*
X128021000Y-91992538D02*
G01*
X128086087Y-92092550D01*
X128113075Y-92203675D01*
X128121012Y-92329087D01*
X128067037Y-92502125D01*
X127981312Y-92630712D01*
X127927337Y-92676750D01*
X128032112Y-92711675D01*
X128086881Y-92795019D01*
X128105137Y-92949800D01*
X128083706Y-93113312D01*
X128019412Y-93197450D01*
X127938450Y-93224437D01*
X127828912Y-93229200D01*
X126622412Y-93229200D01*
X126485887Y-93172050D01*
X126431912Y-92952975D01*
X126452550Y-92791050D01*
X126514462Y-92705325D01*
X126598600Y-92675162D01*
X126708137Y-92670400D01*
X127374887Y-92670400D01*
X127520937Y-92595787D01*
X127581262Y-92435450D01*
X127555862Y-92297337D01*
X127530462Y-92187800D01*
X127651112Y-92013175D01*
X127873362Y-91952850D01*
X128021000Y-91992538D01*
G37*
G36*
X127982106Y-81305487D02*
G01*
X128063862Y-81367400D01*
X128094025Y-81451537D01*
X128098787Y-81559487D01*
X128086087Y-81770625D01*
X128397237Y-81770625D01*
X128559163Y-81786500D01*
X128647269Y-81871431D01*
X128676637Y-82043675D01*
X128656794Y-82206394D01*
X128597263Y-82288150D01*
X128521062Y-82318312D01*
X128413113Y-82323075D01*
X128086087Y-82323075D01*
X128098787Y-82427850D01*
X128057512Y-82554850D01*
X127973375Y-82599300D01*
X127784462Y-82615175D01*
X127600312Y-82569137D01*
X127546337Y-82453250D01*
X127555862Y-82323075D01*
X127085962Y-82323075D01*
X126871826Y-82304025D01*
X126703551Y-82246875D01*
X126581137Y-82151625D01*
X126498235Y-82019686D01*
X126448493Y-81852469D01*
X126431912Y-81649975D01*
X126436675Y-81543612D01*
X126463662Y-81459475D01*
X126547006Y-81392800D01*
X126708137Y-81370575D01*
X126920862Y-81443600D01*
X126951025Y-81527737D01*
X126955787Y-81642037D01*
X126993887Y-81743637D01*
X127117712Y-81770625D01*
X127555862Y-81770625D01*
X127543162Y-81564250D01*
X127547925Y-81454712D01*
X127574912Y-81370575D01*
X127658256Y-81306281D01*
X127819387Y-81284850D01*
X127982106Y-81305487D01*
G37*
G36*
X127396936Y-96316711D02*
G01*
X127582144Y-96397144D01*
X127744775Y-96531200D01*
X127870893Y-96698769D01*
X127946564Y-96879744D01*
X127971787Y-97074125D01*
X127965437Y-97185250D01*
X128206737Y-97153500D01*
X128206737Y-96597875D01*
X128211500Y-96494688D01*
X128241662Y-96416900D01*
X128320244Y-96357369D01*
X128473437Y-96337525D01*
X128641713Y-96358956D01*
X128727437Y-96423250D01*
X128757600Y-96505800D01*
X128762362Y-96616925D01*
X128762362Y-96915375D01*
X128765537Y-97397975D01*
X128735375Y-97526562D01*
X128667112Y-97609113D01*
X128581387Y-97655150D01*
X128514712Y-97677375D01*
X128382950Y-97695631D01*
X128025762Y-97744050D01*
X127663019Y-97791675D01*
X127514587Y-97807550D01*
X127436800Y-97772625D01*
X127339962Y-97624987D01*
X127279637Y-97424962D01*
X127352662Y-97251925D01*
X127409812Y-97099525D01*
X127347900Y-96929662D01*
X127179625Y-96855050D01*
X127012937Y-96923313D01*
X126952612Y-97132862D01*
X127019287Y-97331300D01*
X127120887Y-97544025D01*
X127016112Y-97728175D01*
X126809737Y-97845650D01*
X126619237Y-97725000D01*
X126597012Y-97699600D01*
X126536687Y-97620225D01*
X126453785Y-97455125D01*
X126404043Y-97277325D01*
X126387462Y-97086825D01*
X126413744Y-96872689D01*
X126492590Y-96683247D01*
X126624000Y-96518500D01*
X126791922Y-96391500D01*
X126980306Y-96315300D01*
X127189150Y-96289900D01*
X127396936Y-96316711D01*
G37*
G36*
X127079612Y-104001975D02*
G01*
X126787160Y-103878503D01*
X126595601Y-103795953D01*
X126504937Y-103754325D01*
X126443025Y-103695588D01*
X126412862Y-103593988D01*
X126457312Y-103430475D01*
X126549387Y-103282838D01*
X126660512Y-103233625D01*
X126825612Y-103281250D01*
X127027754Y-103370150D01*
X127193913Y-103442117D01*
X127324087Y-103497150D01*
X127492715Y-103364858D01*
X127689565Y-103285483D01*
X127914637Y-103259025D01*
X128111487Y-103279663D01*
X128289287Y-103341575D01*
X128440100Y-103435238D01*
X128555988Y-103551125D01*
X128668876Y-103728572D01*
X128736610Y-103909547D01*
X128759187Y-104094050D01*
X128759187Y-104779850D01*
X128737756Y-104943363D01*
X128673462Y-105027500D01*
X128589325Y-105057663D01*
X128479787Y-105062425D01*
X126717662Y-105062425D01*
X126552562Y-105043375D01*
X126464456Y-104959238D01*
X126435087Y-104783025D01*
X126456519Y-104619513D01*
X126520812Y-104535375D01*
X126604950Y-104505213D01*
X126714487Y-104500450D01*
X127073262Y-104500450D01*
X127635237Y-104500450D01*
X128197212Y-104500450D01*
X128197212Y-104100400D01*
X128125775Y-103909900D01*
X127914637Y-103817825D01*
X127705087Y-103909900D01*
X127635237Y-104094050D01*
X127635237Y-104500450D01*
X127073262Y-104500450D01*
X127073262Y-104100400D01*
X127079612Y-104001975D01*
G37*
G36*
X126803387Y-107189675D02*
G01*
X126878000Y-107253175D01*
X126901812Y-107405575D01*
X126901812Y-108269175D01*
X128476612Y-108269175D01*
X128641713Y-108285050D01*
X128729819Y-108371569D01*
X128759187Y-108548575D01*
X128737756Y-108712088D01*
X128673462Y-108796225D01*
X128589325Y-108826388D01*
X128479787Y-108831150D01*
X126714487Y-108831150D01*
X126552562Y-108812100D01*
X126462075Y-108727963D01*
X126431912Y-108551750D01*
X126431912Y-107408750D01*
X126463662Y-107243650D01*
X126533512Y-107189675D01*
X126668450Y-107173800D01*
X126803387Y-107189675D01*
G37*
G36*
X127938450Y-82794562D02*
G01*
X128022587Y-82821550D01*
X128086881Y-82904894D01*
X128108312Y-83066025D01*
X128087675Y-83228744D01*
X128025762Y-83310500D01*
X127941625Y-83340662D01*
X127832087Y-83345425D01*
X127270112Y-83345425D01*
X127070087Y-83423212D01*
X126993887Y-83626412D01*
X127066912Y-83826437D01*
X127270112Y-83901050D01*
X127825737Y-83901050D01*
X127987662Y-83920100D01*
X128078150Y-84004237D01*
X128108312Y-84180450D01*
X128086881Y-84343962D01*
X128022587Y-84428100D01*
X127940037Y-84455087D01*
X127828912Y-84459850D01*
X127273287Y-84459850D01*
X127052272Y-84436390D01*
X126854893Y-84366011D01*
X126681150Y-84248712D01*
X126546212Y-84095783D01*
X126465250Y-83918512D01*
X126438262Y-83716900D01*
X126508112Y-83481950D01*
X126577962Y-83396225D01*
X126641462Y-83339075D01*
X126511287Y-83307325D01*
X126454137Y-83225569D01*
X126435087Y-83069200D01*
X126455725Y-82909656D01*
X126517637Y-82824725D01*
X126598600Y-82794562D01*
X126704962Y-82789800D01*
X127828912Y-82789800D01*
X127938450Y-82794562D01*
G37*
G36*
X126606537Y-101969975D02*
G01*
X126481125Y-101901713D01*
X126438262Y-101669938D01*
X126458900Y-101529047D01*
X126520812Y-101452450D01*
X126604950Y-101425463D01*
X126714487Y-101420700D01*
X127825737Y-101420700D01*
X127935275Y-101425463D01*
X128019412Y-101454038D01*
X128086087Y-101538175D01*
X128105137Y-101722325D01*
X128060687Y-101900919D01*
X127927337Y-101973150D01*
X127992425Y-102030300D01*
X128063862Y-102154125D01*
X128101962Y-102350975D01*
X128074269Y-102534243D01*
X127991190Y-102707281D01*
X127852725Y-102870088D01*
X127677394Y-103001497D01*
X127483719Y-103080343D01*
X127271700Y-103106625D01*
X127059504Y-103080519D01*
X126865300Y-103002203D01*
X126689087Y-102871675D01*
X126549740Y-102710632D01*
X126466132Y-102540769D01*
X126438262Y-102362088D01*
X126455005Y-102268425D01*
X126993887Y-102268425D01*
X127078025Y-102468450D01*
X127266937Y-102551000D01*
X127460612Y-102473213D01*
X127549512Y-102270013D01*
X127460612Y-102069988D01*
X127268525Y-101995375D01*
X127079612Y-102073163D01*
X126993887Y-102268425D01*
X126455005Y-102268425D01*
X126480331Y-102126741D01*
X126606537Y-101969975D01*
G37*
G36*
X126458900Y-93974796D02*
G01*
X126530337Y-93803875D01*
X126649400Y-93653062D01*
X126803740Y-93535058D01*
X126981011Y-93462563D01*
X127181212Y-93435575D01*
X127359365Y-93456389D01*
X127525524Y-93518831D01*
X127679687Y-93622900D01*
X127863044Y-93532412D01*
X128063862Y-93502250D01*
X128247307Y-93525181D01*
X128412407Y-93593972D01*
X128559163Y-93708625D01*
X128672051Y-93850442D01*
X128739785Y-94013425D01*
X128762362Y-94197575D01*
X128762362Y-94997675D01*
X128740931Y-95161188D01*
X128676637Y-95245325D01*
X128594088Y-95275488D01*
X128482962Y-95280250D01*
X126720837Y-95280250D01*
X126555737Y-95261200D01*
X126465250Y-95177063D01*
X126435087Y-95000850D01*
X126435087Y-94718275D01*
X126997062Y-94718275D01*
X128200387Y-94718275D01*
X128200387Y-94273775D01*
X128168637Y-94116613D01*
X128057512Y-94064225D01*
X127943212Y-94073750D01*
X127876537Y-94226150D01*
X127832087Y-94421413D01*
X127649525Y-94480150D01*
X127466962Y-94423000D01*
X127422512Y-94251550D01*
X127397112Y-94073750D01*
X127333612Y-94015012D01*
X127212962Y-93997550D01*
X127051037Y-94047556D01*
X126997062Y-94197575D01*
X126997062Y-94718275D01*
X126435087Y-94718275D01*
X126435087Y-94165825D01*
X126458900Y-93974796D01*
G37*
G36*
X126427547Y-105935947D02*
G01*
X126500175Y-105737113D01*
X126624000Y-105556534D01*
X126801800Y-105405325D01*
X127021272Y-105302931D01*
X127270112Y-105268800D01*
X127509119Y-105298081D01*
X127718140Y-105385922D01*
X127897175Y-105532325D01*
X128033876Y-105716828D01*
X128115897Y-105918969D01*
X128143237Y-106138750D01*
X128115721Y-106358883D01*
X128033171Y-106562083D01*
X127895587Y-106748350D01*
X127715671Y-106896517D01*
X127506121Y-106985417D01*
X127266937Y-107015050D01*
X127026034Y-106981316D01*
X126811325Y-106880113D01*
X126634319Y-106729697D01*
X126506525Y-106548325D01*
X126429134Y-106348300D01*
X126403734Y-106145100D01*
X126962137Y-106145100D01*
X127039925Y-106351475D01*
X127136762Y-106427675D01*
X127271700Y-106453075D01*
X127407034Y-106428469D01*
X127505062Y-106354650D01*
X127584437Y-106141925D01*
X127508237Y-105929200D01*
X127412194Y-105855381D01*
X127276462Y-105830775D01*
X127139937Y-105856969D01*
X127041512Y-105935550D01*
X126962137Y-106145100D01*
X126403734Y-106145100D01*
X126403337Y-106141925D01*
X126427547Y-105935947D01*
G37*
G36*
X126819262Y-86560112D02*
G01*
X126920862Y-86660125D01*
X127270112Y-87082400D01*
X127536812Y-86768075D01*
X127708262Y-86650600D01*
X127909875Y-86753788D01*
X128038462Y-86936350D01*
X127952737Y-87126850D01*
X127927337Y-87164950D01*
X127765412Y-87337988D01*
X127603487Y-87511025D01*
X128609962Y-87511025D01*
X128698862Y-87514200D01*
X128838562Y-87571350D01*
X128892538Y-87787250D01*
X128871106Y-87950763D01*
X128806813Y-88034900D01*
X128722675Y-88061887D01*
X128613137Y-88066650D01*
X126711312Y-88066650D01*
X126601775Y-88061887D01*
X126517637Y-88034900D01*
X126453344Y-87951556D01*
X126431912Y-87790425D01*
X126452550Y-87627706D01*
X126514462Y-87545950D01*
X126598600Y-87515787D01*
X126708137Y-87511025D01*
X126952612Y-87511025D01*
X126867284Y-87413394D01*
X126738300Y-87279250D01*
X126610109Y-87146694D01*
X126527162Y-87053825D01*
X126504937Y-87022075D01*
X126412862Y-86828400D01*
X126546212Y-86637900D01*
X126752587Y-86539475D01*
X126819262Y-86560112D01*
G37*
G36*
X127179625Y-90262163D02*
G01*
X127298687Y-90189534D01*
X127468550Y-90165325D01*
X127656272Y-90192313D01*
X127828912Y-90273275D01*
X127965041Y-90391147D01*
X128062275Y-90538388D01*
X128120616Y-90714997D01*
X128140062Y-90920975D01*
X128113428Y-91164921D01*
X128033524Y-91380292D01*
X127900350Y-91567087D01*
X127722726Y-91710844D01*
X127509472Y-91797099D01*
X127260587Y-91825850D01*
X127055624Y-91803625D01*
X126864065Y-91736950D01*
X126685912Y-91625825D01*
X126565659Y-91503984D01*
X126471600Y-91341663D01*
X126438591Y-91235300D01*
X127374887Y-91235300D01*
X127554275Y-91133700D01*
X127638412Y-90928913D01*
X127593962Y-90770162D01*
X127476487Y-90714600D01*
X127374887Y-90835250D01*
X127374887Y-91235300D01*
X126438591Y-91235300D01*
X126410878Y-91146003D01*
X126390637Y-90924150D01*
X126408298Y-90628280D01*
X126461281Y-90416944D01*
X126549586Y-90290142D01*
X126673212Y-90247875D01*
X126819262Y-90289150D01*
X126962137Y-90463775D01*
X126927212Y-90590775D01*
X126914512Y-90625700D01*
X126885937Y-90750319D01*
X126876412Y-90914625D01*
X126936737Y-91124175D01*
X127085962Y-91228950D01*
X127085962Y-90476475D01*
X127179625Y-90262163D01*
G37*
G36*
X127270112Y-100017350D02*
G01*
X127348694Y-100085613D01*
X127374887Y-100226900D01*
X127374887Y-100982550D01*
X127346312Y-101134950D01*
X127270112Y-101195275D01*
X127127237Y-101214325D01*
X126981187Y-101198450D01*
X126900225Y-101127806D01*
X126873237Y-100985725D01*
X126873237Y-100230075D01*
X126901812Y-100071325D01*
X126979600Y-100015763D01*
X127124062Y-99998300D01*
X127270112Y-100017350D01*
G37*
G36*
X126606537Y-88869925D02*
G01*
X126481125Y-88801662D01*
X126438262Y-88569887D01*
X126458900Y-88428997D01*
X126520812Y-88352400D01*
X126604950Y-88325413D01*
X126714487Y-88320650D01*
X127825737Y-88320650D01*
X127935275Y-88325413D01*
X128019412Y-88353987D01*
X128086087Y-88438125D01*
X128105137Y-88622275D01*
X128060687Y-88800869D01*
X127927337Y-88873100D01*
X127992425Y-88930250D01*
X128063862Y-89054075D01*
X128101962Y-89250925D01*
X128074269Y-89434193D01*
X127991190Y-89607231D01*
X127852725Y-89770037D01*
X127677394Y-89901447D01*
X127483719Y-89980293D01*
X127271700Y-90006575D01*
X127059504Y-89980469D01*
X126865300Y-89902153D01*
X126689087Y-89771625D01*
X126549740Y-89610582D01*
X126466132Y-89440719D01*
X126438262Y-89262037D01*
X126455005Y-89168375D01*
X126993887Y-89168375D01*
X127078025Y-89368400D01*
X127266937Y-89450950D01*
X127460612Y-89373162D01*
X127549512Y-89169962D01*
X127460612Y-88969937D01*
X127268525Y-88895325D01*
X127079612Y-88973112D01*
X126993887Y-89168375D01*
X126455005Y-89168375D01*
X126480331Y-89026691D01*
X126606537Y-88869925D01*
G37*
G36*
X126427547Y-85333372D02*
G01*
X126500175Y-85134537D01*
X126624000Y-84953959D01*
X126801800Y-84802750D01*
X127021272Y-84700356D01*
X127270112Y-84666225D01*
X127509119Y-84695506D01*
X127718140Y-84783347D01*
X127897175Y-84929750D01*
X128033876Y-85114253D01*
X128115897Y-85316394D01*
X128143237Y-85536175D01*
X128115721Y-85756308D01*
X128033171Y-85959508D01*
X127895587Y-86145775D01*
X127715671Y-86293942D01*
X127506121Y-86382842D01*
X127266937Y-86412475D01*
X127026034Y-86378741D01*
X126811325Y-86277537D01*
X126634319Y-86127122D01*
X126506525Y-85945750D01*
X126429134Y-85745725D01*
X126403734Y-85542525D01*
X126962137Y-85542525D01*
X127039925Y-85748900D01*
X127136762Y-85825100D01*
X127271700Y-85850500D01*
X127407034Y-85825894D01*
X127505062Y-85752075D01*
X127584437Y-85539350D01*
X127508237Y-85326625D01*
X127412194Y-85252806D01*
X127276462Y-85228200D01*
X127139937Y-85254394D01*
X127041512Y-85332975D01*
X126962137Y-85542525D01*
X126403734Y-85542525D01*
X126403337Y-85539350D01*
X126427547Y-85333372D01*
G37*
G36*
X128640125Y-97994081D02*
G01*
X128724262Y-98058375D01*
X128754425Y-98142513D01*
X128759187Y-98252050D01*
X128759187Y-99503000D01*
X128700450Y-99731600D01*
X128479787Y-99791925D01*
X126714487Y-99791925D01*
X126552562Y-99772875D01*
X126462075Y-99688738D01*
X126431912Y-99512525D01*
X126431912Y-98255225D01*
X126450962Y-98090125D01*
X126535100Y-98002019D01*
X126711312Y-97972650D01*
X126874825Y-97994081D01*
X126958962Y-98058375D01*
X126989125Y-98142513D01*
X126993887Y-98252050D01*
X126993887Y-99229950D01*
X127314562Y-99229950D01*
X127314562Y-98607650D01*
X127333612Y-98442550D01*
X127417750Y-98352063D01*
X127593962Y-98321900D01*
X127757475Y-98343331D01*
X127841612Y-98407625D01*
X127871775Y-98491763D01*
X127876537Y-98601300D01*
X127876537Y-99229950D01*
X128197212Y-99229950D01*
X128197212Y-98255225D01*
X128216262Y-98090125D01*
X128300400Y-98002019D01*
X128476612Y-97972650D01*
X128640125Y-97994081D01*
G37*
G36*
X130592337Y-79455206D02*
G01*
X132446207Y-79455206D01*
X132446207Y-77426504D01*
X132597948Y-77426504D01*
X132597948Y-79455206D01*
X134336363Y-79455206D01*
X134336363Y-77142816D01*
X134488104Y-77142816D01*
X134488104Y-79606946D01*
X130440588Y-79606946D01*
X130441417Y-78375706D01*
X130442246Y-77144465D01*
X130517292Y-77143579D01*
X130592337Y-77142692D01*
X130592337Y-79455206D01*
G37*
D11*
X130592337Y-79455206D02*
X132446207Y-79455206D01*
X132446207Y-77426504D01*
X132597948Y-77426504D01*
X132597948Y-79455206D01*
X134336363Y-79455206D01*
X134336363Y-77142816D01*
X134488104Y-77142816D01*
X134488104Y-79606946D01*
X130440588Y-79606946D01*
X130441417Y-78375706D01*
X130442246Y-77144465D01*
X130517292Y-77143579D01*
X130592337Y-77142692D01*
X130592337Y-79455206D01*
G36*
X131859047Y-107730507D02*
G01*
X131758217Y-107767466D01*
X131659837Y-107803528D01*
X131564068Y-107838631D01*
X131471075Y-107872718D01*
X131381019Y-107905727D01*
X131294064Y-107937599D01*
X131210373Y-107968274D01*
X131130108Y-107997694D01*
X131053432Y-108025798D01*
X130980508Y-108052526D01*
X130911499Y-108077819D01*
X130846567Y-108101616D01*
X130785876Y-108123860D01*
X130729588Y-108144489D01*
X130677866Y-108163444D01*
X130630874Y-108180666D01*
X130588772Y-108196094D01*
X130551726Y-108209669D01*
X130519897Y-108221332D01*
X130493448Y-108231022D01*
X130472542Y-108238680D01*
X130457342Y-108244247D01*
X130448010Y-108247662D01*
X130444710Y-108248866D01*
X130444226Y-108248189D01*
X130443712Y-108245108D01*
X130443251Y-108239314D01*
X130442841Y-108230548D01*
X130442481Y-108218552D01*
X130442168Y-108203066D01*
X130441902Y-108183831D01*
X130441679Y-108160588D01*
X130441500Y-108133079D01*
X130441362Y-108101044D01*
X130441264Y-108064225D01*
X130441203Y-108022362D01*
X130441179Y-107975196D01*
X130441189Y-107922469D01*
X130441232Y-107863922D01*
X130441307Y-107799295D01*
X130441412Y-107728330D01*
X130442246Y-107206377D01*
X130818298Y-107090300D01*
X131194350Y-106974222D01*
X131194644Y-106738253D01*
X131951402Y-106738253D01*
X131976967Y-106730371D01*
X131986196Y-106727525D01*
X132070002Y-106701680D01*
X132153152Y-106676025D01*
X132235412Y-106650634D01*
X132316546Y-106625581D01*
X132396320Y-106600938D01*
X132474496Y-106576778D01*
X132550841Y-106553174D01*
X132625118Y-106530200D01*
X132697092Y-106507927D01*
X132766529Y-106486430D01*
X132833191Y-106465781D01*
X132896845Y-106446053D01*
X132957254Y-106427320D01*
X133014183Y-106409653D01*
X133067397Y-106393127D01*
X133116660Y-106377814D01*
X133161738Y-106363787D01*
X133202393Y-106351119D01*
X133238392Y-106339883D01*
X133269499Y-106330153D01*
X133295478Y-106322001D01*
X133316094Y-106315500D01*
X133331111Y-106310723D01*
X133340294Y-106307744D01*
X133343408Y-106306634D01*
X133343020Y-106306447D01*
X133337787Y-106304635D01*
X133326714Y-106301014D01*
X133310143Y-106295692D01*
X133288416Y-106288776D01*
X133261873Y-106280373D01*
X133230857Y-106270591D01*
X133195708Y-106259537D01*
X133156769Y-106247317D01*
X133114381Y-106234041D01*
X133068884Y-106219814D01*
X133020622Y-106204744D01*
X132969934Y-106188939D01*
X132917163Y-106172505D01*
X132862651Y-106155551D01*
X132826185Y-106144216D01*
X132766567Y-106125685D01*
X132706309Y-106106954D01*
X132645989Y-106088203D01*
X132586186Y-106069612D01*
X132527479Y-106051361D01*
X132470444Y-106033630D01*
X132415662Y-106016599D01*
X132363710Y-106000446D01*
X132315166Y-105985353D01*
X132270609Y-105971498D01*
X132230617Y-105959063D01*
X132195769Y-105948225D01*
X132166643Y-105939166D01*
X131951402Y-105872216D01*
X131951402Y-106738253D01*
X131194644Y-106738253D01*
X131195183Y-106305868D01*
X131196016Y-105637515D01*
X131185287Y-105634106D01*
X131184793Y-105633950D01*
X131178885Y-105632104D01*
X131167186Y-105628460D01*
X131150114Y-105623147D01*
X131128084Y-105616294D01*
X131101512Y-105608030D01*
X131070813Y-105598485D01*
X131036403Y-105587788D01*
X130998698Y-105576068D01*
X130958114Y-105563455D01*
X130915067Y-105550078D01*
X130869973Y-105536065D01*
X130823246Y-105521547D01*
X130813354Y-105518473D01*
X130766801Y-105504007D01*
X130721889Y-105490048D01*
X130679044Y-105476727D01*
X130638687Y-105464177D01*
X130601244Y-105452529D01*
X130567136Y-105441915D01*
X130536788Y-105432467D01*
X130510624Y-105424316D01*
X130489066Y-105417596D01*
X130472538Y-105412436D01*
X130461463Y-105408970D01*
X130456266Y-105407328D01*
X130440597Y-105402260D01*
X130440597Y-104878031D01*
X130440600Y-104840132D01*
X130440615Y-104783006D01*
X130440643Y-104727922D01*
X130440683Y-104675232D01*
X130440734Y-104625285D01*
X130440796Y-104578433D01*
X130440867Y-104535025D01*
X130440947Y-104495412D01*
X130441035Y-104459944D01*
X130441131Y-104428972D01*
X130441233Y-104402845D01*
X130441342Y-104381915D01*
X130441456Y-104366531D01*
X130441574Y-104357043D01*
X130441696Y-104353803D01*
X130442513Y-104354093D01*
X130448704Y-104356359D01*
X130460837Y-104360822D01*
X130478750Y-104367421D01*
X130502279Y-104376096D01*
X130531260Y-104386788D01*
X130565531Y-104399434D01*
X130604928Y-104413977D01*
X130649289Y-104430354D01*
X130698449Y-104448505D01*
X130752246Y-104468371D01*
X130810516Y-104489892D01*
X130873096Y-104513005D01*
X130939823Y-104537653D01*
X131010534Y-104563773D01*
X131085065Y-104591307D01*
X131163254Y-104620193D01*
X131244936Y-104650371D01*
X131329949Y-104681781D01*
X131418130Y-104714363D01*
X131509315Y-104748056D01*
X131603340Y-104782800D01*
X131700044Y-104818535D01*
X131799262Y-104855201D01*
X131900832Y-104892736D01*
X132004589Y-104931082D01*
X132110371Y-104970177D01*
X132218015Y-105009961D01*
X132327358Y-105050374D01*
X132438235Y-105091356D01*
X132489711Y-105110382D01*
X132600135Y-105151197D01*
X132709023Y-105191443D01*
X132816206Y-105231059D01*
X132921520Y-105269983D01*
X133024798Y-105308155D01*
X133125875Y-105345512D01*
X133224583Y-105381994D01*
X133320757Y-105417538D01*
X133414231Y-105452085D01*
X133504839Y-105485571D01*
X133592414Y-105517936D01*
X133676791Y-105549119D01*
X133757804Y-105579058D01*
X133835286Y-105607692D01*
X133909071Y-105634959D01*
X133978993Y-105660798D01*
X134044886Y-105685147D01*
X134106584Y-105707946D01*
X134163921Y-105729133D01*
X134216731Y-105748646D01*
X134264848Y-105766424D01*
X134308105Y-105782405D01*
X134346337Y-105796529D01*
X134379377Y-105808734D01*
X134407059Y-105818959D01*
X134429218Y-105827141D01*
X134445686Y-105833220D01*
X134456299Y-105837135D01*
X134460889Y-105838824D01*
X134488104Y-105848739D01*
X134488034Y-106766803D01*
X132468439Y-107507126D01*
X132394240Y-107534326D01*
X132283605Y-107574881D01*
X132174606Y-107614836D01*
X132067404Y-107654132D01*
X131962164Y-107692709D01*
X131951402Y-107696654D01*
X131859047Y-107730507D01*
G37*
X131859047Y-107730507D02*
X131758217Y-107767466D01*
X131659837Y-107803528D01*
X131564068Y-107838631D01*
X131471075Y-107872718D01*
X131381019Y-107905727D01*
X131294064Y-107937599D01*
X131210373Y-107968274D01*
X131130108Y-107997694D01*
X131053432Y-108025798D01*
X130980508Y-108052526D01*
X130911499Y-108077819D01*
X130846567Y-108101616D01*
X130785876Y-108123860D01*
X130729588Y-108144489D01*
X130677866Y-108163444D01*
X130630874Y-108180666D01*
X130588772Y-108196094D01*
X130551726Y-108209669D01*
X130519897Y-108221332D01*
X130493448Y-108231022D01*
X130472542Y-108238680D01*
X130457342Y-108244247D01*
X130448010Y-108247662D01*
X130444710Y-108248866D01*
X130444226Y-108248189D01*
X130443712Y-108245108D01*
X130443251Y-108239314D01*
X130442841Y-108230548D01*
X130442481Y-108218552D01*
X130442168Y-108203066D01*
X130441902Y-108183831D01*
X130441679Y-108160588D01*
X130441500Y-108133079D01*
X130441362Y-108101044D01*
X130441264Y-108064225D01*
X130441203Y-108022362D01*
X130441179Y-107975196D01*
X130441189Y-107922469D01*
X130441232Y-107863922D01*
X130441307Y-107799295D01*
X130441412Y-107728330D01*
X130442246Y-107206377D01*
X130818298Y-107090300D01*
X131194350Y-106974222D01*
X131194644Y-106738253D01*
X131951402Y-106738253D01*
X131976967Y-106730371D01*
X131986196Y-106727525D01*
X132070002Y-106701680D01*
X132153152Y-106676025D01*
X132235412Y-106650634D01*
X132316546Y-106625581D01*
X132396320Y-106600938D01*
X132474496Y-106576778D01*
X132550841Y-106553174D01*
X132625118Y-106530200D01*
X132697092Y-106507927D01*
X132766529Y-106486430D01*
X132833191Y-106465781D01*
X132896845Y-106446053D01*
X132957254Y-106427320D01*
X133014183Y-106409653D01*
X133067397Y-106393127D01*
X133116660Y-106377814D01*
X133161738Y-106363787D01*
X133202393Y-106351119D01*
X133238392Y-106339883D01*
X133269499Y-106330153D01*
X133295478Y-106322001D01*
X133316094Y-106315500D01*
X133331111Y-106310723D01*
X133340294Y-106307744D01*
X133343408Y-106306634D01*
X133343020Y-106306447D01*
X133337787Y-106304635D01*
X133326714Y-106301014D01*
X133310143Y-106295692D01*
X133288416Y-106288776D01*
X133261873Y-106280373D01*
X133230857Y-106270591D01*
X133195708Y-106259537D01*
X133156769Y-106247317D01*
X133114381Y-106234041D01*
X133068884Y-106219814D01*
X133020622Y-106204744D01*
X132969934Y-106188939D01*
X132917163Y-106172505D01*
X132862651Y-106155551D01*
X132826185Y-106144216D01*
X132766567Y-106125685D01*
X132706309Y-106106954D01*
X132645989Y-106088203D01*
X132586186Y-106069612D01*
X132527479Y-106051361D01*
X132470444Y-106033630D01*
X132415662Y-106016599D01*
X132363710Y-106000446D01*
X132315166Y-105985353D01*
X132270609Y-105971498D01*
X132230617Y-105959063D01*
X132195769Y-105948225D01*
X132166643Y-105939166D01*
X131951402Y-105872216D01*
X131951402Y-106738253D01*
X131194644Y-106738253D01*
X131195183Y-106305868D01*
X131196016Y-105637515D01*
X131185287Y-105634106D01*
X131184793Y-105633950D01*
X131178885Y-105632104D01*
X131167186Y-105628460D01*
X131150114Y-105623147D01*
X131128084Y-105616294D01*
X131101512Y-105608030D01*
X131070813Y-105598485D01*
X131036403Y-105587788D01*
X130998698Y-105576068D01*
X130958114Y-105563455D01*
X130915067Y-105550078D01*
X130869973Y-105536065D01*
X130823246Y-105521547D01*
X130813354Y-105518473D01*
X130766801Y-105504007D01*
X130721889Y-105490048D01*
X130679044Y-105476727D01*
X130638687Y-105464177D01*
X130601244Y-105452529D01*
X130567136Y-105441915D01*
X130536788Y-105432467D01*
X130510624Y-105424316D01*
X130489066Y-105417596D01*
X130472538Y-105412436D01*
X130461463Y-105408970D01*
X130456266Y-105407328D01*
X130440597Y-105402260D01*
X130440597Y-104878031D01*
X130440600Y-104840132D01*
X130440615Y-104783006D01*
X130440643Y-104727922D01*
X130440683Y-104675232D01*
X130440734Y-104625285D01*
X130440796Y-104578433D01*
X130440867Y-104535025D01*
X130440947Y-104495412D01*
X130441035Y-104459944D01*
X130441131Y-104428972D01*
X130441233Y-104402845D01*
X130441342Y-104381915D01*
X130441456Y-104366531D01*
X130441574Y-104357043D01*
X130441696Y-104353803D01*
X130442513Y-104354093D01*
X130448704Y-104356359D01*
X130460837Y-104360822D01*
X130478750Y-104367421D01*
X130502279Y-104376096D01*
X130531260Y-104386788D01*
X130565531Y-104399434D01*
X130604928Y-104413977D01*
X130649289Y-104430354D01*
X130698449Y-104448505D01*
X130752246Y-104468371D01*
X130810516Y-104489892D01*
X130873096Y-104513005D01*
X130939823Y-104537653D01*
X131010534Y-104563773D01*
X131085065Y-104591307D01*
X131163254Y-104620193D01*
X131244936Y-104650371D01*
X131329949Y-104681781D01*
X131418130Y-104714363D01*
X131509315Y-104748056D01*
X131603340Y-104782800D01*
X131700044Y-104818535D01*
X131799262Y-104855201D01*
X131900832Y-104892736D01*
X132004589Y-104931082D01*
X132110371Y-104970177D01*
X132218015Y-105009961D01*
X132327358Y-105050374D01*
X132438235Y-105091356D01*
X132489711Y-105110382D01*
X132600135Y-105151197D01*
X132709023Y-105191443D01*
X132816206Y-105231059D01*
X132921520Y-105269983D01*
X133024798Y-105308155D01*
X133125875Y-105345512D01*
X133224583Y-105381994D01*
X133320757Y-105417538D01*
X133414231Y-105452085D01*
X133504839Y-105485571D01*
X133592414Y-105517936D01*
X133676791Y-105549119D01*
X133757804Y-105579058D01*
X133835286Y-105607692D01*
X133909071Y-105634959D01*
X133978993Y-105660798D01*
X134044886Y-105685147D01*
X134106584Y-105707946D01*
X134163921Y-105729133D01*
X134216731Y-105748646D01*
X134264848Y-105766424D01*
X134308105Y-105782405D01*
X134346337Y-105796529D01*
X134379377Y-105808734D01*
X134407059Y-105818959D01*
X134429218Y-105827141D01*
X134445686Y-105833220D01*
X134456299Y-105837135D01*
X134460889Y-105838824D01*
X134488104Y-105848739D01*
X134488034Y-106766803D01*
X132468439Y-107507126D01*
X132394240Y-107534326D01*
X132283605Y-107574881D01*
X132174606Y-107614836D01*
X132067404Y-107654132D01*
X131962164Y-107692709D01*
X131951402Y-107696654D01*
X131859047Y-107730507D01*
G36*
X134485220Y-90582021D02*
G01*
X134486213Y-90587145D01*
X134487014Y-90598299D01*
X134487608Y-90615052D01*
X134487977Y-90636970D01*
X134488104Y-90663618D01*
X134488104Y-90745511D01*
X132665105Y-91422733D01*
X132597282Y-91447926D01*
X132468675Y-91495686D01*
X132343742Y-91542066D01*
X132222589Y-91587026D01*
X132105318Y-91630530D01*
X131992035Y-91672537D01*
X131882844Y-91713009D01*
X131777849Y-91751909D01*
X131677156Y-91789196D01*
X131580868Y-91824833D01*
X131489090Y-91858782D01*
X131401926Y-91891003D01*
X131319481Y-91921457D01*
X131241860Y-91950108D01*
X131169166Y-91976915D01*
X131101504Y-92001840D01*
X131038980Y-92024845D01*
X130981696Y-92045892D01*
X130929758Y-92064941D01*
X130883270Y-92081954D01*
X130842336Y-92096892D01*
X130807062Y-92109717D01*
X130777551Y-92120391D01*
X130753908Y-92128875D01*
X130736237Y-92135129D01*
X130724644Y-92139116D01*
X130722341Y-92139884D01*
X130695802Y-92148744D01*
X130671184Y-92156982D01*
X130649212Y-92164354D01*
X130630608Y-92170617D01*
X130616095Y-92175527D01*
X130606395Y-92178842D01*
X130602233Y-92180318D01*
X130602459Y-92180798D01*
X130607308Y-92183194D01*
X130617512Y-92187320D01*
X130632462Y-92192954D01*
X130651552Y-92199873D01*
X130674174Y-92207857D01*
X130699721Y-92216682D01*
X130727584Y-92226127D01*
X130740383Y-92230533D01*
X130759888Y-92237429D01*
X130785491Y-92246610D01*
X130817151Y-92258060D01*
X130854827Y-92271766D01*
X130898478Y-92287710D01*
X130948062Y-92305878D01*
X131003538Y-92326255D01*
X131064866Y-92348826D01*
X131132004Y-92373575D01*
X131204911Y-92400488D01*
X131283546Y-92429548D01*
X131367868Y-92460741D01*
X131457836Y-92494052D01*
X131553408Y-92529465D01*
X131654543Y-92566966D01*
X131761201Y-92606538D01*
X131873340Y-92648167D01*
X131990919Y-92691837D01*
X132113896Y-92737534D01*
X132242232Y-92785242D01*
X132375884Y-92834946D01*
X132514812Y-92886630D01*
X132658974Y-92940280D01*
X132661157Y-92941093D01*
X132766493Y-92980299D01*
X132870323Y-93018944D01*
X132972476Y-93056964D01*
X133072777Y-93094293D01*
X133171053Y-93130868D01*
X133267131Y-93166624D01*
X133360838Y-93201496D01*
X133452000Y-93235420D01*
X133540445Y-93268331D01*
X133625999Y-93300166D01*
X133708488Y-93330859D01*
X133787740Y-93360347D01*
X133863581Y-93388564D01*
X133935837Y-93415446D01*
X134004337Y-93440930D01*
X134068906Y-93464949D01*
X134129371Y-93487441D01*
X134185559Y-93508340D01*
X134237297Y-93527582D01*
X134284411Y-93545102D01*
X134326729Y-93560836D01*
X134364076Y-93574721D01*
X134396280Y-93586690D01*
X134423167Y-93596680D01*
X134444564Y-93604626D01*
X134460298Y-93610464D01*
X134470196Y-93614129D01*
X134474084Y-93615557D01*
X134488104Y-93620449D01*
X134488104Y-93702607D01*
X134488070Y-93716120D01*
X134487830Y-93739064D01*
X134487381Y-93758063D01*
X134486749Y-93772455D01*
X134485957Y-93781576D01*
X134485031Y-93784764D01*
X134484414Y-93784555D01*
X134478646Y-93782449D01*
X134466980Y-93778140D01*
X134449613Y-93771701D01*
X134426744Y-93763205D01*
X134398569Y-93752726D01*
X134365287Y-93740339D01*
X134327095Y-93726117D01*
X134284191Y-93710134D01*
X134236772Y-93692463D01*
X134185036Y-93673178D01*
X134129181Y-93652354D01*
X134069404Y-93630064D01*
X134005903Y-93606381D01*
X133938875Y-93581380D01*
X133868519Y-93555135D01*
X133795031Y-93527719D01*
X133718610Y-93499205D01*
X133639452Y-93469669D01*
X133557757Y-93439183D01*
X133473721Y-93407821D01*
X133387541Y-93375658D01*
X133299417Y-93342766D01*
X133209544Y-93309220D01*
X133118122Y-93275094D01*
X133025347Y-93240461D01*
X132931417Y-93205396D01*
X132836529Y-93169971D01*
X132740882Y-93134261D01*
X132644674Y-93098340D01*
X132548100Y-93062281D01*
X132451360Y-93026158D01*
X132354651Y-92990045D01*
X132258171Y-92954016D01*
X132162117Y-92918144D01*
X132066686Y-92882504D01*
X131972077Y-92847168D01*
X131878487Y-92812212D01*
X131786114Y-92777708D01*
X131695155Y-92743731D01*
X131605809Y-92710355D01*
X131518271Y-92677652D01*
X131432741Y-92645697D01*
X131349416Y-92614565D01*
X131268494Y-92584327D01*
X131190171Y-92555059D01*
X131114647Y-92526834D01*
X131042117Y-92499726D01*
X130972781Y-92473808D01*
X130906836Y-92449156D01*
X130844478Y-92425841D01*
X130785907Y-92403939D01*
X130731319Y-92383522D01*
X130680913Y-92364665D01*
X130634885Y-92347442D01*
X130593434Y-92331925D01*
X130556757Y-92318190D01*
X130525052Y-92306310D01*
X130498516Y-92296359D01*
X130477347Y-92288410D01*
X130461743Y-92282537D01*
X130451901Y-92278814D01*
X130448019Y-92277316D01*
X130440597Y-92274100D01*
X130440597Y-92183431D01*
X130440599Y-92174360D01*
X130440649Y-92149322D01*
X130440801Y-92129903D01*
X130441101Y-92115357D01*
X130441595Y-92104939D01*
X130442331Y-92097903D01*
X130443354Y-92093504D01*
X130444711Y-92090995D01*
X130446449Y-92089631D01*
X130447394Y-92089245D01*
X130453823Y-92086779D01*
X130466130Y-92082121D01*
X130484117Y-92075344D01*
X130507585Y-92066522D01*
X130536339Y-92055729D01*
X130570180Y-92043039D01*
X130608909Y-92028525D01*
X130652331Y-92012262D01*
X130700246Y-91994323D01*
X130752458Y-91974782D01*
X130808768Y-91953713D01*
X130868979Y-91931189D01*
X130932894Y-91907285D01*
X131000314Y-91882074D01*
X131071042Y-91855629D01*
X131144880Y-91828026D01*
X131221631Y-91799337D01*
X131301097Y-91769637D01*
X131383081Y-91738999D01*
X131467384Y-91707497D01*
X131553808Y-91675205D01*
X131642158Y-91642196D01*
X131732234Y-91608545D01*
X131823838Y-91574325D01*
X131916775Y-91539611D01*
X132010845Y-91504475D01*
X132105850Y-91468991D01*
X132201595Y-91433235D01*
X132297880Y-91397278D01*
X132394507Y-91361196D01*
X132491281Y-91325061D01*
X132588002Y-91288948D01*
X132684473Y-91252931D01*
X132780496Y-91217083D01*
X132875874Y-91181478D01*
X132970409Y-91146190D01*
X133063903Y-91111293D01*
X133156159Y-91076860D01*
X133246979Y-91042965D01*
X133336166Y-91009683D01*
X133423521Y-90977087D01*
X133508847Y-90945250D01*
X133591947Y-90914247D01*
X133672622Y-90884151D01*
X133750675Y-90855037D01*
X133825909Y-90826977D01*
X133898125Y-90800046D01*
X133967127Y-90774318D01*
X134032716Y-90749866D01*
X134094694Y-90726765D01*
X134152865Y-90705087D01*
X134207030Y-90684907D01*
X134256992Y-90666299D01*
X134302553Y-90649336D01*
X134343515Y-90634093D01*
X134379681Y-90620642D01*
X134410853Y-90609058D01*
X134436834Y-90599415D01*
X134457425Y-90591786D01*
X134472429Y-90586246D01*
X134481649Y-90582868D01*
X134484887Y-90581725D01*
X134485220Y-90582021D01*
G37*
X134485220Y-90582021D02*
X134486213Y-90587145D01*
X134487014Y-90598299D01*
X134487608Y-90615052D01*
X134487977Y-90636970D01*
X134488104Y-90663618D01*
X134488104Y-90745511D01*
X132665105Y-91422733D01*
X132597282Y-91447926D01*
X132468675Y-91495686D01*
X132343742Y-91542066D01*
X132222589Y-91587026D01*
X132105318Y-91630530D01*
X131992035Y-91672537D01*
X131882844Y-91713009D01*
X131777849Y-91751909D01*
X131677156Y-91789196D01*
X131580868Y-91824833D01*
X131489090Y-91858782D01*
X131401926Y-91891003D01*
X131319481Y-91921457D01*
X131241860Y-91950108D01*
X131169166Y-91976915D01*
X131101504Y-92001840D01*
X131038980Y-92024845D01*
X130981696Y-92045892D01*
X130929758Y-92064941D01*
X130883270Y-92081954D01*
X130842336Y-92096892D01*
X130807062Y-92109717D01*
X130777551Y-92120391D01*
X130753908Y-92128875D01*
X130736237Y-92135129D01*
X130724644Y-92139116D01*
X130722341Y-92139884D01*
X130695802Y-92148744D01*
X130671184Y-92156982D01*
X130649212Y-92164354D01*
X130630608Y-92170617D01*
X130616095Y-92175527D01*
X130606395Y-92178842D01*
X130602233Y-92180318D01*
X130602459Y-92180798D01*
X130607308Y-92183194D01*
X130617512Y-92187320D01*
X130632462Y-92192954D01*
X130651552Y-92199873D01*
X130674174Y-92207857D01*
X130699721Y-92216682D01*
X130727584Y-92226127D01*
X130740383Y-92230533D01*
X130759888Y-92237429D01*
X130785491Y-92246610D01*
X130817151Y-92258060D01*
X130854827Y-92271766D01*
X130898478Y-92287710D01*
X130948062Y-92305878D01*
X131003538Y-92326255D01*
X131064866Y-92348826D01*
X131132004Y-92373575D01*
X131204911Y-92400488D01*
X131283546Y-92429548D01*
X131367868Y-92460741D01*
X131457836Y-92494052D01*
X131553408Y-92529465D01*
X131654543Y-92566966D01*
X131761201Y-92606538D01*
X131873340Y-92648167D01*
X131990919Y-92691837D01*
X132113896Y-92737534D01*
X132242232Y-92785242D01*
X132375884Y-92834946D01*
X132514812Y-92886630D01*
X132658974Y-92940280D01*
X132661157Y-92941093D01*
X132766493Y-92980299D01*
X132870323Y-93018944D01*
X132972476Y-93056964D01*
X133072777Y-93094293D01*
X133171053Y-93130868D01*
X133267131Y-93166624D01*
X133360838Y-93201496D01*
X133452000Y-93235420D01*
X133540445Y-93268331D01*
X133625999Y-93300166D01*
X133708488Y-93330859D01*
X133787740Y-93360347D01*
X133863581Y-93388564D01*
X133935837Y-93415446D01*
X134004337Y-93440930D01*
X134068906Y-93464949D01*
X134129371Y-93487441D01*
X134185559Y-93508340D01*
X134237297Y-93527582D01*
X134284411Y-93545102D01*
X134326729Y-93560836D01*
X134364076Y-93574721D01*
X134396280Y-93586690D01*
X134423167Y-93596680D01*
X134444564Y-93604626D01*
X134460298Y-93610464D01*
X134470196Y-93614129D01*
X134474084Y-93615557D01*
X134488104Y-93620449D01*
X134488104Y-93702607D01*
X134488070Y-93716120D01*
X134487830Y-93739064D01*
X134487381Y-93758063D01*
X134486749Y-93772455D01*
X134485957Y-93781576D01*
X134485031Y-93784764D01*
X134484414Y-93784555D01*
X134478646Y-93782449D01*
X134466980Y-93778140D01*
X134449613Y-93771701D01*
X134426744Y-93763205D01*
X134398569Y-93752726D01*
X134365287Y-93740339D01*
X134327095Y-93726117D01*
X134284191Y-93710134D01*
X134236772Y-93692463D01*
X134185036Y-93673178D01*
X134129181Y-93652354D01*
X134069404Y-93630064D01*
X134005903Y-93606381D01*
X133938875Y-93581380D01*
X133868519Y-93555135D01*
X133795031Y-93527719D01*
X133718610Y-93499205D01*
X133639452Y-93469669D01*
X133557757Y-93439183D01*
X133473721Y-93407821D01*
X133387541Y-93375658D01*
X133299417Y-93342766D01*
X133209544Y-93309220D01*
X133118122Y-93275094D01*
X133025347Y-93240461D01*
X132931417Y-93205396D01*
X132836529Y-93169971D01*
X132740882Y-93134261D01*
X132644674Y-93098340D01*
X132548100Y-93062281D01*
X132451360Y-93026158D01*
X132354651Y-92990045D01*
X132258171Y-92954016D01*
X132162117Y-92918144D01*
X132066686Y-92882504D01*
X131972077Y-92847168D01*
X131878487Y-92812212D01*
X131786114Y-92777708D01*
X131695155Y-92743731D01*
X131605809Y-92710355D01*
X131518271Y-92677652D01*
X131432741Y-92645697D01*
X131349416Y-92614565D01*
X131268494Y-92584327D01*
X131190171Y-92555059D01*
X131114647Y-92526834D01*
X131042117Y-92499726D01*
X130972781Y-92473808D01*
X130906836Y-92449156D01*
X130844478Y-92425841D01*
X130785907Y-92403939D01*
X130731319Y-92383522D01*
X130680913Y-92364665D01*
X130634885Y-92347442D01*
X130593434Y-92331925D01*
X130556757Y-92318190D01*
X130525052Y-92306310D01*
X130498516Y-92296359D01*
X130477347Y-92288410D01*
X130461743Y-92282537D01*
X130451901Y-92278814D01*
X130448019Y-92277316D01*
X130440597Y-92274100D01*
X130440597Y-92183431D01*
X130440599Y-92174360D01*
X130440649Y-92149322D01*
X130440801Y-92129903D01*
X130441101Y-92115357D01*
X130441595Y-92104939D01*
X130442331Y-92097903D01*
X130443354Y-92093504D01*
X130444711Y-92090995D01*
X130446449Y-92089631D01*
X130447394Y-92089245D01*
X130453823Y-92086779D01*
X130466130Y-92082121D01*
X130484117Y-92075344D01*
X130507585Y-92066522D01*
X130536339Y-92055729D01*
X130570180Y-92043039D01*
X130608909Y-92028525D01*
X130652331Y-92012262D01*
X130700246Y-91994323D01*
X130752458Y-91974782D01*
X130808768Y-91953713D01*
X130868979Y-91931189D01*
X130932894Y-91907285D01*
X131000314Y-91882074D01*
X131071042Y-91855629D01*
X131144880Y-91828026D01*
X131221631Y-91799337D01*
X131301097Y-91769637D01*
X131383081Y-91738999D01*
X131467384Y-91707497D01*
X131553808Y-91675205D01*
X131642158Y-91642196D01*
X131732234Y-91608545D01*
X131823838Y-91574325D01*
X131916775Y-91539611D01*
X132010845Y-91504475D01*
X132105850Y-91468991D01*
X132201595Y-91433235D01*
X132297880Y-91397278D01*
X132394507Y-91361196D01*
X132491281Y-91325061D01*
X132588002Y-91288948D01*
X132684473Y-91252931D01*
X132780496Y-91217083D01*
X132875874Y-91181478D01*
X132970409Y-91146190D01*
X133063903Y-91111293D01*
X133156159Y-91076860D01*
X133246979Y-91042965D01*
X133336166Y-91009683D01*
X133423521Y-90977087D01*
X133508847Y-90945250D01*
X133591947Y-90914247D01*
X133672622Y-90884151D01*
X133750675Y-90855037D01*
X133825909Y-90826977D01*
X133898125Y-90800046D01*
X133967127Y-90774318D01*
X134032716Y-90749866D01*
X134094694Y-90726765D01*
X134152865Y-90705087D01*
X134207030Y-90684907D01*
X134256992Y-90666299D01*
X134302553Y-90649336D01*
X134343515Y-90634093D01*
X134379681Y-90620642D01*
X134410853Y-90609058D01*
X134436834Y-90599415D01*
X134457425Y-90591786D01*
X134472429Y-90586246D01*
X134481649Y-90582868D01*
X134484887Y-90581725D01*
X134485220Y-90582021D01*
G36*
X130445154Y-100669219D02*
G01*
X130449103Y-100671563D01*
X130458467Y-100677191D01*
X130473058Y-100685986D01*
X130492685Y-100697835D01*
X130517160Y-100712623D01*
X130546292Y-100730234D01*
X130579893Y-100750555D01*
X130617773Y-100773471D01*
X130659743Y-100798866D01*
X130705612Y-100826627D01*
X130755193Y-100856639D01*
X130808294Y-100888786D01*
X130864728Y-100922955D01*
X130924304Y-100959031D01*
X130986834Y-100996898D01*
X131052127Y-101036443D01*
X131119994Y-101077550D01*
X131190246Y-101120106D01*
X131262693Y-101163995D01*
X131337147Y-101209102D01*
X131413417Y-101255313D01*
X131491314Y-101302514D01*
X131570649Y-101350589D01*
X131586037Y-101359914D01*
X131665122Y-101407837D01*
X131742738Y-101454865D01*
X131818696Y-101500885D01*
X131892805Y-101545781D01*
X131964875Y-101589438D01*
X132034718Y-101631742D01*
X132102144Y-101672578D01*
X132166963Y-101711830D01*
X132228984Y-101749385D01*
X132288020Y-101785128D01*
X132343879Y-101818943D01*
X132396372Y-101850715D01*
X132445310Y-101880331D01*
X132490503Y-101907675D01*
X132531761Y-101932632D01*
X132568895Y-101955088D01*
X132601714Y-101974928D01*
X132630030Y-101992036D01*
X132653652Y-102006299D01*
X132672391Y-102017601D01*
X132686057Y-102025828D01*
X132694461Y-102030864D01*
X132697413Y-102032596D01*
X132697952Y-102032258D01*
X132702873Y-102028672D01*
X132712763Y-102021284D01*
X132727430Y-102010240D01*
X132746685Y-101995686D01*
X132770335Y-101977766D01*
X132798191Y-101956626D01*
X132830061Y-101932411D01*
X132865755Y-101905268D01*
X132905081Y-101875340D01*
X132947849Y-101842774D01*
X132993869Y-101807715D01*
X133042948Y-101770308D01*
X133094897Y-101730698D01*
X133149524Y-101689032D01*
X133206639Y-101645454D01*
X133266051Y-101600110D01*
X133327569Y-101553145D01*
X133391001Y-101504705D01*
X133456159Y-101454934D01*
X133522849Y-101403979D01*
X133590882Y-101351985D01*
X133619558Y-101330067D01*
X133687066Y-101278474D01*
X133753155Y-101227972D01*
X133817634Y-101178707D01*
X133880311Y-101130825D01*
X133940997Y-101084472D01*
X133999499Y-101039793D01*
X134055627Y-100996934D01*
X134109189Y-100956042D01*
X134159995Y-100917262D01*
X134207852Y-100880739D01*
X134252571Y-100846620D01*
X134293961Y-100815051D01*
X134331829Y-100786176D01*
X134365985Y-100760143D01*
X134396238Y-100737096D01*
X134422397Y-100717182D01*
X134444270Y-100700546D01*
X134461667Y-100687335D01*
X134474396Y-100677693D01*
X134482267Y-100671768D01*
X134485088Y-100669703D01*
X134485371Y-100671606D01*
X134485715Y-100679751D01*
X134486041Y-100694107D01*
X134486345Y-100714456D01*
X134486628Y-100740580D01*
X134486888Y-100772263D01*
X134487125Y-100809287D01*
X134487336Y-100851436D01*
X134487522Y-100898492D01*
X134487680Y-100950238D01*
X134487811Y-101006456D01*
X134487912Y-101066931D01*
X134487983Y-101131444D01*
X134488023Y-101199778D01*
X134488030Y-101271716D01*
X134487957Y-101874829D01*
X133839011Y-102320328D01*
X133808300Y-102341404D01*
X133740738Y-102387726D01*
X133673419Y-102433822D01*
X133606687Y-102479458D01*
X133540889Y-102524399D01*
X133476370Y-102568410D01*
X133413476Y-102611256D01*
X133352554Y-102652703D01*
X133293948Y-102692515D01*
X133238006Y-102730457D01*
X133185072Y-102766296D01*
X133135492Y-102799796D01*
X133089613Y-102830721D01*
X133047779Y-102858839D01*
X133010338Y-102883912D01*
X132977634Y-102905708D01*
X132950014Y-102923990D01*
X132709964Y-103082154D01*
X133599034Y-103082984D01*
X134488104Y-103083815D01*
X134488104Y-104060219D01*
X130440597Y-104060219D01*
X130440597Y-103083803D01*
X131509082Y-103083803D01*
X131727084Y-102885115D01*
X131750939Y-102863362D01*
X131787000Y-102830424D01*
X131818549Y-102801522D01*
X131845836Y-102776423D01*
X131869106Y-102754891D01*
X131888607Y-102736693D01*
X131904586Y-102721594D01*
X131917290Y-102709359D01*
X131926967Y-102699756D01*
X131933863Y-102692548D01*
X131938226Y-102687502D01*
X131940304Y-102684383D01*
X131940342Y-102682958D01*
X131938483Y-102681845D01*
X131931161Y-102677589D01*
X131918529Y-102670296D01*
X131900826Y-102660103D01*
X131878293Y-102647146D01*
X131851169Y-102631565D01*
X131819694Y-102613495D01*
X131784106Y-102593074D01*
X131744646Y-102570440D01*
X131701553Y-102545730D01*
X131655066Y-102519081D01*
X131605425Y-102490631D01*
X131552870Y-102460516D01*
X131497640Y-102428875D01*
X131439974Y-102395845D01*
X131380113Y-102361562D01*
X131318295Y-102326165D01*
X131254760Y-102289790D01*
X131189748Y-102252575D01*
X130443896Y-101825660D01*
X130443896Y-101247407D01*
X130443897Y-101223734D01*
X130443908Y-101163151D01*
X130443931Y-101104496D01*
X130443966Y-101048101D01*
X130444011Y-100994302D01*
X130444066Y-100943430D01*
X130444131Y-100895821D01*
X130444205Y-100851807D01*
X130444287Y-100811721D01*
X130444376Y-100775899D01*
X130444472Y-100744672D01*
X130444574Y-100718375D01*
X130444682Y-100697341D01*
X130444794Y-100681904D01*
X130444911Y-100672397D01*
X130445031Y-100669154D01*
X130445154Y-100669219D01*
G37*
X130445154Y-100669219D02*
X130449103Y-100671563D01*
X130458467Y-100677191D01*
X130473058Y-100685986D01*
X130492685Y-100697835D01*
X130517160Y-100712623D01*
X130546292Y-100730234D01*
X130579893Y-100750555D01*
X130617773Y-100773471D01*
X130659743Y-100798866D01*
X130705612Y-100826627D01*
X130755193Y-100856639D01*
X130808294Y-100888786D01*
X130864728Y-100922955D01*
X130924304Y-100959031D01*
X130986834Y-100996898D01*
X131052127Y-101036443D01*
X131119994Y-101077550D01*
X131190246Y-101120106D01*
X131262693Y-101163995D01*
X131337147Y-101209102D01*
X131413417Y-101255313D01*
X131491314Y-101302514D01*
X131570649Y-101350589D01*
X131586037Y-101359914D01*
X131665122Y-101407837D01*
X131742738Y-101454865D01*
X131818696Y-101500885D01*
X131892805Y-101545781D01*
X131964875Y-101589438D01*
X132034718Y-101631742D01*
X132102144Y-101672578D01*
X132166963Y-101711830D01*
X132228984Y-101749385D01*
X132288020Y-101785128D01*
X132343879Y-101818943D01*
X132396372Y-101850715D01*
X132445310Y-101880331D01*
X132490503Y-101907675D01*
X132531761Y-101932632D01*
X132568895Y-101955088D01*
X132601714Y-101974928D01*
X132630030Y-101992036D01*
X132653652Y-102006299D01*
X132672391Y-102017601D01*
X132686057Y-102025828D01*
X132694461Y-102030864D01*
X132697413Y-102032596D01*
X132697952Y-102032258D01*
X132702873Y-102028672D01*
X132712763Y-102021284D01*
X132727430Y-102010240D01*
X132746685Y-101995686D01*
X132770335Y-101977766D01*
X132798191Y-101956626D01*
X132830061Y-101932411D01*
X132865755Y-101905268D01*
X132905081Y-101875340D01*
X132947849Y-101842774D01*
X132993869Y-101807715D01*
X133042948Y-101770308D01*
X133094897Y-101730698D01*
X133149524Y-101689032D01*
X133206639Y-101645454D01*
X133266051Y-101600110D01*
X133327569Y-101553145D01*
X133391001Y-101504705D01*
X133456159Y-101454934D01*
X133522849Y-101403979D01*
X133590882Y-101351985D01*
X133619558Y-101330067D01*
X133687066Y-101278474D01*
X133753155Y-101227972D01*
X133817634Y-101178707D01*
X133880311Y-101130825D01*
X133940997Y-101084472D01*
X133999499Y-101039793D01*
X134055627Y-100996934D01*
X134109189Y-100956042D01*
X134159995Y-100917262D01*
X134207852Y-100880739D01*
X134252571Y-100846620D01*
X134293961Y-100815051D01*
X134331829Y-100786176D01*
X134365985Y-100760143D01*
X134396238Y-100737096D01*
X134422397Y-100717182D01*
X134444270Y-100700546D01*
X134461667Y-100687335D01*
X134474396Y-100677693D01*
X134482267Y-100671768D01*
X134485088Y-100669703D01*
X134485371Y-100671606D01*
X134485715Y-100679751D01*
X134486041Y-100694107D01*
X134486345Y-100714456D01*
X134486628Y-100740580D01*
X134486888Y-100772263D01*
X134487125Y-100809287D01*
X134487336Y-100851436D01*
X134487522Y-100898492D01*
X134487680Y-100950238D01*
X134487811Y-101006456D01*
X134487912Y-101066931D01*
X134487983Y-101131444D01*
X134488023Y-101199778D01*
X134488030Y-101271716D01*
X134487957Y-101874829D01*
X133839011Y-102320328D01*
X133808300Y-102341404D01*
X133740738Y-102387726D01*
X133673419Y-102433822D01*
X133606687Y-102479458D01*
X133540889Y-102524399D01*
X133476370Y-102568410D01*
X133413476Y-102611256D01*
X133352554Y-102652703D01*
X133293948Y-102692515D01*
X133238006Y-102730457D01*
X133185072Y-102766296D01*
X133135492Y-102799796D01*
X133089613Y-102830721D01*
X133047779Y-102858839D01*
X133010338Y-102883912D01*
X132977634Y-102905708D01*
X132950014Y-102923990D01*
X132709964Y-103082154D01*
X133599034Y-103082984D01*
X134488104Y-103083815D01*
X134488104Y-104060219D01*
X130440597Y-104060219D01*
X130440597Y-103083803D01*
X131509082Y-103083803D01*
X131727084Y-102885115D01*
X131750939Y-102863362D01*
X131787000Y-102830424D01*
X131818549Y-102801522D01*
X131845836Y-102776423D01*
X131869106Y-102754891D01*
X131888607Y-102736693D01*
X131904586Y-102721594D01*
X131917290Y-102709359D01*
X131926967Y-102699756D01*
X131933863Y-102692548D01*
X131938226Y-102687502D01*
X131940304Y-102684383D01*
X131940342Y-102682958D01*
X131938483Y-102681845D01*
X131931161Y-102677589D01*
X131918529Y-102670296D01*
X131900826Y-102660103D01*
X131878293Y-102647146D01*
X131851169Y-102631565D01*
X131819694Y-102613495D01*
X131784106Y-102593074D01*
X131744646Y-102570440D01*
X131701553Y-102545730D01*
X131655066Y-102519081D01*
X131605425Y-102490631D01*
X131552870Y-102460516D01*
X131497640Y-102428875D01*
X131439974Y-102395845D01*
X131380113Y-102361562D01*
X131318295Y-102326165D01*
X131254760Y-102289790D01*
X131189748Y-102252575D01*
X130443896Y-101825660D01*
X130443896Y-101247407D01*
X130443897Y-101223734D01*
X130443908Y-101163151D01*
X130443931Y-101104496D01*
X130443966Y-101048101D01*
X130444011Y-100994302D01*
X130444066Y-100943430D01*
X130444131Y-100895821D01*
X130444205Y-100851807D01*
X130444287Y-100811721D01*
X130444376Y-100775899D01*
X130444472Y-100744672D01*
X130444574Y-100718375D01*
X130444682Y-100697341D01*
X130444794Y-100681904D01*
X130444911Y-100672397D01*
X130445031Y-100669154D01*
X130445154Y-100669219D01*
G36*
X130592337Y-89780141D02*
G01*
X132446207Y-89780141D01*
X132446207Y-87751439D01*
X132597948Y-87751439D01*
X132597948Y-89780141D01*
X134336363Y-89780141D01*
X134336363Y-87467751D01*
X134488104Y-87467751D01*
X134488104Y-89931881D01*
X130440597Y-89931881D01*
X130440597Y-87467751D01*
X130592337Y-87467751D01*
X130592337Y-89780141D01*
G37*
X130592337Y-89780141D02*
X132446207Y-89780141D01*
X132446207Y-87751439D01*
X132597948Y-87751439D01*
X132597948Y-89780141D01*
X134336363Y-89780141D01*
X134336363Y-87467751D01*
X134488104Y-87467751D01*
X134488104Y-89931881D01*
X130440597Y-89931881D01*
X130440597Y-87467751D01*
X130592337Y-87467751D01*
X130592337Y-89780141D01*
G36*
X130441411Y-96751121D02*
G01*
X130442246Y-96263738D01*
X131157240Y-96262906D01*
X131859343Y-96262089D01*
X132624036Y-96262089D01*
X133736000Y-96262089D01*
X133735966Y-95936342D01*
X133735953Y-95908458D01*
X133735876Y-95855380D01*
X133735730Y-95805629D01*
X133735520Y-95759569D01*
X133735248Y-95717563D01*
X133734918Y-95679975D01*
X133734534Y-95647167D01*
X133734098Y-95619504D01*
X133733615Y-95597348D01*
X133733088Y-95581062D01*
X133732520Y-95571011D01*
X133728854Y-95537241D01*
X133717965Y-95475989D01*
X133702022Y-95418950D01*
X133681095Y-95366196D01*
X133655251Y-95317798D01*
X133624560Y-95273830D01*
X133589091Y-95234362D01*
X133548912Y-95199468D01*
X133504093Y-95169219D01*
X133454702Y-95143688D01*
X133400807Y-95122947D01*
X133342479Y-95107068D01*
X133279785Y-95096124D01*
X133256542Y-95093795D01*
X133227071Y-95092104D01*
X133194702Y-95091243D01*
X133161320Y-95091213D01*
X133128811Y-95092012D01*
X133099061Y-95093643D01*
X133073954Y-95096104D01*
X133055405Y-95098735D01*
X132995287Y-95110646D01*
X132939743Y-95127187D01*
X132888598Y-95148439D01*
X132841677Y-95174482D01*
X132798804Y-95205397D01*
X132759804Y-95241267D01*
X132742764Y-95259829D01*
X132716555Y-95293179D01*
X132694027Y-95328925D01*
X132674811Y-95367856D01*
X132658539Y-95410759D01*
X132644841Y-95458423D01*
X132633350Y-95511634D01*
X132633038Y-95513316D01*
X132632001Y-95519203D01*
X132631077Y-95525211D01*
X132630260Y-95531743D01*
X132629540Y-95539205D01*
X132628910Y-95548001D01*
X132628361Y-95558537D01*
X132627884Y-95571216D01*
X132627472Y-95586445D01*
X132627117Y-95604627D01*
X132626809Y-95626168D01*
X132626541Y-95651473D01*
X132626305Y-95680946D01*
X132626091Y-95714992D01*
X132625893Y-95754016D01*
X132625701Y-95798423D01*
X132625507Y-95848617D01*
X132625303Y-95905004D01*
X132624036Y-96262089D01*
X131859343Y-96262089D01*
X131872233Y-96262074D01*
X131872141Y-95999010D01*
X131872048Y-95735946D01*
X131156322Y-95379087D01*
X130440597Y-95022229D01*
X130440597Y-93976089D01*
X130483072Y-93976089D01*
X131269192Y-94382125D01*
X131333455Y-94415318D01*
X131400075Y-94449730D01*
X131465121Y-94483329D01*
X131528339Y-94515987D01*
X131589478Y-94547571D01*
X131648286Y-94577953D01*
X131704511Y-94607001D01*
X131757900Y-94634586D01*
X131808201Y-94660577D01*
X131855163Y-94684844D01*
X131898532Y-94707256D01*
X131938056Y-94727683D01*
X131973485Y-94745995D01*
X132004564Y-94762061D01*
X132031043Y-94775752D01*
X132052668Y-94786937D01*
X132069189Y-94795485D01*
X132080351Y-94801267D01*
X132085905Y-94804151D01*
X132116498Y-94820141D01*
X132137595Y-94778040D01*
X132173478Y-94710828D01*
X132215372Y-94641532D01*
X132260298Y-94575790D01*
X132307791Y-94514203D01*
X132357385Y-94457374D01*
X132408616Y-94405901D01*
X132461017Y-94360387D01*
X132503570Y-94328036D01*
X132567140Y-94285778D01*
X132633844Y-94248399D01*
X132703966Y-94215794D01*
X132777793Y-94187859D01*
X132855608Y-94164489D01*
X132937699Y-94145581D01*
X133024349Y-94131030D01*
X133115844Y-94120731D01*
X133125074Y-94120022D01*
X133147857Y-94118793D01*
X133174940Y-94117854D01*
X133205113Y-94117207D01*
X133237165Y-94116849D01*
X133269886Y-94116782D01*
X133302067Y-94117005D01*
X133332497Y-94117517D01*
X133359966Y-94118319D01*
X133383264Y-94119410D01*
X133401181Y-94120790D01*
X133403878Y-94121070D01*
X133490666Y-94132466D01*
X133572686Y-94148121D01*
X133650338Y-94168203D01*
X133724023Y-94192878D01*
X133794140Y-94222314D01*
X133861088Y-94256678D01*
X133925268Y-94296138D01*
X133987079Y-94340860D01*
X134046920Y-94391012D01*
X134085685Y-94427955D01*
X134135546Y-94482107D01*
X134183142Y-94541442D01*
X134227976Y-94605240D01*
X134269547Y-94672777D01*
X134307356Y-94743333D01*
X134340905Y-94816185D01*
X134358038Y-94858301D01*
X134387898Y-94941553D01*
X134413706Y-95027975D01*
X134435543Y-95117966D01*
X134453489Y-95211920D01*
X134467626Y-95310234D01*
X134478034Y-95413305D01*
X134484794Y-95521530D01*
X134484825Y-95522253D01*
X134485156Y-95533659D01*
X134485473Y-95551403D01*
X134485776Y-95575247D01*
X134486065Y-95604953D01*
X134486338Y-95640282D01*
X134486595Y-95680998D01*
X134486834Y-95726861D01*
X134487054Y-95777635D01*
X134487256Y-95833081D01*
X134487437Y-95892961D01*
X134487598Y-95957038D01*
X134487736Y-96025074D01*
X134487852Y-96096830D01*
X134487945Y-96172069D01*
X134488013Y-96250552D01*
X134488056Y-96332043D01*
X134488072Y-96416303D01*
X134488104Y-97238504D01*
X130440575Y-97238504D01*
X130441411Y-96751121D01*
G37*
X130441411Y-96751121D02*
X130442246Y-96263738D01*
X131157240Y-96262906D01*
X131859343Y-96262089D01*
X132624036Y-96262089D01*
X133736000Y-96262089D01*
X133735966Y-95936342D01*
X133735953Y-95908458D01*
X133735876Y-95855380D01*
X133735730Y-95805629D01*
X133735520Y-95759569D01*
X133735248Y-95717563D01*
X133734918Y-95679975D01*
X133734534Y-95647167D01*
X133734098Y-95619504D01*
X133733615Y-95597348D01*
X133733088Y-95581062D01*
X133732520Y-95571011D01*
X133728854Y-95537241D01*
X133717965Y-95475989D01*
X133702022Y-95418950D01*
X133681095Y-95366196D01*
X133655251Y-95317798D01*
X133624560Y-95273830D01*
X133589091Y-95234362D01*
X133548912Y-95199468D01*
X133504093Y-95169219D01*
X133454702Y-95143688D01*
X133400807Y-95122947D01*
X133342479Y-95107068D01*
X133279785Y-95096124D01*
X133256542Y-95093795D01*
X133227071Y-95092104D01*
X133194702Y-95091243D01*
X133161320Y-95091213D01*
X133128811Y-95092012D01*
X133099061Y-95093643D01*
X133073954Y-95096104D01*
X133055405Y-95098735D01*
X132995287Y-95110646D01*
X132939743Y-95127187D01*
X132888598Y-95148439D01*
X132841677Y-95174482D01*
X132798804Y-95205397D01*
X132759804Y-95241267D01*
X132742764Y-95259829D01*
X132716555Y-95293179D01*
X132694027Y-95328925D01*
X132674811Y-95367856D01*
X132658539Y-95410759D01*
X132644841Y-95458423D01*
X132633350Y-95511634D01*
X132633038Y-95513316D01*
X132632001Y-95519203D01*
X132631077Y-95525211D01*
X132630260Y-95531743D01*
X132629540Y-95539205D01*
X132628910Y-95548001D01*
X132628361Y-95558537D01*
X132627884Y-95571216D01*
X132627472Y-95586445D01*
X132627117Y-95604627D01*
X132626809Y-95626168D01*
X132626541Y-95651473D01*
X132626305Y-95680946D01*
X132626091Y-95714992D01*
X132625893Y-95754016D01*
X132625701Y-95798423D01*
X132625507Y-95848617D01*
X132625303Y-95905004D01*
X132624036Y-96262089D01*
X131859343Y-96262089D01*
X131872233Y-96262074D01*
X131872141Y-95999010D01*
X131872048Y-95735946D01*
X131156322Y-95379087D01*
X130440597Y-95022229D01*
X130440597Y-93976089D01*
X130483072Y-93976089D01*
X131269192Y-94382125D01*
X131333455Y-94415318D01*
X131400075Y-94449730D01*
X131465121Y-94483329D01*
X131528339Y-94515987D01*
X131589478Y-94547571D01*
X131648286Y-94577953D01*
X131704511Y-94607001D01*
X131757900Y-94634586D01*
X131808201Y-94660577D01*
X131855163Y-94684844D01*
X131898532Y-94707256D01*
X131938056Y-94727683D01*
X131973485Y-94745995D01*
X132004564Y-94762061D01*
X132031043Y-94775752D01*
X132052668Y-94786937D01*
X132069189Y-94795485D01*
X132080351Y-94801267D01*
X132085905Y-94804151D01*
X132116498Y-94820141D01*
X132137595Y-94778040D01*
X132173478Y-94710828D01*
X132215372Y-94641532D01*
X132260298Y-94575790D01*
X132307791Y-94514203D01*
X132357385Y-94457374D01*
X132408616Y-94405901D01*
X132461017Y-94360387D01*
X132503570Y-94328036D01*
X132567140Y-94285778D01*
X132633844Y-94248399D01*
X132703966Y-94215794D01*
X132777793Y-94187859D01*
X132855608Y-94164489D01*
X132937699Y-94145581D01*
X133024349Y-94131030D01*
X133115844Y-94120731D01*
X133125074Y-94120022D01*
X133147857Y-94118793D01*
X133174940Y-94117854D01*
X133205113Y-94117207D01*
X133237165Y-94116849D01*
X133269886Y-94116782D01*
X133302067Y-94117005D01*
X133332497Y-94117517D01*
X133359966Y-94118319D01*
X133383264Y-94119410D01*
X133401181Y-94120790D01*
X133403878Y-94121070D01*
X133490666Y-94132466D01*
X133572686Y-94148121D01*
X133650338Y-94168203D01*
X133724023Y-94192878D01*
X133794140Y-94222314D01*
X133861088Y-94256678D01*
X133925268Y-94296138D01*
X133987079Y-94340860D01*
X134046920Y-94391012D01*
X134085685Y-94427955D01*
X134135546Y-94482107D01*
X134183142Y-94541442D01*
X134227976Y-94605240D01*
X134269547Y-94672777D01*
X134307356Y-94743333D01*
X134340905Y-94816185D01*
X134358038Y-94858301D01*
X134387898Y-94941553D01*
X134413706Y-95027975D01*
X134435543Y-95117966D01*
X134453489Y-95211920D01*
X134467626Y-95310234D01*
X134478034Y-95413305D01*
X134484794Y-95521530D01*
X134484825Y-95522253D01*
X134485156Y-95533659D01*
X134485473Y-95551403D01*
X134485776Y-95575247D01*
X134486065Y-95604953D01*
X134486338Y-95640282D01*
X134486595Y-95680998D01*
X134486834Y-95726861D01*
X134487054Y-95777635D01*
X134487256Y-95833081D01*
X134487437Y-95892961D01*
X134487598Y-95957038D01*
X134487736Y-96025074D01*
X134487852Y-96096830D01*
X134487945Y-96172069D01*
X134488013Y-96250552D01*
X134488056Y-96332043D01*
X134488072Y-96416303D01*
X134488104Y-97238504D01*
X130440575Y-97238504D01*
X130441411Y-96751121D01*
G36*
X134488104Y-100421751D02*
G01*
X130440597Y-100421751D01*
X130440597Y-97634348D01*
X131192701Y-97634348D01*
X131192701Y-99445335D01*
X132159220Y-99445335D01*
X132159220Y-97911439D01*
X132881636Y-97911439D01*
X132881636Y-99445335D01*
X133732701Y-99445335D01*
X133732701Y-97627751D01*
X134488104Y-97627751D01*
X134488104Y-100421751D01*
G37*
X134488104Y-100421751D02*
X130440597Y-100421751D01*
X130440597Y-97634348D01*
X131192701Y-97634348D01*
X131192701Y-99445335D01*
X132159220Y-99445335D01*
X132159220Y-97911439D01*
X132881636Y-97911439D01*
X132881636Y-99445335D01*
X133732701Y-99445335D01*
X133732701Y-97627751D01*
X134488104Y-97627751D01*
X134488104Y-100421751D01*
G36*
X131478593Y-80394657D02*
G01*
X131509737Y-80396637D01*
X131538191Y-80399279D01*
X131565967Y-80402772D01*
X131595074Y-80407306D01*
X131600773Y-80408281D01*
X131676033Y-80424626D01*
X131748460Y-80446923D01*
X131818029Y-80475155D01*
X131884713Y-80509304D01*
X131948487Y-80549352D01*
X132009324Y-80595281D01*
X132067199Y-80647074D01*
X132122086Y-80704713D01*
X132173959Y-80768180D01*
X132222791Y-80837457D01*
X132225711Y-80841929D01*
X132262038Y-80900629D01*
X132297304Y-80963431D01*
X132331605Y-81030585D01*
X132365041Y-81102339D01*
X132397709Y-81178944D01*
X132429707Y-81260648D01*
X132461133Y-81347702D01*
X132492085Y-81440354D01*
X132522662Y-81538855D01*
X132552961Y-81643454D01*
X132583080Y-81754400D01*
X132590534Y-81782470D01*
X132622390Y-81897002D01*
X132654867Y-82005053D01*
X132687995Y-82106695D01*
X132721805Y-82202000D01*
X132756328Y-82291042D01*
X132791593Y-82373893D01*
X132827632Y-82450625D01*
X132864476Y-82521313D01*
X132902154Y-82586027D01*
X132940698Y-82644842D01*
X132980137Y-82697829D01*
X132999039Y-82720746D01*
X133047374Y-82772597D01*
X133098799Y-82818642D01*
X133153266Y-82858853D01*
X133210724Y-82893203D01*
X133271126Y-82921664D01*
X133334421Y-82944209D01*
X133400562Y-82960811D01*
X133469500Y-82971441D01*
X133482711Y-82972636D01*
X133509427Y-82974078D01*
X133539327Y-82974740D01*
X133570464Y-82974639D01*
X133600887Y-82973790D01*
X133628648Y-82972209D01*
X133651798Y-82969914D01*
X133695464Y-82962775D01*
X133758905Y-82947019D01*
X133819953Y-82925169D01*
X133878688Y-82897189D01*
X133935186Y-82863038D01*
X133989525Y-82822679D01*
X134041783Y-82776072D01*
X134072045Y-82745359D01*
X134124614Y-82684802D01*
X134172575Y-82619607D01*
X134215885Y-82549869D01*
X134254500Y-82475683D01*
X134288377Y-82397145D01*
X134317472Y-82314351D01*
X134341743Y-82227396D01*
X134361144Y-82136376D01*
X134375634Y-82041387D01*
X134377282Y-82027855D01*
X134381672Y-81988267D01*
X134385031Y-81951104D01*
X134387462Y-81914564D01*
X134389070Y-81876848D01*
X134389961Y-81836156D01*
X134390239Y-81790686D01*
X134390208Y-81776630D01*
X134389171Y-81715810D01*
X134386565Y-81659649D01*
X134382249Y-81606678D01*
X134376082Y-81555428D01*
X134367921Y-81504431D01*
X134357625Y-81452217D01*
X134353158Y-81432052D01*
X134330779Y-81347163D01*
X134303430Y-81266405D01*
X134270924Y-81189402D01*
X134233070Y-81115780D01*
X134189682Y-81045165D01*
X134140570Y-80977181D01*
X134085546Y-80911455D01*
X134040461Y-80864298D01*
X133981255Y-80810734D01*
X133918630Y-80762741D01*
X133852792Y-80720419D01*
X133783952Y-80683863D01*
X133712317Y-80653173D01*
X133638096Y-80628446D01*
X133561498Y-80609780D01*
X133482732Y-80597272D01*
X133402006Y-80591021D01*
X133346753Y-80588929D01*
X133346753Y-80437255D01*
X133410253Y-80439247D01*
X133427412Y-80439912D01*
X133451409Y-80441193D01*
X133474781Y-80442792D01*
X133495537Y-80444570D01*
X133511688Y-80446387D01*
X133589916Y-80459555D01*
X133674906Y-80479934D01*
X133757049Y-80506164D01*
X133836163Y-80538124D01*
X133912066Y-80575695D01*
X133984574Y-80618758D01*
X134053505Y-80667194D01*
X134118677Y-80720885D01*
X134179908Y-80779710D01*
X134237014Y-80843551D01*
X134289813Y-80912288D01*
X134338123Y-80985803D01*
X134358653Y-81021573D01*
X134383242Y-81069186D01*
X134407305Y-81120716D01*
X134430233Y-81174719D01*
X134451419Y-81229750D01*
X134470252Y-81284363D01*
X134486125Y-81337115D01*
X134497870Y-81382839D01*
X134515368Y-81467411D01*
X134528607Y-81555746D01*
X134537593Y-81647031D01*
X134542329Y-81740453D01*
X134542818Y-81835199D01*
X134539064Y-81930457D01*
X134531072Y-82025412D01*
X134518844Y-82119252D01*
X134502385Y-82211165D01*
X134481698Y-82300335D01*
X134459359Y-82377492D01*
X134430874Y-82458353D01*
X134398184Y-82535941D01*
X134361505Y-82609957D01*
X134321054Y-82680099D01*
X134277045Y-82746068D01*
X134229696Y-82807565D01*
X134179224Y-82864288D01*
X134125843Y-82915938D01*
X134069770Y-82962215D01*
X134011222Y-83002818D01*
X133950415Y-83037449D01*
X133913275Y-83055290D01*
X133854599Y-83079020D01*
X133793905Y-83098105D01*
X133730022Y-83112893D01*
X133661779Y-83123736D01*
X133659752Y-83123981D01*
X133641849Y-83125513D01*
X133618948Y-83126655D01*
X133592444Y-83127407D01*
X133563731Y-83127769D01*
X133534203Y-83127741D01*
X133505254Y-83127324D01*
X133478277Y-83126517D01*
X133454667Y-83125321D01*
X133435818Y-83123735D01*
X133363591Y-83113282D01*
X133292870Y-83097716D01*
X133226149Y-83077189D01*
X133163080Y-83051539D01*
X133103313Y-83020604D01*
X133046499Y-82984223D01*
X132992289Y-82942235D01*
X132940334Y-82894477D01*
X132919691Y-82873327D01*
X132881571Y-82830839D01*
X132844783Y-82785108D01*
X132809205Y-82735878D01*
X132774714Y-82682890D01*
X132741189Y-82625886D01*
X132708506Y-82564610D01*
X132676543Y-82498803D01*
X132645177Y-82428208D01*
X132614286Y-82352566D01*
X132583748Y-82271621D01*
X132553440Y-82185114D01*
X132523239Y-82092788D01*
X132493023Y-81994385D01*
X132462670Y-81889647D01*
X132440204Y-81810638D01*
X132417083Y-81730851D01*
X132395088Y-81656701D01*
X132374073Y-81587769D01*
X132353892Y-81523635D01*
X132334399Y-81463878D01*
X132315448Y-81408079D01*
X132296894Y-81355818D01*
X132278589Y-81306673D01*
X132260388Y-81260226D01*
X132242144Y-81216057D01*
X132223713Y-81173744D01*
X132204947Y-81132869D01*
X132185701Y-81093011D01*
X132161398Y-81045356D01*
X132131509Y-80991008D01*
X132102073Y-80942351D01*
X132072817Y-80898917D01*
X132033612Y-80846762D01*
X131988136Y-80793092D01*
X131941608Y-80745487D01*
X131893677Y-80703669D01*
X131843993Y-80667360D01*
X131792204Y-80636283D01*
X131737960Y-80610161D01*
X131680909Y-80588714D01*
X131656599Y-80581204D01*
X131592843Y-80565540D01*
X131527262Y-80554874D01*
X131460743Y-80549197D01*
X131394175Y-80548496D01*
X131328446Y-80552762D01*
X131264444Y-80561984D01*
X131203058Y-80576150D01*
X131145175Y-80595250D01*
X131131028Y-80600891D01*
X131070229Y-80629404D01*
X131012046Y-80663848D01*
X130956433Y-80704263D01*
X130903344Y-80750689D01*
X130852733Y-80803166D01*
X130804554Y-80861731D01*
X130758760Y-80926426D01*
X130718883Y-80991634D01*
X130678427Y-81069544D01*
X130643049Y-81151632D01*
X130612757Y-81237871D01*
X130587561Y-81328232D01*
X130567470Y-81422686D01*
X130552491Y-81521206D01*
X130542634Y-81623763D01*
X130541770Y-81638984D01*
X130540862Y-81664858D01*
X130540285Y-81695118D01*
X130540026Y-81728667D01*
X130540070Y-81764406D01*
X130540400Y-81801237D01*
X130541003Y-81838062D01*
X130541862Y-81873783D01*
X130542964Y-81907301D01*
X130544293Y-81937519D01*
X130545833Y-81963338D01*
X130547571Y-81983660D01*
X130548800Y-81994983D01*
X130561377Y-82090934D01*
X130577310Y-82181635D01*
X130596726Y-82267542D01*
X130619753Y-82349116D01*
X130646520Y-82426814D01*
X130677155Y-82501095D01*
X130711784Y-82572418D01*
X130717690Y-82583569D01*
X130760664Y-82657971D01*
X130806840Y-82726607D01*
X130856243Y-82789495D01*
X130908898Y-82846649D01*
X130964831Y-82898087D01*
X131024066Y-82943825D01*
X131086629Y-82983879D01*
X131152544Y-83018265D01*
X131221838Y-83047000D01*
X131294534Y-83070100D01*
X131370658Y-83087581D01*
X131450236Y-83099460D01*
X131533292Y-83105752D01*
X131585246Y-83107899D01*
X131585246Y-83259640D01*
X131529993Y-83257439D01*
X131492347Y-83255468D01*
X131403890Y-83246876D01*
X131319029Y-83232831D01*
X131237595Y-83213276D01*
X131159424Y-83188151D01*
X131084348Y-83157400D01*
X131012200Y-83120965D01*
X130942815Y-83078788D01*
X130876026Y-83030811D01*
X130862091Y-83019515D01*
X130840156Y-83000384D01*
X130816379Y-82978394D01*
X130792109Y-82954860D01*
X130768692Y-82931096D01*
X130747474Y-82908416D01*
X130729802Y-82888134D01*
X130703738Y-82855471D01*
X130653710Y-82785257D01*
X130607674Y-82710101D01*
X130565722Y-82630277D01*
X130527943Y-82546060D01*
X130494430Y-82457726D01*
X130465273Y-82365549D01*
X130440563Y-82269805D01*
X130420393Y-82170769D01*
X130404852Y-82068716D01*
X130394033Y-81963922D01*
X130388025Y-81856660D01*
X130387670Y-81845980D01*
X130386962Y-81825342D01*
X130386316Y-81807352D01*
X130385771Y-81792998D01*
X130385361Y-81783266D01*
X130385125Y-81779141D01*
X130385081Y-81778746D01*
X130384935Y-81772082D01*
X130385140Y-81759930D01*
X130385647Y-81743268D01*
X130386409Y-81723073D01*
X130387380Y-81700320D01*
X130388513Y-81675988D01*
X130389760Y-81651054D01*
X130391075Y-81626493D01*
X130392410Y-81603284D01*
X130393719Y-81582402D01*
X130394955Y-81564825D01*
X130396071Y-81551530D01*
X130404778Y-81475617D01*
X130420311Y-81378179D01*
X130440345Y-81284096D01*
X130464780Y-81193577D01*
X130493515Y-81106832D01*
X130526449Y-81024070D01*
X130563483Y-80945499D01*
X130604515Y-80871330D01*
X130649445Y-80801772D01*
X130698172Y-80737033D01*
X130750595Y-80677324D01*
X130806615Y-80622853D01*
X130866130Y-80573830D01*
X130869989Y-80570931D01*
X130933942Y-80527149D01*
X131000408Y-80489453D01*
X131069262Y-80457882D01*
X131140382Y-80432473D01*
X131213643Y-80413265D01*
X131288924Y-80400296D01*
X131366101Y-80393606D01*
X131445052Y-80393232D01*
X131478593Y-80394657D01*
G37*
X131478593Y-80394657D02*
X131509737Y-80396637D01*
X131538191Y-80399279D01*
X131565967Y-80402772D01*
X131595074Y-80407306D01*
X131600773Y-80408281D01*
X131676033Y-80424626D01*
X131748460Y-80446923D01*
X131818029Y-80475155D01*
X131884713Y-80509304D01*
X131948487Y-80549352D01*
X132009324Y-80595281D01*
X132067199Y-80647074D01*
X132122086Y-80704713D01*
X132173959Y-80768180D01*
X132222791Y-80837457D01*
X132225711Y-80841929D01*
X132262038Y-80900629D01*
X132297304Y-80963431D01*
X132331605Y-81030585D01*
X132365041Y-81102339D01*
X132397709Y-81178944D01*
X132429707Y-81260648D01*
X132461133Y-81347702D01*
X132492085Y-81440354D01*
X132522662Y-81538855D01*
X132552961Y-81643454D01*
X132583080Y-81754400D01*
X132590534Y-81782470D01*
X132622390Y-81897002D01*
X132654867Y-82005053D01*
X132687995Y-82106695D01*
X132721805Y-82202000D01*
X132756328Y-82291042D01*
X132791593Y-82373893D01*
X132827632Y-82450625D01*
X132864476Y-82521313D01*
X132902154Y-82586027D01*
X132940698Y-82644842D01*
X132980137Y-82697829D01*
X132999039Y-82720746D01*
X133047374Y-82772597D01*
X133098799Y-82818642D01*
X133153266Y-82858853D01*
X133210724Y-82893203D01*
X133271126Y-82921664D01*
X133334421Y-82944209D01*
X133400562Y-82960811D01*
X133469500Y-82971441D01*
X133482711Y-82972636D01*
X133509427Y-82974078D01*
X133539327Y-82974740D01*
X133570464Y-82974639D01*
X133600887Y-82973790D01*
X133628648Y-82972209D01*
X133651798Y-82969914D01*
X133695464Y-82962775D01*
X133758905Y-82947019D01*
X133819953Y-82925169D01*
X133878688Y-82897189D01*
X133935186Y-82863038D01*
X133989525Y-82822679D01*
X134041783Y-82776072D01*
X134072045Y-82745359D01*
X134124614Y-82684802D01*
X134172575Y-82619607D01*
X134215885Y-82549869D01*
X134254500Y-82475683D01*
X134288377Y-82397145D01*
X134317472Y-82314351D01*
X134341743Y-82227396D01*
X134361144Y-82136376D01*
X134375634Y-82041387D01*
X134377282Y-82027855D01*
X134381672Y-81988267D01*
X134385031Y-81951104D01*
X134387462Y-81914564D01*
X134389070Y-81876848D01*
X134389961Y-81836156D01*
X134390239Y-81790686D01*
X134390208Y-81776630D01*
X134389171Y-81715810D01*
X134386565Y-81659649D01*
X134382249Y-81606678D01*
X134376082Y-81555428D01*
X134367921Y-81504431D01*
X134357625Y-81452217D01*
X134353158Y-81432052D01*
X134330779Y-81347163D01*
X134303430Y-81266405D01*
X134270924Y-81189402D01*
X134233070Y-81115780D01*
X134189682Y-81045165D01*
X134140570Y-80977181D01*
X134085546Y-80911455D01*
X134040461Y-80864298D01*
X133981255Y-80810734D01*
X133918630Y-80762741D01*
X133852792Y-80720419D01*
X133783952Y-80683863D01*
X133712317Y-80653173D01*
X133638096Y-80628446D01*
X133561498Y-80609780D01*
X133482732Y-80597272D01*
X133402006Y-80591021D01*
X133346753Y-80588929D01*
X133346753Y-80437255D01*
X133410253Y-80439247D01*
X133427412Y-80439912D01*
X133451409Y-80441193D01*
X133474781Y-80442792D01*
X133495537Y-80444570D01*
X133511688Y-80446387D01*
X133589916Y-80459555D01*
X133674906Y-80479934D01*
X133757049Y-80506164D01*
X133836163Y-80538124D01*
X133912066Y-80575695D01*
X133984574Y-80618758D01*
X134053505Y-80667194D01*
X134118677Y-80720885D01*
X134179908Y-80779710D01*
X134237014Y-80843551D01*
X134289813Y-80912288D01*
X134338123Y-80985803D01*
X134358653Y-81021573D01*
X134383242Y-81069186D01*
X134407305Y-81120716D01*
X134430233Y-81174719D01*
X134451419Y-81229750D01*
X134470252Y-81284363D01*
X134486125Y-81337115D01*
X134497870Y-81382839D01*
X134515368Y-81467411D01*
X134528607Y-81555746D01*
X134537593Y-81647031D01*
X134542329Y-81740453D01*
X134542818Y-81835199D01*
X134539064Y-81930457D01*
X134531072Y-82025412D01*
X134518844Y-82119252D01*
X134502385Y-82211165D01*
X134481698Y-82300335D01*
X134459359Y-82377492D01*
X134430874Y-82458353D01*
X134398184Y-82535941D01*
X134361505Y-82609957D01*
X134321054Y-82680099D01*
X134277045Y-82746068D01*
X134229696Y-82807565D01*
X134179224Y-82864288D01*
X134125843Y-82915938D01*
X134069770Y-82962215D01*
X134011222Y-83002818D01*
X133950415Y-83037449D01*
X133913275Y-83055290D01*
X133854599Y-83079020D01*
X133793905Y-83098105D01*
X133730022Y-83112893D01*
X133661779Y-83123736D01*
X133659752Y-83123981D01*
X133641849Y-83125513D01*
X133618948Y-83126655D01*
X133592444Y-83127407D01*
X133563731Y-83127769D01*
X133534203Y-83127741D01*
X133505254Y-83127324D01*
X133478277Y-83126517D01*
X133454667Y-83125321D01*
X133435818Y-83123735D01*
X133363591Y-83113282D01*
X133292870Y-83097716D01*
X133226149Y-83077189D01*
X133163080Y-83051539D01*
X133103313Y-83020604D01*
X133046499Y-82984223D01*
X132992289Y-82942235D01*
X132940334Y-82894477D01*
X132919691Y-82873327D01*
X132881571Y-82830839D01*
X132844783Y-82785108D01*
X132809205Y-82735878D01*
X132774714Y-82682890D01*
X132741189Y-82625886D01*
X132708506Y-82564610D01*
X132676543Y-82498803D01*
X132645177Y-82428208D01*
X132614286Y-82352566D01*
X132583748Y-82271621D01*
X132553440Y-82185114D01*
X132523239Y-82092788D01*
X132493023Y-81994385D01*
X132462670Y-81889647D01*
X132440204Y-81810638D01*
X132417083Y-81730851D01*
X132395088Y-81656701D01*
X132374073Y-81587769D01*
X132353892Y-81523635D01*
X132334399Y-81463878D01*
X132315448Y-81408079D01*
X132296894Y-81355818D01*
X132278589Y-81306673D01*
X132260388Y-81260226D01*
X132242144Y-81216057D01*
X132223713Y-81173744D01*
X132204947Y-81132869D01*
X132185701Y-81093011D01*
X132161398Y-81045356D01*
X132131509Y-80991008D01*
X132102073Y-80942351D01*
X132072817Y-80898917D01*
X132033612Y-80846762D01*
X131988136Y-80793092D01*
X131941608Y-80745487D01*
X131893677Y-80703669D01*
X131843993Y-80667360D01*
X131792204Y-80636283D01*
X131737960Y-80610161D01*
X131680909Y-80588714D01*
X131656599Y-80581204D01*
X131592843Y-80565540D01*
X131527262Y-80554874D01*
X131460743Y-80549197D01*
X131394175Y-80548496D01*
X131328446Y-80552762D01*
X131264444Y-80561984D01*
X131203058Y-80576150D01*
X131145175Y-80595250D01*
X131131028Y-80600891D01*
X131070229Y-80629404D01*
X131012046Y-80663848D01*
X130956433Y-80704263D01*
X130903344Y-80750689D01*
X130852733Y-80803166D01*
X130804554Y-80861731D01*
X130758760Y-80926426D01*
X130718883Y-80991634D01*
X130678427Y-81069544D01*
X130643049Y-81151632D01*
X130612757Y-81237871D01*
X130587561Y-81328232D01*
X130567470Y-81422686D01*
X130552491Y-81521206D01*
X130542634Y-81623763D01*
X130541770Y-81638984D01*
X130540862Y-81664858D01*
X130540285Y-81695118D01*
X130540026Y-81728667D01*
X130540070Y-81764406D01*
X130540400Y-81801237D01*
X130541003Y-81838062D01*
X130541862Y-81873783D01*
X130542964Y-81907301D01*
X130544293Y-81937519D01*
X130545833Y-81963338D01*
X130547571Y-81983660D01*
X130548800Y-81994983D01*
X130561377Y-82090934D01*
X130577310Y-82181635D01*
X130596726Y-82267542D01*
X130619753Y-82349116D01*
X130646520Y-82426814D01*
X130677155Y-82501095D01*
X130711784Y-82572418D01*
X130717690Y-82583569D01*
X130760664Y-82657971D01*
X130806840Y-82726607D01*
X130856243Y-82789495D01*
X130908898Y-82846649D01*
X130964831Y-82898087D01*
X131024066Y-82943825D01*
X131086629Y-82983879D01*
X131152544Y-83018265D01*
X131221838Y-83047000D01*
X131294534Y-83070100D01*
X131370658Y-83087581D01*
X131450236Y-83099460D01*
X131533292Y-83105752D01*
X131585246Y-83107899D01*
X131585246Y-83259640D01*
X131529993Y-83257439D01*
X131492347Y-83255468D01*
X131403890Y-83246876D01*
X131319029Y-83232831D01*
X131237595Y-83213276D01*
X131159424Y-83188151D01*
X131084348Y-83157400D01*
X131012200Y-83120965D01*
X130942815Y-83078788D01*
X130876026Y-83030811D01*
X130862091Y-83019515D01*
X130840156Y-83000384D01*
X130816379Y-82978394D01*
X130792109Y-82954860D01*
X130768692Y-82931096D01*
X130747474Y-82908416D01*
X130729802Y-82888134D01*
X130703738Y-82855471D01*
X130653710Y-82785257D01*
X130607674Y-82710101D01*
X130565722Y-82630277D01*
X130527943Y-82546060D01*
X130494430Y-82457726D01*
X130465273Y-82365549D01*
X130440563Y-82269805D01*
X130420393Y-82170769D01*
X130404852Y-82068716D01*
X130394033Y-81963922D01*
X130388025Y-81856660D01*
X130387670Y-81845980D01*
X130386962Y-81825342D01*
X130386316Y-81807352D01*
X130385771Y-81792998D01*
X130385361Y-81783266D01*
X130385125Y-81779141D01*
X130385081Y-81778746D01*
X130384935Y-81772082D01*
X130385140Y-81759930D01*
X130385647Y-81743268D01*
X130386409Y-81723073D01*
X130387380Y-81700320D01*
X130388513Y-81675988D01*
X130389760Y-81651054D01*
X130391075Y-81626493D01*
X130392410Y-81603284D01*
X130393719Y-81582402D01*
X130394955Y-81564825D01*
X130396071Y-81551530D01*
X130404778Y-81475617D01*
X130420311Y-81378179D01*
X130440345Y-81284096D01*
X130464780Y-81193577D01*
X130493515Y-81106832D01*
X130526449Y-81024070D01*
X130563483Y-80945499D01*
X130604515Y-80871330D01*
X130649445Y-80801772D01*
X130698172Y-80737033D01*
X130750595Y-80677324D01*
X130806615Y-80622853D01*
X130866130Y-80573830D01*
X130869989Y-80570931D01*
X130933942Y-80527149D01*
X131000408Y-80489453D01*
X131069262Y-80457882D01*
X131140382Y-80432473D01*
X131213643Y-80413265D01*
X131288924Y-80400296D01*
X131366101Y-80393606D01*
X131445052Y-80393232D01*
X131478593Y-80394657D01*
G36*
X130440597Y-86554011D02*
G01*
X132172415Y-86554011D01*
X132324156Y-86554011D01*
X134336663Y-86554011D01*
X134335327Y-85926433D01*
X134335290Y-85909548D01*
X134335083Y-85823152D01*
X134334855Y-85743263D01*
X134334606Y-85669803D01*
X134334335Y-85602697D01*
X134334042Y-85541868D01*
X134333727Y-85487239D01*
X134333388Y-85438733D01*
X134333024Y-85396274D01*
X134332637Y-85359786D01*
X134332224Y-85329191D01*
X134331786Y-85304414D01*
X134331321Y-85285377D01*
X134330829Y-85272004D01*
X134330310Y-85264219D01*
X134328310Y-85245893D01*
X134319392Y-85174574D01*
X134309148Y-85108710D01*
X134297363Y-85047452D01*
X134283824Y-84989951D01*
X134268314Y-84935357D01*
X134250619Y-84882820D01*
X134230523Y-84831491D01*
X134207811Y-84780521D01*
X134198014Y-84760355D01*
X134161296Y-84693517D01*
X134119769Y-84629995D01*
X134073835Y-84570213D01*
X134023899Y-84514596D01*
X133970363Y-84463570D01*
X133913630Y-84417560D01*
X133854105Y-84376991D01*
X133792189Y-84342287D01*
X133789274Y-84340830D01*
X133728944Y-84313410D01*
X133667002Y-84290567D01*
X133602663Y-84272104D01*
X133535145Y-84257825D01*
X133463663Y-84247535D01*
X133387433Y-84241036D01*
X133338458Y-84239160D01*
X133256528Y-84240637D01*
X133176065Y-84247880D01*
X133097554Y-84260799D01*
X133021478Y-84279309D01*
X132948324Y-84303321D01*
X132878577Y-84332748D01*
X132856904Y-84343285D01*
X132805635Y-84370873D01*
X132757642Y-84400911D01*
X132711578Y-84434348D01*
X132666095Y-84472134D01*
X132619847Y-84515220D01*
X132604607Y-84530439D01*
X132551963Y-84588489D01*
X132504922Y-84649621D01*
X132463426Y-84713967D01*
X132427417Y-84781661D01*
X132396835Y-84852835D01*
X132371622Y-84927622D01*
X132351719Y-85006155D01*
X132337067Y-85088566D01*
X132327607Y-85174988D01*
X132327542Y-85175902D01*
X132327085Y-85186223D01*
X132326660Y-85203058D01*
X132326267Y-85226335D01*
X132325907Y-85255981D01*
X132325579Y-85291922D01*
X132325284Y-85334086D01*
X132325022Y-85382401D01*
X132324794Y-85436792D01*
X132324601Y-85497188D01*
X132324441Y-85563516D01*
X132324317Y-85635702D01*
X132324227Y-85713674D01*
X132324174Y-85797358D01*
X132324156Y-85886683D01*
X132324156Y-86554011D01*
X132172415Y-86554011D01*
X132172415Y-85153344D01*
X131307331Y-84615599D01*
X130442246Y-84077854D01*
X130440480Y-83918348D01*
X130482643Y-83918348D01*
X131346158Y-84457750D01*
X131374839Y-84475665D01*
X131443411Y-84518492D01*
X131510443Y-84560348D01*
X131575720Y-84601101D01*
X131639031Y-84640618D01*
X131700161Y-84678766D01*
X131758896Y-84715411D01*
X131815025Y-84750421D01*
X131868333Y-84783664D01*
X131918606Y-84815005D01*
X131965632Y-84844312D01*
X132009197Y-84871453D01*
X132049088Y-84896293D01*
X132085091Y-84918700D01*
X132116994Y-84938542D01*
X132144581Y-84955685D01*
X132167642Y-84969996D01*
X132185961Y-84981342D01*
X132199325Y-84989591D01*
X132207522Y-84994609D01*
X132210337Y-84996263D01*
X132210629Y-84995326D01*
X132211995Y-84989314D01*
X132214129Y-84979049D01*
X132216713Y-84966031D01*
X132226466Y-84922114D01*
X132246733Y-84852223D01*
X132272706Y-84782022D01*
X132303995Y-84712428D01*
X132340211Y-84644360D01*
X132380965Y-84578736D01*
X132416708Y-84528859D01*
X132466742Y-84468294D01*
X132521884Y-84410541D01*
X132581436Y-84356187D01*
X132644704Y-84305816D01*
X132710991Y-84260015D01*
X132779601Y-84219367D01*
X132849838Y-84184458D01*
X132893209Y-84166047D01*
X132973455Y-84137507D01*
X133055574Y-84115277D01*
X133139460Y-84099379D01*
X133225010Y-84089835D01*
X133312117Y-84086667D01*
X133389826Y-84088545D01*
X133480930Y-84095820D01*
X133568381Y-84108582D01*
X133652200Y-84126842D01*
X133732406Y-84150608D01*
X133809021Y-84179891D01*
X133882063Y-84214700D01*
X133951553Y-84255045D01*
X134017510Y-84300936D01*
X134079956Y-84352383D01*
X134138910Y-84409395D01*
X134194392Y-84471982D01*
X134246422Y-84540154D01*
X134251937Y-84548006D01*
X134297246Y-84618789D01*
X134337886Y-84694082D01*
X134373776Y-84773667D01*
X134404835Y-84857330D01*
X134430982Y-84944854D01*
X134452136Y-85036023D01*
X134468215Y-85130621D01*
X134470138Y-85144243D01*
X134471958Y-85157144D01*
X134473633Y-85169276D01*
X134475169Y-85180933D01*
X134476574Y-85192409D01*
X134477853Y-85204000D01*
X134479014Y-85216000D01*
X134480062Y-85228703D01*
X134481003Y-85242405D01*
X134481845Y-85257400D01*
X134482594Y-85273983D01*
X134483256Y-85292448D01*
X134483839Y-85313090D01*
X134484347Y-85336205D01*
X134484788Y-85362085D01*
X134485168Y-85391027D01*
X134485494Y-85423325D01*
X134485771Y-85459273D01*
X134486008Y-85499167D01*
X134486209Y-85543300D01*
X134486382Y-85591968D01*
X134486533Y-85645466D01*
X134486668Y-85704087D01*
X134486794Y-85768127D01*
X134486917Y-85837880D01*
X134487044Y-85913642D01*
X134487182Y-85995706D01*
X134488385Y-86705751D01*
X130440597Y-86705751D01*
X130440597Y-86554011D01*
G37*
X130440597Y-86554011D02*
X132172415Y-86554011D01*
X132324156Y-86554011D01*
X134336663Y-86554011D01*
X134335327Y-85926433D01*
X134335290Y-85909548D01*
X134335083Y-85823152D01*
X134334855Y-85743263D01*
X134334606Y-85669803D01*
X134334335Y-85602697D01*
X134334042Y-85541868D01*
X134333727Y-85487239D01*
X134333388Y-85438733D01*
X134333024Y-85396274D01*
X134332637Y-85359786D01*
X134332224Y-85329191D01*
X134331786Y-85304414D01*
X134331321Y-85285377D01*
X134330829Y-85272004D01*
X134330310Y-85264219D01*
X134328310Y-85245893D01*
X134319392Y-85174574D01*
X134309148Y-85108710D01*
X134297363Y-85047452D01*
X134283824Y-84989951D01*
X134268314Y-84935357D01*
X134250619Y-84882820D01*
X134230523Y-84831491D01*
X134207811Y-84780521D01*
X134198014Y-84760355D01*
X134161296Y-84693517D01*
X134119769Y-84629995D01*
X134073835Y-84570213D01*
X134023899Y-84514596D01*
X133970363Y-84463570D01*
X133913630Y-84417560D01*
X133854105Y-84376991D01*
X133792189Y-84342287D01*
X133789274Y-84340830D01*
X133728944Y-84313410D01*
X133667002Y-84290567D01*
X133602663Y-84272104D01*
X133535145Y-84257825D01*
X133463663Y-84247535D01*
X133387433Y-84241036D01*
X133338458Y-84239160D01*
X133256528Y-84240637D01*
X133176065Y-84247880D01*
X133097554Y-84260799D01*
X133021478Y-84279309D01*
X132948324Y-84303321D01*
X132878577Y-84332748D01*
X132856904Y-84343285D01*
X132805635Y-84370873D01*
X132757642Y-84400911D01*
X132711578Y-84434348D01*
X132666095Y-84472134D01*
X132619847Y-84515220D01*
X132604607Y-84530439D01*
X132551963Y-84588489D01*
X132504922Y-84649621D01*
X132463426Y-84713967D01*
X132427417Y-84781661D01*
X132396835Y-84852835D01*
X132371622Y-84927622D01*
X132351719Y-85006155D01*
X132337067Y-85088566D01*
X132327607Y-85174988D01*
X132327542Y-85175902D01*
X132327085Y-85186223D01*
X132326660Y-85203058D01*
X132326267Y-85226335D01*
X132325907Y-85255981D01*
X132325579Y-85291922D01*
X132325284Y-85334086D01*
X132325022Y-85382401D01*
X132324794Y-85436792D01*
X132324601Y-85497188D01*
X132324441Y-85563516D01*
X132324317Y-85635702D01*
X132324227Y-85713674D01*
X132324174Y-85797358D01*
X132324156Y-85886683D01*
X132324156Y-86554011D01*
X132172415Y-86554011D01*
X132172415Y-85153344D01*
X131307331Y-84615599D01*
X130442246Y-84077854D01*
X130440480Y-83918348D01*
X130482643Y-83918348D01*
X131346158Y-84457750D01*
X131374839Y-84475665D01*
X131443411Y-84518492D01*
X131510443Y-84560348D01*
X131575720Y-84601101D01*
X131639031Y-84640618D01*
X131700161Y-84678766D01*
X131758896Y-84715411D01*
X131815025Y-84750421D01*
X131868333Y-84783664D01*
X131918606Y-84815005D01*
X131965632Y-84844312D01*
X132009197Y-84871453D01*
X132049088Y-84896293D01*
X132085091Y-84918700D01*
X132116994Y-84938542D01*
X132144581Y-84955685D01*
X132167642Y-84969996D01*
X132185961Y-84981342D01*
X132199325Y-84989591D01*
X132207522Y-84994609D01*
X132210337Y-84996263D01*
X132210629Y-84995326D01*
X132211995Y-84989314D01*
X132214129Y-84979049D01*
X132216713Y-84966031D01*
X132226466Y-84922114D01*
X132246733Y-84852223D01*
X132272706Y-84782022D01*
X132303995Y-84712428D01*
X132340211Y-84644360D01*
X132380965Y-84578736D01*
X132416708Y-84528859D01*
X132466742Y-84468294D01*
X132521884Y-84410541D01*
X132581436Y-84356187D01*
X132644704Y-84305816D01*
X132710991Y-84260015D01*
X132779601Y-84219367D01*
X132849838Y-84184458D01*
X132893209Y-84166047D01*
X132973455Y-84137507D01*
X133055574Y-84115277D01*
X133139460Y-84099379D01*
X133225010Y-84089835D01*
X133312117Y-84086667D01*
X133389826Y-84088545D01*
X133480930Y-84095820D01*
X133568381Y-84108582D01*
X133652200Y-84126842D01*
X133732406Y-84150608D01*
X133809021Y-84179891D01*
X133882063Y-84214700D01*
X133951553Y-84255045D01*
X134017510Y-84300936D01*
X134079956Y-84352383D01*
X134138910Y-84409395D01*
X134194392Y-84471982D01*
X134246422Y-84540154D01*
X134251937Y-84548006D01*
X134297246Y-84618789D01*
X134337886Y-84694082D01*
X134373776Y-84773667D01*
X134404835Y-84857330D01*
X134430982Y-84944854D01*
X134452136Y-85036023D01*
X134468215Y-85130621D01*
X134470138Y-85144243D01*
X134471958Y-85157144D01*
X134473633Y-85169276D01*
X134475169Y-85180933D01*
X134476574Y-85192409D01*
X134477853Y-85204000D01*
X134479014Y-85216000D01*
X134480062Y-85228703D01*
X134481003Y-85242405D01*
X134481845Y-85257400D01*
X134482594Y-85273983D01*
X134483256Y-85292448D01*
X134483839Y-85313090D01*
X134484347Y-85336205D01*
X134484788Y-85362085D01*
X134485168Y-85391027D01*
X134485494Y-85423325D01*
X134485771Y-85459273D01*
X134486008Y-85499167D01*
X134486209Y-85543300D01*
X134486382Y-85591968D01*
X134486533Y-85645466D01*
X134486668Y-85704087D01*
X134486794Y-85768127D01*
X134486917Y-85837880D01*
X134487044Y-85913642D01*
X134487182Y-85995706D01*
X134488385Y-86705751D01*
X130440597Y-86705751D01*
X130440597Y-86554011D01*
G36*
X134488104Y-109888723D02*
G01*
X134447694Y-109901484D01*
X134447246Y-109901626D01*
X134440513Y-109903769D01*
X134427736Y-109907845D01*
X134409124Y-109913788D01*
X134384887Y-109921531D01*
X134355235Y-109931006D01*
X134320378Y-109942146D01*
X134280526Y-109954885D01*
X134235889Y-109969155D01*
X134186676Y-109984889D01*
X134133097Y-110002020D01*
X134075362Y-110020481D01*
X134013681Y-110040204D01*
X133948263Y-110061124D01*
X133879319Y-110083172D01*
X133807059Y-110106281D01*
X133731691Y-110130385D01*
X133653427Y-110155416D01*
X133572475Y-110181307D01*
X133489046Y-110207991D01*
X133403349Y-110235402D01*
X133315595Y-110263471D01*
X133225993Y-110292132D01*
X133134753Y-110321318D01*
X133042084Y-110350962D01*
X132936964Y-110384591D01*
X132831097Y-110418465D01*
X132731195Y-110450438D01*
X132637093Y-110480563D01*
X132548626Y-110508893D01*
X132465630Y-110535482D01*
X132387940Y-110560383D01*
X132315391Y-110583651D01*
X132247817Y-110605338D01*
X132185054Y-110625497D01*
X132126938Y-110644183D01*
X132073302Y-110661450D01*
X132023983Y-110677349D01*
X131978815Y-110691936D01*
X131937633Y-110705263D01*
X131900273Y-110717384D01*
X131866570Y-110728352D01*
X131836358Y-110738222D01*
X131809473Y-110747046D01*
X131785750Y-110754878D01*
X131765024Y-110761771D01*
X131747130Y-110767780D01*
X131731903Y-110772957D01*
X131719179Y-110777356D01*
X131708791Y-110781030D01*
X131700577Y-110784034D01*
X131694369Y-110786420D01*
X131690005Y-110788242D01*
X131687318Y-110789554D01*
X131686144Y-110790408D01*
X131686318Y-110790860D01*
X131687310Y-110791183D01*
X131693941Y-110793320D01*
X131706557Y-110797378D01*
X131724959Y-110803292D01*
X131748944Y-110810997D01*
X131778310Y-110820428D01*
X131812858Y-110831520D01*
X131852385Y-110844211D01*
X131896689Y-110858433D01*
X131945571Y-110874124D01*
X131998828Y-110891218D01*
X132056259Y-110909651D01*
X132117663Y-110929358D01*
X132182838Y-110950274D01*
X132251584Y-110972336D01*
X132323698Y-110995478D01*
X132398980Y-111019635D01*
X132477228Y-111044744D01*
X132558240Y-111070739D01*
X132641816Y-111097556D01*
X132727755Y-111125130D01*
X132815854Y-111153397D01*
X132905913Y-111182292D01*
X132997730Y-111211750D01*
X133091104Y-111241707D01*
X134486454Y-111689372D01*
X134487287Y-112331341D01*
X134488120Y-112973309D01*
X132466558Y-112973309D01*
X132378865Y-112973307D01*
X132264873Y-112973299D01*
X132152654Y-112973283D01*
X132042387Y-112973260D01*
X131934251Y-112973232D01*
X131828425Y-112973197D01*
X131725087Y-112973155D01*
X131624416Y-112973108D01*
X131526591Y-112973056D01*
X131431790Y-112972998D01*
X131340192Y-112972934D01*
X131251976Y-112972866D01*
X131167319Y-112972792D01*
X131086402Y-112972714D01*
X131009402Y-112972632D01*
X130936499Y-112972545D01*
X130867870Y-112972454D01*
X130803695Y-112972359D01*
X130744152Y-112972260D01*
X130689420Y-112972158D01*
X130639677Y-112972052D01*
X130595103Y-112971943D01*
X130555875Y-112971832D01*
X130522173Y-112971717D01*
X130494174Y-112971600D01*
X130472059Y-112971481D01*
X130456005Y-112971359D01*
X130446191Y-112971236D01*
X130442796Y-112971110D01*
X130442772Y-112971055D01*
X130442518Y-112966945D01*
X130442274Y-112956639D01*
X130442039Y-112940503D01*
X130441816Y-112918903D01*
X130441607Y-112892204D01*
X130441413Y-112860774D01*
X130441235Y-112824978D01*
X130441076Y-112785181D01*
X130440936Y-112741751D01*
X130440819Y-112695053D01*
X130440724Y-112645453D01*
X130440655Y-112593317D01*
X130440612Y-112539012D01*
X130440597Y-112482903D01*
X130440597Y-111996894D01*
X131421961Y-111996922D01*
X132365231Y-112042973D01*
X132416970Y-112045498D01*
X132494271Y-112049264D01*
X132569681Y-112052933D01*
X132642938Y-112056491D01*
X132713782Y-112059926D01*
X132781951Y-112063225D01*
X132847186Y-112066376D01*
X132909224Y-112069366D01*
X132967804Y-112072183D01*
X133022666Y-112074815D01*
X133073549Y-112077248D01*
X133120191Y-112079471D01*
X133162332Y-112081471D01*
X133199710Y-112083235D01*
X133232065Y-112084751D01*
X133259136Y-112086006D01*
X133280661Y-112086989D01*
X133296380Y-112087685D01*
X133306031Y-112088084D01*
X133309354Y-112088172D01*
X133306903Y-112087270D01*
X133298419Y-112084309D01*
X133284060Y-112079349D01*
X133264020Y-112072457D01*
X133238494Y-112063700D01*
X133207678Y-112053144D01*
X133171766Y-112040855D01*
X133130953Y-112026900D01*
X133085434Y-112011347D01*
X133035404Y-111994260D01*
X132981059Y-111975707D01*
X132922592Y-111955754D01*
X132860199Y-111934468D01*
X132794076Y-111911915D01*
X132724416Y-111888162D01*
X132651415Y-111863275D01*
X132575268Y-111837320D01*
X132496170Y-111810365D01*
X132414316Y-111782476D01*
X132329900Y-111753719D01*
X132243118Y-111724161D01*
X132154164Y-111693868D01*
X132063235Y-111662907D01*
X131970524Y-111631344D01*
X131876226Y-111599246D01*
X130442246Y-111111172D01*
X130441406Y-110788859D01*
X130441385Y-110780849D01*
X130441254Y-110728404D01*
X130441155Y-110682115D01*
X130441093Y-110641593D01*
X130441075Y-110606453D01*
X130441105Y-110576307D01*
X130441190Y-110550769D01*
X130441336Y-110529451D01*
X130441548Y-110511968D01*
X130441833Y-110497930D01*
X130442197Y-110486953D01*
X130442644Y-110478649D01*
X130443182Y-110472630D01*
X130443816Y-110468511D01*
X130444552Y-110465903D01*
X130445396Y-110464421D01*
X130446354Y-110463678D01*
X130448784Y-110462803D01*
X130457271Y-110459863D01*
X130471647Y-110454924D01*
X130491714Y-110448054D01*
X130517276Y-110439320D01*
X130548136Y-110428789D01*
X130584097Y-110416527D01*
X130624964Y-110402601D01*
X130670538Y-110387079D01*
X130720624Y-110370027D01*
X130775024Y-110351512D01*
X130833542Y-110331601D01*
X130895982Y-110310361D01*
X130962146Y-110287859D01*
X131031838Y-110264161D01*
X131104862Y-110239336D01*
X131181019Y-110213448D01*
X131260115Y-110186567D01*
X131341951Y-110158758D01*
X131426332Y-110130088D01*
X131513061Y-110100624D01*
X131601941Y-110070434D01*
X131692775Y-110039583D01*
X131785366Y-110008139D01*
X131879519Y-109976170D01*
X131959014Y-109949175D01*
X132051740Y-109917679D01*
X132142701Y-109886773D01*
X132231703Y-109856523D01*
X132318550Y-109826996D01*
X132403048Y-109798259D01*
X132485002Y-109770377D01*
X132564218Y-109743418D01*
X132640499Y-109717447D01*
X132713651Y-109692532D01*
X132783479Y-109668739D01*
X132849788Y-109646134D01*
X132912384Y-109624783D01*
X132971071Y-109604754D01*
X133025655Y-109586113D01*
X133075940Y-109568926D01*
X133121731Y-109553260D01*
X133162834Y-109539181D01*
X133199054Y-109526756D01*
X133230196Y-109516051D01*
X133256064Y-109507133D01*
X133276465Y-109500068D01*
X133291202Y-109494922D01*
X133300082Y-109491763D01*
X133302908Y-109490656D01*
X133301250Y-109490678D01*
X133293438Y-109490973D01*
X133279472Y-109491571D01*
X133259615Y-109492460D01*
X133234128Y-109493628D01*
X133203274Y-109495061D01*
X133167313Y-109496747D01*
X133126509Y-109498674D01*
X133081124Y-109500829D01*
X133031418Y-109503200D01*
X132977655Y-109505774D01*
X132920096Y-109508539D01*
X132859003Y-109511481D01*
X132794639Y-109514590D01*
X132727265Y-109517851D01*
X132657142Y-109521252D01*
X132584535Y-109524782D01*
X132509703Y-109528427D01*
X132432909Y-109532175D01*
X132354416Y-109536014D01*
X131409910Y-109582245D01*
X130440575Y-109582245D01*
X130441411Y-109093212D01*
X130442246Y-108604180D01*
X132465175Y-108603352D01*
X134488104Y-108602525D01*
X134488104Y-109888723D01*
G37*
X134488104Y-109888723D02*
X134447694Y-109901484D01*
X134447246Y-109901626D01*
X134440513Y-109903769D01*
X134427736Y-109907845D01*
X134409124Y-109913788D01*
X134384887Y-109921531D01*
X134355235Y-109931006D01*
X134320378Y-109942146D01*
X134280526Y-109954885D01*
X134235889Y-109969155D01*
X134186676Y-109984889D01*
X134133097Y-110002020D01*
X134075362Y-110020481D01*
X134013681Y-110040204D01*
X133948263Y-110061124D01*
X133879319Y-110083172D01*
X133807059Y-110106281D01*
X133731691Y-110130385D01*
X133653427Y-110155416D01*
X133572475Y-110181307D01*
X133489046Y-110207991D01*
X133403349Y-110235402D01*
X133315595Y-110263471D01*
X133225993Y-110292132D01*
X133134753Y-110321318D01*
X133042084Y-110350962D01*
X132936964Y-110384591D01*
X132831097Y-110418465D01*
X132731195Y-110450438D01*
X132637093Y-110480563D01*
X132548626Y-110508893D01*
X132465630Y-110535482D01*
X132387940Y-110560383D01*
X132315391Y-110583651D01*
X132247817Y-110605338D01*
X132185054Y-110625497D01*
X132126938Y-110644183D01*
X132073302Y-110661450D01*
X132023983Y-110677349D01*
X131978815Y-110691936D01*
X131937633Y-110705263D01*
X131900273Y-110717384D01*
X131866570Y-110728352D01*
X131836358Y-110738222D01*
X131809473Y-110747046D01*
X131785750Y-110754878D01*
X131765024Y-110761771D01*
X131747130Y-110767780D01*
X131731903Y-110772957D01*
X131719179Y-110777356D01*
X131708791Y-110781030D01*
X131700577Y-110784034D01*
X131694369Y-110786420D01*
X131690005Y-110788242D01*
X131687318Y-110789554D01*
X131686144Y-110790408D01*
X131686318Y-110790860D01*
X131687310Y-110791183D01*
X131693941Y-110793320D01*
X131706557Y-110797378D01*
X131724959Y-110803292D01*
X131748944Y-110810997D01*
X131778310Y-110820428D01*
X131812858Y-110831520D01*
X131852385Y-110844211D01*
X131896689Y-110858433D01*
X131945571Y-110874124D01*
X131998828Y-110891218D01*
X132056259Y-110909651D01*
X132117663Y-110929358D01*
X132182838Y-110950274D01*
X132251584Y-110972336D01*
X132323698Y-110995478D01*
X132398980Y-111019635D01*
X132477228Y-111044744D01*
X132558240Y-111070739D01*
X132641816Y-111097556D01*
X132727755Y-111125130D01*
X132815854Y-111153397D01*
X132905913Y-111182292D01*
X132997730Y-111211750D01*
X133091104Y-111241707D01*
X134486454Y-111689372D01*
X134487287Y-112331341D01*
X134488120Y-112973309D01*
X132466558Y-112973309D01*
X132378865Y-112973307D01*
X132264873Y-112973299D01*
X132152654Y-112973283D01*
X132042387Y-112973260D01*
X131934251Y-112973232D01*
X131828425Y-112973197D01*
X131725087Y-112973155D01*
X131624416Y-112973108D01*
X131526591Y-112973056D01*
X131431790Y-112972998D01*
X131340192Y-112972934D01*
X131251976Y-112972866D01*
X131167319Y-112972792D01*
X131086402Y-112972714D01*
X131009402Y-112972632D01*
X130936499Y-112972545D01*
X130867870Y-112972454D01*
X130803695Y-112972359D01*
X130744152Y-112972260D01*
X130689420Y-112972158D01*
X130639677Y-112972052D01*
X130595103Y-112971943D01*
X130555875Y-112971832D01*
X130522173Y-112971717D01*
X130494174Y-112971600D01*
X130472059Y-112971481D01*
X130456005Y-112971359D01*
X130446191Y-112971236D01*
X130442796Y-112971110D01*
X130442772Y-112971055D01*
X130442518Y-112966945D01*
X130442274Y-112956639D01*
X130442039Y-112940503D01*
X130441816Y-112918903D01*
X130441607Y-112892204D01*
X130441413Y-112860774D01*
X130441235Y-112824978D01*
X130441076Y-112785181D01*
X130440936Y-112741751D01*
X130440819Y-112695053D01*
X130440724Y-112645453D01*
X130440655Y-112593317D01*
X130440612Y-112539012D01*
X130440597Y-112482903D01*
X130440597Y-111996894D01*
X131421961Y-111996922D01*
X132365231Y-112042973D01*
X132416970Y-112045498D01*
X132494271Y-112049264D01*
X132569681Y-112052933D01*
X132642938Y-112056491D01*
X132713782Y-112059926D01*
X132781951Y-112063225D01*
X132847186Y-112066376D01*
X132909224Y-112069366D01*
X132967804Y-112072183D01*
X133022666Y-112074815D01*
X133073549Y-112077248D01*
X133120191Y-112079471D01*
X133162332Y-112081471D01*
X133199710Y-112083235D01*
X133232065Y-112084751D01*
X133259136Y-112086006D01*
X133280661Y-112086989D01*
X133296380Y-112087685D01*
X133306031Y-112088084D01*
X133309354Y-112088172D01*
X133306903Y-112087270D01*
X133298419Y-112084309D01*
X133284060Y-112079349D01*
X133264020Y-112072457D01*
X133238494Y-112063700D01*
X133207678Y-112053144D01*
X133171766Y-112040855D01*
X133130953Y-112026900D01*
X133085434Y-112011347D01*
X133035404Y-111994260D01*
X132981059Y-111975707D01*
X132922592Y-111955754D01*
X132860199Y-111934468D01*
X132794076Y-111911915D01*
X132724416Y-111888162D01*
X132651415Y-111863275D01*
X132575268Y-111837320D01*
X132496170Y-111810365D01*
X132414316Y-111782476D01*
X132329900Y-111753719D01*
X132243118Y-111724161D01*
X132154164Y-111693868D01*
X132063235Y-111662907D01*
X131970524Y-111631344D01*
X131876226Y-111599246D01*
X130442246Y-111111172D01*
X130441406Y-110788859D01*
X130441385Y-110780849D01*
X130441254Y-110728404D01*
X130441155Y-110682115D01*
X130441093Y-110641593D01*
X130441075Y-110606453D01*
X130441105Y-110576307D01*
X130441190Y-110550769D01*
X130441336Y-110529451D01*
X130441548Y-110511968D01*
X130441833Y-110497930D01*
X130442197Y-110486953D01*
X130442644Y-110478649D01*
X130443182Y-110472630D01*
X130443816Y-110468511D01*
X130444552Y-110465903D01*
X130445396Y-110464421D01*
X130446354Y-110463678D01*
X130448784Y-110462803D01*
X130457271Y-110459863D01*
X130471647Y-110454924D01*
X130491714Y-110448054D01*
X130517276Y-110439320D01*
X130548136Y-110428789D01*
X130584097Y-110416527D01*
X130624964Y-110402601D01*
X130670538Y-110387079D01*
X130720624Y-110370027D01*
X130775024Y-110351512D01*
X130833542Y-110331601D01*
X130895982Y-110310361D01*
X130962146Y-110287859D01*
X131031838Y-110264161D01*
X131104862Y-110239336D01*
X131181019Y-110213448D01*
X131260115Y-110186567D01*
X131341951Y-110158758D01*
X131426332Y-110130088D01*
X131513061Y-110100624D01*
X131601941Y-110070434D01*
X131692775Y-110039583D01*
X131785366Y-110008139D01*
X131879519Y-109976170D01*
X131959014Y-109949175D01*
X132051740Y-109917679D01*
X132142701Y-109886773D01*
X132231703Y-109856523D01*
X132318550Y-109826996D01*
X132403048Y-109798259D01*
X132485002Y-109770377D01*
X132564218Y-109743418D01*
X132640499Y-109717447D01*
X132713651Y-109692532D01*
X132783479Y-109668739D01*
X132849788Y-109646134D01*
X132912384Y-109624783D01*
X132971071Y-109604754D01*
X133025655Y-109586113D01*
X133075940Y-109568926D01*
X133121731Y-109553260D01*
X133162834Y-109539181D01*
X133199054Y-109526756D01*
X133230196Y-109516051D01*
X133256064Y-109507133D01*
X133276465Y-109500068D01*
X133291202Y-109494922D01*
X133300082Y-109491763D01*
X133302908Y-109490656D01*
X133301250Y-109490678D01*
X133293438Y-109490973D01*
X133279472Y-109491571D01*
X133259615Y-109492460D01*
X133234128Y-109493628D01*
X133203274Y-109495061D01*
X133167313Y-109496747D01*
X133126509Y-109498674D01*
X133081124Y-109500829D01*
X133031418Y-109503200D01*
X132977655Y-109505774D01*
X132920096Y-109508539D01*
X132859003Y-109511481D01*
X132794639Y-109514590D01*
X132727265Y-109517851D01*
X132657142Y-109521252D01*
X132584535Y-109524782D01*
X132509703Y-109528427D01*
X132432909Y-109532175D01*
X132354416Y-109536014D01*
X131409910Y-109582245D01*
X130440575Y-109582245D01*
X130441411Y-109093212D01*
X130442246Y-108604180D01*
X132465175Y-108603352D01*
X134488104Y-108602525D01*
X134488104Y-109888723D01*
G36*
X123166084Y-72539119D02*
G01*
X123231106Y-72539372D01*
X123283349Y-72539907D01*
X123323943Y-72540763D01*
X123354016Y-72541977D01*
X123374700Y-72543589D01*
X123387121Y-72545636D01*
X123392411Y-72548157D01*
X123394357Y-72553676D01*
X123398949Y-72572293D01*
X123405491Y-72602187D01*
X123413629Y-72641635D01*
X123423010Y-72688913D01*
X123433281Y-72742300D01*
X123444088Y-72800073D01*
X123452214Y-72843460D01*
X123462823Y-72898159D01*
X123472747Y-72947196D01*
X123481615Y-72988845D01*
X123489056Y-73021380D01*
X123494702Y-73043075D01*
X123498181Y-73052205D01*
X123499663Y-73053304D01*
X123512368Y-73060096D01*
X123535589Y-73071208D01*
X123567168Y-73085704D01*
X123604946Y-73102647D01*
X123646765Y-73121102D01*
X123690466Y-73140133D01*
X123733892Y-73158804D01*
X123774882Y-73176179D01*
X123811279Y-73191322D01*
X123840925Y-73203297D01*
X123861660Y-73211168D01*
X123871327Y-73214000D01*
X123877191Y-73211389D01*
X123893855Y-73201518D01*
X123919314Y-73185345D01*
X123951855Y-73163982D01*
X123989759Y-73138545D01*
X124031314Y-73110146D01*
X124065727Y-73086435D01*
X124125666Y-73045220D01*
X124175140Y-73011341D01*
X124215106Y-72984154D01*
X124246524Y-72963018D01*
X124270351Y-72947291D01*
X124287545Y-72936329D01*
X124299067Y-72929492D01*
X124305873Y-72926136D01*
X124307599Y-72926326D01*
X124318745Y-72933445D01*
X124337942Y-72949209D01*
X124363770Y-72972202D01*
X124394809Y-73001011D01*
X124429636Y-73034220D01*
X124466831Y-73070415D01*
X124504972Y-73108181D01*
X124542638Y-73146103D01*
X124578409Y-73182766D01*
X124610863Y-73216755D01*
X124638579Y-73246656D01*
X124660135Y-73271054D01*
X124674111Y-73288534D01*
X124679086Y-73297682D01*
X124676047Y-73305185D01*
X124665593Y-73323687D01*
X124648594Y-73351350D01*
X124625989Y-73386706D01*
X124598719Y-73428287D01*
X124567724Y-73474627D01*
X124533943Y-73524256D01*
X124504013Y-73568070D01*
X124472720Y-73614370D01*
X124445034Y-73655854D01*
X124421890Y-73691099D01*
X124404219Y-73718683D01*
X124392954Y-73737185D01*
X124389028Y-73745182D01*
X124391180Y-73752580D01*
X124398203Y-73771926D01*
X124409391Y-73801116D01*
X124424006Y-73838257D01*
X124441312Y-73881458D01*
X124460573Y-73928829D01*
X124472986Y-73959006D01*
X124493836Y-74008744D01*
X124510548Y-74046966D01*
X124523784Y-74075038D01*
X124534205Y-74094325D01*
X124542472Y-74106193D01*
X124549244Y-74112006D01*
X124555950Y-74114245D01*
X124576270Y-74119266D01*
X124607779Y-74126185D01*
X124648678Y-74134635D01*
X124697167Y-74144245D01*
X124751446Y-74154647D01*
X124809714Y-74165469D01*
X124853377Y-74173545D01*
X124908067Y-74183931D01*
X124957079Y-74193547D01*
X124998691Y-74202037D01*
X125031180Y-74209049D01*
X125052824Y-74214229D01*
X125061900Y-74217223D01*
X125063113Y-74218879D01*
X125065433Y-74227457D01*
X125067288Y-74243735D01*
X125068719Y-74268849D01*
X125069763Y-74303934D01*
X125070460Y-74350126D01*
X125070850Y-74408560D01*
X125070971Y-74480372D01*
X125070948Y-74514238D01*
X125070711Y-74579949D01*
X125070187Y-74632789D01*
X125069337Y-74673895D01*
X125068123Y-74704400D01*
X125066505Y-74725440D01*
X125064444Y-74738150D01*
X125061900Y-74743664D01*
X125054554Y-74746220D01*
X125034265Y-74751233D01*
X125002871Y-74758169D01*
X124962057Y-74766677D01*
X124913507Y-74776408D01*
X124858905Y-74787010D01*
X124799936Y-74798133D01*
X124762610Y-74805148D01*
X124701489Y-74816989D01*
X124648062Y-74827806D01*
X124603649Y-74837310D01*
X124569573Y-74845216D01*
X124547157Y-74851235D01*
X124537723Y-74855081D01*
X124537556Y-74855274D01*
X124532234Y-74865083D01*
X124522578Y-74885998D01*
X124509503Y-74915794D01*
X124493922Y-74952251D01*
X124476751Y-74993147D01*
X124458902Y-75036259D01*
X124441292Y-75079364D01*
X124424833Y-75120242D01*
X124410440Y-75156670D01*
X124399027Y-75186426D01*
X124391509Y-75207287D01*
X124388800Y-75217033D01*
X124391917Y-75223315D01*
X124402424Y-75240431D01*
X124419443Y-75266810D01*
X124442039Y-75301037D01*
X124469277Y-75341698D01*
X124500224Y-75387379D01*
X124533943Y-75436665D01*
X124563375Y-75479795D01*
X124594809Y-75526606D01*
X124622638Y-75568853D01*
X124645922Y-75605069D01*
X124663719Y-75633787D01*
X124675087Y-75653540D01*
X124679086Y-75662861D01*
X124675278Y-75670688D01*
X124660948Y-75688968D01*
X124636015Y-75716972D01*
X124600526Y-75754650D01*
X124554527Y-75801949D01*
X124498066Y-75858820D01*
X124472048Y-75884804D01*
X124428808Y-75927826D01*
X124394135Y-75961967D01*
X124366945Y-75988176D01*
X124346156Y-76007401D01*
X124330684Y-76020590D01*
X124319446Y-76028692D01*
X124311360Y-76032654D01*
X124305342Y-76033424D01*
X124300309Y-76031952D01*
X124294574Y-76028645D01*
X124277270Y-76017618D01*
X124250617Y-76000093D01*
X124216146Y-75977092D01*
X124175386Y-75949637D01*
X124129868Y-75918751D01*
X124081121Y-75885458D01*
X124045323Y-75861020D01*
X123999592Y-75830074D01*
X123958555Y-75802617D01*
X123923663Y-75779602D01*
X123896363Y-75761982D01*
X123878104Y-75750712D01*
X123870334Y-75746743D01*
X123868540Y-75747067D01*
X123855126Y-75751679D01*
X123831357Y-75761022D01*
X123799387Y-75774159D01*
X123761372Y-75790152D01*
X123719467Y-75808066D01*
X123675825Y-75826963D01*
X123632601Y-75845907D01*
X123591951Y-75863960D01*
X123556030Y-75880187D01*
X123526991Y-75893650D01*
X123506990Y-75903413D01*
X123498181Y-75908538D01*
X123495811Y-75914074D01*
X123490683Y-75932725D01*
X123483665Y-75962657D01*
X123475126Y-76002143D01*
X123465437Y-76049458D01*
X123454967Y-76102875D01*
X123444088Y-76160670D01*
X123435982Y-76204153D01*
X123425542Y-76258814D01*
X123415902Y-76307803D01*
X123407415Y-76349398D01*
X123400436Y-76381875D01*
X123395316Y-76403512D01*
X123392411Y-76412586D01*
X123390395Y-76413998D01*
X123381425Y-76416260D01*
X123364717Y-76418069D01*
X123339143Y-76419463D01*
X123303573Y-76420481D01*
X123256878Y-76421160D01*
X123197929Y-76421539D01*
X123125597Y-76421657D01*
X123068950Y-76421508D01*
X123013316Y-76421046D01*
X122963919Y-76420310D01*
X122922413Y-76419340D01*
X122890453Y-76418175D01*
X122869697Y-76416854D01*
X122861799Y-76415416D01*
X122860515Y-76410950D01*
X122856685Y-76393594D01*
X122850811Y-76364869D01*
X122843230Y-76326485D01*
X122834278Y-76280153D01*
X122824293Y-76227583D01*
X122813610Y-76170487D01*
X122808847Y-76144970D01*
X122795757Y-76076492D01*
X122784677Y-76021387D01*
X122775442Y-75978927D01*
X122767889Y-75948380D01*
X122761852Y-75929019D01*
X122757168Y-75920114D01*
X122754467Y-75918260D01*
X122739582Y-75910730D01*
X122714285Y-75899285D01*
X122680738Y-75884797D01*
X122641101Y-75868140D01*
X122597535Y-75850184D01*
X122552200Y-75831803D01*
X122507258Y-75813869D01*
X122464869Y-75797253D01*
X122427193Y-75782829D01*
X122396392Y-75771467D01*
X122374627Y-75764042D01*
X122364057Y-75761424D01*
X122359490Y-75763359D01*
X122343781Y-75772532D01*
X122318658Y-75788375D01*
X122285600Y-75809919D01*
X122246085Y-75836197D01*
X122201593Y-75866243D01*
X122153600Y-75899090D01*
X122120347Y-75921896D01*
X122074611Y-75952925D01*
X122033397Y-75980492D01*
X121998182Y-76003630D01*
X121970444Y-76021371D01*
X121951659Y-76032748D01*
X121943305Y-76036794D01*
X121937503Y-76033188D01*
X121922303Y-76020368D01*
X121899214Y-75999386D01*
X121869477Y-75971413D01*
X121834336Y-75937620D01*
X121795031Y-75899176D01*
X121752805Y-75857253D01*
X121716939Y-75821132D01*
X121677860Y-75781146D01*
X121643252Y-75745056D01*
X121614291Y-75714118D01*
X121592151Y-75689590D01*
X121578005Y-75672729D01*
X121573029Y-75664793D01*
X121574511Y-75660758D01*
X121583053Y-75645431D01*
X121598335Y-75620635D01*
X121619377Y-75587883D01*
X121645202Y-75548690D01*
X121674831Y-75504570D01*
X121707286Y-75457038D01*
X121727306Y-75427825D01*
X121758141Y-75382310D01*
X121785561Y-75341199D01*
X121808588Y-75305993D01*
X121826245Y-75278191D01*
X121837556Y-75259294D01*
X121841543Y-75250804D01*
X121841323Y-75249319D01*
X121836445Y-75236322D01*
X121826134Y-75214007D01*
X121811680Y-75185069D01*
X121794371Y-75152202D01*
X121789755Y-75143596D01*
X121773066Y-75111591D01*
X121759553Y-75084290D01*
X121750503Y-75064358D01*
X121747200Y-75054459D01*
X121747489Y-75053201D01*
X121756425Y-75044699D01*
X121775944Y-75033345D01*
X121803443Y-75020700D01*
X121842989Y-75004216D01*
X121946001Y-74961361D01*
X122044475Y-74920510D01*
X122137608Y-74881992D01*
X122224594Y-74846134D01*
X122304631Y-74813266D01*
X122376913Y-74783715D01*
X122440637Y-74757809D01*
X122494998Y-74735878D01*
X122539191Y-74718249D01*
X122572414Y-74705250D01*
X122593860Y-74697210D01*
X122602727Y-74694457D01*
X122606074Y-74695652D01*
X122618035Y-74706250D01*
X122634424Y-74725853D01*
X122653152Y-74752074D01*
X122675447Y-74784208D01*
X122722377Y-74843093D01*
X122771052Y-74891419D01*
X122824236Y-74931748D01*
X122884693Y-74966641D01*
X122887180Y-74967898D01*
X122947776Y-74994009D01*
X123008585Y-75010684D01*
X123073787Y-75018757D01*
X123147560Y-75019060D01*
X123185879Y-75016825D01*
X123238226Y-75010496D01*
X123284618Y-74999588D01*
X123330185Y-74982772D01*
X123380057Y-74958714D01*
X123383092Y-74957111D01*
X123452204Y-74912478D01*
X123514926Y-74856423D01*
X123568881Y-74791399D01*
X123611691Y-74719857D01*
X123639251Y-74652531D01*
X123659327Y-74570491D01*
X123666323Y-74487134D01*
X123660622Y-74404094D01*
X123642605Y-74323006D01*
X123612656Y-74245503D01*
X123571157Y-74173221D01*
X123518492Y-74107793D01*
X123455042Y-74050854D01*
X123386090Y-74006345D01*
X123308514Y-73971624D01*
X123227202Y-73949218D01*
X123144022Y-73939341D01*
X123060840Y-73942209D01*
X122979523Y-73958037D01*
X122901938Y-73987041D01*
X122858524Y-74009350D01*
X122800177Y-74046696D01*
X122748581Y-74090455D01*
X122700759Y-74143273D01*
X122653736Y-74207795D01*
X122645561Y-74219708D01*
X122627083Y-74244130D01*
X122612105Y-74260383D01*
X122602538Y-74266286D01*
X122601564Y-74266180D01*
X122589122Y-74262419D01*
X122565241Y-74253699D01*
X122531304Y-74240599D01*
X122488693Y-74223700D01*
X122438790Y-74203580D01*
X122382977Y-74180819D01*
X122322637Y-74155996D01*
X122259152Y-74129692D01*
X122193905Y-74102485D01*
X122128278Y-74074956D01*
X122063653Y-74047683D01*
X122001412Y-74021246D01*
X121942938Y-73996225D01*
X121889614Y-73973199D01*
X121842820Y-73952749D01*
X121803941Y-73935452D01*
X121774358Y-73921889D01*
X121755453Y-73912640D01*
X121748609Y-73908283D01*
X121748639Y-73906652D01*
X121752878Y-73893559D01*
X121762657Y-73871197D01*
X121776759Y-73842223D01*
X121793966Y-73809293D01*
X121798898Y-73800092D01*
X121815633Y-73767934D01*
X121829173Y-73740466D01*
X121838237Y-73720355D01*
X121841543Y-73710270D01*
X121840025Y-73706436D01*
X121831446Y-73691468D01*
X121816149Y-73667001D01*
X121795110Y-73634533D01*
X121769302Y-73595560D01*
X121739703Y-73551581D01*
X121707286Y-73504092D01*
X121687028Y-73474511D01*
X121656250Y-73429139D01*
X121628886Y-73388272D01*
X121605908Y-73353395D01*
X121588291Y-73325989D01*
X121577006Y-73307538D01*
X121573029Y-73299526D01*
X121574247Y-73297304D01*
X121583757Y-73285901D01*
X121601526Y-73266458D01*
X121626143Y-73240398D01*
X121656199Y-73209141D01*
X121690283Y-73174111D01*
X121726985Y-73136730D01*
X121764895Y-73098420D01*
X121802602Y-73060603D01*
X121838697Y-73024702D01*
X121871770Y-72992139D01*
X121900410Y-72964337D01*
X121923207Y-72942717D01*
X121938751Y-72928702D01*
X121945631Y-72923714D01*
X121949107Y-72925423D01*
X121963379Y-72934250D01*
X121987195Y-72949737D01*
X122019103Y-72970919D01*
X122057655Y-72996830D01*
X122101399Y-73026506D01*
X122148885Y-73058981D01*
X122179311Y-73079809D01*
X122225157Y-73110948D01*
X122266623Y-73138822D01*
X122302200Y-73162432D01*
X122330375Y-73180778D01*
X122349640Y-73192860D01*
X122358482Y-73197679D01*
X122362467Y-73197375D01*
X122378881Y-73192893D01*
X122405366Y-73184064D01*
X122439798Y-73171725D01*
X122480056Y-73156711D01*
X122524018Y-73139858D01*
X122569560Y-73122002D01*
X122614561Y-73103980D01*
X122656899Y-73086627D01*
X122694451Y-73070780D01*
X122725094Y-73057273D01*
X122746708Y-73046944D01*
X122757168Y-73040629D01*
X122758566Y-73038814D01*
X122763677Y-73026557D01*
X122770193Y-73003605D01*
X122778280Y-72969228D01*
X122788102Y-72922697D01*
X122799824Y-72863283D01*
X122813610Y-72790256D01*
X122821137Y-72749941D01*
X122831367Y-72695830D01*
X122840665Y-72647441D01*
X122848694Y-72606485D01*
X122855117Y-72574674D01*
X122859598Y-72553718D01*
X122861799Y-72545327D01*
X122868877Y-72543969D01*
X122888937Y-72542640D01*
X122920295Y-72541465D01*
X122961296Y-72540483D01*
X123010283Y-72539733D01*
X123065602Y-72539254D01*
X123125597Y-72539086D01*
X123166084Y-72539119D01*
G37*
%LPC*%
D12*
X137165000Y-76008000D03*
X119385000Y-76008000D03*
X119385000Y-114108000D03*
X137165000Y-114108000D03*
D13*
X116845000Y-81083000D03*
D14*
X116845000Y-83623000D03*
X116845000Y-86163000D03*
X116845000Y-88703000D03*
X116845000Y-91243000D03*
X116845000Y-93783000D03*
X116845000Y-96323000D03*
X116845000Y-98863000D03*
X116845000Y-101403000D03*
X116845000Y-103943000D03*
X116845000Y-106483000D03*
X116845000Y-109023000D03*
D15*
X139705000Y-81083000D03*
D14*
X139705000Y-83623000D03*
X139705000Y-86163000D03*
X139705000Y-88703000D03*
X139705000Y-91243000D03*
D13*
X139705000Y-93783000D03*
D14*
X139705000Y-96323000D03*
X139705000Y-98863000D03*
X139705000Y-101403000D03*
X139705000Y-103943000D03*
X139705000Y-106483000D03*
X139705000Y-109023000D03*
M02*
