G04 #@! TF.GenerationSoftware,KiCad,Pcbnew,(6.0.6)*
G04 #@! TF.CreationDate,2022-10-28T15:12:27+11:00*
G04 #@! TF.ProjectId,CE-LoRa-E5-Breakout-Module,43452d4c-6f52-4612-9d45-352d42726561,rev?*
G04 #@! TF.SameCoordinates,Original*
G04 #@! TF.FileFunction,Legend,Top*
G04 #@! TF.FilePolarity,Positive*
%FSLAX46Y46*%
G04 Gerber Fmt 4.6, Leading zero omitted, Abs format (unit mm)*
G04 Created by KiCad (PCBNEW (6.0.6)) date 2022-10-28 15:12:27*
%MOMM*%
%LPD*%
G01*
G04 APERTURE LIST*
G04 Aperture macros list*
%AMRoundRect*
0 Rectangle with rounded corners*
0 $1 Rounding radius*
0 $2 $3 $4 $5 $6 $7 $8 $9 X,Y pos of 4 corners*
0 Add a 4 corners polygon primitive as box body*
4,1,4,$2,$3,$4,$5,$6,$7,$8,$9,$2,$3,0*
0 Add four circle primitives for the rounded corners*
1,1,$1+$1,$2,$3*
1,1,$1+$1,$4,$5*
1,1,$1+$1,$6,$7*
1,1,$1+$1,$8,$9*
0 Add four rect primitives between the rounded corners*
20,1,$1+$1,$2,$3,$4,$5,0*
20,1,$1+$1,$4,$5,$6,$7,0*
20,1,$1+$1,$6,$7,$8,$9,0*
20,1,$1+$1,$8,$9,$2,$3,0*%
G04 Aperture macros list end*
%ADD10C,0.150000*%
%ADD11C,0.200000*%
%ADD12C,0.120000*%
%ADD13C,0.010000*%
%ADD14C,3.200000*%
%ADD15R,1.700000X1.700000*%
%ADD16O,1.700000X1.700000*%
%ADD17C,1.700000*%
%ADD18RoundRect,0.135000X0.135000X0.185000X-0.135000X0.185000X-0.135000X-0.185000X0.135000X-0.185000X0*%
%ADD19RoundRect,0.218750X0.218750X0.256250X-0.218750X0.256250X-0.218750X-0.256250X0.218750X-0.256250X0*%
%ADD20C,2.000000*%
%ADD21RoundRect,0.150000X-0.587500X-0.150000X0.587500X-0.150000X0.587500X0.150000X-0.587500X0.150000X0*%
%ADD22RoundRect,0.140000X0.170000X-0.140000X0.170000X0.140000X-0.170000X0.140000X-0.170000X-0.140000X0*%
%ADD23RoundRect,0.225000X0.250000X-0.225000X0.250000X0.225000X-0.250000X0.225000X-0.250000X-0.225000X0*%
%ADD24R,1.000000X2.300000*%
%ADD25R,2.300000X1.000000*%
%ADD26R,1.000000X1.050000*%
%ADD27R,1.050000X2.200000*%
%ADD28RoundRect,0.135000X-0.135000X-0.185000X0.135000X-0.185000X0.135000X0.185000X-0.135000X0.185000X0*%
%ADD29R,1.400000X1.600000*%
%ADD30RoundRect,0.140000X0.140000X0.170000X-0.140000X0.170000X-0.140000X-0.170000X0.140000X-0.170000X0*%
%ADD31R,2.500000X1.800000*%
%ADD32RoundRect,0.218750X-0.218750X-0.256250X0.218750X-0.256250X0.218750X0.256250X-0.218750X0.256250X0*%
G04 APERTURE END LIST*
D10*
X136225380Y-101860380D02*
X136225380Y-100860380D01*
X136682523Y-101860380D01*
X136682523Y-100860380D01*
X137025380Y-101812761D02*
X137139666Y-101860380D01*
X137330142Y-101860380D01*
X137406333Y-101812761D01*
X137444428Y-101765142D01*
X137482523Y-101669904D01*
X137482523Y-101574666D01*
X137444428Y-101479428D01*
X137406333Y-101431809D01*
X137330142Y-101384190D01*
X137177761Y-101336571D01*
X137101571Y-101288952D01*
X137063476Y-101241333D01*
X137025380Y-101146095D01*
X137025380Y-101050857D01*
X137063476Y-100955619D01*
X137101571Y-100908000D01*
X137177761Y-100860380D01*
X137368237Y-100860380D01*
X137482523Y-100908000D01*
X137787285Y-101812761D02*
X137901571Y-101860380D01*
X138092047Y-101860380D01*
X138168237Y-101812761D01*
X138206333Y-101765142D01*
X138244428Y-101669904D01*
X138244428Y-101574666D01*
X138206333Y-101479428D01*
X138168237Y-101431809D01*
X138092047Y-101384190D01*
X137939666Y-101336571D01*
X137863476Y-101288952D01*
X137825380Y-101241333D01*
X137787285Y-101146095D01*
X137787285Y-101050857D01*
X137825380Y-100955619D01*
X137863476Y-100908000D01*
X137939666Y-100860380D01*
X138130142Y-100860380D01*
X138244428Y-100908000D01*
X135692048Y-96780380D02*
X135692048Y-95780380D01*
X135958714Y-96494666D01*
X136225381Y-95780380D01*
X136225381Y-96780380D01*
X136758714Y-95780380D02*
X136911095Y-95780380D01*
X136987286Y-95828000D01*
X137063476Y-95923238D01*
X137101571Y-96113714D01*
X137101571Y-96447047D01*
X137063476Y-96637523D01*
X136987286Y-96732761D01*
X136911095Y-96780380D01*
X136758714Y-96780380D01*
X136682524Y-96732761D01*
X136606333Y-96637523D01*
X136568238Y-96447047D01*
X136568238Y-96113714D01*
X136606333Y-95923238D01*
X136682524Y-95828000D01*
X136758714Y-95780380D01*
X137406333Y-96732761D02*
X137520619Y-96780380D01*
X137711095Y-96780380D01*
X137787286Y-96732761D01*
X137825381Y-96685142D01*
X137863476Y-96589904D01*
X137863476Y-96494666D01*
X137825381Y-96399428D01*
X137787286Y-96351809D01*
X137711095Y-96304190D01*
X137558714Y-96256571D01*
X137482524Y-96208952D01*
X137444429Y-96161333D01*
X137406333Y-96066095D01*
X137406333Y-95970857D01*
X137444429Y-95875619D01*
X137482524Y-95828000D01*
X137558714Y-95780380D01*
X137749191Y-95780380D01*
X137863476Y-95828000D01*
X138206333Y-96780380D02*
X138206333Y-95780380D01*
X118288690Y-103400380D02*
X118745833Y-103400380D01*
X118517261Y-104400380D02*
X118517261Y-103400380D01*
X118936309Y-103400380D02*
X119469642Y-104400380D01*
X119469642Y-103400380D02*
X118936309Y-104400380D01*
X120193452Y-104400380D02*
X119736309Y-104400380D01*
X119964880Y-104400380D02*
X119964880Y-103400380D01*
X119888690Y-103543238D01*
X119812500Y-103638476D01*
X119736309Y-103686095D01*
X136263476Y-106940380D02*
X136263476Y-105940380D01*
X136453952Y-105940380D01*
X136568238Y-105988000D01*
X136644428Y-106083238D01*
X136682524Y-106178476D01*
X136720619Y-106368952D01*
X136720619Y-106511809D01*
X136682524Y-106702285D01*
X136644428Y-106797523D01*
X136568238Y-106892761D01*
X136453952Y-106940380D01*
X136263476Y-106940380D01*
X137482524Y-106940380D02*
X137025381Y-106940380D01*
X137253952Y-106940380D02*
X137253952Y-105940380D01*
X137177762Y-106083238D01*
X137101571Y-106178476D01*
X137025381Y-106226095D01*
X137977762Y-105940380D02*
X138053952Y-105940380D01*
X138130143Y-105988000D01*
X138168238Y-106035619D01*
X138206333Y-106130857D01*
X138244428Y-106321333D01*
X138244428Y-106559428D01*
X138206333Y-106749904D01*
X138168238Y-106845142D01*
X138130143Y-106892761D01*
X138053952Y-106940380D01*
X137977762Y-106940380D01*
X137901571Y-106892761D01*
X137863476Y-106845142D01*
X137825381Y-106749904D01*
X137787285Y-106559428D01*
X137787285Y-106321333D01*
X137825381Y-106130857D01*
X137863476Y-106035619D01*
X137901571Y-105988000D01*
X137977762Y-105940380D01*
X136796809Y-89065142D02*
X136758714Y-89112761D01*
X136644428Y-89160380D01*
X136568238Y-89160380D01*
X136453952Y-89112761D01*
X136377761Y-89017523D01*
X136339666Y-88922285D01*
X136301571Y-88731809D01*
X136301571Y-88588952D01*
X136339666Y-88398476D01*
X136377761Y-88303238D01*
X136453952Y-88208000D01*
X136568238Y-88160380D01*
X136644428Y-88160380D01*
X136758714Y-88208000D01*
X136796809Y-88255619D01*
X137520619Y-89160380D02*
X137139666Y-89160380D01*
X137139666Y-88160380D01*
X137787285Y-89160380D02*
X137787285Y-88160380D01*
X138244428Y-89160380D02*
X137901571Y-88588952D01*
X138244428Y-88160380D02*
X137787285Y-88731809D01*
X136187285Y-104352761D02*
X136301571Y-104400380D01*
X136492047Y-104400380D01*
X136568237Y-104352761D01*
X136606333Y-104305142D01*
X136644428Y-104209904D01*
X136644428Y-104114666D01*
X136606333Y-104019428D01*
X136568237Y-103971809D01*
X136492047Y-103924190D01*
X136339666Y-103876571D01*
X136263476Y-103828952D01*
X136225380Y-103781333D01*
X136187285Y-103686095D01*
X136187285Y-103590857D01*
X136225380Y-103495619D01*
X136263476Y-103448000D01*
X136339666Y-103400380D01*
X136530142Y-103400380D01*
X136644428Y-103448000D01*
X137444428Y-104305142D02*
X137406333Y-104352761D01*
X137292047Y-104400380D01*
X137215857Y-104400380D01*
X137101571Y-104352761D01*
X137025380Y-104257523D01*
X136987285Y-104162285D01*
X136949190Y-103971809D01*
X136949190Y-103828952D01*
X136987285Y-103638476D01*
X137025380Y-103543238D01*
X137101571Y-103448000D01*
X137215857Y-103400380D01*
X137292047Y-103400380D01*
X137406333Y-103448000D01*
X137444428Y-103495619D01*
X137787285Y-104400380D02*
X137787285Y-103400380D01*
X138244428Y-104400380D02*
X137901571Y-103828952D01*
X138244428Y-103400380D02*
X137787285Y-103971809D01*
X118364880Y-84032761D02*
X118479166Y-84080380D01*
X118669642Y-84080380D01*
X118745833Y-84032761D01*
X118783928Y-83985142D01*
X118822023Y-83889904D01*
X118822023Y-83794666D01*
X118783928Y-83699428D01*
X118745833Y-83651809D01*
X118669642Y-83604190D01*
X118517261Y-83556571D01*
X118441071Y-83508952D01*
X118402976Y-83461333D01*
X118364880Y-83366095D01*
X118364880Y-83270857D01*
X118402976Y-83175619D01*
X118441071Y-83128000D01*
X118517261Y-83080380D01*
X118707738Y-83080380D01*
X118822023Y-83128000D01*
X119622023Y-83985142D02*
X119583928Y-84032761D01*
X119469642Y-84080380D01*
X119393452Y-84080380D01*
X119279166Y-84032761D01*
X119202976Y-83937523D01*
X119164880Y-83842285D01*
X119126785Y-83651809D01*
X119126785Y-83508952D01*
X119164880Y-83318476D01*
X119202976Y-83223238D01*
X119279166Y-83128000D01*
X119393452Y-83080380D01*
X119469642Y-83080380D01*
X119583928Y-83128000D01*
X119622023Y-83175619D01*
X120345833Y-84080380D02*
X119964880Y-84080380D01*
X119964880Y-83080380D01*
X118359478Y-88873262D02*
X118740431Y-88873262D01*
X118283288Y-89158976D02*
X118549955Y-88158976D01*
X118816621Y-89158976D01*
X119426145Y-88492310D02*
X119426145Y-89158976D01*
X119235669Y-88111357D02*
X119045193Y-88825643D01*
X119540431Y-88825643D01*
X136568238Y-93288000D02*
X136492047Y-93240380D01*
X136377762Y-93240380D01*
X136263476Y-93288000D01*
X136187285Y-93383238D01*
X136149190Y-93478476D01*
X136111095Y-93668952D01*
X136111095Y-93811809D01*
X136149190Y-94002285D01*
X136187285Y-94097523D01*
X136263476Y-94192761D01*
X136377762Y-94240380D01*
X136453952Y-94240380D01*
X136568238Y-94192761D01*
X136606333Y-94145142D01*
X136606333Y-93811809D01*
X136453952Y-93811809D01*
X136949190Y-94240380D02*
X136949190Y-93240380D01*
X137406333Y-94240380D01*
X137406333Y-93240380D01*
X137787285Y-94240380D02*
X137787285Y-93240380D01*
X137977762Y-93240380D01*
X138092047Y-93288000D01*
X138168238Y-93383238D01*
X138206333Y-93478476D01*
X138244428Y-93668952D01*
X138244428Y-93811809D01*
X138206333Y-94002285D01*
X138168238Y-94097523D01*
X138092047Y-94192761D01*
X137977762Y-94240380D01*
X137787285Y-94240380D01*
X118288690Y-95780380D02*
X118745833Y-95780380D01*
X118517261Y-96780380D02*
X118517261Y-95780380D01*
X118936309Y-95780380D02*
X119469642Y-96780380D01*
X119469642Y-95780380D02*
X118936309Y-96780380D01*
D11*
X122758380Y-78603380D02*
X122282190Y-78936714D01*
X122758380Y-79174809D02*
X121758380Y-79174809D01*
X121758380Y-78793857D01*
X121806000Y-78698619D01*
X121853619Y-78651000D01*
X121948857Y-78603380D01*
X122091714Y-78603380D01*
X122186952Y-78651000D01*
X122234571Y-78698619D01*
X122282190Y-78793857D01*
X122282190Y-79174809D01*
X122234571Y-78174809D02*
X122234571Y-77841476D01*
X122758380Y-77698619D02*
X122758380Y-78174809D01*
X121758380Y-78174809D01*
X121758380Y-77698619D01*
X122710761Y-77317666D02*
X122758380Y-77174809D01*
X122758380Y-76936714D01*
X122710761Y-76841476D01*
X122663142Y-76793857D01*
X122567904Y-76746238D01*
X122472666Y-76746238D01*
X122377428Y-76793857D01*
X122329809Y-76841476D01*
X122282190Y-76936714D01*
X122234571Y-77127190D01*
X122186952Y-77222428D01*
X122139333Y-77270047D01*
X122044095Y-77317666D01*
X121948857Y-77317666D01*
X121853619Y-77270047D01*
X121806000Y-77222428D01*
X121758380Y-77127190D01*
X121758380Y-76889095D01*
X121806000Y-76746238D01*
X122234571Y-76317666D02*
X122234571Y-75984333D01*
X122758380Y-75841476D02*
X122758380Y-76317666D01*
X121758380Y-76317666D01*
X121758380Y-75841476D01*
X121758380Y-75555761D02*
X121758380Y-74984333D01*
X122758380Y-75270047D02*
X121758380Y-75270047D01*
D10*
X118860119Y-101860380D02*
X118593452Y-101384190D01*
X118402976Y-101860380D02*
X118402976Y-100860380D01*
X118707738Y-100860380D01*
X118783928Y-100908000D01*
X118822023Y-100955619D01*
X118860119Y-101050857D01*
X118860119Y-101193714D01*
X118822023Y-101288952D01*
X118783928Y-101336571D01*
X118707738Y-101384190D01*
X118402976Y-101384190D01*
X119126785Y-100860380D02*
X119660119Y-101860380D01*
X119660119Y-100860380D02*
X119126785Y-101860380D01*
X120383928Y-101860380D02*
X119926785Y-101860380D01*
X120155357Y-101860380D02*
X120155357Y-100860380D01*
X120079166Y-101003238D01*
X120002976Y-101098476D01*
X119926785Y-101146095D01*
X130084904Y-92208380D02*
X130084904Y-91208380D01*
X130465857Y-91208380D01*
X130561095Y-91256000D01*
X130608714Y-91303619D01*
X130656333Y-91398857D01*
X130656333Y-91541714D01*
X130608714Y-91636952D01*
X130561095Y-91684571D01*
X130465857Y-91732190D01*
X130084904Y-91732190D01*
X131418238Y-91684571D02*
X131561095Y-91732190D01*
X131608714Y-91779809D01*
X131656333Y-91875047D01*
X131656333Y-92017904D01*
X131608714Y-92113142D01*
X131561095Y-92160761D01*
X131465857Y-92208380D01*
X131084904Y-92208380D01*
X131084904Y-91208380D01*
X131418238Y-91208380D01*
X131513476Y-91256000D01*
X131561095Y-91303619D01*
X131608714Y-91398857D01*
X131608714Y-91494095D01*
X131561095Y-91589333D01*
X131513476Y-91636952D01*
X131418238Y-91684571D01*
X131084904Y-91684571D01*
X132561095Y-91208380D02*
X132084904Y-91208380D01*
X132037285Y-91684571D01*
X132084904Y-91636952D01*
X132180142Y-91589333D01*
X132418238Y-91589333D01*
X132513476Y-91636952D01*
X132561095Y-91684571D01*
X132608714Y-91779809D01*
X132608714Y-92017904D01*
X132561095Y-92113142D01*
X132513476Y-92160761D01*
X132418238Y-92208380D01*
X132180142Y-92208380D01*
X132084904Y-92160761D01*
X132037285Y-92113142D01*
X118397574Y-99315232D02*
X118397574Y-98315232D01*
X118588050Y-98315232D01*
X118702336Y-98362852D01*
X118778526Y-98458090D01*
X118816621Y-98553328D01*
X118854717Y-98743804D01*
X118854717Y-98886661D01*
X118816621Y-99077137D01*
X118778526Y-99172375D01*
X118702336Y-99267613D01*
X118588050Y-99315232D01*
X118397574Y-99315232D01*
X119349955Y-98315232D02*
X119426145Y-98315232D01*
X119502336Y-98362852D01*
X119540431Y-98410471D01*
X119578526Y-98505709D01*
X119616621Y-98696185D01*
X119616621Y-98934280D01*
X119578526Y-99124756D01*
X119540431Y-99219994D01*
X119502336Y-99267613D01*
X119426145Y-99315232D01*
X119349955Y-99315232D01*
X119273764Y-99267613D01*
X119235669Y-99219994D01*
X119197574Y-99124756D01*
X119159478Y-98934280D01*
X119159478Y-98696185D01*
X119197574Y-98505709D01*
X119235669Y-98410471D01*
X119273764Y-98362852D01*
X119349955Y-98315232D01*
X118860119Y-106940380D02*
X118593452Y-106464190D01*
X118402976Y-106940380D02*
X118402976Y-105940380D01*
X118707738Y-105940380D01*
X118783928Y-105988000D01*
X118822023Y-106035619D01*
X118860119Y-106130857D01*
X118860119Y-106273714D01*
X118822023Y-106368952D01*
X118783928Y-106416571D01*
X118707738Y-106464190D01*
X118402976Y-106464190D01*
X119126785Y-105940380D02*
X119660119Y-106940380D01*
X119660119Y-105940380D02*
X119126785Y-106940380D01*
X119926785Y-106035619D02*
X119964880Y-105988000D01*
X120041071Y-105940380D01*
X120231547Y-105940380D01*
X120307738Y-105988000D01*
X120345833Y-106035619D01*
X120383928Y-106130857D01*
X120383928Y-106226095D01*
X120345833Y-106368952D01*
X119888690Y-106940380D01*
X120383928Y-106940380D01*
X136301571Y-83080380D02*
X136796809Y-83080380D01*
X136530143Y-83461333D01*
X136644428Y-83461333D01*
X136720619Y-83508952D01*
X136758714Y-83556571D01*
X136796809Y-83651809D01*
X136796809Y-83889904D01*
X136758714Y-83985142D01*
X136720619Y-84032761D01*
X136644428Y-84080380D01*
X136415857Y-84080380D01*
X136339667Y-84032761D01*
X136301571Y-83985142D01*
X137025381Y-83080380D02*
X137292048Y-84080380D01*
X137558714Y-83080380D01*
X137749190Y-83080380D02*
X138244428Y-83080380D01*
X137977762Y-83461333D01*
X138092048Y-83461333D01*
X138168238Y-83508952D01*
X138206333Y-83556571D01*
X138244428Y-83651809D01*
X138244428Y-83889904D01*
X138206333Y-83985142D01*
X138168238Y-84032761D01*
X138092048Y-84080380D01*
X137863476Y-84080380D01*
X137787286Y-84032761D01*
X137749190Y-83985142D01*
X136568238Y-86620380D02*
X136568238Y-85620380D01*
X136758714Y-85620380D01*
X136873000Y-85668000D01*
X136949190Y-85763238D01*
X136987286Y-85858476D01*
X137025381Y-86048952D01*
X137025381Y-86191809D01*
X136987286Y-86382285D01*
X136949190Y-86477523D01*
X136873000Y-86572761D01*
X136758714Y-86620380D01*
X136568238Y-86620380D01*
X137368238Y-86620380D02*
X137368238Y-85620380D01*
X137901571Y-85620380D02*
X138053952Y-85620380D01*
X138130143Y-85668000D01*
X138206333Y-85763238D01*
X138244428Y-85953714D01*
X138244428Y-86287047D01*
X138206333Y-86477523D01*
X138130143Y-86572761D01*
X138053952Y-86620380D01*
X137901571Y-86620380D01*
X137825381Y-86572761D01*
X137749190Y-86477523D01*
X137711095Y-86287047D01*
X137711095Y-85953714D01*
X137749190Y-85763238D01*
X137825381Y-85668000D01*
X137901571Y-85620380D01*
X118822023Y-80588000D02*
X118745833Y-80540380D01*
X118631547Y-80540380D01*
X118517261Y-80588000D01*
X118441071Y-80683238D01*
X118402976Y-80778476D01*
X118364880Y-80968952D01*
X118364880Y-81111809D01*
X118402976Y-81302285D01*
X118441071Y-81397523D01*
X118517261Y-81492761D01*
X118631547Y-81540380D01*
X118707738Y-81540380D01*
X118822023Y-81492761D01*
X118860119Y-81445142D01*
X118860119Y-81111809D01*
X118707738Y-81111809D01*
X137520619Y-80540380D02*
X137139666Y-80540380D01*
X137101571Y-81016571D01*
X137139666Y-80968952D01*
X137215857Y-80921333D01*
X137406333Y-80921333D01*
X137482523Y-80968952D01*
X137520619Y-81016571D01*
X137558714Y-81111809D01*
X137558714Y-81349904D01*
X137520619Y-81445142D01*
X137482523Y-81492761D01*
X137406333Y-81540380D01*
X137215857Y-81540380D01*
X137139666Y-81492761D01*
X137101571Y-81445142D01*
X137787285Y-80540380D02*
X138053952Y-81540380D01*
X138320619Y-80540380D01*
X137025380Y-109476392D02*
X137025380Y-108476392D01*
X137215857Y-108476392D01*
X137330142Y-108524012D01*
X137406333Y-108619250D01*
X137444428Y-108714488D01*
X137482523Y-108904964D01*
X137482523Y-109047821D01*
X137444428Y-109238297D01*
X137406333Y-109333535D01*
X137330142Y-109428773D01*
X137215857Y-109476392D01*
X137025380Y-109476392D01*
X137863476Y-109476392D02*
X138015857Y-109476392D01*
X138092047Y-109428773D01*
X138130142Y-109381154D01*
X138206333Y-109238297D01*
X138244428Y-109047821D01*
X138244428Y-108666869D01*
X138206333Y-108571631D01*
X138168237Y-108524012D01*
X138092047Y-108476392D01*
X137939666Y-108476392D01*
X137863476Y-108524012D01*
X137825380Y-108571631D01*
X137787285Y-108666869D01*
X137787285Y-108904964D01*
X137825380Y-109000202D01*
X137863476Y-109047821D01*
X137939666Y-109095440D01*
X138092047Y-109095440D01*
X138168237Y-109047821D01*
X138206333Y-109000202D01*
X138244428Y-108904964D01*
X118364880Y-86572761D02*
X118479166Y-86620380D01*
X118669642Y-86620380D01*
X118745833Y-86572761D01*
X118783928Y-86525142D01*
X118822023Y-86429904D01*
X118822023Y-86334666D01*
X118783928Y-86239428D01*
X118745833Y-86191809D01*
X118669642Y-86144190D01*
X118517261Y-86096571D01*
X118441071Y-86048952D01*
X118402976Y-86001333D01*
X118364880Y-85906095D01*
X118364880Y-85810857D01*
X118402976Y-85715619D01*
X118441071Y-85668000D01*
X118517261Y-85620380D01*
X118707738Y-85620380D01*
X118822023Y-85668000D01*
X119164880Y-86620380D02*
X119164880Y-85620380D01*
X119355357Y-85620380D01*
X119469642Y-85668000D01*
X119545833Y-85763238D01*
X119583928Y-85858476D01*
X119622023Y-86048952D01*
X119622023Y-86191809D01*
X119583928Y-86382285D01*
X119545833Y-86477523D01*
X119469642Y-86572761D01*
X119355357Y-86620380D01*
X119164880Y-86620380D01*
X119926785Y-86334666D02*
X120307738Y-86334666D01*
X119850595Y-86620380D02*
X120117261Y-85620380D01*
X120383928Y-86620380D01*
X135692048Y-99320380D02*
X135692048Y-98320380D01*
X135958714Y-99034666D01*
X136225381Y-98320380D01*
X136225381Y-99320380D01*
X136606333Y-99320380D02*
X136606333Y-98320380D01*
X136949191Y-99272761D02*
X137063476Y-99320380D01*
X137253952Y-99320380D01*
X137330143Y-99272761D01*
X137368238Y-99225142D01*
X137406333Y-99129904D01*
X137406333Y-99034666D01*
X137368238Y-98939428D01*
X137330143Y-98891809D01*
X137253952Y-98844190D01*
X137101571Y-98796571D01*
X137025381Y-98748952D01*
X136987286Y-98701333D01*
X136949191Y-98606095D01*
X136949191Y-98510857D01*
X136987286Y-98415619D01*
X137025381Y-98368000D01*
X137101571Y-98320380D01*
X137292048Y-98320380D01*
X137406333Y-98368000D01*
X137901571Y-98320380D02*
X138053952Y-98320380D01*
X138130143Y-98368000D01*
X138206333Y-98463238D01*
X138244429Y-98653714D01*
X138244429Y-98987047D01*
X138206333Y-99177523D01*
X138130143Y-99272761D01*
X138053952Y-99320380D01*
X137901571Y-99320380D01*
X137825381Y-99272761D01*
X137749191Y-99177523D01*
X137711095Y-98987047D01*
X137711095Y-98653714D01*
X137749191Y-98463238D01*
X137825381Y-98368000D01*
X137901571Y-98320380D01*
X118364880Y-91414666D02*
X118745833Y-91414666D01*
X118288690Y-91700380D02*
X118555357Y-90700380D01*
X118822023Y-91700380D01*
X119012500Y-90700380D02*
X119507738Y-90700380D01*
X119241071Y-91081333D01*
X119355357Y-91081333D01*
X119431547Y-91128952D01*
X119469642Y-91176571D01*
X119507738Y-91271809D01*
X119507738Y-91509904D01*
X119469642Y-91605142D01*
X119431547Y-91652761D01*
X119355357Y-91700380D01*
X119126785Y-91700380D01*
X119050595Y-91652761D01*
X119012500Y-91605142D01*
X118854717Y-94237104D02*
X118588050Y-93760914D01*
X118397574Y-94237104D02*
X118397574Y-93237104D01*
X118702336Y-93237104D01*
X118778526Y-93284724D01*
X118816621Y-93332343D01*
X118854717Y-93427581D01*
X118854717Y-93570438D01*
X118816621Y-93665676D01*
X118778526Y-93713295D01*
X118702336Y-93760914D01*
X118397574Y-93760914D01*
X119121383Y-93237104D02*
X119654717Y-94237104D01*
X119654717Y-93237104D02*
X119121383Y-94237104D01*
X118288690Y-108480380D02*
X118745833Y-108480380D01*
X118517261Y-109480380D02*
X118517261Y-108480380D01*
X118936309Y-108480380D02*
X119469642Y-109480380D01*
X119469642Y-108480380D02*
X118936309Y-109480380D01*
X119736309Y-108575619D02*
X119774404Y-108528000D01*
X119850595Y-108480380D01*
X120041071Y-108480380D01*
X120117261Y-108528000D01*
X120155357Y-108575619D01*
X120193452Y-108670857D01*
X120193452Y-108766095D01*
X120155357Y-108908952D01*
X119698214Y-109480380D01*
X120193452Y-109480380D01*
X136872999Y-91700380D02*
X136606333Y-91224190D01*
X136415856Y-91700380D02*
X136415856Y-90700380D01*
X136720618Y-90700380D01*
X136796809Y-90748000D01*
X136834904Y-90795619D01*
X136872999Y-90890857D01*
X136872999Y-91033714D01*
X136834904Y-91128952D01*
X136796809Y-91176571D01*
X136720618Y-91224190D01*
X136415856Y-91224190D01*
X137177761Y-91652761D02*
X137292047Y-91700380D01*
X137482523Y-91700380D01*
X137558714Y-91652761D01*
X137596809Y-91605142D01*
X137634904Y-91509904D01*
X137634904Y-91414666D01*
X137596809Y-91319428D01*
X137558714Y-91271809D01*
X137482523Y-91224190D01*
X137330142Y-91176571D01*
X137253952Y-91128952D01*
X137215856Y-91081333D01*
X137177761Y-90986095D01*
X137177761Y-90890857D01*
X137215856Y-90795619D01*
X137253952Y-90748000D01*
X137330142Y-90700380D01*
X137520618Y-90700380D01*
X137634904Y-90748000D01*
X137863475Y-90700380D02*
X138320618Y-90700380D01*
X138092047Y-91700380D02*
X138092047Y-90700380D01*
D11*
X134172571Y-78635142D02*
X134220190Y-78492285D01*
X134267809Y-78444666D01*
X134363047Y-78397047D01*
X134505904Y-78397047D01*
X134601142Y-78444666D01*
X134648761Y-78492285D01*
X134696380Y-78587523D01*
X134696380Y-78968476D01*
X133696380Y-78968476D01*
X133696380Y-78635142D01*
X133744000Y-78539904D01*
X133791619Y-78492285D01*
X133886857Y-78444666D01*
X133982095Y-78444666D01*
X134077333Y-78492285D01*
X134124952Y-78539904D01*
X134172571Y-78635142D01*
X134172571Y-78968476D01*
X133696380Y-77778000D02*
X133696380Y-77587523D01*
X133744000Y-77492285D01*
X133839238Y-77397047D01*
X134029714Y-77349428D01*
X134363047Y-77349428D01*
X134553523Y-77397047D01*
X134648761Y-77492285D01*
X134696380Y-77587523D01*
X134696380Y-77778000D01*
X134648761Y-77873238D01*
X134553523Y-77968476D01*
X134363047Y-78016095D01*
X134029714Y-78016095D01*
X133839238Y-77968476D01*
X133744000Y-77873238D01*
X133696380Y-77778000D01*
X133696380Y-76730380D02*
X133696380Y-76539904D01*
X133744000Y-76444666D01*
X133839238Y-76349428D01*
X134029714Y-76301809D01*
X134363047Y-76301809D01*
X134553523Y-76349428D01*
X134648761Y-76444666D01*
X134696380Y-76539904D01*
X134696380Y-76730380D01*
X134648761Y-76825619D01*
X134553523Y-76920857D01*
X134363047Y-76968476D01*
X134029714Y-76968476D01*
X133839238Y-76920857D01*
X133744000Y-76825619D01*
X133696380Y-76730380D01*
X133696380Y-76016095D02*
X133696380Y-75444666D01*
X134696380Y-75730380D02*
X133696380Y-75730380D01*
G36*
X130189049Y-110477308D02*
G01*
X130185953Y-110548508D01*
X130166347Y-110603197D01*
X130111658Y-110644988D01*
X130005375Y-110658918D01*
X129890837Y-110639828D01*
X129836147Y-110582559D01*
X129823765Y-110475244D01*
X129823765Y-109878821D01*
X130189049Y-109878821D01*
X130453209Y-109878821D01*
X130572906Y-109833418D01*
X130632755Y-109697211D01*
X130572906Y-109559971D01*
X130449081Y-109513537D01*
X130189049Y-109513537D01*
X130189049Y-109878821D01*
X129823765Y-109878821D01*
X129823765Y-109329863D01*
X129826861Y-109258664D01*
X129846466Y-109203974D01*
X129901156Y-109162183D01*
X130007439Y-109148253D01*
X130453209Y-109148253D01*
X130573136Y-109162929D01*
X130690769Y-109206955D01*
X130806110Y-109280333D01*
X130881437Y-109355660D01*
X130942317Y-109453688D01*
X130982561Y-109569258D01*
X130995975Y-109697211D01*
X130978777Y-109843508D01*
X130927183Y-109971460D01*
X130841194Y-110081068D01*
X130876965Y-110165682D01*
X130923744Y-110273685D01*
X130981529Y-110405077D01*
X131012485Y-110512392D01*
X130980497Y-110584623D01*
X130884532Y-110644472D01*
X130778249Y-110673364D01*
X130712209Y-110653759D01*
X130674030Y-110613516D01*
X130646972Y-110554584D01*
X130593314Y-110430071D01*
X130513057Y-110239977D01*
X130449081Y-110244104D01*
X130189049Y-110244104D01*
X130189049Y-110477308D01*
G37*
G36*
X134321708Y-109151349D02*
G01*
X134376397Y-109170954D01*
X134418188Y-109225644D01*
X134432119Y-109331927D01*
X134413029Y-109446465D01*
X134355760Y-109501154D01*
X134248445Y-109513537D01*
X133614874Y-109513537D01*
X133614874Y-109721976D01*
X134023496Y-109721976D01*
X134094696Y-109725071D01*
X134149385Y-109744677D01*
X134191176Y-109799366D01*
X134205106Y-109905649D01*
X134185501Y-110020188D01*
X134126684Y-110074877D01*
X134019369Y-110087259D01*
X133614874Y-110087259D01*
X133614874Y-110295698D01*
X134250509Y-110295698D01*
X134321708Y-110298794D01*
X134376397Y-110318399D01*
X134418188Y-110373089D01*
X134432119Y-110479372D01*
X134413029Y-110593910D01*
X134355760Y-110648599D01*
X134248445Y-110660982D01*
X133431200Y-110660982D01*
X133316662Y-110641376D01*
X133261972Y-110582559D01*
X133249590Y-110477308D01*
X133249590Y-109329863D01*
X133288801Y-109186433D01*
X133437391Y-109148253D01*
X134250509Y-109148253D01*
X134321708Y-109151349D01*
G37*
G36*
X127672822Y-109167343D02*
G01*
X127729059Y-109224612D01*
X127739377Y-109331927D01*
X127739377Y-110355547D01*
X128300717Y-110355547D01*
X128399777Y-110371025D01*
X128441052Y-110419523D01*
X128451371Y-110507233D01*
X128441052Y-110594942D01*
X128405969Y-110640344D01*
X128298654Y-110660982D01*
X127555704Y-110660982D01*
X127441166Y-110641376D01*
X127386476Y-110582559D01*
X127374094Y-110477308D01*
X127374094Y-109329863D01*
X127377189Y-109258664D01*
X127396795Y-109203974D01*
X127451484Y-109162183D01*
X127557767Y-109148253D01*
X127672822Y-109167343D01*
G37*
G36*
X135119347Y-109146189D02*
G01*
X135313340Y-109146189D01*
X135385571Y-109149285D01*
X135439229Y-109168891D01*
X135481020Y-109224612D01*
X135494950Y-109333991D01*
X135482052Y-109433567D01*
X135443356Y-109484644D01*
X135392794Y-109504250D01*
X135325723Y-109507346D01*
X134964566Y-109507346D01*
X134943929Y-109664191D01*
X135016160Y-109660063D01*
X135142507Y-109676458D01*
X135260141Y-109725645D01*
X135369061Y-109807621D01*
X135456197Y-109913331D01*
X135508479Y-110033717D01*
X135525906Y-110168778D01*
X135509396Y-110304526D01*
X135459866Y-110426976D01*
X135377316Y-110536125D01*
X135270231Y-110621541D01*
X135147093Y-110672791D01*
X135007905Y-110689874D01*
X134884080Y-110679097D01*
X134768510Y-110646765D01*
X134661195Y-110592878D01*
X134609601Y-110553667D01*
X134593091Y-110539221D01*
X134514669Y-110415396D01*
X134591028Y-110281252D01*
X134710725Y-110213148D01*
X134848996Y-110279188D01*
X134977981Y-110322527D01*
X135114188Y-110283316D01*
X135158559Y-110174969D01*
X135110061Y-110065590D01*
X134999650Y-110025347D01*
X134900590Y-110062494D01*
X134788116Y-110109961D01*
X134658099Y-110070749D01*
X134562135Y-110007805D01*
X134539434Y-109957243D01*
X134549752Y-109860763D01*
X134580709Y-109624979D01*
X134612181Y-109392807D01*
X134624048Y-109307162D01*
X134638494Y-109263823D01*
X134668418Y-109208102D01*
X134722076Y-109163731D01*
X134805658Y-109144126D01*
X135119347Y-109146189D01*
G37*
G36*
X128857930Y-110612484D02*
G01*
X128740038Y-110529418D01*
X128642268Y-110414364D01*
X128576486Y-110274803D01*
X128554559Y-110118216D01*
X128554943Y-110115120D01*
X128919842Y-110115120D01*
X128936352Y-110202829D01*
X128985882Y-110265774D01*
X129120026Y-110316336D01*
X129256234Y-110264742D01*
X129307312Y-110200766D01*
X129324337Y-110112024D01*
X129308343Y-110023799D01*
X129260361Y-109961371D01*
X129122090Y-109911841D01*
X128983819Y-109963434D01*
X128935837Y-110027153D01*
X128919842Y-110115120D01*
X128554943Y-110115120D01*
X128573820Y-109962746D01*
X128631605Y-109826539D01*
X128727914Y-109709593D01*
X128848987Y-109620164D01*
X128981067Y-109566506D01*
X129124154Y-109548621D01*
X129267011Y-109566392D01*
X129398403Y-109619705D01*
X129518330Y-109708561D01*
X129613492Y-109824934D01*
X129670589Y-109960797D01*
X129689621Y-110116152D01*
X129667436Y-110277898D01*
X129600880Y-110420555D01*
X129502594Y-110536125D01*
X129385218Y-110616611D01*
X129255976Y-110663820D01*
X129122090Y-110679556D01*
X128987946Y-110662788D01*
X128857930Y-110612484D01*
G37*
G36*
X131578984Y-110656854D02*
G01*
X131462841Y-110638739D01*
X131352430Y-110584394D01*
X131247752Y-110493818D01*
X131162909Y-110379280D01*
X131112004Y-110253047D01*
X131095416Y-110118216D01*
X131456191Y-110118216D01*
X131509849Y-110241009D01*
X131639865Y-110295698D01*
X131766786Y-110239977D01*
X131817347Y-110117184D01*
X131768849Y-109992327D01*
X131638833Y-109934542D01*
X131506753Y-109992327D01*
X131456191Y-110118216D01*
X131095416Y-110118216D01*
X131095035Y-110115120D01*
X131112118Y-109977307D01*
X131163368Y-109851419D01*
X131248784Y-109737454D01*
X131354609Y-109647451D01*
X131467083Y-109593450D01*
X131586207Y-109575449D01*
X131714160Y-109600214D01*
X131794646Y-109646649D01*
X131831794Y-109688956D01*
X131878744Y-109602278D01*
X131994830Y-109573386D01*
X132114527Y-109585768D01*
X132169217Y-109629107D01*
X132187791Y-109683796D01*
X132190886Y-109754996D01*
X132190886Y-110477308D01*
X132187791Y-110548508D01*
X132170249Y-110603197D01*
X132120461Y-110643440D01*
X132028882Y-110656854D01*
X131878228Y-110628994D01*
X131833857Y-110547476D01*
X131731960Y-110629510D01*
X131639865Y-110645972D01*
X131578984Y-110656854D01*
G37*
G36*
X133058693Y-110065074D02*
G01*
X133103064Y-110116152D01*
X133115446Y-110211084D01*
X133104096Y-110304985D01*
X133067980Y-110355547D01*
X132964792Y-110374121D01*
X132473620Y-110374121D01*
X132381267Y-110356579D01*
X132335349Y-110303953D01*
X132325030Y-110209021D01*
X132337412Y-110116152D01*
X132376624Y-110066622D01*
X132475684Y-110048048D01*
X132966856Y-110048048D01*
X133058693Y-110065074D01*
G37*
G36*
X127425688Y-112156169D02*
G01*
X127383619Y-112110925D01*
X127374094Y-112028375D01*
X127374094Y-111890263D01*
X127655081Y-111890263D01*
X127915431Y-111890263D01*
X127990441Y-111863275D01*
X128015444Y-111782313D01*
X128006713Y-111721988D01*
X127977344Y-111690238D01*
X127888444Y-111677538D01*
X127802719Y-111655313D01*
X127774144Y-111564031D01*
X127803513Y-111472750D01*
X127901144Y-111450525D01*
X127977344Y-111417188D01*
X127982106Y-111360037D01*
X127955913Y-111304475D01*
X127877331Y-111288600D01*
X127655081Y-111288600D01*
X127655081Y-111890263D01*
X127374094Y-111890263D01*
X127374094Y-111147312D01*
X127376475Y-111091750D01*
X127391556Y-111050475D01*
X127433625Y-111018328D01*
X127515381Y-111007613D01*
X127915431Y-111007613D01*
X128007506Y-111018901D01*
X128088998Y-111052768D01*
X128159906Y-111109212D01*
X128217233Y-111182590D01*
X128251629Y-111265140D01*
X128263094Y-111356862D01*
X128248013Y-111457272D01*
X128202769Y-111548950D01*
X128254804Y-111626032D01*
X128286025Y-111709111D01*
X128296431Y-111798187D01*
X128282938Y-111898288D01*
X128246690Y-111986924D01*
X128187688Y-112064094D01*
X128112281Y-112123625D01*
X128026821Y-112159344D01*
X127931306Y-112171250D01*
X127513794Y-112171250D01*
X127425688Y-112156169D01*
G37*
G36*
X131228544Y-110969512D02*
G01*
X131257119Y-111039362D01*
X131258706Y-111083813D01*
X131258706Y-111587050D01*
X131345225Y-111506088D01*
X131431744Y-111425125D01*
X131450794Y-111412425D01*
X131546044Y-111369562D01*
X131637325Y-111433856D01*
X131688919Y-111534663D01*
X131630181Y-111620387D01*
X131473019Y-111753738D01*
X131684156Y-111928362D01*
X131734163Y-111979163D01*
X131744482Y-112012500D01*
X131695269Y-112115688D01*
X131600019Y-112182362D01*
X131503181Y-112136325D01*
X131487306Y-112125213D01*
X131440872Y-112083739D01*
X131374594Y-112019644D01*
X131307522Y-111955152D01*
X131258706Y-111912488D01*
X131258706Y-112034725D01*
X131256325Y-112089494D01*
X131241244Y-112131563D01*
X131200366Y-112162519D01*
X131119006Y-112172838D01*
X131038441Y-112162122D01*
X130996769Y-112129975D01*
X130983275Y-112087906D01*
X130980894Y-112033137D01*
X130980894Y-111082225D01*
X130983275Y-111027456D01*
X130996769Y-110985387D01*
X131038838Y-110953241D01*
X131120594Y-110942525D01*
X131228544Y-110969512D01*
G37*
G36*
X134078503Y-111065159D02*
G01*
X134120969Y-111109212D01*
X134128907Y-111190175D01*
X134128907Y-111345750D01*
X134234475Y-111339400D01*
X134288450Y-111341781D01*
X134330519Y-111356862D01*
X134361475Y-111397741D01*
X134371794Y-111479100D01*
X134361078Y-111559666D01*
X134328932Y-111601337D01*
X134286863Y-111614831D01*
X134232094Y-111617212D01*
X134128907Y-111610862D01*
X134128907Y-111829937D01*
X134142400Y-111891850D01*
X134193200Y-111910900D01*
X134250350Y-111913281D01*
X134292419Y-111928362D01*
X134328932Y-112034725D01*
X134317819Y-112115291D01*
X134284482Y-112156963D01*
X134242413Y-112170456D01*
X134189232Y-112172838D01*
X134087984Y-112164547D01*
X134004376Y-112139676D01*
X133938407Y-112098225D01*
X133890782Y-112037018D01*
X133862207Y-111952881D01*
X133852682Y-111845813D01*
X133852682Y-111610862D01*
X133787594Y-111615625D01*
X133729650Y-111588637D01*
X133706632Y-111496562D01*
X133714569Y-111402106D01*
X133736794Y-111360037D01*
X133800294Y-111339400D01*
X133852682Y-111345750D01*
X133852682Y-111182237D01*
X133855063Y-111128262D01*
X133870144Y-111090162D01*
X133911022Y-111060397D01*
X133992382Y-111050475D01*
X134078503Y-111065159D01*
G37*
G36*
X132041344Y-112135531D02*
G01*
X131950658Y-112071634D01*
X131875450Y-111983131D01*
X131824849Y-111875777D01*
X131807981Y-111755325D01*
X131808276Y-111752944D01*
X132088969Y-111752944D01*
X132101669Y-111820413D01*
X132139769Y-111868831D01*
X132242957Y-111907725D01*
X132347732Y-111868037D01*
X132387022Y-111818825D01*
X132400119Y-111750563D01*
X132387816Y-111682697D01*
X132350907Y-111634675D01*
X132244544Y-111596575D01*
X132138182Y-111636263D01*
X132101272Y-111685277D01*
X132088969Y-111752944D01*
X131808276Y-111752944D01*
X131822798Y-111635733D01*
X131867248Y-111530958D01*
X131941332Y-111441000D01*
X132034465Y-111372208D01*
X132136065Y-111330933D01*
X132246132Y-111317175D01*
X132356022Y-111330845D01*
X132457093Y-111371856D01*
X132549344Y-111440206D01*
X132622545Y-111529724D01*
X132666466Y-111634234D01*
X132681107Y-111753738D01*
X132664041Y-111878158D01*
X132612844Y-111987894D01*
X132537239Y-112076794D01*
X132446950Y-112138706D01*
X132347533Y-112175020D01*
X132244544Y-112187125D01*
X132242957Y-112186927D01*
X132141357Y-112174227D01*
X132041344Y-112135531D01*
G37*
G36*
X129452131Y-111920425D02*
G01*
X129556906Y-111950588D01*
X129639060Y-111945825D01*
X129701369Y-111931538D01*
X129718831Y-111925188D01*
X129782331Y-111907725D01*
X129869644Y-111979163D01*
X129890281Y-112052187D01*
X129869148Y-112114001D01*
X129805747Y-112158153D01*
X129700079Y-112184645D01*
X129552144Y-112193475D01*
X129441217Y-112183355D01*
X129343388Y-112152994D01*
X129262227Y-112105964D01*
X129201306Y-112045837D01*
X129145744Y-111956761D01*
X129112406Y-111860982D01*
X129101294Y-111758500D01*
X129107896Y-111701350D01*
X129396569Y-111701350D01*
X129596594Y-111701350D01*
X129656919Y-111650550D01*
X129629138Y-111591812D01*
X129549763Y-111569587D01*
X129447369Y-111611656D01*
X129396569Y-111701350D01*
X129107896Y-111701350D01*
X129115670Y-111634058D01*
X129158797Y-111527431D01*
X129230675Y-111438619D01*
X129324073Y-111372032D01*
X129431759Y-111332080D01*
X129553731Y-111318762D01*
X129656721Y-111328486D01*
X129745025Y-111357656D01*
X129818646Y-111406273D01*
X129877581Y-111474337D01*
X129918063Y-111560658D01*
X129931556Y-111654519D01*
X129919452Y-111739450D01*
X129883138Y-111798981D01*
X129775981Y-111845813D01*
X129399744Y-111845813D01*
X129452131Y-111920425D01*
G37*
G36*
X130383200Y-112169663D02*
G01*
X130293859Y-112155728D01*
X130208928Y-112113924D01*
X130128406Y-112044250D01*
X130063143Y-111956144D01*
X130023984Y-111859042D01*
X130011224Y-111755325D01*
X130288744Y-111755325D01*
X130330019Y-111849781D01*
X130430031Y-111891850D01*
X130527663Y-111848987D01*
X130566556Y-111754531D01*
X130529250Y-111658488D01*
X130429238Y-111614037D01*
X130327638Y-111658488D01*
X130288744Y-111755325D01*
X130011224Y-111755325D01*
X130010931Y-111752944D01*
X130024072Y-111646934D01*
X130063495Y-111550097D01*
X130129200Y-111462431D01*
X130210604Y-111393199D01*
X130297122Y-111351659D01*
X130388756Y-111337812D01*
X130487181Y-111356862D01*
X130549094Y-111392581D01*
X130577669Y-111425125D01*
X130613785Y-111358450D01*
X130703081Y-111336225D01*
X130795156Y-111345750D01*
X130837225Y-111379088D01*
X130851513Y-111421156D01*
X130853894Y-111475925D01*
X130853894Y-112031550D01*
X130851513Y-112086319D01*
X130838019Y-112128387D01*
X130799721Y-112159344D01*
X130729275Y-112169663D01*
X130613388Y-112148231D01*
X130579256Y-112085525D01*
X130500874Y-112148628D01*
X130430031Y-112161291D01*
X130383200Y-112169663D01*
G37*
G36*
X133561772Y-111345353D02*
G01*
X133603444Y-111377500D01*
X133616938Y-111419569D01*
X133619319Y-111474337D01*
X133619319Y-112036313D01*
X133616938Y-112089494D01*
X133601857Y-112129975D01*
X133559391Y-112160931D01*
X133479619Y-112171250D01*
X133401435Y-112161725D01*
X133360557Y-112133150D01*
X133344682Y-112068063D01*
X133316107Y-112099813D01*
X133273244Y-112134738D01*
X133155769Y-112169663D01*
X133054963Y-112156169D01*
X132966327Y-112115688D01*
X132889863Y-112048219D01*
X132831213Y-111961347D01*
X132796024Y-111862658D01*
X132784294Y-111752150D01*
X132784294Y-111474337D01*
X132786675Y-111418775D01*
X132800169Y-111377500D01*
X132842238Y-111345353D01*
X132923994Y-111334637D01*
X133012100Y-111349719D01*
X133054169Y-111394963D01*
X133063694Y-111475925D01*
X133063694Y-111753738D01*
X133101000Y-111855337D01*
X133201013Y-111891850D01*
X133302613Y-111853750D01*
X133341507Y-111753738D01*
X133341507Y-111472750D01*
X133343888Y-111417981D01*
X133358969Y-111375912D01*
X133399847Y-111344956D01*
X133481207Y-111334637D01*
X133561772Y-111345353D01*
G37*
G36*
X128912381Y-111332256D02*
G01*
X128967944Y-111345750D01*
X129017950Y-111378294D01*
X129037794Y-111452112D01*
X129007631Y-111563237D01*
X128920319Y-111623562D01*
X128865550Y-111610862D01*
X128796494Y-111598162D01*
X128716325Y-111628325D01*
X128679019Y-111701350D01*
X128679019Y-112034725D01*
X128676638Y-112089494D01*
X128661556Y-112131563D01*
X128618694Y-112162519D01*
X128537731Y-112172838D01*
X128428194Y-112145850D01*
X128399619Y-112077588D01*
X128399619Y-111474337D01*
X128402000Y-111419569D01*
X128415494Y-111379088D01*
X128457563Y-111346941D01*
X128539319Y-111336225D01*
X128616710Y-111345353D01*
X128658381Y-111372737D01*
X128675844Y-111425125D01*
X128698863Y-111398138D01*
X128763156Y-111355275D01*
X128849675Y-111328287D01*
X128912381Y-111332256D01*
G37*
D12*
X128428641Y-83246000D02*
X128121359Y-83246000D01*
X128428641Y-82486000D02*
X128121359Y-82486000D01*
X129760000Y-90894000D02*
X127475000Y-90894000D01*
X129760000Y-92364000D02*
X129760000Y-90894000D01*
X127475000Y-92364000D02*
X129760000Y-92364000D01*
X120935641Y-81724000D02*
X120628359Y-81724000D01*
X120935641Y-82484000D02*
X120628359Y-82484000D01*
X124211000Y-86712000D02*
X124861000Y-86712000D01*
X124211000Y-86712000D02*
X123561000Y-86712000D01*
X124211000Y-83592000D02*
X122536000Y-83592000D01*
X124211000Y-83592000D02*
X124861000Y-83592000D01*
X127238000Y-84751836D02*
X127238000Y-84536164D01*
X126518000Y-84751836D02*
X126518000Y-84536164D01*
X121927000Y-85292580D02*
X121927000Y-85011420D01*
X120907000Y-85292580D02*
X120907000Y-85011420D01*
D10*
X134275000Y-95154000D02*
X134275000Y-107154000D01*
X122275000Y-95154000D02*
X134275000Y-95154000D01*
X134275000Y-107154000D02*
X122275000Y-107154000D01*
X122275000Y-107154000D02*
X122275000Y-95154000D01*
X133797353Y-94174000D02*
G75*
G03*
X133797353Y-94174000I-362353J0D01*
G01*
D12*
X124208000Y-114620000D02*
X124848000Y-114620000D01*
X126958000Y-117340000D02*
X124258000Y-117340000D01*
X127008000Y-114620000D02*
X126368000Y-114620000D01*
X126368000Y-114620000D02*
X126368000Y-113990000D01*
X128121359Y-92646000D02*
X128428641Y-92646000D01*
X128121359Y-93406000D02*
X128428641Y-93406000D01*
X123111000Y-79648000D02*
X123111000Y-74908000D01*
X127851000Y-74908000D02*
X127451000Y-74908000D01*
X123111000Y-74908000D02*
X123511000Y-74908000D01*
X127851000Y-79648000D02*
X127851000Y-74908000D01*
X126511000Y-79648000D02*
X124451000Y-79648000D01*
X123111000Y-79648000D02*
X123511000Y-79648000D01*
X126511000Y-74908000D02*
X124451000Y-74908000D01*
X127851000Y-79648000D02*
X127451000Y-79648000D01*
X127765000Y-85292580D02*
X127765000Y-85011420D01*
X128785000Y-85292580D02*
X128785000Y-85011420D01*
X128699000Y-74908000D02*
X128699000Y-79648000D01*
X133439000Y-79648000D02*
X133039000Y-79648000D01*
X130039000Y-74908000D02*
X132099000Y-74908000D01*
X128699000Y-79648000D02*
X129099000Y-79648000D01*
X130039000Y-79648000D02*
X132099000Y-79648000D01*
X133439000Y-74908000D02*
X133439000Y-79648000D01*
X133439000Y-74908000D02*
X133039000Y-74908000D01*
X128699000Y-74908000D02*
X129099000Y-74908000D01*
G36*
X129128522Y-87780706D02*
G01*
X129129371Y-87782935D01*
X129131534Y-87788696D01*
X129134974Y-87797888D01*
X129139652Y-87810410D01*
X129145531Y-87826158D01*
X129152572Y-87845033D01*
X129160739Y-87866931D01*
X129169992Y-87891751D01*
X129180294Y-87919391D01*
X129191607Y-87949750D01*
X129203894Y-87982726D01*
X129217116Y-88018217D01*
X129231235Y-88056120D01*
X129246214Y-88096336D01*
X129262014Y-88138761D01*
X129278598Y-88183294D01*
X129295928Y-88229832D01*
X129313965Y-88278276D01*
X129332673Y-88328522D01*
X129352013Y-88380468D01*
X129371947Y-88434014D01*
X129392437Y-88489057D01*
X129413445Y-88545495D01*
X129434934Y-88603227D01*
X129456865Y-88662152D01*
X129479202Y-88722166D01*
X129501904Y-88783168D01*
X129524936Y-88845058D01*
X129525162Y-88845664D01*
X129557743Y-88933229D01*
X129588968Y-89017177D01*
X129618844Y-89097525D01*
X129647376Y-89174289D01*
X129674570Y-89247482D01*
X129700431Y-89317122D01*
X129724965Y-89383222D01*
X129748179Y-89445800D01*
X129770076Y-89504869D01*
X129790664Y-89560445D01*
X129809948Y-89612545D01*
X129827934Y-89661182D01*
X129844627Y-89706374D01*
X129860032Y-89748134D01*
X129874157Y-89786478D01*
X129887006Y-89821423D01*
X129898585Y-89852982D01*
X129908899Y-89881173D01*
X129917955Y-89906009D01*
X129925759Y-89927506D01*
X129932315Y-89945681D01*
X129937629Y-89960547D01*
X129941708Y-89972121D01*
X129944557Y-89980418D01*
X129944644Y-89980680D01*
X129950181Y-89997183D01*
X129955351Y-90012522D01*
X129960023Y-90026310D01*
X129964066Y-90038162D01*
X129967348Y-90047693D01*
X129969736Y-90054518D01*
X129971100Y-90058251D01*
X129971361Y-90058843D01*
X129972144Y-90057273D01*
X129973992Y-90052434D01*
X129976759Y-90044742D01*
X129980300Y-90034612D01*
X129984468Y-90022459D01*
X129989118Y-90008699D01*
X129993016Y-89997026D01*
X129994986Y-89991315D01*
X129998273Y-89982066D01*
X130002841Y-89969377D01*
X130008655Y-89953344D01*
X130015678Y-89934064D01*
X130023875Y-89911634D01*
X130033210Y-89886152D01*
X130043648Y-89857713D01*
X130055152Y-89826415D01*
X130067687Y-89792354D01*
X130081217Y-89755628D01*
X130095706Y-89716333D01*
X130111118Y-89674567D01*
X130127418Y-89630425D01*
X130144570Y-89584005D01*
X130162539Y-89535404D01*
X130181287Y-89484719D01*
X130200780Y-89432047D01*
X130220982Y-89377483D01*
X130241857Y-89321127D01*
X130263369Y-89263073D01*
X130285483Y-89203419D01*
X130308162Y-89142262D01*
X130331371Y-89079699D01*
X130355075Y-89015827D01*
X130379236Y-88950742D01*
X130403821Y-88884541D01*
X130413220Y-88859237D01*
X130436399Y-88796838D01*
X130459247Y-88735331D01*
X130481726Y-88674816D01*
X130503799Y-88615393D01*
X130525428Y-88557165D01*
X130546576Y-88500230D01*
X130567206Y-88444690D01*
X130587280Y-88390646D01*
X130606761Y-88338198D01*
X130625611Y-88287448D01*
X130643794Y-88238495D01*
X130661271Y-88191441D01*
X130678005Y-88146385D01*
X130693958Y-88103430D01*
X130709095Y-88062676D01*
X130723376Y-88024222D01*
X130736764Y-87988171D01*
X130749223Y-87954623D01*
X130760715Y-87923678D01*
X130771202Y-87895438D01*
X130780647Y-87870002D01*
X130789012Y-87847472D01*
X130796261Y-87827948D01*
X130802355Y-87811532D01*
X130807258Y-87798323D01*
X130810931Y-87788423D01*
X130813338Y-87781932D01*
X130814441Y-87778950D01*
X130814508Y-87778767D01*
X130816414Y-87773435D01*
X130864697Y-87773435D01*
X130877922Y-87773491D01*
X130889765Y-87773648D01*
X130899708Y-87773890D01*
X130907229Y-87774203D01*
X130911808Y-87774569D01*
X130913003Y-87774890D01*
X130912332Y-87776771D01*
X130910339Y-87782190D01*
X130907061Y-87791051D01*
X130902533Y-87803259D01*
X130896790Y-87818719D01*
X130889869Y-87837336D01*
X130881803Y-87859014D01*
X130872630Y-87883658D01*
X130862383Y-87911173D01*
X130851100Y-87941464D01*
X130838816Y-87974435D01*
X130825565Y-88009991D01*
X130811384Y-88048037D01*
X130796308Y-88088478D01*
X130780372Y-88131218D01*
X130763612Y-88176162D01*
X130746064Y-88223216D01*
X130727763Y-88272283D01*
X130708744Y-88323268D01*
X130689044Y-88376077D01*
X130668697Y-88430614D01*
X130647739Y-88486783D01*
X130626206Y-88544490D01*
X130604133Y-88603639D01*
X130581556Y-88664135D01*
X130558509Y-88725883D01*
X130535030Y-88788787D01*
X130511152Y-88852753D01*
X130486913Y-88917685D01*
X130469472Y-88964400D01*
X130025920Y-90152456D01*
X129971623Y-90152480D01*
X129917327Y-90152504D01*
X129473797Y-88965393D01*
X129449312Y-88899855D01*
X129425165Y-88835212D01*
X129401390Y-88771560D01*
X129378023Y-88708995D01*
X129355101Y-88647611D01*
X129332658Y-88587504D01*
X129310730Y-88528769D01*
X129289352Y-88471502D01*
X129268561Y-88415798D01*
X129248392Y-88361753D01*
X129228880Y-88309461D01*
X129210061Y-88259018D01*
X129191970Y-88210521D01*
X129174643Y-88164063D01*
X129158116Y-88119740D01*
X129142424Y-88077648D01*
X129127603Y-88037882D01*
X129113688Y-88000537D01*
X129100715Y-87965709D01*
X129088719Y-87933494D01*
X129077736Y-87903985D01*
X129067801Y-87877280D01*
X129058950Y-87853473D01*
X129051219Y-87832659D01*
X129044643Y-87814935D01*
X129039258Y-87800395D01*
X129035099Y-87789134D01*
X129032202Y-87781248D01*
X129030602Y-87776833D01*
X129030274Y-87775859D01*
X129031142Y-87775068D01*
X129033982Y-87774457D01*
X129039150Y-87774007D01*
X129047003Y-87773699D01*
X129057898Y-87773516D01*
X129072191Y-87773440D01*
X129077882Y-87773435D01*
X129125484Y-87773435D01*
X129128522Y-87780706D01*
G37*
D13*
X129128522Y-87780706D02*
X129129371Y-87782935D01*
X129131534Y-87788696D01*
X129134974Y-87797888D01*
X129139652Y-87810410D01*
X129145531Y-87826158D01*
X129152572Y-87845033D01*
X129160739Y-87866931D01*
X129169992Y-87891751D01*
X129180294Y-87919391D01*
X129191607Y-87949750D01*
X129203894Y-87982726D01*
X129217116Y-88018217D01*
X129231235Y-88056120D01*
X129246214Y-88096336D01*
X129262014Y-88138761D01*
X129278598Y-88183294D01*
X129295928Y-88229832D01*
X129313965Y-88278276D01*
X129332673Y-88328522D01*
X129352013Y-88380468D01*
X129371947Y-88434014D01*
X129392437Y-88489057D01*
X129413445Y-88545495D01*
X129434934Y-88603227D01*
X129456865Y-88662152D01*
X129479202Y-88722166D01*
X129501904Y-88783168D01*
X129524936Y-88845058D01*
X129525162Y-88845664D01*
X129557743Y-88933229D01*
X129588968Y-89017177D01*
X129618844Y-89097525D01*
X129647376Y-89174289D01*
X129674570Y-89247482D01*
X129700431Y-89317122D01*
X129724965Y-89383222D01*
X129748179Y-89445800D01*
X129770076Y-89504869D01*
X129790664Y-89560445D01*
X129809948Y-89612545D01*
X129827934Y-89661182D01*
X129844627Y-89706374D01*
X129860032Y-89748134D01*
X129874157Y-89786478D01*
X129887006Y-89821423D01*
X129898585Y-89852982D01*
X129908899Y-89881173D01*
X129917955Y-89906009D01*
X129925759Y-89927506D01*
X129932315Y-89945681D01*
X129937629Y-89960547D01*
X129941708Y-89972121D01*
X129944557Y-89980418D01*
X129944644Y-89980680D01*
X129950181Y-89997183D01*
X129955351Y-90012522D01*
X129960023Y-90026310D01*
X129964066Y-90038162D01*
X129967348Y-90047693D01*
X129969736Y-90054518D01*
X129971100Y-90058251D01*
X129971361Y-90058843D01*
X129972144Y-90057273D01*
X129973992Y-90052434D01*
X129976759Y-90044742D01*
X129980300Y-90034612D01*
X129984468Y-90022459D01*
X129989118Y-90008699D01*
X129993016Y-89997026D01*
X129994986Y-89991315D01*
X129998273Y-89982066D01*
X130002841Y-89969377D01*
X130008655Y-89953344D01*
X130015678Y-89934064D01*
X130023875Y-89911634D01*
X130033210Y-89886152D01*
X130043648Y-89857713D01*
X130055152Y-89826415D01*
X130067687Y-89792354D01*
X130081217Y-89755628D01*
X130095706Y-89716333D01*
X130111118Y-89674567D01*
X130127418Y-89630425D01*
X130144570Y-89584005D01*
X130162539Y-89535404D01*
X130181287Y-89484719D01*
X130200780Y-89432047D01*
X130220982Y-89377483D01*
X130241857Y-89321127D01*
X130263369Y-89263073D01*
X130285483Y-89203419D01*
X130308162Y-89142262D01*
X130331371Y-89079699D01*
X130355075Y-89015827D01*
X130379236Y-88950742D01*
X130403821Y-88884541D01*
X130413220Y-88859237D01*
X130436399Y-88796838D01*
X130459247Y-88735331D01*
X130481726Y-88674816D01*
X130503799Y-88615393D01*
X130525428Y-88557165D01*
X130546576Y-88500230D01*
X130567206Y-88444690D01*
X130587280Y-88390646D01*
X130606761Y-88338198D01*
X130625611Y-88287448D01*
X130643794Y-88238495D01*
X130661271Y-88191441D01*
X130678005Y-88146385D01*
X130693958Y-88103430D01*
X130709095Y-88062676D01*
X130723376Y-88024222D01*
X130736764Y-87988171D01*
X130749223Y-87954623D01*
X130760715Y-87923678D01*
X130771202Y-87895438D01*
X130780647Y-87870002D01*
X130789012Y-87847472D01*
X130796261Y-87827948D01*
X130802355Y-87811532D01*
X130807258Y-87798323D01*
X130810931Y-87788423D01*
X130813338Y-87781932D01*
X130814441Y-87778950D01*
X130814508Y-87778767D01*
X130816414Y-87773435D01*
X130864697Y-87773435D01*
X130877922Y-87773491D01*
X130889765Y-87773648D01*
X130899708Y-87773890D01*
X130907229Y-87774203D01*
X130911808Y-87774569D01*
X130913003Y-87774890D01*
X130912332Y-87776771D01*
X130910339Y-87782190D01*
X130907061Y-87791051D01*
X130902533Y-87803259D01*
X130896790Y-87818719D01*
X130889869Y-87837336D01*
X130881803Y-87859014D01*
X130872630Y-87883658D01*
X130862383Y-87911173D01*
X130851100Y-87941464D01*
X130838816Y-87974435D01*
X130825565Y-88009991D01*
X130811384Y-88048037D01*
X130796308Y-88088478D01*
X130780372Y-88131218D01*
X130763612Y-88176162D01*
X130746064Y-88223216D01*
X130727763Y-88272283D01*
X130708744Y-88323268D01*
X130689044Y-88376077D01*
X130668697Y-88430614D01*
X130647739Y-88486783D01*
X130626206Y-88544490D01*
X130604133Y-88603639D01*
X130581556Y-88664135D01*
X130558509Y-88725883D01*
X130535030Y-88788787D01*
X130511152Y-88852753D01*
X130486913Y-88917685D01*
X130469472Y-88964400D01*
X130025920Y-90152456D01*
X129971623Y-90152480D01*
X129917327Y-90152504D01*
X129473797Y-88965393D01*
X129449312Y-88899855D01*
X129425165Y-88835212D01*
X129401390Y-88771560D01*
X129378023Y-88708995D01*
X129355101Y-88647611D01*
X129332658Y-88587504D01*
X129310730Y-88528769D01*
X129289352Y-88471502D01*
X129268561Y-88415798D01*
X129248392Y-88361753D01*
X129228880Y-88309461D01*
X129210061Y-88259018D01*
X129191970Y-88210521D01*
X129174643Y-88164063D01*
X129158116Y-88119740D01*
X129142424Y-88077648D01*
X129127603Y-88037882D01*
X129113688Y-88000537D01*
X129100715Y-87965709D01*
X129088719Y-87933494D01*
X129077736Y-87903985D01*
X129067801Y-87877280D01*
X129058950Y-87853473D01*
X129051219Y-87832659D01*
X129044643Y-87814935D01*
X129039258Y-87800395D01*
X129035099Y-87789134D01*
X129032202Y-87781248D01*
X129030602Y-87776833D01*
X129030274Y-87775859D01*
X129031142Y-87775068D01*
X129033982Y-87774457D01*
X129039150Y-87774007D01*
X129047003Y-87773699D01*
X129057898Y-87773516D01*
X129072191Y-87773440D01*
X129077882Y-87773435D01*
X129125484Y-87773435D01*
X129128522Y-87780706D01*
G36*
X127325870Y-87774405D02*
G01*
X127375382Y-87774408D01*
X127421331Y-87774415D01*
X127463872Y-87774429D01*
X127503164Y-87774451D01*
X127539364Y-87774484D01*
X127572628Y-87774530D01*
X127603114Y-87774590D01*
X127630979Y-87774667D01*
X127656380Y-87774764D01*
X127679473Y-87774881D01*
X127700417Y-87775021D01*
X127719368Y-87775186D01*
X127736483Y-87775379D01*
X127751919Y-87775601D01*
X127765833Y-87775854D01*
X127778383Y-87776141D01*
X127789725Y-87776463D01*
X127800017Y-87776823D01*
X127809416Y-87777222D01*
X127818078Y-87777663D01*
X127826161Y-87778148D01*
X127833823Y-87778679D01*
X127841219Y-87779258D01*
X127848507Y-87779887D01*
X127855844Y-87780568D01*
X127863387Y-87781303D01*
X127871294Y-87782094D01*
X127873706Y-87782337D01*
X127936719Y-87790168D01*
X127997298Y-87800689D01*
X128055390Y-87813874D01*
X128110943Y-87829696D01*
X128163903Y-87848131D01*
X128214219Y-87869152D01*
X128261838Y-87892734D01*
X128306707Y-87918851D01*
X128348774Y-87947477D01*
X128387987Y-87978586D01*
X128424292Y-88012152D01*
X128457637Y-88048150D01*
X128485051Y-88082575D01*
X128509938Y-88119123D01*
X128531913Y-88157608D01*
X128551040Y-88198197D01*
X128567383Y-88241058D01*
X128581006Y-88286358D01*
X128591974Y-88334265D01*
X128600252Y-88384234D01*
X128601357Y-88392599D01*
X128602260Y-88400337D01*
X128602982Y-88407960D01*
X128603543Y-88415979D01*
X128603961Y-88424906D01*
X128604258Y-88435253D01*
X128604453Y-88447531D01*
X128604565Y-88462252D01*
X128604616Y-88479927D01*
X128604625Y-88496657D01*
X128604592Y-88518375D01*
X128604487Y-88536713D01*
X128604293Y-88552168D01*
X128603995Y-88565237D01*
X128603577Y-88576418D01*
X128603023Y-88586208D01*
X128602317Y-88595104D01*
X128601444Y-88603603D01*
X128601140Y-88606206D01*
X128593739Y-88657838D01*
X128584211Y-88706404D01*
X128572453Y-88752145D01*
X128558366Y-88795300D01*
X128541849Y-88836109D01*
X128522801Y-88874813D01*
X128501123Y-88911651D01*
X128476713Y-88946863D01*
X128449470Y-88980689D01*
X128439421Y-88992054D01*
X128410486Y-89021705D01*
X128378112Y-89050602D01*
X128342709Y-89078444D01*
X128304689Y-89104927D01*
X128264465Y-89129750D01*
X128222447Y-89152609D01*
X128217512Y-89155101D01*
X128192627Y-89167571D01*
X128198713Y-89179667D01*
X128200116Y-89182410D01*
X128203224Y-89188454D01*
X128207964Y-89197653D01*
X128214259Y-89209863D01*
X128222035Y-89224940D01*
X128231218Y-89242739D01*
X128241733Y-89263115D01*
X128253505Y-89285923D01*
X128266460Y-89311019D01*
X128280523Y-89338259D01*
X128295619Y-89367496D01*
X128311673Y-89398588D01*
X128328612Y-89431389D01*
X128346359Y-89465754D01*
X128364841Y-89501539D01*
X128383982Y-89538599D01*
X128403709Y-89576790D01*
X128423946Y-89615967D01*
X128444618Y-89655984D01*
X128446913Y-89660426D01*
X128689027Y-90129088D01*
X128689027Y-90152504D01*
X128073111Y-90152504D01*
X127863442Y-89731744D01*
X127653774Y-89310985D01*
X127344378Y-89311977D01*
X127343889Y-89732241D01*
X127343400Y-90152504D01*
X126769482Y-90152504D01*
X126769968Y-88963454D01*
X126770006Y-88868932D01*
X127343409Y-88868932D01*
X127543195Y-88868932D01*
X127578987Y-88868910D01*
X127611971Y-88868848D01*
X127642029Y-88868744D01*
X127669048Y-88868602D01*
X127692911Y-88868421D01*
X127713502Y-88868203D01*
X127730706Y-88867948D01*
X127744408Y-88867659D01*
X127754491Y-88867335D01*
X127760841Y-88866979D01*
X127761809Y-88866887D01*
X127798345Y-88861446D01*
X127832100Y-88853346D01*
X127863146Y-88842557D01*
X127891551Y-88829051D01*
X127917386Y-88812798D01*
X127940721Y-88793769D01*
X127944099Y-88790587D01*
X127965509Y-88767363D01*
X127984036Y-88741576D01*
X127999663Y-88713280D01*
X128012369Y-88682528D01*
X128022134Y-88649375D01*
X128028940Y-88613874D01*
X128032765Y-88576079D01*
X128033668Y-88545261D01*
X128032184Y-88505201D01*
X128027724Y-88467613D01*
X128020279Y-88432469D01*
X128009839Y-88399744D01*
X127996395Y-88369410D01*
X127979938Y-88341441D01*
X127960458Y-88315809D01*
X127946476Y-88300696D01*
X127926590Y-88282535D01*
X127905452Y-88266844D01*
X127882668Y-88253445D01*
X127857842Y-88242158D01*
X127830582Y-88232805D01*
X127800494Y-88225207D01*
X127767183Y-88219183D01*
X127767065Y-88219165D01*
X127762905Y-88218740D01*
X127756216Y-88218349D01*
X127746870Y-88217992D01*
X127734733Y-88217667D01*
X127719677Y-88217370D01*
X127701569Y-88217102D01*
X127680279Y-88216859D01*
X127655676Y-88216640D01*
X127627629Y-88216444D01*
X127596007Y-88216267D01*
X127560680Y-88216109D01*
X127548772Y-88216063D01*
X127345990Y-88215301D01*
X127344700Y-88446624D01*
X127344527Y-88478523D01*
X127344361Y-88510848D01*
X127344203Y-88543211D01*
X127344055Y-88575224D01*
X127343918Y-88606500D01*
X127343794Y-88636649D01*
X127343685Y-88665285D01*
X127343592Y-88692020D01*
X127343516Y-88716465D01*
X127343460Y-88738232D01*
X127343424Y-88756935D01*
X127343410Y-88772184D01*
X127343409Y-88773439D01*
X127343409Y-88868932D01*
X126770006Y-88868932D01*
X126770045Y-88773439D01*
X126770454Y-87774405D01*
X127325870Y-87774405D01*
G37*
X127325870Y-87774405D02*
X127375382Y-87774408D01*
X127421331Y-87774415D01*
X127463872Y-87774429D01*
X127503164Y-87774451D01*
X127539364Y-87774484D01*
X127572628Y-87774530D01*
X127603114Y-87774590D01*
X127630979Y-87774667D01*
X127656380Y-87774764D01*
X127679473Y-87774881D01*
X127700417Y-87775021D01*
X127719368Y-87775186D01*
X127736483Y-87775379D01*
X127751919Y-87775601D01*
X127765833Y-87775854D01*
X127778383Y-87776141D01*
X127789725Y-87776463D01*
X127800017Y-87776823D01*
X127809416Y-87777222D01*
X127818078Y-87777663D01*
X127826161Y-87778148D01*
X127833823Y-87778679D01*
X127841219Y-87779258D01*
X127848507Y-87779887D01*
X127855844Y-87780568D01*
X127863387Y-87781303D01*
X127871294Y-87782094D01*
X127873706Y-87782337D01*
X127936719Y-87790168D01*
X127997298Y-87800689D01*
X128055390Y-87813874D01*
X128110943Y-87829696D01*
X128163903Y-87848131D01*
X128214219Y-87869152D01*
X128261838Y-87892734D01*
X128306707Y-87918851D01*
X128348774Y-87947477D01*
X128387987Y-87978586D01*
X128424292Y-88012152D01*
X128457637Y-88048150D01*
X128485051Y-88082575D01*
X128509938Y-88119123D01*
X128531913Y-88157608D01*
X128551040Y-88198197D01*
X128567383Y-88241058D01*
X128581006Y-88286358D01*
X128591974Y-88334265D01*
X128600252Y-88384234D01*
X128601357Y-88392599D01*
X128602260Y-88400337D01*
X128602982Y-88407960D01*
X128603543Y-88415979D01*
X128603961Y-88424906D01*
X128604258Y-88435253D01*
X128604453Y-88447531D01*
X128604565Y-88462252D01*
X128604616Y-88479927D01*
X128604625Y-88496657D01*
X128604592Y-88518375D01*
X128604487Y-88536713D01*
X128604293Y-88552168D01*
X128603995Y-88565237D01*
X128603577Y-88576418D01*
X128603023Y-88586208D01*
X128602317Y-88595104D01*
X128601444Y-88603603D01*
X128601140Y-88606206D01*
X128593739Y-88657838D01*
X128584211Y-88706404D01*
X128572453Y-88752145D01*
X128558366Y-88795300D01*
X128541849Y-88836109D01*
X128522801Y-88874813D01*
X128501123Y-88911651D01*
X128476713Y-88946863D01*
X128449470Y-88980689D01*
X128439421Y-88992054D01*
X128410486Y-89021705D01*
X128378112Y-89050602D01*
X128342709Y-89078444D01*
X128304689Y-89104927D01*
X128264465Y-89129750D01*
X128222447Y-89152609D01*
X128217512Y-89155101D01*
X128192627Y-89167571D01*
X128198713Y-89179667D01*
X128200116Y-89182410D01*
X128203224Y-89188454D01*
X128207964Y-89197653D01*
X128214259Y-89209863D01*
X128222035Y-89224940D01*
X128231218Y-89242739D01*
X128241733Y-89263115D01*
X128253505Y-89285923D01*
X128266460Y-89311019D01*
X128280523Y-89338259D01*
X128295619Y-89367496D01*
X128311673Y-89398588D01*
X128328612Y-89431389D01*
X128346359Y-89465754D01*
X128364841Y-89501539D01*
X128383982Y-89538599D01*
X128403709Y-89576790D01*
X128423946Y-89615967D01*
X128444618Y-89655984D01*
X128446913Y-89660426D01*
X128689027Y-90129088D01*
X128689027Y-90152504D01*
X128073111Y-90152504D01*
X127863442Y-89731744D01*
X127653774Y-89310985D01*
X127344378Y-89311977D01*
X127343889Y-89732241D01*
X127343400Y-90152504D01*
X126769482Y-90152504D01*
X126769968Y-88963454D01*
X126770006Y-88868932D01*
X127343409Y-88868932D01*
X127543195Y-88868932D01*
X127578987Y-88868910D01*
X127611971Y-88868848D01*
X127642029Y-88868744D01*
X127669048Y-88868602D01*
X127692911Y-88868421D01*
X127713502Y-88868203D01*
X127730706Y-88867948D01*
X127744408Y-88867659D01*
X127754491Y-88867335D01*
X127760841Y-88866979D01*
X127761809Y-88866887D01*
X127798345Y-88861446D01*
X127832100Y-88853346D01*
X127863146Y-88842557D01*
X127891551Y-88829051D01*
X127917386Y-88812798D01*
X127940721Y-88793769D01*
X127944099Y-88790587D01*
X127965509Y-88767363D01*
X127984036Y-88741576D01*
X127999663Y-88713280D01*
X128012369Y-88682528D01*
X128022134Y-88649375D01*
X128028940Y-88613874D01*
X128032765Y-88576079D01*
X128033668Y-88545261D01*
X128032184Y-88505201D01*
X128027724Y-88467613D01*
X128020279Y-88432469D01*
X128009839Y-88399744D01*
X127996395Y-88369410D01*
X127979938Y-88341441D01*
X127960458Y-88315809D01*
X127946476Y-88300696D01*
X127926590Y-88282535D01*
X127905452Y-88266844D01*
X127882668Y-88253445D01*
X127857842Y-88242158D01*
X127830582Y-88232805D01*
X127800494Y-88225207D01*
X127767183Y-88219183D01*
X127767065Y-88219165D01*
X127762905Y-88218740D01*
X127756216Y-88218349D01*
X127746870Y-88217992D01*
X127734733Y-88217667D01*
X127719677Y-88217370D01*
X127701569Y-88217102D01*
X127680279Y-88216859D01*
X127655676Y-88216640D01*
X127627629Y-88216444D01*
X127596007Y-88216267D01*
X127560680Y-88216109D01*
X127548772Y-88216063D01*
X127345990Y-88215301D01*
X127344700Y-88446624D01*
X127344527Y-88478523D01*
X127344361Y-88510848D01*
X127344203Y-88543211D01*
X127344055Y-88575224D01*
X127343918Y-88606500D01*
X127343794Y-88636649D01*
X127343685Y-88665285D01*
X127343592Y-88692020D01*
X127343516Y-88716465D01*
X127343460Y-88738232D01*
X127343424Y-88756935D01*
X127343410Y-88772184D01*
X127343409Y-88773439D01*
X127343409Y-88868932D01*
X126770006Y-88868932D01*
X126770045Y-88773439D01*
X126770454Y-87774405D01*
X127325870Y-87774405D01*
G36*
X121514350Y-87758404D02*
G01*
X121891811Y-87758893D01*
X122150286Y-88564519D01*
X122167780Y-88619046D01*
X122184998Y-88672715D01*
X122201901Y-88725404D01*
X122218450Y-88776991D01*
X122234606Y-88827354D01*
X122250329Y-88876370D01*
X122265581Y-88923918D01*
X122280322Y-88969875D01*
X122294513Y-89014119D01*
X122308115Y-89056529D01*
X122321089Y-89096981D01*
X122333395Y-89135354D01*
X122344994Y-89171526D01*
X122355848Y-89205374D01*
X122365917Y-89236776D01*
X122375161Y-89265610D01*
X122383542Y-89291755D01*
X122391021Y-89315087D01*
X122397558Y-89335485D01*
X122403114Y-89352826D01*
X122407650Y-89366989D01*
X122411127Y-89377851D01*
X122413506Y-89385290D01*
X122414747Y-89389184D01*
X122414857Y-89389535D01*
X122417673Y-89398169D01*
X122419697Y-89403477D01*
X122421142Y-89405882D01*
X122422219Y-89405805D01*
X122422651Y-89405046D01*
X122423353Y-89402951D01*
X122425196Y-89397284D01*
X122428142Y-89388165D01*
X122432153Y-89375716D01*
X122437188Y-89360057D01*
X122443211Y-89341311D01*
X122450181Y-89319598D01*
X122458061Y-89295039D01*
X122466810Y-89267756D01*
X122476391Y-89237870D01*
X122486764Y-89205501D01*
X122497891Y-89170771D01*
X122509733Y-89133802D01*
X122522251Y-89094714D01*
X122535407Y-89053628D01*
X122549161Y-89010666D01*
X122563474Y-88965949D01*
X122578309Y-88919598D01*
X122593625Y-88871733D01*
X122609385Y-88822477D01*
X122625549Y-88771951D01*
X122642078Y-88720275D01*
X122658935Y-88667571D01*
X122673598Y-88621718D01*
X122690825Y-88567847D01*
X122707809Y-88514734D01*
X122724511Y-88462509D01*
X122740887Y-88411299D01*
X122756898Y-88361234D01*
X122772502Y-88312444D01*
X122787657Y-88265058D01*
X122802322Y-88219204D01*
X122816456Y-88175013D01*
X122830017Y-88132612D01*
X122842964Y-88092132D01*
X122855256Y-88053702D01*
X122866852Y-88017451D01*
X122877710Y-87983507D01*
X122887788Y-87952001D01*
X122897047Y-87923060D01*
X122905443Y-87896816D01*
X122912936Y-87873396D01*
X122919485Y-87852930D01*
X122925048Y-87835547D01*
X122929584Y-87821377D01*
X122933051Y-87810548D01*
X122935409Y-87803189D01*
X122936402Y-87800096D01*
X122949956Y-87757924D01*
X123705973Y-87757924D01*
X123705973Y-90135054D01*
X123130111Y-90135054D01*
X123130111Y-89566846D01*
X123157279Y-89010976D01*
X123159533Y-88964818D01*
X123161733Y-88919664D01*
X123163873Y-88875667D01*
X123165945Y-88832981D01*
X123167942Y-88791760D01*
X123169857Y-88752157D01*
X123171682Y-88714325D01*
X123173409Y-88678419D01*
X123175032Y-88644592D01*
X123176543Y-88612997D01*
X123177934Y-88583789D01*
X123179199Y-88557121D01*
X123180331Y-88533146D01*
X123181321Y-88512018D01*
X123182162Y-88493892D01*
X123182847Y-88478919D01*
X123183370Y-88467255D01*
X123183721Y-88459052D01*
X123183895Y-88454465D01*
X123183908Y-88453489D01*
X123183255Y-88455199D01*
X123181395Y-88460466D01*
X123178367Y-88469177D01*
X123174210Y-88481216D01*
X123168962Y-88496468D01*
X123162663Y-88514821D01*
X123155352Y-88536158D01*
X123147068Y-88560366D01*
X123137850Y-88587330D01*
X123127737Y-88616935D01*
X123116769Y-88649067D01*
X123104983Y-88683611D01*
X123092419Y-88720453D01*
X123079117Y-88759479D01*
X123065115Y-88800573D01*
X123050453Y-88843622D01*
X123035168Y-88888511D01*
X123019302Y-88935124D01*
X123002892Y-88983349D01*
X122985977Y-89033069D01*
X122968597Y-89084172D01*
X122950791Y-89136541D01*
X122932597Y-89190064D01*
X122914056Y-89244624D01*
X122897462Y-89293463D01*
X122611556Y-90135054D01*
X122231348Y-90135054D01*
X121944421Y-89291826D01*
X121925554Y-89236386D01*
X121907003Y-89181878D01*
X121888806Y-89128417D01*
X121871001Y-89076117D01*
X121853628Y-89025093D01*
X121836726Y-88975460D01*
X121820334Y-88927331D01*
X121804492Y-88880822D01*
X121789237Y-88836048D01*
X121774610Y-88793122D01*
X121760649Y-88752160D01*
X121747394Y-88713276D01*
X121734883Y-88676584D01*
X121723156Y-88642200D01*
X121712251Y-88610237D01*
X121702208Y-88580811D01*
X121693066Y-88554036D01*
X121684863Y-88530026D01*
X121677640Y-88508897D01*
X121671435Y-88490763D01*
X121666286Y-88475738D01*
X121662234Y-88463936D01*
X121659317Y-88455474D01*
X121657575Y-88450464D01*
X121657042Y-88449003D01*
X121657098Y-88450948D01*
X121657337Y-88456613D01*
X121657750Y-88465844D01*
X121658331Y-88478490D01*
X121659072Y-88494395D01*
X121659966Y-88513407D01*
X121661006Y-88535373D01*
X121662184Y-88560139D01*
X121663494Y-88587553D01*
X121664926Y-88617460D01*
X121666475Y-88649709D01*
X121668133Y-88684144D01*
X121669892Y-88720614D01*
X121671746Y-88758965D01*
X121673686Y-88799043D01*
X121675706Y-88840696D01*
X121677798Y-88883770D01*
X121679955Y-88928112D01*
X121682170Y-88973569D01*
X121683692Y-89004784D01*
X121710792Y-89560161D01*
X121710802Y-89847607D01*
X121710813Y-90135054D01*
X121136890Y-90135054D01*
X121136890Y-87757914D01*
X121514350Y-87758404D01*
G37*
X121514350Y-87758404D02*
X121891811Y-87758893D01*
X122150286Y-88564519D01*
X122167780Y-88619046D01*
X122184998Y-88672715D01*
X122201901Y-88725404D01*
X122218450Y-88776991D01*
X122234606Y-88827354D01*
X122250329Y-88876370D01*
X122265581Y-88923918D01*
X122280322Y-88969875D01*
X122294513Y-89014119D01*
X122308115Y-89056529D01*
X122321089Y-89096981D01*
X122333395Y-89135354D01*
X122344994Y-89171526D01*
X122355848Y-89205374D01*
X122365917Y-89236776D01*
X122375161Y-89265610D01*
X122383542Y-89291755D01*
X122391021Y-89315087D01*
X122397558Y-89335485D01*
X122403114Y-89352826D01*
X122407650Y-89366989D01*
X122411127Y-89377851D01*
X122413506Y-89385290D01*
X122414747Y-89389184D01*
X122414857Y-89389535D01*
X122417673Y-89398169D01*
X122419697Y-89403477D01*
X122421142Y-89405882D01*
X122422219Y-89405805D01*
X122422651Y-89405046D01*
X122423353Y-89402951D01*
X122425196Y-89397284D01*
X122428142Y-89388165D01*
X122432153Y-89375716D01*
X122437188Y-89360057D01*
X122443211Y-89341311D01*
X122450181Y-89319598D01*
X122458061Y-89295039D01*
X122466810Y-89267756D01*
X122476391Y-89237870D01*
X122486764Y-89205501D01*
X122497891Y-89170771D01*
X122509733Y-89133802D01*
X122522251Y-89094714D01*
X122535407Y-89053628D01*
X122549161Y-89010666D01*
X122563474Y-88965949D01*
X122578309Y-88919598D01*
X122593625Y-88871733D01*
X122609385Y-88822477D01*
X122625549Y-88771951D01*
X122642078Y-88720275D01*
X122658935Y-88667571D01*
X122673598Y-88621718D01*
X122690825Y-88567847D01*
X122707809Y-88514734D01*
X122724511Y-88462509D01*
X122740887Y-88411299D01*
X122756898Y-88361234D01*
X122772502Y-88312444D01*
X122787657Y-88265058D01*
X122802322Y-88219204D01*
X122816456Y-88175013D01*
X122830017Y-88132612D01*
X122842964Y-88092132D01*
X122855256Y-88053702D01*
X122866852Y-88017451D01*
X122877710Y-87983507D01*
X122887788Y-87952001D01*
X122897047Y-87923060D01*
X122905443Y-87896816D01*
X122912936Y-87873396D01*
X122919485Y-87852930D01*
X122925048Y-87835547D01*
X122929584Y-87821377D01*
X122933051Y-87810548D01*
X122935409Y-87803189D01*
X122936402Y-87800096D01*
X122949956Y-87757924D01*
X123705973Y-87757924D01*
X123705973Y-90135054D01*
X123130111Y-90135054D01*
X123130111Y-89566846D01*
X123157279Y-89010976D01*
X123159533Y-88964818D01*
X123161733Y-88919664D01*
X123163873Y-88875667D01*
X123165945Y-88832981D01*
X123167942Y-88791760D01*
X123169857Y-88752157D01*
X123171682Y-88714325D01*
X123173409Y-88678419D01*
X123175032Y-88644592D01*
X123176543Y-88612997D01*
X123177934Y-88583789D01*
X123179199Y-88557121D01*
X123180331Y-88533146D01*
X123181321Y-88512018D01*
X123182162Y-88493892D01*
X123182847Y-88478919D01*
X123183370Y-88467255D01*
X123183721Y-88459052D01*
X123183895Y-88454465D01*
X123183908Y-88453489D01*
X123183255Y-88455199D01*
X123181395Y-88460466D01*
X123178367Y-88469177D01*
X123174210Y-88481216D01*
X123168962Y-88496468D01*
X123162663Y-88514821D01*
X123155352Y-88536158D01*
X123147068Y-88560366D01*
X123137850Y-88587330D01*
X123127737Y-88616935D01*
X123116769Y-88649067D01*
X123104983Y-88683611D01*
X123092419Y-88720453D01*
X123079117Y-88759479D01*
X123065115Y-88800573D01*
X123050453Y-88843622D01*
X123035168Y-88888511D01*
X123019302Y-88935124D01*
X123002892Y-88983349D01*
X122985977Y-89033069D01*
X122968597Y-89084172D01*
X122950791Y-89136541D01*
X122932597Y-89190064D01*
X122914056Y-89244624D01*
X122897462Y-89293463D01*
X122611556Y-90135054D01*
X122231348Y-90135054D01*
X121944421Y-89291826D01*
X121925554Y-89236386D01*
X121907003Y-89181878D01*
X121888806Y-89128417D01*
X121871001Y-89076117D01*
X121853628Y-89025093D01*
X121836726Y-88975460D01*
X121820334Y-88927331D01*
X121804492Y-88880822D01*
X121789237Y-88836048D01*
X121774610Y-88793122D01*
X121760649Y-88752160D01*
X121747394Y-88713276D01*
X121734883Y-88676584D01*
X121723156Y-88642200D01*
X121712251Y-88610237D01*
X121702208Y-88580811D01*
X121693066Y-88554036D01*
X121684863Y-88530026D01*
X121677640Y-88508897D01*
X121671435Y-88490763D01*
X121666286Y-88475738D01*
X121662234Y-88463936D01*
X121659317Y-88455474D01*
X121657575Y-88450464D01*
X121657042Y-88449003D01*
X121657098Y-88450948D01*
X121657337Y-88456613D01*
X121657750Y-88465844D01*
X121658331Y-88478490D01*
X121659072Y-88494395D01*
X121659966Y-88513407D01*
X121661006Y-88535373D01*
X121662184Y-88560139D01*
X121663494Y-88587553D01*
X121664926Y-88617460D01*
X121666475Y-88649709D01*
X121668133Y-88684144D01*
X121669892Y-88720614D01*
X121671746Y-88758965D01*
X121673686Y-88799043D01*
X121675706Y-88840696D01*
X121677798Y-88883770D01*
X121679955Y-88928112D01*
X121682170Y-88973569D01*
X121683692Y-89004784D01*
X121710792Y-89560161D01*
X121710802Y-89847607D01*
X121710813Y-90135054D01*
X121136890Y-90135054D01*
X121136890Y-87757914D01*
X121514350Y-87758404D01*
G36*
X131435523Y-87774405D02*
G01*
X131891740Y-87774405D01*
X131936110Y-87774409D01*
X131976952Y-87774419D01*
X132014442Y-87774438D01*
X132048755Y-87774469D01*
X132080066Y-87774516D01*
X132108550Y-87774581D01*
X132134382Y-87774668D01*
X132157738Y-87774780D01*
X132178793Y-87774920D01*
X132197721Y-87775091D01*
X132214699Y-87775295D01*
X132229901Y-87775537D01*
X132243503Y-87775820D01*
X132255679Y-87776145D01*
X132266605Y-87776517D01*
X132276456Y-87776939D01*
X132285407Y-87777413D01*
X132293634Y-87777943D01*
X132301311Y-87778532D01*
X132308614Y-87779183D01*
X132315718Y-87779899D01*
X132322798Y-87780684D01*
X132330029Y-87781539D01*
X132337587Y-87782469D01*
X132343912Y-87783260D01*
X132401567Y-87792108D01*
X132456720Y-87803911D01*
X132509397Y-87818678D01*
X132559620Y-87836422D01*
X132607415Y-87857152D01*
X132652806Y-87880881D01*
X132695816Y-87907618D01*
X132736470Y-87937376D01*
X132774793Y-87970165D01*
X132793919Y-87988529D01*
X132825412Y-88022253D01*
X132853676Y-88057387D01*
X132878800Y-88094122D01*
X132900871Y-88132646D01*
X132919976Y-88173148D01*
X132936205Y-88215818D01*
X132949645Y-88260846D01*
X132960383Y-88308420D01*
X132968508Y-88358730D01*
X132969537Y-88366768D01*
X132970774Y-88379417D01*
X132971766Y-88394928D01*
X132972512Y-88412628D01*
X132973013Y-88431841D01*
X132973267Y-88451894D01*
X132973274Y-88472111D01*
X132973034Y-88491820D01*
X132972547Y-88510344D01*
X132971813Y-88527011D01*
X132970830Y-88541144D01*
X132969623Y-88551916D01*
X132960564Y-88602441D01*
X132948603Y-88650524D01*
X132933650Y-88696393D01*
X132915617Y-88740277D01*
X132894412Y-88782403D01*
X132869946Y-88823001D01*
X132853726Y-88846634D01*
X132822109Y-88887511D01*
X132788207Y-88925359D01*
X132752113Y-88960111D01*
X132713922Y-88991701D01*
X132673730Y-89020060D01*
X132631630Y-89045123D01*
X132587719Y-89066823D01*
X132542090Y-89085091D01*
X132496454Y-89099421D01*
X132485245Y-89102389D01*
X132473997Y-89105199D01*
X132463887Y-89107567D01*
X132456092Y-89109211D01*
X132454916Y-89109427D01*
X132448128Y-89110844D01*
X132443139Y-89112292D01*
X132440899Y-89113489D01*
X132440859Y-89113625D01*
X132441874Y-89115386D01*
X132444867Y-89120309D01*
X132449759Y-89128268D01*
X132456473Y-89139136D01*
X132464928Y-89152789D01*
X132475048Y-89169100D01*
X132486754Y-89187942D01*
X132499967Y-89209191D01*
X132514608Y-89232720D01*
X132530599Y-89258403D01*
X132547863Y-89286114D01*
X132566320Y-89315728D01*
X132585891Y-89347118D01*
X132606499Y-89380159D01*
X132628066Y-89414724D01*
X132650511Y-89450687D01*
X132673758Y-89487923D01*
X132697727Y-89526306D01*
X132722341Y-89565709D01*
X132747520Y-89606007D01*
X132757390Y-89621800D01*
X133073920Y-90128267D01*
X133074572Y-90140420D01*
X133075223Y-90152573D01*
X132979511Y-90151535D01*
X132663428Y-89643045D01*
X132347345Y-89134556D01*
X131936029Y-89135045D01*
X131524714Y-89135535D01*
X131524226Y-89644019D01*
X131523737Y-90152504D01*
X131434550Y-90152504D01*
X131435003Y-89045478D01*
X131523738Y-89045478D01*
X131935279Y-89044833D01*
X131982773Y-89044756D01*
X132026549Y-89044680D01*
X132066767Y-89044604D01*
X132103587Y-89044526D01*
X132137168Y-89044444D01*
X132167670Y-89044358D01*
X132195253Y-89044265D01*
X132220078Y-89044165D01*
X132242303Y-89044056D01*
X132262089Y-89043936D01*
X132279596Y-89043804D01*
X132294983Y-89043659D01*
X132308410Y-89043500D01*
X132320037Y-89043324D01*
X132330024Y-89043130D01*
X132338531Y-89042918D01*
X132345717Y-89042685D01*
X132351743Y-89042431D01*
X132356768Y-89042153D01*
X132360952Y-89041851D01*
X132364455Y-89041522D01*
X132367437Y-89041166D01*
X132368683Y-89040992D01*
X132400493Y-89035963D01*
X132429172Y-89030580D01*
X132455464Y-89024657D01*
X132480112Y-89018009D01*
X132503860Y-89010449D01*
X132527451Y-89001791D01*
X132531019Y-89000388D01*
X132572763Y-88981782D01*
X132612653Y-88959896D01*
X132650507Y-88934917D01*
X132686143Y-88907036D01*
X132719381Y-88876440D01*
X132750040Y-88843318D01*
X132777939Y-88807860D01*
X132802895Y-88770254D01*
X132824729Y-88730689D01*
X132843258Y-88689354D01*
X132852048Y-88665723D01*
X132864461Y-88624395D01*
X132873965Y-88580979D01*
X132880530Y-88535987D01*
X132884127Y-88489929D01*
X132884724Y-88443318D01*
X132882293Y-88396664D01*
X132876801Y-88350479D01*
X132872281Y-88324514D01*
X132861653Y-88279587D01*
X132847670Y-88236579D01*
X132830347Y-88195521D01*
X132809701Y-88156442D01*
X132785747Y-88119372D01*
X132758501Y-88084342D01*
X132729496Y-88052895D01*
X132695103Y-88021201D01*
X132658185Y-87992416D01*
X132618733Y-87966533D01*
X132576736Y-87943550D01*
X132532186Y-87923462D01*
X132485071Y-87906265D01*
X132435383Y-87891953D01*
X132383112Y-87880524D01*
X132328247Y-87871972D01*
X132315284Y-87870414D01*
X132306435Y-87869445D01*
X132297532Y-87868557D01*
X132288386Y-87867747D01*
X132278807Y-87867011D01*
X132268608Y-87866347D01*
X132257598Y-87865752D01*
X132245590Y-87865223D01*
X132232394Y-87864755D01*
X132217822Y-87864348D01*
X132201684Y-87863997D01*
X132183791Y-87863699D01*
X132163955Y-87863452D01*
X132141986Y-87863253D01*
X132117696Y-87863097D01*
X132090896Y-87862983D01*
X132061397Y-87862907D01*
X132029009Y-87862867D01*
X131993545Y-87862859D01*
X131954815Y-87862879D01*
X131912629Y-87862926D01*
X131866800Y-87862996D01*
X131855302Y-87863016D01*
X131524714Y-87863596D01*
X131523738Y-89045478D01*
X131435003Y-89045478D01*
X131435037Y-88963454D01*
X131435523Y-87774405D01*
G37*
X131435523Y-87774405D02*
X131891740Y-87774405D01*
X131936110Y-87774409D01*
X131976952Y-87774419D01*
X132014442Y-87774438D01*
X132048755Y-87774469D01*
X132080066Y-87774516D01*
X132108550Y-87774581D01*
X132134382Y-87774668D01*
X132157738Y-87774780D01*
X132178793Y-87774920D01*
X132197721Y-87775091D01*
X132214699Y-87775295D01*
X132229901Y-87775537D01*
X132243503Y-87775820D01*
X132255679Y-87776145D01*
X132266605Y-87776517D01*
X132276456Y-87776939D01*
X132285407Y-87777413D01*
X132293634Y-87777943D01*
X132301311Y-87778532D01*
X132308614Y-87779183D01*
X132315718Y-87779899D01*
X132322798Y-87780684D01*
X132330029Y-87781539D01*
X132337587Y-87782469D01*
X132343912Y-87783260D01*
X132401567Y-87792108D01*
X132456720Y-87803911D01*
X132509397Y-87818678D01*
X132559620Y-87836422D01*
X132607415Y-87857152D01*
X132652806Y-87880881D01*
X132695816Y-87907618D01*
X132736470Y-87937376D01*
X132774793Y-87970165D01*
X132793919Y-87988529D01*
X132825412Y-88022253D01*
X132853676Y-88057387D01*
X132878800Y-88094122D01*
X132900871Y-88132646D01*
X132919976Y-88173148D01*
X132936205Y-88215818D01*
X132949645Y-88260846D01*
X132960383Y-88308420D01*
X132968508Y-88358730D01*
X132969537Y-88366768D01*
X132970774Y-88379417D01*
X132971766Y-88394928D01*
X132972512Y-88412628D01*
X132973013Y-88431841D01*
X132973267Y-88451894D01*
X132973274Y-88472111D01*
X132973034Y-88491820D01*
X132972547Y-88510344D01*
X132971813Y-88527011D01*
X132970830Y-88541144D01*
X132969623Y-88551916D01*
X132960564Y-88602441D01*
X132948603Y-88650524D01*
X132933650Y-88696393D01*
X132915617Y-88740277D01*
X132894412Y-88782403D01*
X132869946Y-88823001D01*
X132853726Y-88846634D01*
X132822109Y-88887511D01*
X132788207Y-88925359D01*
X132752113Y-88960111D01*
X132713922Y-88991701D01*
X132673730Y-89020060D01*
X132631630Y-89045123D01*
X132587719Y-89066823D01*
X132542090Y-89085091D01*
X132496454Y-89099421D01*
X132485245Y-89102389D01*
X132473997Y-89105199D01*
X132463887Y-89107567D01*
X132456092Y-89109211D01*
X132454916Y-89109427D01*
X132448128Y-89110844D01*
X132443139Y-89112292D01*
X132440899Y-89113489D01*
X132440859Y-89113625D01*
X132441874Y-89115386D01*
X132444867Y-89120309D01*
X132449759Y-89128268D01*
X132456473Y-89139136D01*
X132464928Y-89152789D01*
X132475048Y-89169100D01*
X132486754Y-89187942D01*
X132499967Y-89209191D01*
X132514608Y-89232720D01*
X132530599Y-89258403D01*
X132547863Y-89286114D01*
X132566320Y-89315728D01*
X132585891Y-89347118D01*
X132606499Y-89380159D01*
X132628066Y-89414724D01*
X132650511Y-89450687D01*
X132673758Y-89487923D01*
X132697727Y-89526306D01*
X132722341Y-89565709D01*
X132747520Y-89606007D01*
X132757390Y-89621800D01*
X133073920Y-90128267D01*
X133074572Y-90140420D01*
X133075223Y-90152573D01*
X132979511Y-90151535D01*
X132663428Y-89643045D01*
X132347345Y-89134556D01*
X131936029Y-89135045D01*
X131524714Y-89135535D01*
X131524226Y-89644019D01*
X131523737Y-90152504D01*
X131434550Y-90152504D01*
X131435003Y-89045478D01*
X131523738Y-89045478D01*
X131935279Y-89044833D01*
X131982773Y-89044756D01*
X132026549Y-89044680D01*
X132066767Y-89044604D01*
X132103587Y-89044526D01*
X132137168Y-89044444D01*
X132167670Y-89044358D01*
X132195253Y-89044265D01*
X132220078Y-89044165D01*
X132242303Y-89044056D01*
X132262089Y-89043936D01*
X132279596Y-89043804D01*
X132294983Y-89043659D01*
X132308410Y-89043500D01*
X132320037Y-89043324D01*
X132330024Y-89043130D01*
X132338531Y-89042918D01*
X132345717Y-89042685D01*
X132351743Y-89042431D01*
X132356768Y-89042153D01*
X132360952Y-89041851D01*
X132364455Y-89041522D01*
X132367437Y-89041166D01*
X132368683Y-89040992D01*
X132400493Y-89035963D01*
X132429172Y-89030580D01*
X132455464Y-89024657D01*
X132480112Y-89018009D01*
X132503860Y-89010449D01*
X132527451Y-89001791D01*
X132531019Y-89000388D01*
X132572763Y-88981782D01*
X132612653Y-88959896D01*
X132650507Y-88934917D01*
X132686143Y-88907036D01*
X132719381Y-88876440D01*
X132750040Y-88843318D01*
X132777939Y-88807860D01*
X132802895Y-88770254D01*
X132824729Y-88730689D01*
X132843258Y-88689354D01*
X132852048Y-88665723D01*
X132864461Y-88624395D01*
X132873965Y-88580979D01*
X132880530Y-88535987D01*
X132884127Y-88489929D01*
X132884724Y-88443318D01*
X132882293Y-88396664D01*
X132876801Y-88350479D01*
X132872281Y-88324514D01*
X132861653Y-88279587D01*
X132847670Y-88236579D01*
X132830347Y-88195521D01*
X132809701Y-88156442D01*
X132785747Y-88119372D01*
X132758501Y-88084342D01*
X132729496Y-88052895D01*
X132695103Y-88021201D01*
X132658185Y-87992416D01*
X132618733Y-87966533D01*
X132576736Y-87943550D01*
X132532186Y-87923462D01*
X132485071Y-87906265D01*
X132435383Y-87891953D01*
X132383112Y-87880524D01*
X132328247Y-87871972D01*
X132315284Y-87870414D01*
X132306435Y-87869445D01*
X132297532Y-87868557D01*
X132288386Y-87867747D01*
X132278807Y-87867011D01*
X132268608Y-87866347D01*
X132257598Y-87865752D01*
X132245590Y-87865223D01*
X132232394Y-87864755D01*
X132217822Y-87864348D01*
X132201684Y-87863997D01*
X132183791Y-87863699D01*
X132163955Y-87863452D01*
X132141986Y-87863253D01*
X132117696Y-87863097D01*
X132090896Y-87862983D01*
X132061397Y-87862907D01*
X132029009Y-87862867D01*
X131993545Y-87862859D01*
X131954815Y-87862879D01*
X131912629Y-87862926D01*
X131866800Y-87862996D01*
X131855302Y-87863016D01*
X131524714Y-87863596D01*
X131523738Y-89045478D01*
X131435003Y-89045478D01*
X131435037Y-88963454D01*
X131435523Y-87774405D01*
G36*
X134338047Y-87743183D02*
G01*
X134360295Y-87743402D01*
X134381437Y-87743807D01*
X134400876Y-87744398D01*
X134418016Y-87745175D01*
X134432260Y-87746139D01*
X134439581Y-87746853D01*
X134498947Y-87755319D01*
X134556230Y-87766831D01*
X134611347Y-87781359D01*
X134664215Y-87798875D01*
X134714751Y-87819350D01*
X134762872Y-87842756D01*
X134808496Y-87869063D01*
X134829614Y-87882800D01*
X134869487Y-87912049D01*
X134907053Y-87944255D01*
X134942091Y-87979171D01*
X134974383Y-88016550D01*
X135003711Y-88056142D01*
X135029856Y-88097700D01*
X135046496Y-88128520D01*
X135065909Y-88170077D01*
X135082133Y-88211576D01*
X135095310Y-88253575D01*
X135105582Y-88296632D01*
X135113092Y-88341305D01*
X135117982Y-88388153D01*
X135119635Y-88415706D01*
X135120931Y-88444306D01*
X135031824Y-88444306D01*
X135030578Y-88432388D01*
X135029856Y-88423287D01*
X135029405Y-88413379D01*
X135029330Y-88408636D01*
X135028931Y-88398089D01*
X135027814Y-88384653D01*
X135026091Y-88369224D01*
X135023877Y-88352701D01*
X135021282Y-88335980D01*
X135018422Y-88319961D01*
X135017694Y-88316248D01*
X135006831Y-88271459D01*
X134992478Y-88228313D01*
X134974627Y-88186794D01*
X134953265Y-88146884D01*
X134928382Y-88108566D01*
X134899968Y-88071825D01*
X134868012Y-88036642D01*
X134832503Y-88003002D01*
X134807325Y-87981803D01*
X134768357Y-87952913D01*
X134727060Y-87927077D01*
X134683417Y-87904289D01*
X134637414Y-87884543D01*
X134589035Y-87867833D01*
X134538265Y-87854155D01*
X134485089Y-87843503D01*
X134429493Y-87835870D01*
X134405966Y-87833610D01*
X134395671Y-87832960D01*
X134382214Y-87832444D01*
X134366306Y-87832061D01*
X134348661Y-87831813D01*
X134329991Y-87831699D01*
X134311008Y-87831719D01*
X134292425Y-87831875D01*
X134274956Y-87832166D01*
X134259312Y-87832593D01*
X134246206Y-87833156D01*
X134240187Y-87833534D01*
X134180485Y-87839416D01*
X134123430Y-87848101D01*
X134069028Y-87859586D01*
X134017285Y-87873869D01*
X133968207Y-87890948D01*
X133921801Y-87910820D01*
X133878071Y-87933483D01*
X133837025Y-87958934D01*
X133798668Y-87987171D01*
X133763006Y-88018191D01*
X133753444Y-88027435D01*
X133727640Y-88054672D01*
X133705343Y-88081960D01*
X133686210Y-88109802D01*
X133669898Y-88138702D01*
X133656063Y-88169165D01*
X133654923Y-88172012D01*
X133643218Y-88206633D01*
X133634749Y-88242943D01*
X133629524Y-88280485D01*
X133627547Y-88318805D01*
X133628824Y-88357445D01*
X133633361Y-88395951D01*
X133641164Y-88433866D01*
X133651143Y-88467573D01*
X133664188Y-88500848D01*
X133680069Y-88532560D01*
X133698890Y-88562814D01*
X133720757Y-88591711D01*
X133745776Y-88619355D01*
X133774052Y-88645849D01*
X133805691Y-88671298D01*
X133840797Y-88695803D01*
X133879478Y-88719469D01*
X133921838Y-88742398D01*
X133942561Y-88752714D01*
X133975934Y-88768406D01*
X134010190Y-88783491D01*
X134045666Y-88798088D01*
X134082701Y-88812313D01*
X134121634Y-88826286D01*
X134162801Y-88840124D01*
X134206542Y-88853946D01*
X134253194Y-88867871D01*
X134303096Y-88882015D01*
X134344890Y-88893383D01*
X134392717Y-88906374D01*
X134437111Y-88918856D01*
X134478459Y-88930961D01*
X134517154Y-88942819D01*
X134553584Y-88954561D01*
X134588141Y-88966318D01*
X134621214Y-88978220D01*
X134653194Y-88990399D01*
X134684471Y-89002984D01*
X134715435Y-89016106D01*
X134728798Y-89021967D01*
X134779826Y-89045868D01*
X134827170Y-89070762D01*
X134870916Y-89096729D01*
X134911149Y-89123851D01*
X134947954Y-89152211D01*
X134981418Y-89181889D01*
X135011625Y-89212968D01*
X135038661Y-89245529D01*
X135062612Y-89279654D01*
X135083563Y-89315423D01*
X135101600Y-89352920D01*
X135116808Y-89392225D01*
X135116883Y-89392443D01*
X135126215Y-89423631D01*
X135133864Y-89457490D01*
X135139733Y-89493151D01*
X135143729Y-89529746D01*
X135145756Y-89566409D01*
X135145719Y-89602272D01*
X135143576Y-89635927D01*
X135137237Y-89680783D01*
X135127241Y-89724460D01*
X135113662Y-89766836D01*
X135096575Y-89807791D01*
X135076053Y-89847201D01*
X135052171Y-89884946D01*
X135025002Y-89920903D01*
X134994620Y-89954950D01*
X134961101Y-89986966D01*
X134924518Y-90016829D01*
X134901904Y-90033130D01*
X134866793Y-90055549D01*
X134828499Y-90076757D01*
X134787597Y-90096500D01*
X134744660Y-90114523D01*
X134700265Y-90130573D01*
X134654985Y-90144394D01*
X134643391Y-90147525D01*
X134582611Y-90161607D01*
X134520028Y-90172373D01*
X134455591Y-90179827D01*
X134389247Y-90183975D01*
X134320944Y-90184820D01*
X134269472Y-90183340D01*
X134206543Y-90179006D01*
X134145092Y-90171835D01*
X134085285Y-90161882D01*
X134027289Y-90149202D01*
X133971270Y-90133851D01*
X133917395Y-90115884D01*
X133865830Y-90095356D01*
X133816741Y-90072321D01*
X133770295Y-90046836D01*
X133726658Y-90018955D01*
X133688891Y-89991041D01*
X133677278Y-89981314D01*
X133664037Y-89969362D01*
X133649909Y-89955925D01*
X133635634Y-89941743D01*
X133621952Y-89927557D01*
X133609603Y-89914105D01*
X133599328Y-89902128D01*
X133596877Y-89899081D01*
X133568548Y-89860095D01*
X133543452Y-89819033D01*
X133521635Y-89776028D01*
X133503143Y-89731211D01*
X133488022Y-89684713D01*
X133476315Y-89636667D01*
X133468069Y-89587203D01*
X133463328Y-89536454D01*
X133462227Y-89507809D01*
X133461706Y-89480664D01*
X133505566Y-89480144D01*
X133549426Y-89479623D01*
X133550740Y-89505350D01*
X133553470Y-89544106D01*
X133557617Y-89579917D01*
X133563311Y-89613496D01*
X133570683Y-89645557D01*
X133579864Y-89676812D01*
X133584996Y-89691864D01*
X133591301Y-89708037D01*
X133599302Y-89726212D01*
X133608430Y-89745245D01*
X133618117Y-89763992D01*
X133627791Y-89781307D01*
X133636684Y-89795741D01*
X133661894Y-89830664D01*
X133690493Y-89863895D01*
X133722327Y-89895323D01*
X133757244Y-89924841D01*
X133795094Y-89952341D01*
X133835725Y-89977713D01*
X133878984Y-90000851D01*
X133924720Y-90021645D01*
X133972782Y-90039988D01*
X133984248Y-90043881D01*
X134033669Y-90058595D01*
X134085615Y-90070876D01*
X134139578Y-90080711D01*
X134195053Y-90088086D01*
X134251532Y-90092988D01*
X134308509Y-90095401D01*
X134365477Y-90095312D01*
X134421928Y-90092707D01*
X134477357Y-90087573D01*
X134531257Y-90079894D01*
X134583119Y-90069657D01*
X134616562Y-90061337D01*
X134653015Y-90050648D01*
X134687080Y-90038894D01*
X134720213Y-90025517D01*
X134753872Y-90009958D01*
X134765356Y-90004243D01*
X134807238Y-89981344D01*
X134846100Y-89956572D01*
X134881866Y-89930012D01*
X134914458Y-89901750D01*
X134943799Y-89871873D01*
X134969811Y-89840466D01*
X134992419Y-89807616D01*
X135011544Y-89773409D01*
X135027110Y-89737931D01*
X135039039Y-89701269D01*
X135040023Y-89697561D01*
X135044122Y-89681028D01*
X135047324Y-89666041D01*
X135049727Y-89651726D01*
X135051432Y-89637207D01*
X135052537Y-89621608D01*
X135053140Y-89604054D01*
X135053341Y-89583669D01*
X135053342Y-89579550D01*
X135053273Y-89562602D01*
X135053072Y-89548753D01*
X135052698Y-89537224D01*
X135052106Y-89527236D01*
X135051253Y-89518012D01*
X135050096Y-89508773D01*
X135049012Y-89501417D01*
X135041307Y-89461368D01*
X135030900Y-89423931D01*
X135017637Y-89388795D01*
X135001362Y-89355650D01*
X134981922Y-89324185D01*
X134959162Y-89294089D01*
X134932928Y-89265050D01*
X134930447Y-89262534D01*
X134909359Y-89242333D01*
X134886849Y-89222840D01*
X134862761Y-89203982D01*
X134836937Y-89185688D01*
X134809220Y-89167885D01*
X134779452Y-89150500D01*
X134747476Y-89133462D01*
X134713134Y-89116698D01*
X134676270Y-89100137D01*
X134636725Y-89083705D01*
X134594343Y-89067331D01*
X134548967Y-89050943D01*
X134500438Y-89034468D01*
X134448599Y-89017834D01*
X134393294Y-89000968D01*
X134334364Y-88983800D01*
X134305141Y-88975541D01*
X134252057Y-88960439D01*
X134202543Y-88945852D01*
X134156339Y-88931688D01*
X134113185Y-88917857D01*
X134072821Y-88904266D01*
X134034987Y-88890824D01*
X133999422Y-88877441D01*
X133965867Y-88864026D01*
X133934061Y-88850486D01*
X133903744Y-88836731D01*
X133888271Y-88829361D01*
X133842155Y-88805558D01*
X133799080Y-88780314D01*
X133759157Y-88753717D01*
X133722494Y-88725854D01*
X133689203Y-88696813D01*
X133659392Y-88666683D01*
X133633172Y-88635550D01*
X133615567Y-88611054D01*
X133595185Y-88577019D01*
X133577804Y-88540601D01*
X133563465Y-88501923D01*
X133552209Y-88461108D01*
X133544076Y-88418280D01*
X133540135Y-88385797D01*
X133539314Y-88373739D01*
X133538797Y-88358953D01*
X133538570Y-88342223D01*
X133538617Y-88324331D01*
X133538923Y-88306060D01*
X133539471Y-88288193D01*
X133540247Y-88271513D01*
X133541235Y-88256802D01*
X133542420Y-88244844D01*
X133542991Y-88240718D01*
X133551628Y-88197256D01*
X133563765Y-88155465D01*
X133579399Y-88115347D01*
X133598527Y-88076906D01*
X133621147Y-88040146D01*
X133647256Y-88005070D01*
X133676854Y-87971681D01*
X133709936Y-87939984D01*
X133746501Y-87909981D01*
X133781630Y-87884934D01*
X133822136Y-87859632D01*
X133864098Y-87836958D01*
X133907755Y-87816833D01*
X133953350Y-87799179D01*
X134001122Y-87783916D01*
X134051313Y-87770965D01*
X134104162Y-87760246D01*
X134159911Y-87751682D01*
X134201409Y-87746863D01*
X134214708Y-87745779D01*
X134231074Y-87744881D01*
X134249912Y-87744169D01*
X134270624Y-87743644D01*
X134292615Y-87743304D01*
X134315288Y-87743151D01*
X134338047Y-87743183D01*
G37*
X134338047Y-87743183D02*
X134360295Y-87743402D01*
X134381437Y-87743807D01*
X134400876Y-87744398D01*
X134418016Y-87745175D01*
X134432260Y-87746139D01*
X134439581Y-87746853D01*
X134498947Y-87755319D01*
X134556230Y-87766831D01*
X134611347Y-87781359D01*
X134664215Y-87798875D01*
X134714751Y-87819350D01*
X134762872Y-87842756D01*
X134808496Y-87869063D01*
X134829614Y-87882800D01*
X134869487Y-87912049D01*
X134907053Y-87944255D01*
X134942091Y-87979171D01*
X134974383Y-88016550D01*
X135003711Y-88056142D01*
X135029856Y-88097700D01*
X135046496Y-88128520D01*
X135065909Y-88170077D01*
X135082133Y-88211576D01*
X135095310Y-88253575D01*
X135105582Y-88296632D01*
X135113092Y-88341305D01*
X135117982Y-88388153D01*
X135119635Y-88415706D01*
X135120931Y-88444306D01*
X135031824Y-88444306D01*
X135030578Y-88432388D01*
X135029856Y-88423287D01*
X135029405Y-88413379D01*
X135029330Y-88408636D01*
X135028931Y-88398089D01*
X135027814Y-88384653D01*
X135026091Y-88369224D01*
X135023877Y-88352701D01*
X135021282Y-88335980D01*
X135018422Y-88319961D01*
X135017694Y-88316248D01*
X135006831Y-88271459D01*
X134992478Y-88228313D01*
X134974627Y-88186794D01*
X134953265Y-88146884D01*
X134928382Y-88108566D01*
X134899968Y-88071825D01*
X134868012Y-88036642D01*
X134832503Y-88003002D01*
X134807325Y-87981803D01*
X134768357Y-87952913D01*
X134727060Y-87927077D01*
X134683417Y-87904289D01*
X134637414Y-87884543D01*
X134589035Y-87867833D01*
X134538265Y-87854155D01*
X134485089Y-87843503D01*
X134429493Y-87835870D01*
X134405966Y-87833610D01*
X134395671Y-87832960D01*
X134382214Y-87832444D01*
X134366306Y-87832061D01*
X134348661Y-87831813D01*
X134329991Y-87831699D01*
X134311008Y-87831719D01*
X134292425Y-87831875D01*
X134274956Y-87832166D01*
X134259312Y-87832593D01*
X134246206Y-87833156D01*
X134240187Y-87833534D01*
X134180485Y-87839416D01*
X134123430Y-87848101D01*
X134069028Y-87859586D01*
X134017285Y-87873869D01*
X133968207Y-87890948D01*
X133921801Y-87910820D01*
X133878071Y-87933483D01*
X133837025Y-87958934D01*
X133798668Y-87987171D01*
X133763006Y-88018191D01*
X133753444Y-88027435D01*
X133727640Y-88054672D01*
X133705343Y-88081960D01*
X133686210Y-88109802D01*
X133669898Y-88138702D01*
X133656063Y-88169165D01*
X133654923Y-88172012D01*
X133643218Y-88206633D01*
X133634749Y-88242943D01*
X133629524Y-88280485D01*
X133627547Y-88318805D01*
X133628824Y-88357445D01*
X133633361Y-88395951D01*
X133641164Y-88433866D01*
X133651143Y-88467573D01*
X133664188Y-88500848D01*
X133680069Y-88532560D01*
X133698890Y-88562814D01*
X133720757Y-88591711D01*
X133745776Y-88619355D01*
X133774052Y-88645849D01*
X133805691Y-88671298D01*
X133840797Y-88695803D01*
X133879478Y-88719469D01*
X133921838Y-88742398D01*
X133942561Y-88752714D01*
X133975934Y-88768406D01*
X134010190Y-88783491D01*
X134045666Y-88798088D01*
X134082701Y-88812313D01*
X134121634Y-88826286D01*
X134162801Y-88840124D01*
X134206542Y-88853946D01*
X134253194Y-88867871D01*
X134303096Y-88882015D01*
X134344890Y-88893383D01*
X134392717Y-88906374D01*
X134437111Y-88918856D01*
X134478459Y-88930961D01*
X134517154Y-88942819D01*
X134553584Y-88954561D01*
X134588141Y-88966318D01*
X134621214Y-88978220D01*
X134653194Y-88990399D01*
X134684471Y-89002984D01*
X134715435Y-89016106D01*
X134728798Y-89021967D01*
X134779826Y-89045868D01*
X134827170Y-89070762D01*
X134870916Y-89096729D01*
X134911149Y-89123851D01*
X134947954Y-89152211D01*
X134981418Y-89181889D01*
X135011625Y-89212968D01*
X135038661Y-89245529D01*
X135062612Y-89279654D01*
X135083563Y-89315423D01*
X135101600Y-89352920D01*
X135116808Y-89392225D01*
X135116883Y-89392443D01*
X135126215Y-89423631D01*
X135133864Y-89457490D01*
X135139733Y-89493151D01*
X135143729Y-89529746D01*
X135145756Y-89566409D01*
X135145719Y-89602272D01*
X135143576Y-89635927D01*
X135137237Y-89680783D01*
X135127241Y-89724460D01*
X135113662Y-89766836D01*
X135096575Y-89807791D01*
X135076053Y-89847201D01*
X135052171Y-89884946D01*
X135025002Y-89920903D01*
X134994620Y-89954950D01*
X134961101Y-89986966D01*
X134924518Y-90016829D01*
X134901904Y-90033130D01*
X134866793Y-90055549D01*
X134828499Y-90076757D01*
X134787597Y-90096500D01*
X134744660Y-90114523D01*
X134700265Y-90130573D01*
X134654985Y-90144394D01*
X134643391Y-90147525D01*
X134582611Y-90161607D01*
X134520028Y-90172373D01*
X134455591Y-90179827D01*
X134389247Y-90183975D01*
X134320944Y-90184820D01*
X134269472Y-90183340D01*
X134206543Y-90179006D01*
X134145092Y-90171835D01*
X134085285Y-90161882D01*
X134027289Y-90149202D01*
X133971270Y-90133851D01*
X133917395Y-90115884D01*
X133865830Y-90095356D01*
X133816741Y-90072321D01*
X133770295Y-90046836D01*
X133726658Y-90018955D01*
X133688891Y-89991041D01*
X133677278Y-89981314D01*
X133664037Y-89969362D01*
X133649909Y-89955925D01*
X133635634Y-89941743D01*
X133621952Y-89927557D01*
X133609603Y-89914105D01*
X133599328Y-89902128D01*
X133596877Y-89899081D01*
X133568548Y-89860095D01*
X133543452Y-89819033D01*
X133521635Y-89776028D01*
X133503143Y-89731211D01*
X133488022Y-89684713D01*
X133476315Y-89636667D01*
X133468069Y-89587203D01*
X133463328Y-89536454D01*
X133462227Y-89507809D01*
X133461706Y-89480664D01*
X133505566Y-89480144D01*
X133549426Y-89479623D01*
X133550740Y-89505350D01*
X133553470Y-89544106D01*
X133557617Y-89579917D01*
X133563311Y-89613496D01*
X133570683Y-89645557D01*
X133579864Y-89676812D01*
X133584996Y-89691864D01*
X133591301Y-89708037D01*
X133599302Y-89726212D01*
X133608430Y-89745245D01*
X133618117Y-89763992D01*
X133627791Y-89781307D01*
X133636684Y-89795741D01*
X133661894Y-89830664D01*
X133690493Y-89863895D01*
X133722327Y-89895323D01*
X133757244Y-89924841D01*
X133795094Y-89952341D01*
X133835725Y-89977713D01*
X133878984Y-90000851D01*
X133924720Y-90021645D01*
X133972782Y-90039988D01*
X133984248Y-90043881D01*
X134033669Y-90058595D01*
X134085615Y-90070876D01*
X134139578Y-90080711D01*
X134195053Y-90088086D01*
X134251532Y-90092988D01*
X134308509Y-90095401D01*
X134365477Y-90095312D01*
X134421928Y-90092707D01*
X134477357Y-90087573D01*
X134531257Y-90079894D01*
X134583119Y-90069657D01*
X134616562Y-90061337D01*
X134653015Y-90050648D01*
X134687080Y-90038894D01*
X134720213Y-90025517D01*
X134753872Y-90009958D01*
X134765356Y-90004243D01*
X134807238Y-89981344D01*
X134846100Y-89956572D01*
X134881866Y-89930012D01*
X134914458Y-89901750D01*
X134943799Y-89871873D01*
X134969811Y-89840466D01*
X134992419Y-89807616D01*
X135011544Y-89773409D01*
X135027110Y-89737931D01*
X135039039Y-89701269D01*
X135040023Y-89697561D01*
X135044122Y-89681028D01*
X135047324Y-89666041D01*
X135049727Y-89651726D01*
X135051432Y-89637207D01*
X135052537Y-89621608D01*
X135053140Y-89604054D01*
X135053341Y-89583669D01*
X135053342Y-89579550D01*
X135053273Y-89562602D01*
X135053072Y-89548753D01*
X135052698Y-89537224D01*
X135052106Y-89527236D01*
X135051253Y-89518012D01*
X135050096Y-89508773D01*
X135049012Y-89501417D01*
X135041307Y-89461368D01*
X135030900Y-89423931D01*
X135017637Y-89388795D01*
X135001362Y-89355650D01*
X134981922Y-89324185D01*
X134959162Y-89294089D01*
X134932928Y-89265050D01*
X134930447Y-89262534D01*
X134909359Y-89242333D01*
X134886849Y-89222840D01*
X134862761Y-89203982D01*
X134836937Y-89185688D01*
X134809220Y-89167885D01*
X134779452Y-89150500D01*
X134747476Y-89133462D01*
X134713134Y-89116698D01*
X134676270Y-89100137D01*
X134636725Y-89083705D01*
X134594343Y-89067331D01*
X134548967Y-89050943D01*
X134500438Y-89034468D01*
X134448599Y-89017834D01*
X134393294Y-89000968D01*
X134334364Y-88983800D01*
X134305141Y-88975541D01*
X134252057Y-88960439D01*
X134202543Y-88945852D01*
X134156339Y-88931688D01*
X134113185Y-88917857D01*
X134072821Y-88904266D01*
X134034987Y-88890824D01*
X133999422Y-88877441D01*
X133965867Y-88864026D01*
X133934061Y-88850486D01*
X133903744Y-88836731D01*
X133888271Y-88829361D01*
X133842155Y-88805558D01*
X133799080Y-88780314D01*
X133759157Y-88753717D01*
X133722494Y-88725854D01*
X133689203Y-88696813D01*
X133659392Y-88666683D01*
X133633172Y-88635550D01*
X133615567Y-88611054D01*
X133595185Y-88577019D01*
X133577804Y-88540601D01*
X133563465Y-88501923D01*
X133552209Y-88461108D01*
X133544076Y-88418280D01*
X133540135Y-88385797D01*
X133539314Y-88373739D01*
X133538797Y-88358953D01*
X133538570Y-88342223D01*
X133538617Y-88324331D01*
X133538923Y-88306060D01*
X133539471Y-88288193D01*
X133540247Y-88271513D01*
X133541235Y-88256802D01*
X133542420Y-88244844D01*
X133542991Y-88240718D01*
X133551628Y-88197256D01*
X133563765Y-88155465D01*
X133579399Y-88115347D01*
X133598527Y-88076906D01*
X133621147Y-88040146D01*
X133647256Y-88005070D01*
X133676854Y-87971681D01*
X133709936Y-87939984D01*
X133746501Y-87909981D01*
X133781630Y-87884934D01*
X133822136Y-87859632D01*
X133864098Y-87836958D01*
X133907755Y-87816833D01*
X133953350Y-87799179D01*
X134001122Y-87783916D01*
X134051313Y-87770965D01*
X134104162Y-87760246D01*
X134159911Y-87751682D01*
X134201409Y-87746863D01*
X134214708Y-87745779D01*
X134231074Y-87744881D01*
X134249912Y-87744169D01*
X134270624Y-87743644D01*
X134292615Y-87743304D01*
X134315288Y-87743151D01*
X134338047Y-87743183D01*
G36*
X124889203Y-88280062D02*
G01*
X124889691Y-88802199D01*
X124989585Y-88650882D01*
X125001874Y-88632343D01*
X125016231Y-88610821D01*
X125032516Y-88586524D01*
X125050587Y-88559657D01*
X125070305Y-88530427D01*
X125091529Y-88499041D01*
X125114120Y-88465705D01*
X125137938Y-88430624D01*
X125162841Y-88394006D01*
X125188691Y-88356056D01*
X125215346Y-88316982D01*
X125242667Y-88276989D01*
X125270514Y-88236283D01*
X125298746Y-88195071D01*
X125327223Y-88153560D01*
X125344266Y-88128744D01*
X125599055Y-87757924D01*
X125953537Y-87757924D01*
X125990304Y-87757928D01*
X126026018Y-87757939D01*
X126060486Y-87757957D01*
X126093516Y-87757981D01*
X126124917Y-87758012D01*
X126154495Y-87758049D01*
X126182061Y-87758091D01*
X126207420Y-87758138D01*
X126230382Y-87758189D01*
X126250754Y-87758245D01*
X126268345Y-87758305D01*
X126282962Y-87758368D01*
X126294414Y-87758434D01*
X126302508Y-87758504D01*
X126307053Y-87758575D01*
X126308019Y-87758627D01*
X126306856Y-87760203D01*
X126303422Y-87764747D01*
X126297804Y-87772148D01*
X126290086Y-87782294D01*
X126280355Y-87795072D01*
X126268695Y-87810372D01*
X126255192Y-87828081D01*
X126239931Y-87848087D01*
X126222998Y-87870279D01*
X126204479Y-87894544D01*
X126184458Y-87920770D01*
X126163021Y-87948847D01*
X126140253Y-87978661D01*
X126116241Y-88010101D01*
X126091069Y-88043055D01*
X126064822Y-88077411D01*
X126037587Y-88113058D01*
X126009448Y-88149883D01*
X125980491Y-88187774D01*
X125950801Y-88226620D01*
X125920465Y-88266309D01*
X125906662Y-88284365D01*
X125866684Y-88336675D01*
X125828692Y-88386413D01*
X125792705Y-88433551D01*
X125758746Y-88478063D01*
X125726835Y-88519919D01*
X125696994Y-88559093D01*
X125669243Y-88595556D01*
X125643604Y-88629281D01*
X125620099Y-88660239D01*
X125598747Y-88688402D01*
X125579570Y-88713744D01*
X125562589Y-88736235D01*
X125547826Y-88755849D01*
X125535301Y-88772557D01*
X125525036Y-88786331D01*
X125517051Y-88797144D01*
X125511369Y-88804967D01*
X125508009Y-88809774D01*
X125506994Y-88811535D01*
X125506994Y-88811536D01*
X125508162Y-88813396D01*
X125511251Y-88818430D01*
X125516178Y-88826501D01*
X125522861Y-88837476D01*
X125531219Y-88851216D01*
X125541168Y-88867588D01*
X125552627Y-88886454D01*
X125565513Y-88907680D01*
X125579744Y-88931130D01*
X125595238Y-88956667D01*
X125611913Y-88984156D01*
X125629686Y-89013462D01*
X125648475Y-89044448D01*
X125668199Y-89076978D01*
X125688774Y-89110918D01*
X125710118Y-89146131D01*
X125732150Y-89182482D01*
X125754787Y-89219834D01*
X125777947Y-89258052D01*
X125801547Y-89297001D01*
X125825506Y-89336544D01*
X125849741Y-89376545D01*
X125874169Y-89416870D01*
X125898710Y-89457382D01*
X125923279Y-89497945D01*
X125947796Y-89538424D01*
X125972178Y-89578682D01*
X125996343Y-89618585D01*
X126020208Y-89657997D01*
X126043691Y-89696781D01*
X126066711Y-89734802D01*
X126089184Y-89771924D01*
X126111029Y-89808011D01*
X126132163Y-89842928D01*
X126152504Y-89876539D01*
X126171970Y-89908708D01*
X126190479Y-89939300D01*
X126207949Y-89968178D01*
X126224296Y-89995206D01*
X126239439Y-90020250D01*
X126253297Y-90043174D01*
X126265785Y-90063840D01*
X126276823Y-90082115D01*
X126286328Y-90097862D01*
X126294218Y-90110945D01*
X126300411Y-90121228D01*
X126304823Y-90128576D01*
X126307374Y-90132854D01*
X126308019Y-90133974D01*
X126306113Y-90134088D01*
X126300525Y-90134198D01*
X126291451Y-90134304D01*
X126279088Y-90134405D01*
X126263631Y-90134501D01*
X126245277Y-90134590D01*
X126224221Y-90134672D01*
X126200661Y-90134747D01*
X126174791Y-90134814D01*
X126146808Y-90134872D01*
X126116908Y-90134922D01*
X126085287Y-90134961D01*
X126052141Y-90134990D01*
X126017667Y-90135008D01*
X125982060Y-90135014D01*
X125968222Y-90135014D01*
X125628424Y-90134974D01*
X125376647Y-89694867D01*
X125354750Y-89656597D01*
X125333349Y-89619209D01*
X125312524Y-89582840D01*
X125292356Y-89547632D01*
X125272925Y-89513724D01*
X125254312Y-89481256D01*
X125236596Y-89450368D01*
X125219858Y-89421199D01*
X125204178Y-89393889D01*
X125189637Y-89368579D01*
X125176315Y-89345407D01*
X125164292Y-89324515D01*
X125153648Y-89306040D01*
X125144465Y-89290125D01*
X125136821Y-89276907D01*
X125130798Y-89266527D01*
X125126476Y-89259125D01*
X125123935Y-89254841D01*
X125123241Y-89253753D01*
X125121724Y-89255003D01*
X125117787Y-89258922D01*
X125111620Y-89265309D01*
X125103410Y-89273960D01*
X125093346Y-89284676D01*
X125081615Y-89297253D01*
X125068406Y-89311491D01*
X125053907Y-89327188D01*
X125038306Y-89344141D01*
X125021791Y-89362150D01*
X125005221Y-89380278D01*
X124888830Y-89507809D01*
X124888776Y-89821432D01*
X124888722Y-90135054D01*
X124314798Y-90135054D01*
X124314798Y-87757924D01*
X124888714Y-87757924D01*
X124889203Y-88280062D01*
G37*
X124889203Y-88280062D02*
X124889691Y-88802199D01*
X124989585Y-88650882D01*
X125001874Y-88632343D01*
X125016231Y-88610821D01*
X125032516Y-88586524D01*
X125050587Y-88559657D01*
X125070305Y-88530427D01*
X125091529Y-88499041D01*
X125114120Y-88465705D01*
X125137938Y-88430624D01*
X125162841Y-88394006D01*
X125188691Y-88356056D01*
X125215346Y-88316982D01*
X125242667Y-88276989D01*
X125270514Y-88236283D01*
X125298746Y-88195071D01*
X125327223Y-88153560D01*
X125344266Y-88128744D01*
X125599055Y-87757924D01*
X125953537Y-87757924D01*
X125990304Y-87757928D01*
X126026018Y-87757939D01*
X126060486Y-87757957D01*
X126093516Y-87757981D01*
X126124917Y-87758012D01*
X126154495Y-87758049D01*
X126182061Y-87758091D01*
X126207420Y-87758138D01*
X126230382Y-87758189D01*
X126250754Y-87758245D01*
X126268345Y-87758305D01*
X126282962Y-87758368D01*
X126294414Y-87758434D01*
X126302508Y-87758504D01*
X126307053Y-87758575D01*
X126308019Y-87758627D01*
X126306856Y-87760203D01*
X126303422Y-87764747D01*
X126297804Y-87772148D01*
X126290086Y-87782294D01*
X126280355Y-87795072D01*
X126268695Y-87810372D01*
X126255192Y-87828081D01*
X126239931Y-87848087D01*
X126222998Y-87870279D01*
X126204479Y-87894544D01*
X126184458Y-87920770D01*
X126163021Y-87948847D01*
X126140253Y-87978661D01*
X126116241Y-88010101D01*
X126091069Y-88043055D01*
X126064822Y-88077411D01*
X126037587Y-88113058D01*
X126009448Y-88149883D01*
X125980491Y-88187774D01*
X125950801Y-88226620D01*
X125920465Y-88266309D01*
X125906662Y-88284365D01*
X125866684Y-88336675D01*
X125828692Y-88386413D01*
X125792705Y-88433551D01*
X125758746Y-88478063D01*
X125726835Y-88519919D01*
X125696994Y-88559093D01*
X125669243Y-88595556D01*
X125643604Y-88629281D01*
X125620099Y-88660239D01*
X125598747Y-88688402D01*
X125579570Y-88713744D01*
X125562589Y-88736235D01*
X125547826Y-88755849D01*
X125535301Y-88772557D01*
X125525036Y-88786331D01*
X125517051Y-88797144D01*
X125511369Y-88804967D01*
X125508009Y-88809774D01*
X125506994Y-88811535D01*
X125506994Y-88811536D01*
X125508162Y-88813396D01*
X125511251Y-88818430D01*
X125516178Y-88826501D01*
X125522861Y-88837476D01*
X125531219Y-88851216D01*
X125541168Y-88867588D01*
X125552627Y-88886454D01*
X125565513Y-88907680D01*
X125579744Y-88931130D01*
X125595238Y-88956667D01*
X125611913Y-88984156D01*
X125629686Y-89013462D01*
X125648475Y-89044448D01*
X125668199Y-89076978D01*
X125688774Y-89110918D01*
X125710118Y-89146131D01*
X125732150Y-89182482D01*
X125754787Y-89219834D01*
X125777947Y-89258052D01*
X125801547Y-89297001D01*
X125825506Y-89336544D01*
X125849741Y-89376545D01*
X125874169Y-89416870D01*
X125898710Y-89457382D01*
X125923279Y-89497945D01*
X125947796Y-89538424D01*
X125972178Y-89578682D01*
X125996343Y-89618585D01*
X126020208Y-89657997D01*
X126043691Y-89696781D01*
X126066711Y-89734802D01*
X126089184Y-89771924D01*
X126111029Y-89808011D01*
X126132163Y-89842928D01*
X126152504Y-89876539D01*
X126171970Y-89908708D01*
X126190479Y-89939300D01*
X126207949Y-89968178D01*
X126224296Y-89995206D01*
X126239439Y-90020250D01*
X126253297Y-90043174D01*
X126265785Y-90063840D01*
X126276823Y-90082115D01*
X126286328Y-90097862D01*
X126294218Y-90110945D01*
X126300411Y-90121228D01*
X126304823Y-90128576D01*
X126307374Y-90132854D01*
X126308019Y-90133974D01*
X126306113Y-90134088D01*
X126300525Y-90134198D01*
X126291451Y-90134304D01*
X126279088Y-90134405D01*
X126263631Y-90134501D01*
X126245277Y-90134590D01*
X126224221Y-90134672D01*
X126200661Y-90134747D01*
X126174791Y-90134814D01*
X126146808Y-90134872D01*
X126116908Y-90134922D01*
X126085287Y-90134961D01*
X126052141Y-90134990D01*
X126017667Y-90135008D01*
X125982060Y-90135014D01*
X125968222Y-90135014D01*
X125628424Y-90134974D01*
X125376647Y-89694867D01*
X125354750Y-89656597D01*
X125333349Y-89619209D01*
X125312524Y-89582840D01*
X125292356Y-89547632D01*
X125272925Y-89513724D01*
X125254312Y-89481256D01*
X125236596Y-89450368D01*
X125219858Y-89421199D01*
X125204178Y-89393889D01*
X125189637Y-89368579D01*
X125176315Y-89345407D01*
X125164292Y-89324515D01*
X125153648Y-89306040D01*
X125144465Y-89290125D01*
X125136821Y-89276907D01*
X125130798Y-89266527D01*
X125126476Y-89259125D01*
X125123935Y-89254841D01*
X125123241Y-89253753D01*
X125121724Y-89255003D01*
X125117787Y-89258922D01*
X125111620Y-89265309D01*
X125103410Y-89273960D01*
X125093346Y-89284676D01*
X125081615Y-89297253D01*
X125068406Y-89311491D01*
X125053907Y-89327188D01*
X125038306Y-89344141D01*
X125021791Y-89362150D01*
X125005221Y-89380278D01*
X124888830Y-89507809D01*
X124888776Y-89821432D01*
X124888722Y-90135054D01*
X124314798Y-90135054D01*
X124314798Y-87757924D01*
X124888714Y-87757924D01*
X124889203Y-88280062D01*
D12*
X131557836Y-93259000D02*
X131342164Y-93259000D01*
X131557836Y-92539000D02*
X131342164Y-92539000D01*
X129574000Y-86548000D02*
X134974000Y-86548000D01*
X129574000Y-83248000D02*
X129574000Y-86548000D01*
X129574000Y-83248000D02*
X134974000Y-83248000D01*
X119297000Y-79845000D02*
X119297000Y-81315000D01*
X119297000Y-81315000D02*
X121582000Y-81315000D01*
X121582000Y-79845000D02*
X119297000Y-79845000D01*
%LPC*%
D14*
X137165000Y-76008000D03*
X119385000Y-76008000D03*
X119385000Y-114108000D03*
X137165000Y-114108000D03*
D15*
X116845000Y-81083000D03*
D16*
X116845000Y-83623000D03*
X116845000Y-86163000D03*
X116845000Y-88703000D03*
X116845000Y-91243000D03*
X116845000Y-93783000D03*
X116845000Y-96323000D03*
X116845000Y-98863000D03*
X116845000Y-101403000D03*
X116845000Y-103943000D03*
X116845000Y-106483000D03*
X116845000Y-109023000D03*
D17*
X139705000Y-81083000D03*
D16*
X139705000Y-83623000D03*
X139705000Y-86163000D03*
X139705000Y-88703000D03*
X139705000Y-91243000D03*
D15*
X139705000Y-93783000D03*
D16*
X139705000Y-96323000D03*
X139705000Y-98863000D03*
X139705000Y-101403000D03*
X139705000Y-103943000D03*
X139705000Y-106483000D03*
X139705000Y-109023000D03*
D18*
X128785000Y-82866000D03*
X127765000Y-82866000D03*
D19*
X129062500Y-91629000D03*
X127487500Y-91629000D03*
D18*
X121292000Y-82104000D03*
X120272000Y-82104000D03*
D20*
X132847000Y-116140000D03*
D21*
X123273500Y-84202000D03*
X123273500Y-86102000D03*
X125148500Y-85152000D03*
D22*
X126878000Y-85124000D03*
X126878000Y-84164000D03*
D23*
X121417000Y-85927000D03*
X121417000Y-84377000D03*
D24*
X132025000Y-95154000D03*
X130775000Y-95154000D03*
X129525000Y-95154000D03*
X128275000Y-95154000D03*
X127025000Y-95154000D03*
X125775000Y-95154000D03*
X124525000Y-95154000D03*
D25*
X122275000Y-97404000D03*
X122275000Y-98654000D03*
X122275000Y-99904000D03*
X122275000Y-101154000D03*
X122275000Y-102404000D03*
X122275000Y-103654000D03*
X122275000Y-104904000D03*
D24*
X124525000Y-107154000D03*
X125775000Y-107154000D03*
X127025000Y-107154000D03*
X128275000Y-107154000D03*
X129525000Y-107154000D03*
X130775000Y-107154000D03*
X132025000Y-107154000D03*
D25*
X134275000Y-104904000D03*
X134275000Y-103654000D03*
X134275000Y-102404000D03*
X134275000Y-101154000D03*
X134275000Y-99904000D03*
X134275000Y-98654000D03*
X134275000Y-97404000D03*
D26*
X125608000Y-114455000D03*
D27*
X124133000Y-115980000D03*
X127083000Y-115980000D03*
D28*
X127765000Y-93026000D03*
X128785000Y-93026000D03*
D29*
X123981000Y-80878000D03*
X123981000Y-73678000D03*
X126981000Y-73678000D03*
X126981000Y-80878000D03*
D23*
X128275000Y-85927000D03*
X128275000Y-84377000D03*
D29*
X132569000Y-73678000D03*
X132569000Y-80878000D03*
X129569000Y-80878000D03*
X129569000Y-73678000D03*
D20*
X125735000Y-78040000D03*
D30*
X131930000Y-92899000D03*
X130970000Y-92899000D03*
D31*
X130974000Y-84898000D03*
X134974000Y-84898000D03*
D32*
X119994500Y-80580000D03*
X121569500Y-80580000D03*
M02*
