G04 #@! TF.GenerationSoftware,KiCad,Pcbnew,(6.0.6)*
G04 #@! TF.CreationDate,2022-10-28T15:12:27+11:00*
G04 #@! TF.ProjectId,CE-LoRa-E5-Breakout-Module,43452d4c-6f52-4612-9d45-352d42726561,rev?*
G04 #@! TF.SameCoordinates,Original*
G04 #@! TF.FileFunction,Copper,L2,Bot*
G04 #@! TF.FilePolarity,Positive*
%FSLAX46Y46*%
G04 Gerber Fmt 4.6, Leading zero omitted, Abs format (unit mm)*
G04 Created by KiCad (PCBNEW (6.0.6)) date 2022-10-28 15:12:27*
%MOMM*%
%LPD*%
G01*
G04 APERTURE LIST*
G04 #@! TA.AperFunction,ComponentPad*
%ADD10R,1.700000X1.700000*%
G04 #@! TD*
G04 #@! TA.AperFunction,ComponentPad*
%ADD11O,1.700000X1.700000*%
G04 #@! TD*
G04 #@! TA.AperFunction,ComponentPad*
%ADD12C,1.700000*%
G04 #@! TD*
G04 #@! TA.AperFunction,ViaPad*
%ADD13C,0.800000*%
G04 #@! TD*
G04 #@! TA.AperFunction,Conductor*
%ADD14C,0.250000*%
G04 #@! TD*
G04 APERTURE END LIST*
D10*
X116845000Y-81083000D03*
D11*
X116845000Y-83623000D03*
X116845000Y-86163000D03*
X116845000Y-88703000D03*
X116845000Y-91243000D03*
X116845000Y-93783000D03*
X116845000Y-96323000D03*
X116845000Y-98863000D03*
X116845000Y-101403000D03*
X116845000Y-103943000D03*
X116845000Y-106483000D03*
X116845000Y-109023000D03*
D12*
X139705000Y-81083000D03*
D11*
X139705000Y-83623000D03*
X139705000Y-86163000D03*
X139705000Y-88703000D03*
X139705000Y-91243000D03*
D10*
X139705000Y-93783000D03*
D11*
X139705000Y-96323000D03*
X139705000Y-98863000D03*
X139705000Y-101403000D03*
X139705000Y-103943000D03*
X139705000Y-106483000D03*
X139705000Y-109023000D03*
D13*
X134117000Y-82739000D03*
X123830000Y-82739000D03*
X122687000Y-82739000D03*
X125227000Y-98614000D03*
X119893000Y-102424000D03*
X132593000Y-102424000D03*
X130307000Y-82866000D03*
X136149000Y-104964000D03*
X125227000Y-90486000D03*
X132085000Y-97852000D03*
X123957000Y-76262000D03*
X137673000Y-87438000D03*
X124338000Y-105345000D03*
X123787666Y-110848333D03*
X126877998Y-113981000D03*
X125608000Y-115759000D03*
X124464998Y-113981000D03*
X125862000Y-109282000D03*
X123322000Y-106361000D03*
X126200666Y-110848333D03*
X123449000Y-109282000D03*
X124126332Y-112414666D03*
X126539332Y-112414666D03*
X125735000Y-105345000D03*
X123322000Y-107885000D03*
X127767000Y-102170000D03*
X128275000Y-103186000D03*
X129418000Y-104075000D03*
X129545000Y-93153000D03*
X129037000Y-97344000D03*
X128275000Y-95947000D03*
D14*
X137673000Y-84136000D02*
X137673000Y-87438000D01*
X129799000Y-76262000D02*
X137673000Y-84136000D01*
X123957000Y-76262000D02*
X129799000Y-76262000D01*
X131709000Y-88703000D02*
X139705000Y-88703000D01*
X128275000Y-92137000D02*
X131709000Y-88703000D01*
X128275000Y-95947000D02*
X128275000Y-92137000D01*
X117602000Y-98863000D02*
X116845000Y-98863000D01*
X120909000Y-102170000D02*
X117602000Y-98863000D01*
X127767000Y-102170000D02*
X120909000Y-102170000D01*
X119893000Y-102424000D02*
X118364000Y-102424000D01*
X118364000Y-102424000D02*
X116845000Y-103943000D01*
X129037000Y-97344000D02*
X129545000Y-96836000D01*
X129545000Y-96836000D02*
X129545000Y-93153000D01*
X127005000Y-92264000D02*
X127005000Y-96836000D01*
X127005000Y-96836000D02*
X132593000Y-102424000D01*
X130307000Y-88962000D02*
X127005000Y-92264000D01*
X130307000Y-82866000D02*
X130307000Y-88962000D01*
X132085000Y-97852000D02*
X138694000Y-91243000D01*
X138694000Y-91243000D02*
X139705000Y-91243000D01*
X122814000Y-103186000D02*
X119517000Y-106483000D01*
X119517000Y-106483000D02*
X116845000Y-106483000D01*
X128275000Y-103186000D02*
X122814000Y-103186000D01*
X129418000Y-104075000D02*
X129291000Y-103948000D01*
X122814000Y-103948000D02*
X117739000Y-109023000D01*
X129291000Y-103948000D02*
X122814000Y-103948000D01*
X117739000Y-109023000D02*
X116845000Y-109023000D01*
G04 #@! TA.AperFunction,Conductor*
G36*
X137135018Y-72708000D02*
G01*
X137149851Y-72710310D01*
X137149855Y-72710310D01*
X137158724Y-72711691D01*
X137177436Y-72709244D01*
X137200366Y-72708353D01*
X137503503Y-72724240D01*
X137516617Y-72725618D01*
X137844898Y-72777613D01*
X137857798Y-72780355D01*
X138178846Y-72866379D01*
X138191382Y-72870453D01*
X138462468Y-72974513D01*
X138501672Y-72989562D01*
X138513720Y-72994926D01*
X138809867Y-73145820D01*
X138821288Y-73152414D01*
X139100040Y-73333437D01*
X139110710Y-73341190D01*
X139369004Y-73550352D01*
X139378805Y-73559177D01*
X139613823Y-73794195D01*
X139622648Y-73803996D01*
X139831810Y-74062290D01*
X139839563Y-74072960D01*
X140020586Y-74351712D01*
X140027180Y-74363133D01*
X140178074Y-74659280D01*
X140183438Y-74671328D01*
X140225313Y-74780414D01*
X140302545Y-74981610D01*
X140306621Y-74994154D01*
X140392645Y-75315202D01*
X140395387Y-75328102D01*
X140437258Y-75592460D01*
X140447382Y-75656383D01*
X140448760Y-75669500D01*
X140464262Y-75965298D01*
X140462935Y-75991273D01*
X140462691Y-75992843D01*
X140462691Y-75992849D01*
X140461309Y-76001724D01*
X140462473Y-76010626D01*
X140462473Y-76010628D01*
X140465436Y-76033283D01*
X140466500Y-76049621D01*
X140466500Y-79738061D01*
X140446498Y-79806182D01*
X140392842Y-79852675D01*
X140322568Y-79862779D01*
X140279609Y-79848371D01*
X140263789Y-79839638D01*
X140258920Y-79837914D01*
X140258916Y-79837912D01*
X140058087Y-79766795D01*
X140058083Y-79766794D01*
X140053212Y-79765069D01*
X140048119Y-79764162D01*
X140048116Y-79764161D01*
X139838373Y-79726800D01*
X139838367Y-79726799D01*
X139833284Y-79725894D01*
X139759452Y-79724992D01*
X139615081Y-79723228D01*
X139615079Y-79723228D01*
X139609911Y-79723165D01*
X139389091Y-79756955D01*
X139176756Y-79826357D01*
X138978607Y-79929507D01*
X138974474Y-79932610D01*
X138974471Y-79932612D01*
X138891450Y-79994946D01*
X138799965Y-80063635D01*
X138645629Y-80225138D01*
X138519743Y-80409680D01*
X138425688Y-80612305D01*
X138365989Y-80827570D01*
X138342251Y-81049695D01*
X138355110Y-81272715D01*
X138356247Y-81277761D01*
X138356248Y-81277767D01*
X138373680Y-81355115D01*
X138404222Y-81490639D01*
X138488266Y-81697616D01*
X138604987Y-81888088D01*
X138751250Y-82056938D01*
X138923126Y-82199632D01*
X138938470Y-82208598D01*
X138996445Y-82242476D01*
X139045169Y-82294114D01*
X139058240Y-82363897D01*
X139031509Y-82429669D01*
X138991055Y-82463027D01*
X138978607Y-82469507D01*
X138974474Y-82472610D01*
X138974471Y-82472612D01*
X138804100Y-82600530D01*
X138799965Y-82603635D01*
X138645629Y-82765138D01*
X138519743Y-82949680D01*
X138425688Y-83152305D01*
X138365989Y-83367570D01*
X138342251Y-83589695D01*
X138342548Y-83594853D01*
X138342422Y-83600024D01*
X138340753Y-83599983D01*
X138326389Y-83661923D01*
X138275504Y-83711433D01*
X138205930Y-83725573D01*
X138136323Y-83697114D01*
X138104396Y-83670702D01*
X138095616Y-83662712D01*
X130573608Y-76140703D01*
X135055743Y-76140703D01*
X135093268Y-76425734D01*
X135169129Y-76703036D01*
X135170813Y-76706984D01*
X135267128Y-76932789D01*
X135281923Y-76967476D01*
X135429561Y-77214161D01*
X135609313Y-77438528D01*
X135817851Y-77636423D01*
X136051317Y-77804186D01*
X136055112Y-77806195D01*
X136055113Y-77806196D01*
X136076869Y-77817715D01*
X136305392Y-77938712D01*
X136575373Y-78037511D01*
X136856264Y-78098755D01*
X136884841Y-78101004D01*
X137079282Y-78116307D01*
X137079291Y-78116307D01*
X137081739Y-78116500D01*
X137237271Y-78116500D01*
X137239407Y-78116354D01*
X137239418Y-78116354D01*
X137447548Y-78102165D01*
X137447554Y-78102164D01*
X137451825Y-78101873D01*
X137456020Y-78101004D01*
X137456022Y-78101004D01*
X137592583Y-78072724D01*
X137733342Y-78043574D01*
X138004343Y-77947607D01*
X138259812Y-77815750D01*
X138263313Y-77813289D01*
X138263317Y-77813287D01*
X138377417Y-77733096D01*
X138495023Y-77650441D01*
X138705622Y-77454740D01*
X138887713Y-77232268D01*
X139037927Y-76987142D01*
X139153483Y-76723898D01*
X139232244Y-76447406D01*
X139272751Y-76162784D01*
X139272845Y-76144951D01*
X139274235Y-75879583D01*
X139274235Y-75879576D01*
X139274257Y-75875297D01*
X139273527Y-75869747D01*
X139252395Y-75709238D01*
X139236732Y-75590266D01*
X139160871Y-75312964D01*
X139048077Y-75048524D01*
X138900439Y-74801839D01*
X138720687Y-74577472D01*
X138512149Y-74379577D01*
X138278683Y-74211814D01*
X138256843Y-74200250D01*
X138233654Y-74187972D01*
X138024608Y-74077288D01*
X137754627Y-73978489D01*
X137473736Y-73917245D01*
X137442685Y-73914801D01*
X137250718Y-73899693D01*
X137250709Y-73899693D01*
X137248261Y-73899500D01*
X137092729Y-73899500D01*
X137090593Y-73899646D01*
X137090582Y-73899646D01*
X136882452Y-73913835D01*
X136882446Y-73913836D01*
X136878175Y-73914127D01*
X136873980Y-73914996D01*
X136873978Y-73914996D01*
X136737417Y-73943276D01*
X136596658Y-73972426D01*
X136325657Y-74068393D01*
X136070188Y-74200250D01*
X136066687Y-74202711D01*
X136066683Y-74202713D01*
X136056594Y-74209804D01*
X135834977Y-74365559D01*
X135624378Y-74561260D01*
X135442287Y-74783732D01*
X135292073Y-75028858D01*
X135176517Y-75292102D01*
X135175342Y-75296229D01*
X135175341Y-75296230D01*
X135147717Y-75393206D01*
X135097756Y-75568594D01*
X135057249Y-75853216D01*
X135057227Y-75857505D01*
X135057226Y-75857512D01*
X135056068Y-76078635D01*
X135055743Y-76140703D01*
X130573608Y-76140703D01*
X130302652Y-75869747D01*
X130295112Y-75861461D01*
X130291000Y-75854982D01*
X130284592Y-75848964D01*
X130241349Y-75808357D01*
X130238507Y-75805602D01*
X130218770Y-75785865D01*
X130215573Y-75783385D01*
X130206551Y-75775680D01*
X130180100Y-75750841D01*
X130174321Y-75745414D01*
X130167375Y-75741595D01*
X130167372Y-75741593D01*
X130156566Y-75735652D01*
X130140047Y-75724801D01*
X130134048Y-75720148D01*
X130124041Y-75712386D01*
X130116772Y-75709241D01*
X130116768Y-75709238D01*
X130083463Y-75694826D01*
X130072813Y-75689609D01*
X130034060Y-75668305D01*
X130014437Y-75663267D01*
X129995734Y-75656863D01*
X129984420Y-75651967D01*
X129984419Y-75651967D01*
X129977145Y-75648819D01*
X129969322Y-75647580D01*
X129969312Y-75647577D01*
X129933476Y-75641901D01*
X129921856Y-75639495D01*
X129886711Y-75630472D01*
X129886710Y-75630472D01*
X129879030Y-75628500D01*
X129858776Y-75628500D01*
X129839065Y-75626949D01*
X129826886Y-75625020D01*
X129819057Y-75623780D01*
X129811165Y-75624526D01*
X129775039Y-75627941D01*
X129763181Y-75628500D01*
X124665200Y-75628500D01*
X124597079Y-75608498D01*
X124577853Y-75592157D01*
X124577580Y-75592460D01*
X124572668Y-75588037D01*
X124568253Y-75583134D01*
X124413752Y-75470882D01*
X124407724Y-75468198D01*
X124407722Y-75468197D01*
X124245319Y-75395891D01*
X124245318Y-75395891D01*
X124239288Y-75393206D01*
X124145888Y-75373353D01*
X124058944Y-75354872D01*
X124058939Y-75354872D01*
X124052487Y-75353500D01*
X123861513Y-75353500D01*
X123855061Y-75354872D01*
X123855056Y-75354872D01*
X123768112Y-75373353D01*
X123674712Y-75393206D01*
X123668682Y-75395891D01*
X123668681Y-75395891D01*
X123506278Y-75468197D01*
X123506276Y-75468198D01*
X123500248Y-75470882D01*
X123345747Y-75583134D01*
X123341326Y-75588044D01*
X123341325Y-75588045D01*
X123232203Y-75709238D01*
X123217960Y-75725056D01*
X123203073Y-75750841D01*
X123128744Y-75879583D01*
X123122473Y-75890444D01*
X123063458Y-76072072D01*
X123043496Y-76262000D01*
X123044186Y-76268565D01*
X123060258Y-76421478D01*
X123063458Y-76451928D01*
X123122473Y-76633556D01*
X123217960Y-76798944D01*
X123345747Y-76940866D01*
X123500248Y-77053118D01*
X123506276Y-77055802D01*
X123506278Y-77055803D01*
X123668681Y-77128109D01*
X123674712Y-77130794D01*
X123768113Y-77150647D01*
X123855056Y-77169128D01*
X123855061Y-77169128D01*
X123861513Y-77170500D01*
X124052487Y-77170500D01*
X124058939Y-77169128D01*
X124058944Y-77169128D01*
X124145887Y-77150647D01*
X124239288Y-77130794D01*
X124245319Y-77128109D01*
X124407722Y-77055803D01*
X124407724Y-77055802D01*
X124413752Y-77053118D01*
X124499527Y-76990799D01*
X124546671Y-76956546D01*
X124568253Y-76940866D01*
X124572668Y-76935963D01*
X124577580Y-76931540D01*
X124578705Y-76932789D01*
X124632014Y-76899949D01*
X124665200Y-76895500D01*
X129484406Y-76895500D01*
X129552527Y-76915502D01*
X129573501Y-76932405D01*
X137002595Y-84361499D01*
X137036621Y-84423811D01*
X137039500Y-84450594D01*
X137039500Y-86735476D01*
X137019498Y-86803597D01*
X137007142Y-86819779D01*
X136933960Y-86901056D01*
X136838473Y-87066444D01*
X136779458Y-87248072D01*
X136778768Y-87254633D01*
X136778768Y-87254635D01*
X136771638Y-87322476D01*
X136759496Y-87438000D01*
X136779458Y-87627928D01*
X136838473Y-87809556D01*
X136879434Y-87880502D01*
X136896171Y-87949495D01*
X136872951Y-88016587D01*
X136817144Y-88060474D01*
X136770314Y-88069500D01*
X131787763Y-88069500D01*
X131776579Y-88068973D01*
X131769091Y-88067299D01*
X131761168Y-88067548D01*
X131701033Y-88069438D01*
X131697075Y-88069500D01*
X131669144Y-88069500D01*
X131665229Y-88069995D01*
X131665225Y-88069995D01*
X131665167Y-88070003D01*
X131665138Y-88070006D01*
X131653296Y-88070939D01*
X131609110Y-88072327D01*
X131591744Y-88077372D01*
X131589658Y-88077978D01*
X131570306Y-88081986D01*
X131558068Y-88083532D01*
X131558066Y-88083533D01*
X131550203Y-88084526D01*
X131509086Y-88100806D01*
X131497885Y-88104641D01*
X131455406Y-88116982D01*
X131448587Y-88121015D01*
X131448582Y-88121017D01*
X131437971Y-88127293D01*
X131420221Y-88135990D01*
X131401383Y-88143448D01*
X131394967Y-88148109D01*
X131394966Y-88148110D01*
X131365625Y-88169428D01*
X131355701Y-88175947D01*
X131324460Y-88194422D01*
X131324455Y-88194426D01*
X131317637Y-88198458D01*
X131303313Y-88212782D01*
X131288281Y-88225621D01*
X131271893Y-88237528D01*
X131243712Y-88271593D01*
X131235722Y-88280373D01*
X131155595Y-88360500D01*
X131093283Y-88394526D01*
X131022468Y-88389461D01*
X130965632Y-88346914D01*
X130940821Y-88280394D01*
X130940500Y-88271405D01*
X130940500Y-83568524D01*
X130960502Y-83500403D01*
X130972858Y-83484221D01*
X131046040Y-83402944D01*
X131141527Y-83237556D01*
X131200542Y-83055928D01*
X131220504Y-82866000D01*
X131200542Y-82676072D01*
X131141527Y-82494444D01*
X131137575Y-82487598D01*
X131079104Y-82386325D01*
X131046040Y-82329056D01*
X130926531Y-82196327D01*
X130922675Y-82192045D01*
X130922674Y-82192044D01*
X130918253Y-82187134D01*
X130763752Y-82074882D01*
X130757724Y-82072198D01*
X130757722Y-82072197D01*
X130595319Y-81999891D01*
X130595318Y-81999891D01*
X130589288Y-81997206D01*
X130495887Y-81977353D01*
X130408944Y-81958872D01*
X130408939Y-81958872D01*
X130402487Y-81957500D01*
X130211513Y-81957500D01*
X130205061Y-81958872D01*
X130205056Y-81958872D01*
X130118113Y-81977353D01*
X130024712Y-81997206D01*
X130018682Y-81999891D01*
X130018681Y-81999891D01*
X129856278Y-82072197D01*
X129856276Y-82072198D01*
X129850248Y-82074882D01*
X129695747Y-82187134D01*
X129691326Y-82192044D01*
X129691325Y-82192045D01*
X129687470Y-82196327D01*
X129567960Y-82329056D01*
X129534896Y-82386325D01*
X129476426Y-82487598D01*
X129472473Y-82494444D01*
X129413458Y-82676072D01*
X129393496Y-82866000D01*
X129413458Y-83055928D01*
X129472473Y-83237556D01*
X129567960Y-83402944D01*
X129641137Y-83484215D01*
X129671853Y-83548221D01*
X129673500Y-83568524D01*
X129673500Y-88647405D01*
X129653498Y-88715526D01*
X129636595Y-88736500D01*
X126612747Y-91760348D01*
X126604461Y-91767888D01*
X126597982Y-91772000D01*
X126592557Y-91777777D01*
X126551357Y-91821651D01*
X126548602Y-91824493D01*
X126528865Y-91844230D01*
X126526385Y-91847427D01*
X126518682Y-91856447D01*
X126488414Y-91888679D01*
X126484595Y-91895625D01*
X126484593Y-91895628D01*
X126478652Y-91906434D01*
X126467801Y-91922953D01*
X126455386Y-91938959D01*
X126452241Y-91946228D01*
X126452238Y-91946232D01*
X126437826Y-91979537D01*
X126432609Y-91990187D01*
X126411305Y-92028940D01*
X126409334Y-92036615D01*
X126409334Y-92036616D01*
X126406267Y-92048562D01*
X126399863Y-92067266D01*
X126391819Y-92085855D01*
X126390580Y-92093678D01*
X126390577Y-92093688D01*
X126384901Y-92129524D01*
X126382495Y-92141144D01*
X126373472Y-92176289D01*
X126371500Y-92183970D01*
X126371500Y-92204224D01*
X126369949Y-92223934D01*
X126366780Y-92243943D01*
X126367526Y-92251835D01*
X126370941Y-92287961D01*
X126371500Y-92299819D01*
X126371500Y-96757233D01*
X126370973Y-96768416D01*
X126369298Y-96775909D01*
X126369547Y-96783835D01*
X126369547Y-96783836D01*
X126371438Y-96843986D01*
X126371500Y-96847945D01*
X126371500Y-96875856D01*
X126371997Y-96879790D01*
X126371997Y-96879791D01*
X126372005Y-96879856D01*
X126372938Y-96891693D01*
X126374327Y-96935889D01*
X126376937Y-96944872D01*
X126379978Y-96955339D01*
X126383987Y-96974700D01*
X126386526Y-96994797D01*
X126389445Y-97002168D01*
X126389445Y-97002170D01*
X126402804Y-97035912D01*
X126406649Y-97047142D01*
X126418982Y-97089593D01*
X126423015Y-97096412D01*
X126423017Y-97096417D01*
X126429293Y-97107028D01*
X126437988Y-97124776D01*
X126445448Y-97143617D01*
X126450110Y-97150033D01*
X126450110Y-97150034D01*
X126471436Y-97179387D01*
X126477952Y-97189307D01*
X126494390Y-97217101D01*
X126500458Y-97227362D01*
X126514779Y-97241683D01*
X126527619Y-97256716D01*
X126539528Y-97273107D01*
X126545634Y-97278158D01*
X126573605Y-97301298D01*
X126582384Y-97309288D01*
X131645878Y-102372782D01*
X131679904Y-102435094D01*
X131682093Y-102448707D01*
X131695251Y-102573896D01*
X131699458Y-102613928D01*
X131758473Y-102795556D01*
X131761776Y-102801278D01*
X131761777Y-102801279D01*
X131766074Y-102808721D01*
X131853960Y-102960944D01*
X131858378Y-102965851D01*
X131858379Y-102965852D01*
X131958909Y-103077502D01*
X131981747Y-103102866D01*
X131987279Y-103106885D01*
X132123982Y-103206206D01*
X132136248Y-103215118D01*
X132142276Y-103217802D01*
X132142278Y-103217803D01*
X132290695Y-103283882D01*
X132310712Y-103292794D01*
X132404112Y-103312647D01*
X132491056Y-103331128D01*
X132491061Y-103331128D01*
X132497513Y-103332500D01*
X132688487Y-103332500D01*
X132694939Y-103331128D01*
X132694944Y-103331128D01*
X132781888Y-103312647D01*
X132875288Y-103292794D01*
X132895305Y-103283882D01*
X133043722Y-103217803D01*
X133043724Y-103217802D01*
X133049752Y-103215118D01*
X133062019Y-103206206D01*
X133198721Y-103106885D01*
X133204253Y-103102866D01*
X133227091Y-103077502D01*
X133327621Y-102965852D01*
X133327622Y-102965851D01*
X133332040Y-102960944D01*
X133419926Y-102808721D01*
X133424223Y-102801279D01*
X133424224Y-102801278D01*
X133427527Y-102795556D01*
X133486542Y-102613928D01*
X133490750Y-102573896D01*
X133505814Y-102430565D01*
X133506504Y-102424000D01*
X133498138Y-102344401D01*
X133487232Y-102240635D01*
X133487232Y-102240633D01*
X133486542Y-102234072D01*
X133427527Y-102052444D01*
X133332040Y-101887056D01*
X133252254Y-101798444D01*
X133208675Y-101750045D01*
X133208674Y-101750044D01*
X133204253Y-101745134D01*
X133049752Y-101632882D01*
X133043724Y-101630198D01*
X133043722Y-101630197D01*
X132881319Y-101557891D01*
X132881318Y-101557891D01*
X132875288Y-101555206D01*
X132766353Y-101532051D01*
X132694944Y-101516872D01*
X132694939Y-101516872D01*
X132688487Y-101515500D01*
X132632595Y-101515500D01*
X132564474Y-101495498D01*
X132543500Y-101478595D01*
X129420146Y-98355241D01*
X129386120Y-98292929D01*
X129391185Y-98222114D01*
X129433732Y-98165278D01*
X129457993Y-98151039D01*
X129487719Y-98137804D01*
X129493752Y-98135118D01*
X129648253Y-98022866D01*
X129776040Y-97880944D01*
X129864575Y-97727598D01*
X129868223Y-97721279D01*
X129868224Y-97721278D01*
X129871527Y-97715556D01*
X129930542Y-97533928D01*
X129934750Y-97493896D01*
X129947774Y-97369970D01*
X129974787Y-97304313D01*
X129981228Y-97296895D01*
X129998660Y-97278331D01*
X130001413Y-97275491D01*
X130021134Y-97255770D01*
X130023612Y-97252575D01*
X130031318Y-97243553D01*
X130056158Y-97217101D01*
X130061586Y-97211321D01*
X130071346Y-97193568D01*
X130082199Y-97177045D01*
X130085233Y-97173134D01*
X130094613Y-97161041D01*
X130112176Y-97120457D01*
X130117383Y-97109827D01*
X130138695Y-97071060D01*
X130140666Y-97063383D01*
X130140668Y-97063378D01*
X130143732Y-97051442D01*
X130150138Y-97032730D01*
X130151633Y-97029277D01*
X130158181Y-97014145D01*
X130161246Y-96994797D01*
X130165097Y-96970481D01*
X130167504Y-96958860D01*
X130176528Y-96923711D01*
X130176528Y-96923710D01*
X130178500Y-96916030D01*
X130178500Y-96895769D01*
X130180051Y-96876058D01*
X130181979Y-96863885D01*
X130183219Y-96856057D01*
X130179059Y-96812046D01*
X130178500Y-96800189D01*
X130178500Y-93855524D01*
X130198502Y-93787403D01*
X130210858Y-93771221D01*
X130284040Y-93689944D01*
X130379527Y-93524556D01*
X130438542Y-93342928D01*
X130458504Y-93153000D01*
X130438542Y-92963072D01*
X130379527Y-92781444D01*
X130284040Y-92616056D01*
X130246501Y-92574364D01*
X130160675Y-92479045D01*
X130160674Y-92479044D01*
X130156253Y-92474134D01*
X130053396Y-92399404D01*
X130007094Y-92365763D01*
X130007093Y-92365762D01*
X130001752Y-92361882D01*
X129995724Y-92359198D01*
X129995722Y-92359197D01*
X129833319Y-92286891D01*
X129833318Y-92286891D01*
X129827288Y-92284206D01*
X129733888Y-92264353D01*
X129646944Y-92245872D01*
X129646939Y-92245872D01*
X129640487Y-92244500D01*
X129449513Y-92244500D01*
X129443053Y-92245873D01*
X129443054Y-92245873D01*
X129375253Y-92260284D01*
X129304463Y-92254882D01*
X129247830Y-92212065D01*
X129223337Y-92145427D01*
X129238758Y-92076126D01*
X129259962Y-92047942D01*
X131934499Y-89373405D01*
X131996811Y-89339379D01*
X132023594Y-89336500D01*
X138429274Y-89336500D01*
X138497395Y-89356502D01*
X138536707Y-89396665D01*
X138604987Y-89508088D01*
X138751250Y-89676938D01*
X138923126Y-89819632D01*
X138938470Y-89828598D01*
X138996445Y-89862476D01*
X139045169Y-89914114D01*
X139058240Y-89983897D01*
X139031509Y-90049669D01*
X138991055Y-90083027D01*
X138978607Y-90089507D01*
X138974474Y-90092610D01*
X138974471Y-90092612D01*
X138950247Y-90110800D01*
X138799965Y-90223635D01*
X138645629Y-90385138D01*
X138519743Y-90569680D01*
X138517561Y-90574381D01*
X138508550Y-90593792D01*
X138461726Y-90647159D01*
X138446519Y-90655206D01*
X138440406Y-90656982D01*
X138433580Y-90661019D01*
X138422971Y-90667293D01*
X138405221Y-90675990D01*
X138386383Y-90683448D01*
X138379967Y-90688109D01*
X138379966Y-90688110D01*
X138350625Y-90709428D01*
X138340701Y-90715947D01*
X138309460Y-90734422D01*
X138309455Y-90734426D01*
X138302637Y-90738458D01*
X138288313Y-90752782D01*
X138273281Y-90765621D01*
X138256893Y-90777528D01*
X138239168Y-90798954D01*
X138228712Y-90811593D01*
X138220722Y-90820373D01*
X132134500Y-96906595D01*
X132072188Y-96940621D01*
X132045405Y-96943500D01*
X131989513Y-96943500D01*
X131983061Y-96944872D01*
X131983056Y-96944872D01*
X131917250Y-96958860D01*
X131802712Y-96983206D01*
X131796682Y-96985891D01*
X131796681Y-96985891D01*
X131634278Y-97058197D01*
X131634276Y-97058198D01*
X131628248Y-97060882D01*
X131473747Y-97173134D01*
X131469326Y-97178044D01*
X131469325Y-97178045D01*
X131351154Y-97309288D01*
X131345960Y-97315056D01*
X131250473Y-97480444D01*
X131191458Y-97662072D01*
X131190768Y-97668633D01*
X131190768Y-97668635D01*
X131186497Y-97709271D01*
X131171496Y-97852000D01*
X131172186Y-97858565D01*
X131190339Y-98031277D01*
X131191458Y-98041928D01*
X131250473Y-98223556D01*
X131345960Y-98388944D01*
X131473747Y-98530866D01*
X131628248Y-98643118D01*
X131634276Y-98645802D01*
X131634278Y-98645803D01*
X131796681Y-98718109D01*
X131802712Y-98720794D01*
X131896112Y-98740647D01*
X131983056Y-98759128D01*
X131983061Y-98759128D01*
X131989513Y-98760500D01*
X132180487Y-98760500D01*
X132186939Y-98759128D01*
X132186944Y-98759128D01*
X132273887Y-98740647D01*
X132367288Y-98720794D01*
X132373319Y-98718109D01*
X132535722Y-98645803D01*
X132535724Y-98645802D01*
X132541752Y-98643118D01*
X132696253Y-98530866D01*
X132824040Y-98388944D01*
X132919527Y-98223556D01*
X132978542Y-98041928D01*
X132979662Y-98031277D01*
X132995907Y-97876707D01*
X133022920Y-97811050D01*
X133032122Y-97800782D01*
X138148611Y-92684293D01*
X138210923Y-92650267D01*
X138281738Y-92655332D01*
X138338574Y-92697879D01*
X138363385Y-92764399D01*
X138357162Y-92807427D01*
X138358349Y-92807709D01*
X138352895Y-92830649D01*
X138347369Y-92881514D01*
X138347000Y-92888328D01*
X138347000Y-93510885D01*
X138351475Y-93526124D01*
X138352865Y-93527329D01*
X138360548Y-93529000D01*
X139833000Y-93529000D01*
X139901121Y-93549002D01*
X139947614Y-93602658D01*
X139959000Y-93655000D01*
X139959000Y-93911000D01*
X139938998Y-93979121D01*
X139885342Y-94025614D01*
X139833000Y-94037000D01*
X138365116Y-94037000D01*
X138349877Y-94041475D01*
X138348672Y-94042865D01*
X138347001Y-94050548D01*
X138347001Y-94677669D01*
X138347371Y-94684490D01*
X138352895Y-94735352D01*
X138356521Y-94750604D01*
X138401676Y-94871054D01*
X138410214Y-94886649D01*
X138486715Y-94988724D01*
X138499276Y-95001285D01*
X138601351Y-95077786D01*
X138616946Y-95086324D01*
X138725827Y-95127142D01*
X138782591Y-95169784D01*
X138807291Y-95236345D01*
X138792083Y-95305694D01*
X138772691Y-95332175D01*
X138649200Y-95461401D01*
X138645629Y-95465138D01*
X138519743Y-95649680D01*
X138425688Y-95852305D01*
X138365989Y-96067570D01*
X138342251Y-96289695D01*
X138342548Y-96294848D01*
X138342548Y-96294851D01*
X138348011Y-96389590D01*
X138355110Y-96512715D01*
X138356247Y-96517761D01*
X138356248Y-96517767D01*
X138376119Y-96605939D01*
X138404222Y-96730639D01*
X138488266Y-96937616D01*
X138535163Y-97014145D01*
X138600321Y-97120473D01*
X138604987Y-97128088D01*
X138751250Y-97296938D01*
X138923126Y-97439632D01*
X138938470Y-97448598D01*
X138996445Y-97482476D01*
X139045169Y-97534114D01*
X139058240Y-97603897D01*
X139031509Y-97669669D01*
X138991055Y-97703027D01*
X138978607Y-97709507D01*
X138974474Y-97712610D01*
X138974471Y-97712612D01*
X138843364Y-97811050D01*
X138799965Y-97843635D01*
X138645629Y-98005138D01*
X138642715Y-98009410D01*
X138642714Y-98009411D01*
X138616250Y-98048206D01*
X138519743Y-98189680D01*
X138425688Y-98392305D01*
X138365989Y-98607570D01*
X138342251Y-98829695D01*
X138355110Y-99052715D01*
X138356247Y-99057761D01*
X138356248Y-99057767D01*
X138380304Y-99164508D01*
X138404222Y-99270639D01*
X138488266Y-99477616D01*
X138604987Y-99668088D01*
X138751250Y-99836938D01*
X138923126Y-99979632D01*
X138938470Y-99988598D01*
X138996445Y-100022476D01*
X139045169Y-100074114D01*
X139058240Y-100143897D01*
X139031509Y-100209669D01*
X138991055Y-100243027D01*
X138978607Y-100249507D01*
X138974474Y-100252610D01*
X138974471Y-100252612D01*
X138950247Y-100270800D01*
X138799965Y-100383635D01*
X138645629Y-100545138D01*
X138519743Y-100729680D01*
X138425688Y-100932305D01*
X138365989Y-101147570D01*
X138342251Y-101369695D01*
X138342548Y-101374848D01*
X138342548Y-101374851D01*
X138349536Y-101496045D01*
X138355110Y-101592715D01*
X138356247Y-101597761D01*
X138356248Y-101597767D01*
X138365490Y-101638774D01*
X138404222Y-101810639D01*
X138488266Y-102017616D01*
X138604987Y-102208088D01*
X138751250Y-102376938D01*
X138923126Y-102519632D01*
X138938470Y-102528598D01*
X138996445Y-102562476D01*
X139045169Y-102614114D01*
X139058240Y-102683897D01*
X139031509Y-102749669D01*
X138991055Y-102783027D01*
X138978607Y-102789507D01*
X138974474Y-102792610D01*
X138974471Y-102792612D01*
X138804100Y-102920530D01*
X138799965Y-102923635D01*
X138736742Y-102989794D01*
X138672041Y-103057500D01*
X138645629Y-103085138D01*
X138642715Y-103089410D01*
X138642714Y-103089411D01*
X138639691Y-103093843D01*
X138519743Y-103269680D01*
X138425688Y-103472305D01*
X138365989Y-103687570D01*
X138342251Y-103909695D01*
X138342548Y-103914848D01*
X138342548Y-103914851D01*
X138348011Y-104009590D01*
X138355110Y-104132715D01*
X138356247Y-104137761D01*
X138356248Y-104137767D01*
X138376119Y-104225939D01*
X138404222Y-104350639D01*
X138488266Y-104557616D01*
X138604987Y-104748088D01*
X138751250Y-104916938D01*
X138923126Y-105059632D01*
X138938470Y-105068598D01*
X138996445Y-105102476D01*
X139045169Y-105154114D01*
X139058240Y-105223897D01*
X139031509Y-105289669D01*
X138991055Y-105323027D01*
X138978607Y-105329507D01*
X138974474Y-105332610D01*
X138974471Y-105332612D01*
X138950247Y-105350800D01*
X138799965Y-105463635D01*
X138645629Y-105625138D01*
X138519743Y-105809680D01*
X138425688Y-106012305D01*
X138365989Y-106227570D01*
X138342251Y-106449695D01*
X138355110Y-106672715D01*
X138356247Y-106677761D01*
X138356248Y-106677767D01*
X138380304Y-106784508D01*
X138404222Y-106890639D01*
X138488266Y-107097616D01*
X138604987Y-107288088D01*
X138751250Y-107456938D01*
X138923126Y-107599632D01*
X138938470Y-107608598D01*
X138996445Y-107642476D01*
X139045169Y-107694114D01*
X139058240Y-107763897D01*
X139031509Y-107829669D01*
X138991055Y-107863027D01*
X138978607Y-107869507D01*
X138974474Y-107872610D01*
X138974471Y-107872612D01*
X138804100Y-108000530D01*
X138799965Y-108003635D01*
X138645629Y-108165138D01*
X138519743Y-108349680D01*
X138425688Y-108552305D01*
X138365989Y-108767570D01*
X138342251Y-108989695D01*
X138355110Y-109212715D01*
X138356247Y-109217761D01*
X138356248Y-109217767D01*
X138380304Y-109324508D01*
X138404222Y-109430639D01*
X138488266Y-109637616D01*
X138604987Y-109828088D01*
X138751250Y-109996938D01*
X138923126Y-110139632D01*
X139116000Y-110252338D01*
X139324692Y-110332030D01*
X139329760Y-110333061D01*
X139329763Y-110333062D01*
X139437017Y-110354883D01*
X139543597Y-110376567D01*
X139548772Y-110376757D01*
X139548774Y-110376757D01*
X139761673Y-110384564D01*
X139761677Y-110384564D01*
X139766837Y-110384753D01*
X139771957Y-110384097D01*
X139771959Y-110384097D01*
X139983288Y-110357025D01*
X139983289Y-110357025D01*
X139988416Y-110356368D01*
X139993366Y-110354883D01*
X140197429Y-110293661D01*
X140197434Y-110293659D01*
X140202384Y-110292174D01*
X140285070Y-110251666D01*
X140355041Y-110239660D01*
X140420398Y-110267390D01*
X140460388Y-110326052D01*
X140466500Y-110364818D01*
X140466500Y-114058633D01*
X140465000Y-114078018D01*
X140462690Y-114092851D01*
X140462690Y-114092855D01*
X140461309Y-114101724D01*
X140463136Y-114115693D01*
X140463756Y-114120433D01*
X140464647Y-114143366D01*
X140448760Y-114446501D01*
X140447382Y-114459617D01*
X140395387Y-114787898D01*
X140392645Y-114800798D01*
X140306621Y-115121846D01*
X140302547Y-115134382D01*
X140198487Y-115405468D01*
X140183438Y-115444672D01*
X140178074Y-115456720D01*
X140027180Y-115752867D01*
X140020586Y-115764288D01*
X139839563Y-116043040D01*
X139831810Y-116053710D01*
X139622648Y-116312004D01*
X139613823Y-116321805D01*
X139378805Y-116556823D01*
X139369004Y-116565648D01*
X139110710Y-116774810D01*
X139100040Y-116782563D01*
X138821288Y-116963586D01*
X138809867Y-116970180D01*
X138513720Y-117121074D01*
X138501671Y-117126438D01*
X138191382Y-117245547D01*
X138178846Y-117249621D01*
X137857798Y-117335645D01*
X137844898Y-117338387D01*
X137516617Y-117390382D01*
X137503501Y-117391760D01*
X137469848Y-117393524D01*
X137207702Y-117407262D01*
X137181727Y-117405935D01*
X137180157Y-117405691D01*
X137180151Y-117405691D01*
X137171276Y-117404309D01*
X137162374Y-117405473D01*
X137162372Y-117405473D01*
X137147323Y-117407441D01*
X137139714Y-117408436D01*
X137123379Y-117409500D01*
X119434367Y-117409500D01*
X119414982Y-117408000D01*
X119400149Y-117405690D01*
X119400145Y-117405690D01*
X119391276Y-117404309D01*
X119372564Y-117406756D01*
X119349634Y-117407647D01*
X119046497Y-117391760D01*
X119033383Y-117390382D01*
X118705102Y-117338387D01*
X118692202Y-117335645D01*
X118371154Y-117249621D01*
X118358618Y-117245547D01*
X118048329Y-117126438D01*
X118036280Y-117121074D01*
X117740133Y-116970180D01*
X117728712Y-116963586D01*
X117449960Y-116782563D01*
X117439290Y-116774810D01*
X117180996Y-116565648D01*
X117171195Y-116556823D01*
X116936177Y-116321805D01*
X116927352Y-116312004D01*
X116718190Y-116053710D01*
X116710437Y-116043040D01*
X116529414Y-115764288D01*
X116522820Y-115752867D01*
X116371926Y-115456720D01*
X116366562Y-115444672D01*
X116351513Y-115405468D01*
X116247453Y-115134382D01*
X116243379Y-115121846D01*
X116157355Y-114800798D01*
X116154613Y-114787898D01*
X116102618Y-114459617D01*
X116101240Y-114446501D01*
X116090454Y-114240703D01*
X117275743Y-114240703D01*
X117313268Y-114525734D01*
X117389129Y-114803036D01*
X117501923Y-115067476D01*
X117649561Y-115314161D01*
X117829313Y-115538528D01*
X118037851Y-115736423D01*
X118271317Y-115904186D01*
X118275112Y-115906195D01*
X118275113Y-115906196D01*
X118296869Y-115917715D01*
X118525392Y-116038712D01*
X118795373Y-116137511D01*
X119076264Y-116198755D01*
X119104841Y-116201004D01*
X119299282Y-116216307D01*
X119299291Y-116216307D01*
X119301739Y-116216500D01*
X119457271Y-116216500D01*
X119459407Y-116216354D01*
X119459418Y-116216354D01*
X119667548Y-116202165D01*
X119667554Y-116202164D01*
X119671825Y-116201873D01*
X119676020Y-116201004D01*
X119676022Y-116201004D01*
X119812583Y-116172724D01*
X119953342Y-116143574D01*
X120224343Y-116047607D01*
X120479812Y-115915750D01*
X120483313Y-115913289D01*
X120483317Y-115913287D01*
X120597417Y-115833096D01*
X120715023Y-115750441D01*
X120925622Y-115554740D01*
X121107713Y-115332268D01*
X121257927Y-115087142D01*
X121373483Y-114823898D01*
X121452244Y-114547406D01*
X121492751Y-114262784D01*
X121492845Y-114244951D01*
X121492867Y-114240703D01*
X135055743Y-114240703D01*
X135093268Y-114525734D01*
X135169129Y-114803036D01*
X135281923Y-115067476D01*
X135429561Y-115314161D01*
X135609313Y-115538528D01*
X135817851Y-115736423D01*
X136051317Y-115904186D01*
X136055112Y-115906195D01*
X136055113Y-115906196D01*
X136076869Y-115917715D01*
X136305392Y-116038712D01*
X136575373Y-116137511D01*
X136856264Y-116198755D01*
X136884841Y-116201004D01*
X137079282Y-116216307D01*
X137079291Y-116216307D01*
X137081739Y-116216500D01*
X137237271Y-116216500D01*
X137239407Y-116216354D01*
X137239418Y-116216354D01*
X137447548Y-116202165D01*
X137447554Y-116202164D01*
X137451825Y-116201873D01*
X137456020Y-116201004D01*
X137456022Y-116201004D01*
X137592583Y-116172724D01*
X137733342Y-116143574D01*
X138004343Y-116047607D01*
X138259812Y-115915750D01*
X138263313Y-115913289D01*
X138263317Y-115913287D01*
X138377417Y-115833096D01*
X138495023Y-115750441D01*
X138705622Y-115554740D01*
X138887713Y-115332268D01*
X139037927Y-115087142D01*
X139153483Y-114823898D01*
X139232244Y-114547406D01*
X139272751Y-114262784D01*
X139272845Y-114244951D01*
X139274235Y-113979583D01*
X139274235Y-113979576D01*
X139274257Y-113975297D01*
X139236732Y-113690266D01*
X139160871Y-113412964D01*
X139048077Y-113148524D01*
X138900439Y-112901839D01*
X138720687Y-112677472D01*
X138512149Y-112479577D01*
X138278683Y-112311814D01*
X138256843Y-112300250D01*
X138233654Y-112287972D01*
X138024608Y-112177288D01*
X137754627Y-112078489D01*
X137473736Y-112017245D01*
X137442685Y-112014801D01*
X137250718Y-111999693D01*
X137250709Y-111999693D01*
X137248261Y-111999500D01*
X137092729Y-111999500D01*
X137090593Y-111999646D01*
X137090582Y-111999646D01*
X136882452Y-112013835D01*
X136882446Y-112013836D01*
X136878175Y-112014127D01*
X136873980Y-112014996D01*
X136873978Y-112014996D01*
X136737416Y-112043277D01*
X136596658Y-112072426D01*
X136325657Y-112168393D01*
X136070188Y-112300250D01*
X136066687Y-112302711D01*
X136066683Y-112302713D01*
X136056594Y-112309804D01*
X135834977Y-112465559D01*
X135624378Y-112661260D01*
X135442287Y-112883732D01*
X135292073Y-113128858D01*
X135176517Y-113392102D01*
X135097756Y-113668594D01*
X135057249Y-113953216D01*
X135057227Y-113957505D01*
X135057226Y-113957512D01*
X135056195Y-114154416D01*
X135055743Y-114240703D01*
X121492867Y-114240703D01*
X121494235Y-113979583D01*
X121494235Y-113979576D01*
X121494257Y-113975297D01*
X121456732Y-113690266D01*
X121380871Y-113412964D01*
X121268077Y-113148524D01*
X121120439Y-112901839D01*
X120940687Y-112677472D01*
X120732149Y-112479577D01*
X120498683Y-112311814D01*
X120476843Y-112300250D01*
X120453654Y-112287972D01*
X120244608Y-112177288D01*
X119974627Y-112078489D01*
X119693736Y-112017245D01*
X119662685Y-112014801D01*
X119470718Y-111999693D01*
X119470709Y-111999693D01*
X119468261Y-111999500D01*
X119312729Y-111999500D01*
X119310593Y-111999646D01*
X119310582Y-111999646D01*
X119102452Y-112013835D01*
X119102446Y-112013836D01*
X119098175Y-112014127D01*
X119093980Y-112014996D01*
X119093978Y-112014996D01*
X118957416Y-112043277D01*
X118816658Y-112072426D01*
X118545657Y-112168393D01*
X118290188Y-112300250D01*
X118286687Y-112302711D01*
X118286683Y-112302713D01*
X118276594Y-112309804D01*
X118054977Y-112465559D01*
X117844378Y-112661260D01*
X117662287Y-112883732D01*
X117512073Y-113128858D01*
X117396517Y-113392102D01*
X117317756Y-113668594D01*
X117277249Y-113953216D01*
X117277227Y-113957505D01*
X117277226Y-113957512D01*
X117276195Y-114154416D01*
X117275743Y-114240703D01*
X116090454Y-114240703D01*
X116085932Y-114154413D01*
X116087506Y-114126910D01*
X116087770Y-114125341D01*
X116088576Y-114120552D01*
X116088729Y-114108000D01*
X116084773Y-114080376D01*
X116083500Y-114062514D01*
X116083500Y-110369305D01*
X116103502Y-110301184D01*
X116157158Y-110254691D01*
X116227432Y-110244587D01*
X116255684Y-110253165D01*
X116256000Y-110252338D01*
X116464692Y-110332030D01*
X116469760Y-110333061D01*
X116469763Y-110333062D01*
X116577017Y-110354883D01*
X116683597Y-110376567D01*
X116688772Y-110376757D01*
X116688774Y-110376757D01*
X116901673Y-110384564D01*
X116901677Y-110384564D01*
X116906837Y-110384753D01*
X116911957Y-110384097D01*
X116911959Y-110384097D01*
X117123288Y-110357025D01*
X117123289Y-110357025D01*
X117128416Y-110356368D01*
X117133366Y-110354883D01*
X117337429Y-110293661D01*
X117337434Y-110293659D01*
X117342384Y-110292174D01*
X117542994Y-110193896D01*
X117724860Y-110064173D01*
X117883096Y-109906489D01*
X117942594Y-109823689D01*
X118010435Y-109729277D01*
X118013453Y-109725077D01*
X118015746Y-109720438D01*
X118087264Y-109575732D01*
X118122991Y-109532002D01*
X118123537Y-109531578D01*
X118130362Y-109527542D01*
X118144683Y-109513221D01*
X118159717Y-109500380D01*
X118169694Y-109493131D01*
X118176107Y-109488472D01*
X118204298Y-109454395D01*
X118212288Y-109445616D01*
X123039500Y-104618405D01*
X123101812Y-104584379D01*
X123128595Y-104581500D01*
X128595450Y-104581500D01*
X128663571Y-104601502D01*
X128689086Y-104623190D01*
X128797584Y-104743689D01*
X128806747Y-104753866D01*
X128961248Y-104866118D01*
X128967276Y-104868802D01*
X128967278Y-104868803D01*
X129129681Y-104941109D01*
X129135712Y-104943794D01*
X129229113Y-104963647D01*
X129316056Y-104982128D01*
X129316061Y-104982128D01*
X129322513Y-104983500D01*
X129513487Y-104983500D01*
X129519939Y-104982128D01*
X129519944Y-104982128D01*
X129606887Y-104963647D01*
X129700288Y-104943794D01*
X129706319Y-104941109D01*
X129868722Y-104868803D01*
X129868724Y-104868802D01*
X129874752Y-104866118D01*
X130029253Y-104753866D01*
X130034456Y-104748088D01*
X130152621Y-104616852D01*
X130152622Y-104616851D01*
X130157040Y-104611944D01*
X130252527Y-104446556D01*
X130311542Y-104264928D01*
X130331504Y-104075000D01*
X130317984Y-103946365D01*
X130312232Y-103891635D01*
X130312232Y-103891633D01*
X130311542Y-103885072D01*
X130252527Y-103703444D01*
X130157040Y-103538056D01*
X130112847Y-103488974D01*
X130033675Y-103401045D01*
X130033674Y-103401044D01*
X130029253Y-103396134D01*
X129888907Y-103294166D01*
X129880094Y-103287763D01*
X129880093Y-103287762D01*
X129874752Y-103283882D01*
X129868724Y-103281198D01*
X129868722Y-103281197D01*
X129706319Y-103208891D01*
X129706318Y-103208891D01*
X129700288Y-103206206D01*
X129605227Y-103186000D01*
X129519944Y-103167872D01*
X129519939Y-103167872D01*
X129513487Y-103166500D01*
X129322513Y-103166500D01*
X129316053Y-103167873D01*
X129313323Y-103168160D01*
X129243485Y-103155388D01*
X129191638Y-103106885D01*
X129174843Y-103056021D01*
X129169232Y-103002635D01*
X129169232Y-103002633D01*
X129168542Y-102996072D01*
X129109527Y-102814444D01*
X129105575Y-102807598D01*
X129072129Y-102749669D01*
X129014040Y-102649056D01*
X128988064Y-102620206D01*
X128890675Y-102512045D01*
X128890674Y-102512044D01*
X128886253Y-102507134D01*
X128780865Y-102430565D01*
X128737097Y-102398765D01*
X128737094Y-102398764D01*
X128731752Y-102394882D01*
X128730574Y-102394357D01*
X128682942Y-102344401D01*
X128669626Y-102273495D01*
X128674430Y-102227794D01*
X128680504Y-102170000D01*
X128660542Y-101980072D01*
X128601527Y-101798444D01*
X128597664Y-101791752D01*
X128539534Y-101691069D01*
X128506040Y-101633056D01*
X128378253Y-101491134D01*
X128261579Y-101406365D01*
X128229094Y-101382763D01*
X128229093Y-101382762D01*
X128223752Y-101378882D01*
X128217724Y-101376198D01*
X128217722Y-101376197D01*
X128055319Y-101303891D01*
X128055318Y-101303891D01*
X128049288Y-101301206D01*
X127955887Y-101281353D01*
X127868944Y-101262872D01*
X127868939Y-101262872D01*
X127862487Y-101261500D01*
X127671513Y-101261500D01*
X127665061Y-101262872D01*
X127665056Y-101262872D01*
X127578112Y-101281353D01*
X127484712Y-101301206D01*
X127478682Y-101303891D01*
X127478681Y-101303891D01*
X127316278Y-101376197D01*
X127316276Y-101376198D01*
X127310248Y-101378882D01*
X127304907Y-101382762D01*
X127304906Y-101382763D01*
X127185400Y-101469590D01*
X127155747Y-101491134D01*
X127151332Y-101496037D01*
X127146420Y-101500460D01*
X127145295Y-101499211D01*
X127091986Y-101532051D01*
X127058800Y-101536500D01*
X121223595Y-101536500D01*
X121155474Y-101516498D01*
X121134500Y-101499595D01*
X118185827Y-98550922D01*
X118152718Y-98492523D01*
X118136692Y-98428720D01*
X118136690Y-98428714D01*
X118135431Y-98423702D01*
X118046354Y-98218840D01*
X117935966Y-98048206D01*
X117927822Y-98035617D01*
X117927820Y-98035614D01*
X117925014Y-98031277D01*
X117774670Y-97866051D01*
X117770619Y-97862852D01*
X117770615Y-97862848D01*
X117603414Y-97730800D01*
X117603410Y-97730798D01*
X117599359Y-97727598D01*
X117558053Y-97704796D01*
X117508084Y-97654364D01*
X117493312Y-97584921D01*
X117518428Y-97518516D01*
X117545780Y-97491909D01*
X117606500Y-97448598D01*
X117724860Y-97364173D01*
X117883096Y-97206489D01*
X117895443Y-97189307D01*
X118010435Y-97029277D01*
X118013453Y-97025077D01*
X118024775Y-97002170D01*
X118110136Y-96829453D01*
X118110137Y-96829451D01*
X118112430Y-96824811D01*
X118177370Y-96611069D01*
X118206529Y-96389590D01*
X118208156Y-96323000D01*
X118189852Y-96100361D01*
X118135431Y-95883702D01*
X118046354Y-95678840D01*
X117925014Y-95491277D01*
X117774670Y-95326051D01*
X117770619Y-95322852D01*
X117770615Y-95322848D01*
X117603414Y-95190800D01*
X117603410Y-95190798D01*
X117599359Y-95187598D01*
X117558053Y-95164796D01*
X117508084Y-95114364D01*
X117493312Y-95044921D01*
X117518428Y-94978516D01*
X117545780Y-94951909D01*
X117637271Y-94886649D01*
X117724860Y-94824173D01*
X117883096Y-94666489D01*
X118013453Y-94485077D01*
X118112430Y-94284811D01*
X118177370Y-94071069D01*
X118206529Y-93849590D01*
X118207647Y-93803826D01*
X118208074Y-93786365D01*
X118208074Y-93786361D01*
X118208156Y-93783000D01*
X118189852Y-93560361D01*
X118135431Y-93343702D01*
X118046354Y-93138840D01*
X118006906Y-93077862D01*
X117927822Y-92955617D01*
X117927820Y-92955614D01*
X117925014Y-92951277D01*
X117774670Y-92786051D01*
X117770619Y-92782852D01*
X117770615Y-92782848D01*
X117603414Y-92650800D01*
X117603410Y-92650798D01*
X117599359Y-92647598D01*
X117558053Y-92624796D01*
X117508084Y-92574364D01*
X117493312Y-92504921D01*
X117518428Y-92438516D01*
X117545780Y-92411909D01*
X117619070Y-92359632D01*
X117724860Y-92284173D01*
X117883096Y-92126489D01*
X117939538Y-92047942D01*
X118010435Y-91949277D01*
X118013453Y-91945077D01*
X118024388Y-91922953D01*
X118110136Y-91749453D01*
X118110137Y-91749451D01*
X118112430Y-91744811D01*
X118177370Y-91531069D01*
X118206529Y-91309590D01*
X118208156Y-91243000D01*
X118189852Y-91020361D01*
X118135431Y-90803702D01*
X118046354Y-90598840D01*
X117925014Y-90411277D01*
X117774670Y-90246051D01*
X117770619Y-90242852D01*
X117770615Y-90242848D01*
X117603414Y-90110800D01*
X117603410Y-90110798D01*
X117599359Y-90107598D01*
X117558053Y-90084796D01*
X117508084Y-90034364D01*
X117493312Y-89964921D01*
X117518428Y-89898516D01*
X117545780Y-89871909D01*
X117606500Y-89828598D01*
X117724860Y-89744173D01*
X117883096Y-89586489D01*
X118013453Y-89405077D01*
X118017611Y-89396665D01*
X118110136Y-89209453D01*
X118110137Y-89209451D01*
X118112430Y-89204811D01*
X118177370Y-88991069D01*
X118206529Y-88769590D01*
X118206611Y-88766240D01*
X118208074Y-88706365D01*
X118208074Y-88706361D01*
X118208156Y-88703000D01*
X118189852Y-88480361D01*
X118135431Y-88263702D01*
X118046354Y-88058840D01*
X117925014Y-87871277D01*
X117774670Y-87706051D01*
X117770619Y-87702852D01*
X117770615Y-87702848D01*
X117603414Y-87570800D01*
X117603410Y-87570798D01*
X117599359Y-87567598D01*
X117558053Y-87544796D01*
X117508084Y-87494364D01*
X117493312Y-87424921D01*
X117518428Y-87358516D01*
X117545780Y-87331909D01*
X117606500Y-87288598D01*
X117724860Y-87204173D01*
X117883096Y-87046489D01*
X118013453Y-86865077D01*
X118077506Y-86735476D01*
X118110136Y-86669453D01*
X118110137Y-86669451D01*
X118112430Y-86664811D01*
X118177370Y-86451069D01*
X118206529Y-86229590D01*
X118208156Y-86163000D01*
X118189852Y-85940361D01*
X118135431Y-85723702D01*
X118046354Y-85518840D01*
X118006906Y-85457862D01*
X117927822Y-85335617D01*
X117927820Y-85335614D01*
X117925014Y-85331277D01*
X117774670Y-85166051D01*
X117770619Y-85162852D01*
X117770615Y-85162848D01*
X117603414Y-85030800D01*
X117603410Y-85030798D01*
X117599359Y-85027598D01*
X117558053Y-85004796D01*
X117508084Y-84954364D01*
X117493312Y-84884921D01*
X117518428Y-84818516D01*
X117545780Y-84791909D01*
X117606500Y-84748598D01*
X117724860Y-84664173D01*
X117883096Y-84506489D01*
X117923261Y-84450594D01*
X118010435Y-84329277D01*
X118013453Y-84325077D01*
X118044111Y-84263046D01*
X118110136Y-84129453D01*
X118110137Y-84129451D01*
X118112430Y-84124811D01*
X118157277Y-83977203D01*
X118175865Y-83916023D01*
X118175865Y-83916021D01*
X118177370Y-83911069D01*
X118206529Y-83689590D01*
X118206611Y-83686240D01*
X118208074Y-83626365D01*
X118208074Y-83626361D01*
X118208156Y-83623000D01*
X118189852Y-83400361D01*
X118135431Y-83183702D01*
X118046354Y-82978840D01*
X117977602Y-82872565D01*
X117927822Y-82795617D01*
X117927820Y-82795614D01*
X117925014Y-82791277D01*
X117921540Y-82787459D01*
X117921533Y-82787450D01*
X117777435Y-82629088D01*
X117746383Y-82565242D01*
X117754779Y-82494744D01*
X117799956Y-82439976D01*
X117826400Y-82426307D01*
X117933052Y-82386325D01*
X117948649Y-82377786D01*
X118050724Y-82301285D01*
X118063285Y-82288724D01*
X118139786Y-82186649D01*
X118148324Y-82171054D01*
X118193478Y-82050606D01*
X118197105Y-82035351D01*
X118202631Y-81984486D01*
X118203000Y-81977672D01*
X118203000Y-81355115D01*
X118198525Y-81339876D01*
X118197135Y-81338671D01*
X118189452Y-81337000D01*
X116717000Y-81337000D01*
X116648879Y-81316998D01*
X116602386Y-81263342D01*
X116591000Y-81211000D01*
X116591000Y-80810885D01*
X117099000Y-80810885D01*
X117103475Y-80826124D01*
X117104865Y-80827329D01*
X117112548Y-80829000D01*
X118184884Y-80829000D01*
X118200123Y-80824525D01*
X118201328Y-80823135D01*
X118202999Y-80815452D01*
X118202999Y-80188331D01*
X118202629Y-80181510D01*
X118197105Y-80130648D01*
X118193479Y-80115396D01*
X118148324Y-79994946D01*
X118139786Y-79979351D01*
X118063285Y-79877276D01*
X118050724Y-79864715D01*
X117948649Y-79788214D01*
X117933054Y-79779676D01*
X117812606Y-79734522D01*
X117797351Y-79730895D01*
X117746486Y-79725369D01*
X117739672Y-79725000D01*
X117117115Y-79725000D01*
X117101876Y-79729475D01*
X117100671Y-79730865D01*
X117099000Y-79738548D01*
X117099000Y-80810885D01*
X116591000Y-80810885D01*
X116591000Y-79743116D01*
X116586525Y-79727877D01*
X116585135Y-79726672D01*
X116577452Y-79725001D01*
X116209500Y-79725001D01*
X116141379Y-79704999D01*
X116094886Y-79651343D01*
X116083500Y-79599001D01*
X116083500Y-76140703D01*
X117275743Y-76140703D01*
X117313268Y-76425734D01*
X117389129Y-76703036D01*
X117390813Y-76706984D01*
X117487128Y-76932789D01*
X117501923Y-76967476D01*
X117649561Y-77214161D01*
X117829313Y-77438528D01*
X118037851Y-77636423D01*
X118271317Y-77804186D01*
X118275112Y-77806195D01*
X118275113Y-77806196D01*
X118296869Y-77817715D01*
X118525392Y-77938712D01*
X118795373Y-78037511D01*
X119076264Y-78098755D01*
X119104841Y-78101004D01*
X119299282Y-78116307D01*
X119299291Y-78116307D01*
X119301739Y-78116500D01*
X119457271Y-78116500D01*
X119459407Y-78116354D01*
X119459418Y-78116354D01*
X119667548Y-78102165D01*
X119667554Y-78102164D01*
X119671825Y-78101873D01*
X119676020Y-78101004D01*
X119676022Y-78101004D01*
X119812583Y-78072724D01*
X119953342Y-78043574D01*
X120224343Y-77947607D01*
X120479812Y-77815750D01*
X120483313Y-77813289D01*
X120483317Y-77813287D01*
X120597417Y-77733096D01*
X120715023Y-77650441D01*
X120925622Y-77454740D01*
X121107713Y-77232268D01*
X121257927Y-76987142D01*
X121373483Y-76723898D01*
X121452244Y-76447406D01*
X121492751Y-76162784D01*
X121492845Y-76144951D01*
X121494235Y-75879583D01*
X121494235Y-75879576D01*
X121494257Y-75875297D01*
X121493527Y-75869747D01*
X121472395Y-75709238D01*
X121456732Y-75590266D01*
X121380871Y-75312964D01*
X121268077Y-75048524D01*
X121120439Y-74801839D01*
X120940687Y-74577472D01*
X120732149Y-74379577D01*
X120498683Y-74211814D01*
X120476843Y-74200250D01*
X120453654Y-74187972D01*
X120244608Y-74077288D01*
X119974627Y-73978489D01*
X119693736Y-73917245D01*
X119662685Y-73914801D01*
X119470718Y-73899693D01*
X119470709Y-73899693D01*
X119468261Y-73899500D01*
X119312729Y-73899500D01*
X119310593Y-73899646D01*
X119310582Y-73899646D01*
X119102452Y-73913835D01*
X119102446Y-73913836D01*
X119098175Y-73914127D01*
X119093980Y-73914996D01*
X119093978Y-73914996D01*
X118957417Y-73943276D01*
X118816658Y-73972426D01*
X118545657Y-74068393D01*
X118290188Y-74200250D01*
X118286687Y-74202711D01*
X118286683Y-74202713D01*
X118276594Y-74209804D01*
X118054977Y-74365559D01*
X117844378Y-74561260D01*
X117662287Y-74783732D01*
X117512073Y-75028858D01*
X117396517Y-75292102D01*
X117395342Y-75296229D01*
X117395341Y-75296230D01*
X117367717Y-75393206D01*
X117317756Y-75568594D01*
X117277249Y-75853216D01*
X117277227Y-75857505D01*
X117277226Y-75857512D01*
X117276068Y-76078635D01*
X117275743Y-76140703D01*
X116083500Y-76140703D01*
X116083500Y-76061250D01*
X116085246Y-76040345D01*
X116087770Y-76025344D01*
X116087770Y-76025341D01*
X116088576Y-76020552D01*
X116088729Y-76008000D01*
X116088039Y-76003180D01*
X116086644Y-75993437D01*
X116085545Y-75968983D01*
X116098029Y-75730774D01*
X116101240Y-75669499D01*
X116102618Y-75656383D01*
X116112743Y-75592460D01*
X116154613Y-75328102D01*
X116157355Y-75315202D01*
X116243379Y-74994154D01*
X116247455Y-74981610D01*
X116324688Y-74780414D01*
X116366562Y-74671328D01*
X116371926Y-74659280D01*
X116522820Y-74363133D01*
X116529414Y-74351712D01*
X116710437Y-74072960D01*
X116718190Y-74062290D01*
X116927352Y-73803996D01*
X116936177Y-73794195D01*
X117171195Y-73559177D01*
X117180996Y-73550352D01*
X117439290Y-73341190D01*
X117449960Y-73333437D01*
X117728712Y-73152414D01*
X117740133Y-73145820D01*
X118036280Y-72994926D01*
X118048328Y-72989562D01*
X118087532Y-72974513D01*
X118358618Y-72870453D01*
X118371154Y-72866379D01*
X118692202Y-72780355D01*
X118705102Y-72777613D01*
X119033383Y-72725618D01*
X119046499Y-72724240D01*
X119080152Y-72722476D01*
X119342298Y-72708738D01*
X119368273Y-72710065D01*
X119369843Y-72710309D01*
X119369849Y-72710309D01*
X119378724Y-72711691D01*
X119387626Y-72710527D01*
X119387628Y-72710527D01*
X119402677Y-72708559D01*
X119410286Y-72707564D01*
X119426621Y-72706500D01*
X137115633Y-72706500D01*
X137135018Y-72708000D01*
G37*
G04 #@! TD.AperFunction*
M02*
