G04 #@! TF.GenerationSoftware,KiCad,Pcbnew,(6.0.6)*
G04 #@! TF.CreationDate,2022-10-28T15:12:27+11:00*
G04 #@! TF.ProjectId,CE-LoRa-E5-Breakout-Module,43452d4c-6f52-4612-9d45-352d42726561,rev?*
G04 #@! TF.SameCoordinates,Original*
G04 #@! TF.FileFunction,Copper,L1,Top*
G04 #@! TF.FilePolarity,Positive*
%FSLAX46Y46*%
G04 Gerber Fmt 4.6, Leading zero omitted, Abs format (unit mm)*
G04 Created by KiCad (PCBNEW (6.0.6)) date 2022-10-28 15:12:27*
%MOMM*%
%LPD*%
G01*
G04 APERTURE LIST*
G04 Aperture macros list*
%AMRoundRect*
0 Rectangle with rounded corners*
0 $1 Rounding radius*
0 $2 $3 $4 $5 $6 $7 $8 $9 X,Y pos of 4 corners*
0 Add a 4 corners polygon primitive as box body*
4,1,4,$2,$3,$4,$5,$6,$7,$8,$9,$2,$3,0*
0 Add four circle primitives for the rounded corners*
1,1,$1+$1,$2,$3*
1,1,$1+$1,$4,$5*
1,1,$1+$1,$6,$7*
1,1,$1+$1,$8,$9*
0 Add four rect primitives between the rounded corners*
20,1,$1+$1,$2,$3,$4,$5,0*
20,1,$1+$1,$4,$5,$6,$7,0*
20,1,$1+$1,$6,$7,$8,$9,0*
20,1,$1+$1,$8,$9,$2,$3,0*%
G04 Aperture macros list end*
G04 #@! TA.AperFunction,ComponentPad*
%ADD10R,1.700000X1.700000*%
G04 #@! TD*
G04 #@! TA.AperFunction,ComponentPad*
%ADD11O,1.700000X1.700000*%
G04 #@! TD*
G04 #@! TA.AperFunction,ComponentPad*
%ADD12C,1.700000*%
G04 #@! TD*
G04 #@! TA.AperFunction,SMDPad,CuDef*
%ADD13RoundRect,0.135000X0.135000X0.185000X-0.135000X0.185000X-0.135000X-0.185000X0.135000X-0.185000X0*%
G04 #@! TD*
G04 #@! TA.AperFunction,SMDPad,CuDef*
%ADD14RoundRect,0.218750X0.218750X0.256250X-0.218750X0.256250X-0.218750X-0.256250X0.218750X-0.256250X0*%
G04 #@! TD*
G04 #@! TA.AperFunction,SMDPad,CuDef*
%ADD15C,1.000000*%
G04 #@! TD*
G04 #@! TA.AperFunction,SMDPad,CuDef*
%ADD16RoundRect,0.150000X-0.587500X-0.150000X0.587500X-0.150000X0.587500X0.150000X-0.587500X0.150000X0*%
G04 #@! TD*
G04 #@! TA.AperFunction,SMDPad,CuDef*
%ADD17RoundRect,0.140000X0.170000X-0.140000X0.170000X0.140000X-0.170000X0.140000X-0.170000X-0.140000X0*%
G04 #@! TD*
G04 #@! TA.AperFunction,SMDPad,CuDef*
%ADD18RoundRect,0.225000X0.250000X-0.225000X0.250000X0.225000X-0.250000X0.225000X-0.250000X-0.225000X0*%
G04 #@! TD*
G04 #@! TA.AperFunction,SMDPad,CuDef*
%ADD19R,1.000000X2.300000*%
G04 #@! TD*
G04 #@! TA.AperFunction,SMDPad,CuDef*
%ADD20R,2.300000X1.000000*%
G04 #@! TD*
G04 #@! TA.AperFunction,SMDPad,CuDef*
%ADD21R,1.000000X1.050000*%
G04 #@! TD*
G04 #@! TA.AperFunction,SMDPad,CuDef*
%ADD22R,1.050000X2.200000*%
G04 #@! TD*
G04 #@! TA.AperFunction,SMDPad,CuDef*
%ADD23RoundRect,0.135000X-0.135000X-0.185000X0.135000X-0.185000X0.135000X0.185000X-0.135000X0.185000X0*%
G04 #@! TD*
G04 #@! TA.AperFunction,SMDPad,CuDef*
%ADD24R,1.400000X1.600000*%
G04 #@! TD*
G04 #@! TA.AperFunction,SMDPad,CuDef*
%ADD25RoundRect,0.140000X0.140000X0.170000X-0.140000X0.170000X-0.140000X-0.170000X0.140000X-0.170000X0*%
G04 #@! TD*
G04 #@! TA.AperFunction,SMDPad,CuDef*
%ADD26R,2.500000X1.800000*%
G04 #@! TD*
G04 #@! TA.AperFunction,SMDPad,CuDef*
%ADD27RoundRect,0.218750X-0.218750X-0.256250X0.218750X-0.256250X0.218750X0.256250X-0.218750X0.256250X0*%
G04 #@! TD*
G04 #@! TA.AperFunction,ViaPad*
%ADD28C,0.800000*%
G04 #@! TD*
G04 #@! TA.AperFunction,Conductor*
%ADD29C,0.250000*%
G04 #@! TD*
G04 #@! TA.AperFunction,Conductor*
%ADD30C,1.045000*%
G04 #@! TD*
G04 APERTURE END LIST*
D10*
X116845000Y-81083000D03*
D11*
X116845000Y-83623000D03*
X116845000Y-86163000D03*
X116845000Y-88703000D03*
X116845000Y-91243000D03*
X116845000Y-93783000D03*
X116845000Y-96323000D03*
X116845000Y-98863000D03*
X116845000Y-101403000D03*
X116845000Y-103943000D03*
X116845000Y-106483000D03*
X116845000Y-109023000D03*
D12*
X139705000Y-81083000D03*
D11*
X139705000Y-83623000D03*
X139705000Y-86163000D03*
X139705000Y-88703000D03*
X139705000Y-91243000D03*
D10*
X139705000Y-93783000D03*
D11*
X139705000Y-96323000D03*
X139705000Y-98863000D03*
X139705000Y-101403000D03*
X139705000Y-103943000D03*
X139705000Y-106483000D03*
X139705000Y-109023000D03*
D13*
X128785000Y-82866000D03*
X127765000Y-82866000D03*
D14*
X129062500Y-91629000D03*
X127487500Y-91629000D03*
D13*
X121292000Y-82104000D03*
X120272000Y-82104000D03*
D15*
X132847000Y-116140000D03*
D16*
X123273500Y-84202000D03*
X123273500Y-86102000D03*
X125148500Y-85152000D03*
D17*
X126878000Y-85124000D03*
X126878000Y-84164000D03*
D18*
X121417000Y-85927000D03*
X121417000Y-84377000D03*
D19*
X132025000Y-95154000D03*
X130775000Y-95154000D03*
X129525000Y-95154000D03*
X128275000Y-95154000D03*
X127025000Y-95154000D03*
X125775000Y-95154000D03*
X124525000Y-95154000D03*
D20*
X122275000Y-97404000D03*
X122275000Y-98654000D03*
X122275000Y-99904000D03*
X122275000Y-101154000D03*
X122275000Y-102404000D03*
X122275000Y-103654000D03*
X122275000Y-104904000D03*
D19*
X124525000Y-107154000D03*
X125775000Y-107154000D03*
X127025000Y-107154000D03*
X128275000Y-107154000D03*
X129525000Y-107154000D03*
X130775000Y-107154000D03*
X132025000Y-107154000D03*
D20*
X134275000Y-104904000D03*
X134275000Y-103654000D03*
X134275000Y-102404000D03*
X134275000Y-101154000D03*
X134275000Y-99904000D03*
X134275000Y-98654000D03*
X134275000Y-97404000D03*
D21*
X125608000Y-114455000D03*
D22*
X124133000Y-115980000D03*
X127083000Y-115980000D03*
D23*
X127765000Y-93026000D03*
X128785000Y-93026000D03*
D24*
X123981000Y-80878000D03*
X123981000Y-73678000D03*
X126981000Y-73678000D03*
X126981000Y-80878000D03*
D18*
X128275000Y-85927000D03*
X128275000Y-84377000D03*
D24*
X132569000Y-73678000D03*
X132569000Y-80878000D03*
X129569000Y-80878000D03*
X129569000Y-73678000D03*
D15*
X125735000Y-78040000D03*
D25*
X131930000Y-92899000D03*
X130970000Y-92899000D03*
D26*
X130974000Y-84898000D03*
X134974000Y-84898000D03*
D27*
X119994500Y-80580000D03*
X121569500Y-80580000D03*
D28*
X134117000Y-82739000D03*
X123830000Y-82739000D03*
X122687000Y-82739000D03*
X125227000Y-98614000D03*
X119893000Y-102424000D03*
X132593000Y-102424000D03*
X130307000Y-82866000D03*
X136149000Y-104964000D03*
X125227000Y-90486000D03*
X132085000Y-97852000D03*
X123957000Y-76262000D03*
X137673000Y-87438000D03*
X124338000Y-105345000D03*
X123787666Y-110848333D03*
X126877998Y-113981000D03*
X125608000Y-115759000D03*
X124464998Y-113981000D03*
X125862000Y-109282000D03*
X123322000Y-106361000D03*
X126200666Y-110848333D03*
X123449000Y-109282000D03*
X124126332Y-112414666D03*
X126539332Y-112414666D03*
X125735000Y-105345000D03*
X123322000Y-107885000D03*
X127767000Y-102170000D03*
X128275000Y-103186000D03*
X129418000Y-104075000D03*
X129545000Y-93153000D03*
X129037000Y-97344000D03*
X128275000Y-95947000D03*
D29*
X128275000Y-95154000D02*
X128275000Y-95947000D01*
X129545000Y-102170000D02*
X131029000Y-103654000D01*
X131029000Y-103654000D02*
X134275000Y-103654000D01*
X127767000Y-102170000D02*
X129545000Y-102170000D01*
X119913000Y-102404000D02*
X122275000Y-102404000D01*
X119893000Y-102424000D02*
X119913000Y-102404000D01*
X117602000Y-101403000D02*
X119853000Y-103654000D01*
X119853000Y-103654000D02*
X122275000Y-103654000D01*
X116845000Y-101403000D02*
X117602000Y-101403000D01*
X123957000Y-97598000D02*
X124211000Y-97344000D01*
X123957000Y-100900000D02*
X123957000Y-97598000D01*
X123703000Y-101154000D02*
X123957000Y-100900000D01*
X124211000Y-97344000D02*
X129037000Y-97344000D01*
X122275000Y-101154000D02*
X123703000Y-101154000D01*
X132295000Y-80878000D02*
X132569000Y-80878000D01*
X130307000Y-82866000D02*
X132295000Y-80878000D01*
X134255000Y-102424000D02*
X134275000Y-102404000D01*
X132593000Y-102424000D02*
X134255000Y-102424000D01*
X129569000Y-73678000D02*
X129569000Y-80878000D01*
X132569000Y-73678000D02*
X132569000Y-80878000D01*
X129569000Y-82082000D02*
X128785000Y-82866000D01*
X129569000Y-80878000D02*
X129569000Y-82082000D01*
X123981000Y-80048000D02*
X123981000Y-80878000D01*
X123957000Y-80024000D02*
X123981000Y-80048000D01*
X123957000Y-76262000D02*
X123957000Y-80024000D01*
X124973000Y-91629000D02*
X127025000Y-93681000D01*
X118369000Y-85147000D02*
X118369000Y-86676000D01*
X118369000Y-86676000D02*
X123322000Y-91629000D01*
X123322000Y-91629000D02*
X124973000Y-91629000D01*
X116845000Y-83623000D02*
X118369000Y-85147000D01*
X127025000Y-93681000D02*
X127025000Y-95154000D01*
X131930000Y-92899000D02*
X131930000Y-87029000D01*
X131930000Y-87029000D02*
X131831000Y-86930000D01*
X131831000Y-86930000D02*
X135895000Y-86930000D01*
X124101500Y-86930000D02*
X123273500Y-86102000D01*
X135895000Y-86930000D02*
X124101500Y-86930000D01*
X135895000Y-86930000D02*
X139202000Y-83623000D01*
X130307000Y-97852000D02*
X132085000Y-97852000D01*
X127025000Y-101134000D02*
X130307000Y-97852000D01*
X127025000Y-107154000D02*
X127025000Y-101134000D01*
X133355000Y-96074000D02*
X132593000Y-96836000D01*
X132593000Y-96836000D02*
X129799000Y-96836000D01*
X129799000Y-96836000D02*
X129525000Y-96562000D01*
X133355000Y-90486000D02*
X133355000Y-96074000D01*
X137678000Y-86163000D02*
X133355000Y-90486000D01*
X129525000Y-96562000D02*
X129525000Y-95154000D01*
X139705000Y-86163000D02*
X137678000Y-86163000D01*
X139202000Y-83623000D02*
X139705000Y-83623000D01*
X123981000Y-80878000D02*
X123981000Y-73678000D01*
X139705000Y-91243000D02*
X137673000Y-89211000D01*
X137673000Y-89211000D02*
X137673000Y-87438000D01*
D30*
X124525000Y-108647000D02*
X125608000Y-113854000D01*
X125608000Y-113854000D02*
X125608000Y-114455000D01*
X124525000Y-107154000D02*
X124525000Y-108647000D01*
D29*
X123098500Y-84377000D02*
X123273500Y-84202000D01*
X123311500Y-84164000D02*
X123273500Y-84202000D01*
X128062000Y-84164000D02*
X126878000Y-84164000D01*
X126878000Y-84164000D02*
X123311500Y-84164000D01*
X121417000Y-84377000D02*
X123098500Y-84377000D01*
X128275000Y-84377000D02*
X128062000Y-84164000D01*
X130775000Y-93094000D02*
X130775000Y-95154000D01*
X130970000Y-92899000D02*
X130775000Y-93094000D01*
X125148500Y-85152000D02*
X126850000Y-85152000D01*
X130974000Y-84898000D02*
X129304000Y-84898000D01*
X127681000Y-85927000D02*
X128275000Y-85927000D01*
X126850000Y-85152000D02*
X126878000Y-85124000D01*
X126878000Y-85124000D02*
X127681000Y-85927000D01*
X129304000Y-84898000D02*
X128275000Y-85927000D01*
X131930000Y-92899000D02*
X132025000Y-92994000D01*
X132025000Y-92994000D02*
X132025000Y-95154000D01*
X120272000Y-82104000D02*
X120272000Y-84782000D01*
X121417000Y-85927000D02*
X123098500Y-85927000D01*
X123098500Y-85927000D02*
X123273500Y-86102000D01*
X120272000Y-84782000D02*
X121417000Y-85927000D01*
X121569500Y-80580000D02*
X121569500Y-81826500D01*
X121569500Y-81826500D02*
X121292000Y-82104000D01*
X127487500Y-92748500D02*
X127487500Y-91629000D01*
X127765000Y-93026000D02*
X127487500Y-92748500D01*
X139705000Y-81083000D02*
X138789000Y-81083000D01*
X138789000Y-81083000D02*
X134974000Y-84898000D01*
X122941000Y-92264000D02*
X124084000Y-92264000D01*
X125775000Y-93955000D02*
X125775000Y-95154000D01*
X116845000Y-86168000D02*
X122941000Y-92264000D01*
X116845000Y-86163000D02*
X116845000Y-86168000D01*
X124084000Y-92264000D02*
X125775000Y-93955000D01*
X124525000Y-95154000D02*
X123296000Y-95154000D01*
X123296000Y-95154000D02*
X116845000Y-88703000D01*
X122275000Y-97404000D02*
X122275000Y-96673000D01*
X122275000Y-96673000D02*
X116845000Y-91243000D01*
X116845000Y-94296000D02*
X116845000Y-93783000D01*
X122275000Y-98654000D02*
X121203000Y-98654000D01*
X121203000Y-98654000D02*
X116845000Y-94296000D01*
X120426000Y-99904000D02*
X116845000Y-96323000D01*
X122275000Y-99904000D02*
X120426000Y-99904000D01*
X128275000Y-103186000D02*
X128275000Y-107154000D01*
X129525000Y-104182000D02*
X129525000Y-107154000D01*
X129418000Y-104075000D02*
X129525000Y-104182000D01*
X128912000Y-93153000D02*
X128785000Y-93026000D01*
X129545000Y-93153000D02*
X128912000Y-93153000D01*
X138166000Y-102404000D02*
X134275000Y-102404000D01*
X139705000Y-103943000D02*
X138166000Y-102404000D01*
X132720000Y-105599000D02*
X133604000Y-106483000D01*
X130942000Y-105599000D02*
X132720000Y-105599000D01*
X130775000Y-105766000D02*
X130942000Y-105599000D01*
X133604000Y-106483000D02*
X139705000Y-106483000D01*
X130775000Y-107154000D02*
X130775000Y-105766000D01*
X138430000Y-109023000D02*
X139705000Y-109023000D01*
X136561000Y-107154000D02*
X138430000Y-109023000D01*
X132025000Y-107154000D02*
X136561000Y-107154000D01*
X139456000Y-101154000D02*
X134275000Y-101154000D01*
X139705000Y-101403000D02*
X139456000Y-101154000D01*
X138664000Y-99904000D02*
X134275000Y-99904000D01*
X139705000Y-98863000D02*
X138664000Y-99904000D01*
X137374000Y-98654000D02*
X134275000Y-98654000D01*
X139705000Y-96323000D02*
X137374000Y-98654000D01*
G04 #@! TA.AperFunction,Conductor*
G36*
X128396921Y-97997502D02*
G01*
X128416147Y-98013843D01*
X128416420Y-98013540D01*
X128421332Y-98017963D01*
X128425747Y-98022866D01*
X128580248Y-98135118D01*
X128586276Y-98137802D01*
X128586278Y-98137803D01*
X128748681Y-98210109D01*
X128754712Y-98212794D01*
X128761170Y-98214167D01*
X128761171Y-98214167D01*
X128771493Y-98216361D01*
X128833967Y-98250088D01*
X128868289Y-98312237D01*
X128863563Y-98383076D01*
X128834393Y-98428703D01*
X126632747Y-100630348D01*
X126624461Y-100637888D01*
X126617982Y-100642000D01*
X126612557Y-100647777D01*
X126571357Y-100691651D01*
X126568602Y-100694493D01*
X126548865Y-100714230D01*
X126546385Y-100717427D01*
X126538682Y-100726447D01*
X126508414Y-100758679D01*
X126504595Y-100765625D01*
X126504593Y-100765628D01*
X126498652Y-100776434D01*
X126487801Y-100792953D01*
X126475386Y-100808959D01*
X126472241Y-100816228D01*
X126472238Y-100816232D01*
X126457826Y-100849537D01*
X126452609Y-100860187D01*
X126431305Y-100898940D01*
X126429334Y-100906615D01*
X126429334Y-100906616D01*
X126426267Y-100918562D01*
X126419863Y-100937266D01*
X126411819Y-100955855D01*
X126410580Y-100963678D01*
X126410577Y-100963688D01*
X126404901Y-100999524D01*
X126402495Y-101011144D01*
X126391500Y-101053970D01*
X126391500Y-101074224D01*
X126389949Y-101093934D01*
X126386780Y-101113943D01*
X126387526Y-101121835D01*
X126390941Y-101157961D01*
X126391500Y-101169819D01*
X126391500Y-105345000D01*
X123933000Y-105345000D01*
X123933000Y-105176115D01*
X123928525Y-105160876D01*
X123927135Y-105159671D01*
X123919452Y-105158000D01*
X122547115Y-105158000D01*
X122531876Y-105162475D01*
X122530671Y-105163865D01*
X122529000Y-105171548D01*
X122529000Y-105893884D01*
X122533475Y-105909123D01*
X122534865Y-105910328D01*
X122542548Y-105911999D01*
X122941000Y-105911999D01*
X122941000Y-117409500D01*
X119434367Y-117409500D01*
X119414982Y-117408000D01*
X119400149Y-117405690D01*
X119400145Y-117405690D01*
X119391276Y-117404309D01*
X119372564Y-117406756D01*
X119349634Y-117407647D01*
X119046497Y-117391760D01*
X119033383Y-117390382D01*
X118705102Y-117338387D01*
X118692202Y-117335645D01*
X118371154Y-117249621D01*
X118358618Y-117245547D01*
X118087532Y-117141487D01*
X118048328Y-117126438D01*
X118036280Y-117121074D01*
X117740133Y-116970180D01*
X117728712Y-116963586D01*
X117449960Y-116782563D01*
X117439290Y-116774810D01*
X117180996Y-116565648D01*
X117171195Y-116556823D01*
X116936177Y-116321805D01*
X116927352Y-116312004D01*
X116718190Y-116053710D01*
X116710437Y-116043040D01*
X116529414Y-115764288D01*
X116522820Y-115752867D01*
X116371926Y-115456720D01*
X116366562Y-115444672D01*
X116324878Y-115336081D01*
X116247453Y-115134382D01*
X116243379Y-115121846D01*
X116157355Y-114800798D01*
X116154613Y-114787898D01*
X116102618Y-114459617D01*
X116101240Y-114446501D01*
X116090454Y-114240703D01*
X117275743Y-114240703D01*
X117313268Y-114525734D01*
X117389129Y-114803036D01*
X117390813Y-114806984D01*
X117483685Y-115024717D01*
X117501923Y-115067476D01*
X117554035Y-115154549D01*
X117643243Y-115303604D01*
X117649561Y-115314161D01*
X117829313Y-115538528D01*
X118037851Y-115736423D01*
X118271317Y-115904186D01*
X118275112Y-115906195D01*
X118275113Y-115906196D01*
X118296869Y-115917715D01*
X118525392Y-116038712D01*
X118553609Y-116049038D01*
X118763817Y-116125963D01*
X118795373Y-116137511D01*
X119076264Y-116198755D01*
X119104841Y-116201004D01*
X119299282Y-116216307D01*
X119299291Y-116216307D01*
X119301739Y-116216500D01*
X119457271Y-116216500D01*
X119459407Y-116216354D01*
X119459418Y-116216354D01*
X119667548Y-116202165D01*
X119667554Y-116202164D01*
X119671825Y-116201873D01*
X119676020Y-116201004D01*
X119676022Y-116201004D01*
X119852071Y-116164546D01*
X119953342Y-116143574D01*
X120224343Y-116047607D01*
X120479812Y-115915750D01*
X120483313Y-115913289D01*
X120483317Y-115913287D01*
X120597417Y-115833096D01*
X120715023Y-115750441D01*
X120925622Y-115554740D01*
X121107713Y-115332268D01*
X121257927Y-115087142D01*
X121373483Y-114823898D01*
X121452244Y-114547406D01*
X121492751Y-114262784D01*
X121492845Y-114244951D01*
X121494235Y-113979583D01*
X121494235Y-113979576D01*
X121494257Y-113975297D01*
X121478885Y-113858531D01*
X121471589Y-113803118D01*
X121456732Y-113690266D01*
X121380871Y-113412964D01*
X121268077Y-113148524D01*
X121120439Y-112901839D01*
X120940687Y-112677472D01*
X120732149Y-112479577D01*
X120498683Y-112311814D01*
X120476843Y-112300250D01*
X120453654Y-112287972D01*
X120244608Y-112177288D01*
X119974627Y-112078489D01*
X119693736Y-112017245D01*
X119662685Y-112014801D01*
X119470718Y-111999693D01*
X119470709Y-111999693D01*
X119468261Y-111999500D01*
X119312729Y-111999500D01*
X119310593Y-111999646D01*
X119310582Y-111999646D01*
X119102452Y-112013835D01*
X119102446Y-112013836D01*
X119098175Y-112014127D01*
X119093980Y-112014996D01*
X119093978Y-112014996D01*
X118957416Y-112043277D01*
X118816658Y-112072426D01*
X118545657Y-112168393D01*
X118290188Y-112300250D01*
X118286687Y-112302711D01*
X118286683Y-112302713D01*
X118276594Y-112309804D01*
X118054977Y-112465559D01*
X117844378Y-112661260D01*
X117662287Y-112883732D01*
X117512073Y-113128858D01*
X117396517Y-113392102D01*
X117317756Y-113668594D01*
X117277249Y-113953216D01*
X117277227Y-113957505D01*
X117277226Y-113957512D01*
X117276195Y-114154416D01*
X117275743Y-114240703D01*
X116090454Y-114240703D01*
X116085932Y-114154413D01*
X116087506Y-114126910D01*
X116087770Y-114125341D01*
X116088576Y-114120552D01*
X116088729Y-114108000D01*
X116084773Y-114080376D01*
X116083500Y-114062514D01*
X116083500Y-110369305D01*
X116103502Y-110301184D01*
X116157158Y-110254691D01*
X116227432Y-110244587D01*
X116255684Y-110253165D01*
X116256000Y-110252338D01*
X116464692Y-110332030D01*
X116469760Y-110333061D01*
X116469763Y-110333062D01*
X116577017Y-110354883D01*
X116683597Y-110376567D01*
X116688772Y-110376757D01*
X116688774Y-110376757D01*
X116901673Y-110384564D01*
X116901677Y-110384564D01*
X116906837Y-110384753D01*
X116911957Y-110384097D01*
X116911959Y-110384097D01*
X117123288Y-110357025D01*
X117123289Y-110357025D01*
X117128416Y-110356368D01*
X117133366Y-110354883D01*
X117337429Y-110293661D01*
X117337434Y-110293659D01*
X117342384Y-110292174D01*
X117542994Y-110193896D01*
X117724860Y-110064173D01*
X117883096Y-109906489D01*
X117942594Y-109823689D01*
X118010435Y-109729277D01*
X118013453Y-109725077D01*
X118044851Y-109661549D01*
X118110136Y-109529453D01*
X118110137Y-109529451D01*
X118112430Y-109524811D01*
X118177370Y-109311069D01*
X118206529Y-109089590D01*
X118208156Y-109023000D01*
X118189852Y-108800361D01*
X118135431Y-108583702D01*
X118046354Y-108378840D01*
X117925014Y-108191277D01*
X117774670Y-108026051D01*
X117770619Y-108022852D01*
X117770615Y-108022848D01*
X117603414Y-107890800D01*
X117603410Y-107890798D01*
X117599359Y-107887598D01*
X117558053Y-107864796D01*
X117508084Y-107814364D01*
X117493312Y-107744921D01*
X117518428Y-107678516D01*
X117545780Y-107651909D01*
X117606500Y-107608598D01*
X117724860Y-107524173D01*
X117883096Y-107366489D01*
X118013453Y-107185077D01*
X118017611Y-107176665D01*
X118110136Y-106989453D01*
X118110137Y-106989451D01*
X118112430Y-106984811D01*
X118177370Y-106771069D01*
X118206529Y-106549590D01*
X118208156Y-106483000D01*
X118189852Y-106260361D01*
X118135431Y-106043702D01*
X118046354Y-105838840D01*
X117983317Y-105741400D01*
X117927822Y-105655617D01*
X117927820Y-105655614D01*
X117925014Y-105651277D01*
X117774670Y-105486051D01*
X117770619Y-105482852D01*
X117770615Y-105482848D01*
X117727337Y-105448669D01*
X120617001Y-105448669D01*
X120617371Y-105455490D01*
X120622895Y-105506352D01*
X120626521Y-105521604D01*
X120671676Y-105642054D01*
X120680214Y-105657649D01*
X120756715Y-105759724D01*
X120769276Y-105772285D01*
X120871351Y-105848786D01*
X120886946Y-105857324D01*
X121007394Y-105902478D01*
X121022649Y-105906105D01*
X121073514Y-105911631D01*
X121080328Y-105912000D01*
X122002885Y-105912000D01*
X122018124Y-105907525D01*
X122019329Y-105906135D01*
X122021000Y-105898452D01*
X122021000Y-105176115D01*
X122016525Y-105160876D01*
X122015135Y-105159671D01*
X122007452Y-105158000D01*
X120635116Y-105158000D01*
X120619877Y-105162475D01*
X120618672Y-105163865D01*
X120617001Y-105171548D01*
X120617001Y-105448669D01*
X117727337Y-105448669D01*
X117603414Y-105350800D01*
X117603410Y-105350798D01*
X117599359Y-105347598D01*
X117558053Y-105324796D01*
X117508084Y-105274364D01*
X117493312Y-105204921D01*
X117518428Y-105138516D01*
X117545780Y-105111909D01*
X117610931Y-105065437D01*
X117724860Y-104984173D01*
X117730151Y-104978901D01*
X117879435Y-104830137D01*
X117883096Y-104826489D01*
X117942594Y-104743689D01*
X118010435Y-104649277D01*
X118013453Y-104645077D01*
X118033451Y-104604615D01*
X118110136Y-104449453D01*
X118110137Y-104449451D01*
X118112430Y-104444811D01*
X118158313Y-104293793D01*
X118175865Y-104236023D01*
X118175865Y-104236021D01*
X118177370Y-104231069D01*
X118206529Y-104009590D01*
X118208156Y-103943000D01*
X118189852Y-103720361D01*
X118135431Y-103503702D01*
X118046354Y-103298840D01*
X117979300Y-103195190D01*
X117927822Y-103115617D01*
X117927820Y-103115614D01*
X117925014Y-103111277D01*
X117774670Y-102946051D01*
X117770619Y-102942852D01*
X117770615Y-102942848D01*
X117603414Y-102810800D01*
X117603410Y-102810798D01*
X117599359Y-102807598D01*
X117558053Y-102784796D01*
X117508084Y-102734364D01*
X117493312Y-102664921D01*
X117518428Y-102598516D01*
X117545779Y-102571910D01*
X117651100Y-102496785D01*
X117718174Y-102473511D01*
X117787182Y-102490194D01*
X117813364Y-102510268D01*
X119349348Y-104046253D01*
X119356888Y-104054539D01*
X119361000Y-104061018D01*
X119366777Y-104066443D01*
X119410651Y-104107643D01*
X119413493Y-104110398D01*
X119433230Y-104130135D01*
X119436427Y-104132615D01*
X119445447Y-104140318D01*
X119477679Y-104170586D01*
X119484625Y-104174405D01*
X119484628Y-104174407D01*
X119495434Y-104180348D01*
X119511953Y-104191199D01*
X119527959Y-104203614D01*
X119535228Y-104206759D01*
X119535232Y-104206762D01*
X119568537Y-104221174D01*
X119579187Y-104226391D01*
X119617940Y-104247695D01*
X119625615Y-104249666D01*
X119625616Y-104249666D01*
X119637562Y-104252733D01*
X119656267Y-104259137D01*
X119674855Y-104267181D01*
X119682678Y-104268420D01*
X119682688Y-104268423D01*
X119718524Y-104274099D01*
X119730144Y-104276505D01*
X119765289Y-104285528D01*
X119772970Y-104287500D01*
X119793224Y-104287500D01*
X119812934Y-104289051D01*
X119832943Y-104292220D01*
X119840835Y-104291474D01*
X119876961Y-104288059D01*
X119888819Y-104287500D01*
X120491000Y-104287500D01*
X120559121Y-104307502D01*
X120605614Y-104361158D01*
X120617000Y-104413500D01*
X120617000Y-104631885D01*
X120621475Y-104647124D01*
X120622865Y-104648329D01*
X120630548Y-104650000D01*
X120980014Y-104650000D01*
X121008165Y-104653301D01*
X121014684Y-104655745D01*
X121022532Y-104656598D01*
X121022534Y-104656598D01*
X121073469Y-104662131D01*
X121076866Y-104662500D01*
X123473134Y-104662500D01*
X123476531Y-104662131D01*
X123527466Y-104656598D01*
X123527468Y-104656598D01*
X123535316Y-104655745D01*
X123541835Y-104653301D01*
X123569986Y-104650000D01*
X123914884Y-104650000D01*
X123930123Y-104645525D01*
X123931328Y-104644135D01*
X123932999Y-104636452D01*
X123932999Y-104359331D01*
X123932629Y-104352510D01*
X123926252Y-104293793D01*
X123928998Y-104293495D01*
X123928940Y-104264554D01*
X123926745Y-104264316D01*
X123933131Y-104205531D01*
X123933500Y-104202134D01*
X123933500Y-103105866D01*
X123926745Y-103043684D01*
X123929174Y-103043420D01*
X123929174Y-103014580D01*
X123926745Y-103014316D01*
X123933131Y-102955531D01*
X123933500Y-102952134D01*
X123933500Y-101855866D01*
X123932216Y-101844049D01*
X123944743Y-101774167D01*
X123996782Y-101720023D01*
X124003243Y-101716471D01*
X124010617Y-101713552D01*
X124017028Y-101708894D01*
X124017032Y-101708892D01*
X124046387Y-101687564D01*
X124056307Y-101681048D01*
X124087535Y-101662580D01*
X124087538Y-101662578D01*
X124094362Y-101658542D01*
X124108683Y-101644221D01*
X124123717Y-101631380D01*
X124133694Y-101624131D01*
X124140107Y-101619472D01*
X124168298Y-101585395D01*
X124176288Y-101576616D01*
X124349247Y-101403657D01*
X124357537Y-101396113D01*
X124364018Y-101392000D01*
X124410659Y-101342332D01*
X124413413Y-101339491D01*
X124433134Y-101319770D01*
X124435612Y-101316575D01*
X124443318Y-101307553D01*
X124468158Y-101281101D01*
X124473586Y-101275321D01*
X124483346Y-101257568D01*
X124494199Y-101241045D01*
X124501753Y-101231306D01*
X124506613Y-101225041D01*
X124524176Y-101184457D01*
X124529383Y-101173827D01*
X124550695Y-101135060D01*
X124552666Y-101127383D01*
X124552668Y-101127378D01*
X124555732Y-101115442D01*
X124562138Y-101096730D01*
X124564652Y-101090922D01*
X124570181Y-101078145D01*
X124571421Y-101070317D01*
X124571423Y-101070310D01*
X124577099Y-101034476D01*
X124579505Y-101022856D01*
X124588528Y-100987711D01*
X124588528Y-100987710D01*
X124590500Y-100980030D01*
X124590500Y-100959776D01*
X124592051Y-100940065D01*
X124593980Y-100927886D01*
X124595220Y-100920057D01*
X124591059Y-100876038D01*
X124590500Y-100864181D01*
X124590500Y-98103500D01*
X124610502Y-98035379D01*
X124664158Y-97988886D01*
X124716500Y-97977500D01*
X128328800Y-97977500D01*
X128396921Y-97997502D01*
G37*
G04 #@! TD.AperFunction*
G04 #@! TA.AperFunction,Conductor*
G36*
X136314527Y-107807502D02*
G01*
X136335501Y-107824405D01*
X137926343Y-109415247D01*
X137933887Y-109423537D01*
X137938000Y-109430018D01*
X137943777Y-109435443D01*
X137987667Y-109476658D01*
X137990509Y-109479413D01*
X138010230Y-109499134D01*
X138013425Y-109501612D01*
X138022447Y-109509318D01*
X138054679Y-109539586D01*
X138061628Y-109543406D01*
X138072432Y-109549346D01*
X138088956Y-109560199D01*
X138104959Y-109572613D01*
X138145543Y-109590176D01*
X138156173Y-109595383D01*
X138194940Y-109616695D01*
X138202617Y-109618666D01*
X138202622Y-109618668D01*
X138214558Y-109621732D01*
X138233266Y-109628137D01*
X138251855Y-109636181D01*
X138259683Y-109637421D01*
X138259690Y-109637423D01*
X138295524Y-109643099D01*
X138307144Y-109645505D01*
X138342289Y-109654528D01*
X138349970Y-109656500D01*
X138370224Y-109656500D01*
X138389934Y-109658051D01*
X138409943Y-109661220D01*
X138417835Y-109660474D01*
X138417836Y-109660474D01*
X138419412Y-109660325D01*
X138420636Y-109660562D01*
X138425758Y-109660723D01*
X138425732Y-109661549D01*
X138489113Y-109673824D01*
X138538708Y-109719930D01*
X138604987Y-109828088D01*
X138751250Y-109996938D01*
X138923126Y-110139632D01*
X139116000Y-110252338D01*
X139324692Y-110332030D01*
X139329760Y-110333061D01*
X139329763Y-110333062D01*
X139437017Y-110354883D01*
X139543597Y-110376567D01*
X139548772Y-110376757D01*
X139548774Y-110376757D01*
X139761673Y-110384564D01*
X139761677Y-110384564D01*
X139766837Y-110384753D01*
X139771957Y-110384097D01*
X139771959Y-110384097D01*
X139983288Y-110357025D01*
X139983289Y-110357025D01*
X139988416Y-110356368D01*
X139993366Y-110354883D01*
X140197429Y-110293661D01*
X140197434Y-110293659D01*
X140202384Y-110292174D01*
X140285070Y-110251666D01*
X140355041Y-110239660D01*
X140420398Y-110267390D01*
X140460388Y-110326052D01*
X140466500Y-110364818D01*
X140466500Y-114058633D01*
X140465000Y-114078018D01*
X140462690Y-114092851D01*
X140462690Y-114092855D01*
X140461309Y-114101724D01*
X140463136Y-114115693D01*
X140463756Y-114120433D01*
X140464647Y-114143366D01*
X140448760Y-114446501D01*
X140447382Y-114459617D01*
X140395387Y-114787898D01*
X140392645Y-114800798D01*
X140306621Y-115121846D01*
X140302547Y-115134382D01*
X140225122Y-115336081D01*
X140183438Y-115444672D01*
X140178074Y-115456720D01*
X140027180Y-115752867D01*
X140020586Y-115764288D01*
X139839563Y-116043040D01*
X139831810Y-116053710D01*
X139622648Y-116312004D01*
X139613823Y-116321805D01*
X139378805Y-116556823D01*
X139369004Y-116565648D01*
X139110710Y-116774810D01*
X139100040Y-116782563D01*
X138821288Y-116963586D01*
X138809867Y-116970180D01*
X138513720Y-117121074D01*
X138501672Y-117126438D01*
X138462468Y-117141487D01*
X138191382Y-117245547D01*
X138178846Y-117249621D01*
X137857798Y-117335645D01*
X137844898Y-117338387D01*
X137516617Y-117390382D01*
X137503501Y-117391760D01*
X137469848Y-117393524D01*
X137207702Y-117407262D01*
X137181727Y-117405935D01*
X137180157Y-117405691D01*
X137180151Y-117405691D01*
X137171276Y-117404309D01*
X137162374Y-117405473D01*
X137162372Y-117405473D01*
X137147323Y-117407441D01*
X137139714Y-117408436D01*
X137123379Y-117409500D01*
X128529000Y-117409500D01*
X128529000Y-116125963D01*
X131841757Y-116125963D01*
X131858175Y-116321483D01*
X131912258Y-116510091D01*
X131915076Y-116515574D01*
X131999123Y-116679113D01*
X131999126Y-116679117D01*
X132001944Y-116684601D01*
X132123818Y-116838369D01*
X132273238Y-116965535D01*
X132278616Y-116968541D01*
X132278618Y-116968542D01*
X132314932Y-116988837D01*
X132444513Y-117061257D01*
X132631118Y-117121889D01*
X132825946Y-117145121D01*
X132832081Y-117144649D01*
X132832083Y-117144649D01*
X133015434Y-117130541D01*
X133015438Y-117130540D01*
X133021576Y-117130068D01*
X133210556Y-117077303D01*
X133385689Y-116988837D01*
X133415515Y-116965535D01*
X133535453Y-116871829D01*
X133540303Y-116868040D01*
X133570084Y-116833539D01*
X133664485Y-116724173D01*
X133664485Y-116724172D01*
X133668509Y-116719511D01*
X133765425Y-116548909D01*
X133827358Y-116362732D01*
X133851949Y-116168071D01*
X133852341Y-116140000D01*
X133833194Y-115944728D01*
X133831413Y-115938829D01*
X133831412Y-115938824D01*
X133778265Y-115762793D01*
X133776484Y-115756894D01*
X133684370Y-115583653D01*
X133560361Y-115431602D01*
X133409180Y-115306535D01*
X133236585Y-115213213D01*
X133142869Y-115184203D01*
X133055039Y-115157015D01*
X133055036Y-115157014D01*
X133049152Y-115155193D01*
X133043027Y-115154549D01*
X133043026Y-115154549D01*
X132860147Y-115135327D01*
X132860146Y-115135327D01*
X132854019Y-115134683D01*
X132731383Y-115145844D01*
X132664759Y-115151907D01*
X132664758Y-115151907D01*
X132658618Y-115152466D01*
X132652704Y-115154207D01*
X132652702Y-115154207D01*
X132523734Y-115192165D01*
X132470393Y-115207864D01*
X132464928Y-115210721D01*
X132301972Y-115295912D01*
X132301968Y-115295915D01*
X132296512Y-115298767D01*
X132291712Y-115302627D01*
X132291711Y-115302627D01*
X132281945Y-115310479D01*
X132143600Y-115421711D01*
X132017480Y-115572016D01*
X132014516Y-115577408D01*
X132014513Y-115577412D01*
X131935813Y-115720567D01*
X131922956Y-115743954D01*
X131921095Y-115749821D01*
X131921094Y-115749823D01*
X131893292Y-115837466D01*
X131863628Y-115930978D01*
X131841757Y-116125963D01*
X128529000Y-116125963D01*
X128529000Y-114240703D01*
X135055743Y-114240703D01*
X135093268Y-114525734D01*
X135169129Y-114803036D01*
X135170813Y-114806984D01*
X135263685Y-115024717D01*
X135281923Y-115067476D01*
X135334035Y-115154549D01*
X135423243Y-115303604D01*
X135429561Y-115314161D01*
X135609313Y-115538528D01*
X135817851Y-115736423D01*
X136051317Y-115904186D01*
X136055112Y-115906195D01*
X136055113Y-115906196D01*
X136076869Y-115917715D01*
X136305392Y-116038712D01*
X136333609Y-116049038D01*
X136543817Y-116125963D01*
X136575373Y-116137511D01*
X136856264Y-116198755D01*
X136884841Y-116201004D01*
X137079282Y-116216307D01*
X137079291Y-116216307D01*
X137081739Y-116216500D01*
X137237271Y-116216500D01*
X137239407Y-116216354D01*
X137239418Y-116216354D01*
X137447548Y-116202165D01*
X137447554Y-116202164D01*
X137451825Y-116201873D01*
X137456020Y-116201004D01*
X137456022Y-116201004D01*
X137632071Y-116164546D01*
X137733342Y-116143574D01*
X138004343Y-116047607D01*
X138259812Y-115915750D01*
X138263313Y-115913289D01*
X138263317Y-115913287D01*
X138377417Y-115833096D01*
X138495023Y-115750441D01*
X138705622Y-115554740D01*
X138887713Y-115332268D01*
X139037927Y-115087142D01*
X139153483Y-114823898D01*
X139232244Y-114547406D01*
X139272751Y-114262784D01*
X139272845Y-114244951D01*
X139274235Y-113979583D01*
X139274235Y-113979576D01*
X139274257Y-113975297D01*
X139258885Y-113858531D01*
X139251589Y-113803118D01*
X139236732Y-113690266D01*
X139160871Y-113412964D01*
X139048077Y-113148524D01*
X138900439Y-112901839D01*
X138720687Y-112677472D01*
X138512149Y-112479577D01*
X138278683Y-112311814D01*
X138256843Y-112300250D01*
X138233654Y-112287972D01*
X138024608Y-112177288D01*
X137754627Y-112078489D01*
X137473736Y-112017245D01*
X137442685Y-112014801D01*
X137250718Y-111999693D01*
X137250709Y-111999693D01*
X137248261Y-111999500D01*
X137092729Y-111999500D01*
X137090593Y-111999646D01*
X137090582Y-111999646D01*
X136882452Y-112013835D01*
X136882446Y-112013836D01*
X136878175Y-112014127D01*
X136873980Y-112014996D01*
X136873978Y-112014996D01*
X136737416Y-112043277D01*
X136596658Y-112072426D01*
X136325657Y-112168393D01*
X136070188Y-112300250D01*
X136066687Y-112302711D01*
X136066683Y-112302713D01*
X136056594Y-112309804D01*
X135834977Y-112465559D01*
X135624378Y-112661260D01*
X135442287Y-112883732D01*
X135292073Y-113128858D01*
X135176517Y-113392102D01*
X135097756Y-113668594D01*
X135057249Y-113953216D01*
X135057227Y-113957505D01*
X135057226Y-113957512D01*
X135056195Y-114154416D01*
X135055743Y-114240703D01*
X128529000Y-114240703D01*
X128529000Y-113473000D01*
X126624000Y-113473000D01*
X126624000Y-108812500D01*
X127573134Y-108812500D01*
X127635316Y-108805745D01*
X127635580Y-108808174D01*
X127664420Y-108808174D01*
X127664684Y-108805745D01*
X127726866Y-108812500D01*
X128823134Y-108812500D01*
X128885316Y-108805745D01*
X128885580Y-108808174D01*
X128914420Y-108808174D01*
X128914684Y-108805745D01*
X128976866Y-108812500D01*
X130073134Y-108812500D01*
X130135316Y-108805745D01*
X130135580Y-108808174D01*
X130164420Y-108808174D01*
X130164684Y-108805745D01*
X130226866Y-108812500D01*
X131323134Y-108812500D01*
X131385316Y-108805745D01*
X131385580Y-108808174D01*
X131414420Y-108808174D01*
X131414684Y-108805745D01*
X131476866Y-108812500D01*
X132573134Y-108812500D01*
X132635316Y-108805745D01*
X132771705Y-108754615D01*
X132888261Y-108667261D01*
X132975615Y-108550705D01*
X133026745Y-108414316D01*
X133033500Y-108352134D01*
X133033500Y-107913500D01*
X133053502Y-107845379D01*
X133107158Y-107798886D01*
X133159500Y-107787500D01*
X136246406Y-107787500D01*
X136314527Y-107807502D01*
G37*
G04 #@! TD.AperFunction*
G04 #@! TA.AperFunction,Conductor*
G36*
X137919527Y-103057502D02*
G01*
X137940501Y-103074405D01*
X138354778Y-103488682D01*
X138388804Y-103550994D01*
X138387100Y-103611448D01*
X138365989Y-103687570D01*
X138365441Y-103692700D01*
X138365440Y-103692704D01*
X138361933Y-103725522D01*
X138342251Y-103909695D01*
X138342548Y-103914848D01*
X138342548Y-103914851D01*
X138351782Y-104075000D01*
X138355110Y-104132715D01*
X138356247Y-104137761D01*
X138356248Y-104137767D01*
X138370754Y-104202134D01*
X138404222Y-104350639D01*
X138488266Y-104557616D01*
X138604987Y-104748088D01*
X138751250Y-104916938D01*
X138923126Y-105059632D01*
X138993595Y-105100811D01*
X138996445Y-105102476D01*
X139045169Y-105154114D01*
X139058240Y-105223897D01*
X139031509Y-105289669D01*
X138991055Y-105323027D01*
X138978607Y-105329507D01*
X138974474Y-105332610D01*
X138974471Y-105332612D01*
X138810818Y-105455486D01*
X138799965Y-105463635D01*
X138645629Y-105625138D01*
X138642715Y-105629410D01*
X138642714Y-105629411D01*
X138530095Y-105794504D01*
X138475184Y-105839507D01*
X138426007Y-105849500D01*
X135977382Y-105849500D01*
X135909261Y-105829498D01*
X135862768Y-105775842D01*
X135852664Y-105705568D01*
X135866862Y-105662992D01*
X135878321Y-105642061D01*
X135923478Y-105521606D01*
X135927105Y-105506351D01*
X135932631Y-105455486D01*
X135933000Y-105448672D01*
X135933000Y-105176115D01*
X135928525Y-105160876D01*
X135927135Y-105159671D01*
X135919452Y-105158000D01*
X133226857Y-105158000D01*
X133158736Y-105137998D01*
X133143529Y-105126512D01*
X133142583Y-105125678D01*
X133139770Y-105122865D01*
X133136573Y-105120385D01*
X133127551Y-105112680D01*
X133116685Y-105102476D01*
X133095321Y-105082414D01*
X133088375Y-105078595D01*
X133088372Y-105078593D01*
X133077566Y-105072652D01*
X133061047Y-105061801D01*
X133060583Y-105061441D01*
X133045041Y-105049386D01*
X133037772Y-105046241D01*
X133037768Y-105046238D01*
X133004463Y-105031826D01*
X132993813Y-105026609D01*
X132955060Y-105005305D01*
X132935437Y-105000267D01*
X132916734Y-104993863D01*
X132905420Y-104988967D01*
X132905419Y-104988967D01*
X132898145Y-104985819D01*
X132890322Y-104984580D01*
X132890312Y-104984577D01*
X132854476Y-104978901D01*
X132842856Y-104976495D01*
X132807711Y-104967472D01*
X132807710Y-104967472D01*
X132800030Y-104965500D01*
X132779776Y-104965500D01*
X132760065Y-104963949D01*
X132747886Y-104962020D01*
X132740057Y-104960780D01*
X132710786Y-104963547D01*
X132696039Y-104964941D01*
X132684181Y-104965500D01*
X131020768Y-104965500D01*
X131009585Y-104964973D01*
X131002092Y-104963298D01*
X130994166Y-104963547D01*
X130994165Y-104963547D01*
X130934002Y-104965438D01*
X130930044Y-104965500D01*
X130902144Y-104965500D01*
X130898154Y-104966004D01*
X130886320Y-104966936D01*
X130842111Y-104968326D01*
X130834495Y-104970539D01*
X130834493Y-104970539D01*
X130822652Y-104973979D01*
X130803293Y-104977988D01*
X130801983Y-104978154D01*
X130783203Y-104980526D01*
X130775837Y-104983442D01*
X130775831Y-104983444D01*
X130742098Y-104996800D01*
X130730868Y-105000645D01*
X130714828Y-105005305D01*
X130688407Y-105012981D01*
X130681584Y-105017016D01*
X130670966Y-105023295D01*
X130653213Y-105031992D01*
X130645568Y-105035019D01*
X130634383Y-105039448D01*
X130620705Y-105049386D01*
X130598612Y-105065437D01*
X130588695Y-105071951D01*
X130550638Y-105094458D01*
X130536314Y-105108782D01*
X130521287Y-105121617D01*
X130504893Y-105133528D01*
X130499840Y-105139636D01*
X130499838Y-105139638D01*
X130476708Y-105167598D01*
X130468718Y-105176378D01*
X130382749Y-105262347D01*
X130374463Y-105269888D01*
X130367982Y-105274000D01*
X130363970Y-105278272D01*
X130299579Y-105305919D01*
X130229554Y-105294213D01*
X130176974Y-105246507D01*
X130158500Y-105180825D01*
X130158500Y-104643176D01*
X130175381Y-104580176D01*
X130185864Y-104562020D01*
X130252527Y-104446556D01*
X130311542Y-104264928D01*
X130313353Y-104247695D01*
X130324787Y-104138911D01*
X130351800Y-104073254D01*
X130410022Y-104032625D01*
X130480967Y-104029922D01*
X130535810Y-104062286D01*
X130537000Y-104061018D01*
X130586651Y-104107643D01*
X130589493Y-104110398D01*
X130609230Y-104130135D01*
X130612427Y-104132615D01*
X130621447Y-104140318D01*
X130653679Y-104170586D01*
X130660625Y-104174405D01*
X130660628Y-104174407D01*
X130671434Y-104180348D01*
X130687953Y-104191199D01*
X130703959Y-104203614D01*
X130711228Y-104206759D01*
X130711232Y-104206762D01*
X130744537Y-104221174D01*
X130755187Y-104226391D01*
X130793940Y-104247695D01*
X130801615Y-104249666D01*
X130801616Y-104249666D01*
X130813562Y-104252733D01*
X130832267Y-104259137D01*
X130850855Y-104267181D01*
X130858678Y-104268420D01*
X130858688Y-104268423D01*
X130894524Y-104274099D01*
X130906144Y-104276505D01*
X130941289Y-104285528D01*
X130948970Y-104287500D01*
X130969224Y-104287500D01*
X130988934Y-104289051D01*
X131008943Y-104292220D01*
X131016835Y-104291474D01*
X131052961Y-104288059D01*
X131064819Y-104287500D01*
X132491000Y-104287500D01*
X132559121Y-104307502D01*
X132605614Y-104361158D01*
X132617000Y-104413500D01*
X132617000Y-104631885D01*
X132621475Y-104647124D01*
X132622865Y-104648329D01*
X132630548Y-104650000D01*
X132980014Y-104650000D01*
X133008165Y-104653301D01*
X133014684Y-104655745D01*
X133022532Y-104656598D01*
X133022534Y-104656598D01*
X133073469Y-104662131D01*
X133076866Y-104662500D01*
X135473134Y-104662500D01*
X135476531Y-104662131D01*
X135527466Y-104656598D01*
X135527468Y-104656598D01*
X135535316Y-104655745D01*
X135541835Y-104653301D01*
X135569986Y-104650000D01*
X135914884Y-104650000D01*
X135930123Y-104645525D01*
X135931328Y-104644135D01*
X135932999Y-104636452D01*
X135932999Y-104359331D01*
X135932629Y-104352510D01*
X135926252Y-104293793D01*
X135928998Y-104293495D01*
X135928940Y-104264554D01*
X135926745Y-104264316D01*
X135933131Y-104205531D01*
X135933500Y-104202134D01*
X135933500Y-103163500D01*
X135953502Y-103095379D01*
X136007158Y-103048886D01*
X136059500Y-103037500D01*
X137851406Y-103037500D01*
X137919527Y-103057502D01*
G37*
G04 #@! TD.AperFunction*
G04 #@! TA.AperFunction,Conductor*
G36*
X136891707Y-87949363D02*
G01*
X136941311Y-87983108D01*
X137007137Y-88056215D01*
X137037853Y-88120220D01*
X137039500Y-88140524D01*
X137039500Y-89132233D01*
X137038973Y-89143416D01*
X137037298Y-89150909D01*
X137037547Y-89158835D01*
X137037547Y-89158836D01*
X137039438Y-89218986D01*
X137039500Y-89222945D01*
X137039500Y-89250856D01*
X137039997Y-89254790D01*
X137039997Y-89254791D01*
X137040005Y-89254856D01*
X137040938Y-89266693D01*
X137042327Y-89310889D01*
X137047978Y-89330339D01*
X137051987Y-89349700D01*
X137054526Y-89369797D01*
X137057445Y-89377168D01*
X137057445Y-89377170D01*
X137070804Y-89410912D01*
X137074649Y-89422142D01*
X137086982Y-89464593D01*
X137091015Y-89471412D01*
X137091017Y-89471417D01*
X137097293Y-89482028D01*
X137105988Y-89499776D01*
X137113448Y-89518617D01*
X137118110Y-89525033D01*
X137118110Y-89525034D01*
X137139436Y-89554387D01*
X137145952Y-89564307D01*
X137168458Y-89602362D01*
X137182779Y-89616683D01*
X137195619Y-89631716D01*
X137207528Y-89648107D01*
X137213634Y-89653158D01*
X137241605Y-89676298D01*
X137250384Y-89684288D01*
X138354777Y-90788682D01*
X138388803Y-90850994D01*
X138387100Y-90911446D01*
X138365989Y-90987570D01*
X138342251Y-91209695D01*
X138342548Y-91214848D01*
X138342548Y-91214851D01*
X138348011Y-91309590D01*
X138355110Y-91432715D01*
X138356247Y-91437761D01*
X138356248Y-91437767D01*
X138376119Y-91525939D01*
X138404222Y-91650639D01*
X138488266Y-91857616D01*
X138490965Y-91862020D01*
X138596956Y-92034982D01*
X138604987Y-92048088D01*
X138751250Y-92216938D01*
X138755225Y-92220238D01*
X138755231Y-92220244D01*
X138760425Y-92224556D01*
X138800059Y-92283460D01*
X138801555Y-92354441D01*
X138764439Y-92414962D01*
X138724168Y-92439480D01*
X138616946Y-92479676D01*
X138601351Y-92488214D01*
X138499276Y-92564715D01*
X138486715Y-92577276D01*
X138410214Y-92679351D01*
X138401676Y-92694946D01*
X138356522Y-92815394D01*
X138352895Y-92830649D01*
X138347369Y-92881514D01*
X138347000Y-92888328D01*
X138347000Y-93510885D01*
X138351475Y-93526124D01*
X138352865Y-93527329D01*
X138360548Y-93529000D01*
X139833000Y-93529000D01*
X139901121Y-93549002D01*
X139947614Y-93602658D01*
X139959000Y-93655000D01*
X139959000Y-93911000D01*
X139938998Y-93979121D01*
X139885342Y-94025614D01*
X139833000Y-94037000D01*
X138365116Y-94037000D01*
X138349877Y-94041475D01*
X138348672Y-94042865D01*
X138347001Y-94050548D01*
X138347001Y-94677669D01*
X138347371Y-94684490D01*
X138352895Y-94735352D01*
X138356521Y-94750604D01*
X138401676Y-94871054D01*
X138410214Y-94886649D01*
X138486715Y-94988724D01*
X138499276Y-95001285D01*
X138601351Y-95077786D01*
X138616946Y-95086324D01*
X138725827Y-95127142D01*
X138782591Y-95169784D01*
X138807291Y-95236345D01*
X138792083Y-95305694D01*
X138772691Y-95332175D01*
X138711112Y-95396614D01*
X138645629Y-95465138D01*
X138519743Y-95649680D01*
X138425688Y-95852305D01*
X138365989Y-96067570D01*
X138342251Y-96289695D01*
X138342548Y-96294848D01*
X138342548Y-96294851D01*
X138351229Y-96445411D01*
X138355110Y-96512715D01*
X138356247Y-96517761D01*
X138356248Y-96517767D01*
X138388453Y-96660668D01*
X138383917Y-96731520D01*
X138354631Y-96777464D01*
X137148500Y-97983595D01*
X137086188Y-98017621D01*
X137059405Y-98020500D01*
X136059500Y-98020500D01*
X135991379Y-98000498D01*
X135944886Y-97946842D01*
X135933500Y-97894500D01*
X135933500Y-96855866D01*
X135926745Y-96793684D01*
X135875615Y-96657295D01*
X135788261Y-96540739D01*
X135671705Y-96453385D01*
X135535316Y-96402255D01*
X135473134Y-96395500D01*
X134093003Y-96395500D01*
X134024882Y-96375498D01*
X133978389Y-96321842D01*
X133968555Y-96249786D01*
X133975099Y-96208475D01*
X133977505Y-96196856D01*
X133986528Y-96161711D01*
X133986528Y-96161710D01*
X133988500Y-96154030D01*
X133988500Y-96133776D01*
X133990051Y-96114065D01*
X133991980Y-96101886D01*
X133993220Y-96094057D01*
X133989059Y-96050038D01*
X133988500Y-96038181D01*
X133988500Y-90800594D01*
X134008502Y-90732473D01*
X134025405Y-90711499D01*
X136758580Y-87978324D01*
X136820892Y-87944298D01*
X136891707Y-87949363D01*
G37*
G04 #@! TD.AperFunction*
G04 #@! TA.AperFunction,Conductor*
G36*
X122714621Y-72726502D02*
G01*
X122761114Y-72780158D01*
X122772500Y-72832500D01*
X122772500Y-74526134D01*
X122779255Y-74588316D01*
X122830385Y-74724705D01*
X122917739Y-74841261D01*
X123034295Y-74928615D01*
X123170684Y-74979745D01*
X123232866Y-74986500D01*
X123232742Y-74987639D01*
X123295234Y-75009711D01*
X123338768Y-75065794D01*
X123347500Y-75111884D01*
X123347500Y-75532821D01*
X123327498Y-75600942D01*
X123315136Y-75617131D01*
X123267136Y-75670441D01*
X123217960Y-75725056D01*
X123214659Y-75730774D01*
X123128744Y-75879583D01*
X123122473Y-75890444D01*
X123063458Y-76072072D01*
X123043496Y-76262000D01*
X123044186Y-76268565D01*
X123060258Y-76421478D01*
X123063458Y-76451928D01*
X123122473Y-76633556D01*
X123217960Y-76798944D01*
X123291137Y-76880215D01*
X123321853Y-76944221D01*
X123323500Y-76964524D01*
X123323500Y-79446601D01*
X123303498Y-79514722D01*
X123249842Y-79561215D01*
X123211109Y-79571864D01*
X123170684Y-79576255D01*
X123034295Y-79627385D01*
X122917739Y-79714739D01*
X122830385Y-79831295D01*
X122779255Y-79967684D01*
X122772500Y-80029866D01*
X122772500Y-81726134D01*
X122779255Y-81788316D01*
X122830385Y-81924705D01*
X122917739Y-82041261D01*
X123034295Y-82128615D01*
X123170684Y-82179745D01*
X123232866Y-82186500D01*
X124729134Y-82186500D01*
X124791316Y-82179745D01*
X124927705Y-82128615D01*
X125044261Y-82041261D01*
X125131615Y-81924705D01*
X125182745Y-81788316D01*
X125189500Y-81726134D01*
X125189500Y-81722669D01*
X125773001Y-81722669D01*
X125773371Y-81729490D01*
X125778895Y-81780352D01*
X125782521Y-81795604D01*
X125827676Y-81916054D01*
X125836214Y-81931649D01*
X125912715Y-82033724D01*
X125925276Y-82046285D01*
X126027351Y-82122786D01*
X126042946Y-82131324D01*
X126163394Y-82176478D01*
X126178649Y-82180105D01*
X126229514Y-82185631D01*
X126236327Y-82186000D01*
X126708885Y-82185999D01*
X126724124Y-82181524D01*
X126725329Y-82180134D01*
X126727000Y-82172451D01*
X126727000Y-81150115D01*
X126722525Y-81134876D01*
X126721135Y-81133671D01*
X126713452Y-81132000D01*
X125791116Y-81132000D01*
X125775877Y-81136475D01*
X125774672Y-81137865D01*
X125773001Y-81145548D01*
X125773001Y-81722669D01*
X125189500Y-81722669D01*
X125189500Y-80605885D01*
X125773000Y-80605885D01*
X125777475Y-80621124D01*
X125778865Y-80622329D01*
X125786548Y-80624000D01*
X126708885Y-80624000D01*
X126724124Y-80619525D01*
X126725329Y-80618135D01*
X126727000Y-80610452D01*
X126727000Y-79588116D01*
X126722525Y-79572877D01*
X126721135Y-79571672D01*
X126713452Y-79570001D01*
X126236331Y-79570001D01*
X126229510Y-79570371D01*
X126178648Y-79575895D01*
X126163396Y-79579521D01*
X126042946Y-79624676D01*
X126027351Y-79633214D01*
X125925276Y-79709715D01*
X125912715Y-79722276D01*
X125836214Y-79824351D01*
X125827676Y-79839946D01*
X125782522Y-79960394D01*
X125778895Y-79975649D01*
X125773369Y-80026514D01*
X125773000Y-80033328D01*
X125773000Y-80605885D01*
X125189500Y-80605885D01*
X125189500Y-80029866D01*
X125182745Y-79967684D01*
X125131615Y-79831295D01*
X125044261Y-79714739D01*
X124927705Y-79627385D01*
X124791316Y-79576255D01*
X124729134Y-79569500D01*
X124729258Y-79568361D01*
X124666766Y-79546289D01*
X124623232Y-79490206D01*
X124614500Y-79444116D01*
X124614500Y-78569465D01*
X124634502Y-78501344D01*
X124688158Y-78454851D01*
X124758432Y-78444747D01*
X124823012Y-78474241D01*
X124852564Y-78511867D01*
X124889944Y-78584601D01*
X125011818Y-78738369D01*
X125161238Y-78865535D01*
X125166616Y-78868541D01*
X125166618Y-78868542D01*
X125202932Y-78888837D01*
X125332513Y-78961257D01*
X125519118Y-79021889D01*
X125713946Y-79045121D01*
X125720081Y-79044649D01*
X125720083Y-79044649D01*
X125903434Y-79030541D01*
X125903438Y-79030540D01*
X125909576Y-79030068D01*
X126098556Y-78977303D01*
X126273689Y-78888837D01*
X126303515Y-78865535D01*
X126423453Y-78771829D01*
X126428303Y-78768040D01*
X126458084Y-78733539D01*
X126552485Y-78624173D01*
X126552485Y-78624172D01*
X126556509Y-78619511D01*
X126579455Y-78579120D01*
X126617657Y-78511871D01*
X126653425Y-78448909D01*
X126715358Y-78262732D01*
X126739949Y-78068071D01*
X126740341Y-78040000D01*
X126721194Y-77844728D01*
X126719413Y-77838829D01*
X126719412Y-77838824D01*
X126666265Y-77662793D01*
X126664484Y-77656894D01*
X126572370Y-77483653D01*
X126448361Y-77331602D01*
X126297180Y-77206535D01*
X126124585Y-77113213D01*
X126030868Y-77084203D01*
X125943039Y-77057015D01*
X125943036Y-77057014D01*
X125937152Y-77055193D01*
X125931027Y-77054549D01*
X125931026Y-77054549D01*
X125748147Y-77035327D01*
X125748146Y-77035327D01*
X125742019Y-77034683D01*
X125619383Y-77045844D01*
X125552759Y-77051907D01*
X125552758Y-77051907D01*
X125546618Y-77052466D01*
X125540704Y-77054207D01*
X125540702Y-77054207D01*
X125411734Y-77092165D01*
X125358393Y-77107864D01*
X125352928Y-77110721D01*
X125189972Y-77195912D01*
X125189968Y-77195915D01*
X125184512Y-77198767D01*
X125179712Y-77202627D01*
X125179711Y-77202627D01*
X125169945Y-77210479D01*
X125031600Y-77321711D01*
X124905480Y-77472016D01*
X124902516Y-77477408D01*
X124902513Y-77477412D01*
X124850915Y-77571269D01*
X124800569Y-77621328D01*
X124731152Y-77636221D01*
X124664703Y-77611220D01*
X124622319Y-77554263D01*
X124614500Y-77510568D01*
X124614500Y-76937870D01*
X124634502Y-76869749D01*
X124646864Y-76853559D01*
X124691621Y-76803852D01*
X124691625Y-76803847D01*
X124696040Y-76798944D01*
X124791527Y-76633556D01*
X124850542Y-76451928D01*
X124853743Y-76421478D01*
X124869814Y-76268565D01*
X124870504Y-76262000D01*
X124850542Y-76072072D01*
X124791527Y-75890444D01*
X124785257Y-75879583D01*
X124699343Y-75730777D01*
X124699341Y-75730774D01*
X124696040Y-75725056D01*
X124646864Y-75670440D01*
X124616147Y-75606433D01*
X124614500Y-75586130D01*
X124614500Y-75111884D01*
X124634502Y-75043763D01*
X124688158Y-74997270D01*
X124729207Y-74987174D01*
X124729134Y-74986500D01*
X124791316Y-74979745D01*
X124927705Y-74928615D01*
X125044261Y-74841261D01*
X125131615Y-74724705D01*
X125182745Y-74588316D01*
X125189500Y-74526134D01*
X125189500Y-74522669D01*
X125773001Y-74522669D01*
X125773371Y-74529490D01*
X125778895Y-74580352D01*
X125782521Y-74595604D01*
X125827676Y-74716054D01*
X125836214Y-74731649D01*
X125912715Y-74833724D01*
X125925276Y-74846285D01*
X126027351Y-74922786D01*
X126042946Y-74931324D01*
X126163394Y-74976478D01*
X126178649Y-74980105D01*
X126229514Y-74985631D01*
X126236328Y-74986000D01*
X126708885Y-74986000D01*
X126724124Y-74981525D01*
X126725329Y-74980135D01*
X126727000Y-74972452D01*
X126727000Y-73950115D01*
X126722525Y-73934876D01*
X126721135Y-73933671D01*
X126713452Y-73932000D01*
X125791116Y-73932000D01*
X125775877Y-73936475D01*
X125774672Y-73937865D01*
X125773001Y-73945548D01*
X125773001Y-74522669D01*
X125189500Y-74522669D01*
X125189500Y-72832500D01*
X125209502Y-72764379D01*
X125263158Y-72717886D01*
X125315500Y-72706500D01*
X125647000Y-72706500D01*
X125715121Y-72726502D01*
X125761614Y-72780158D01*
X125773000Y-72832500D01*
X125773000Y-73405885D01*
X125777475Y-73421124D01*
X125778865Y-73422329D01*
X125786548Y-73424000D01*
X127109000Y-73424000D01*
X127177121Y-73444002D01*
X127223614Y-73497658D01*
X127235000Y-73550000D01*
X127235000Y-74967884D01*
X127239475Y-74983123D01*
X127240865Y-74984328D01*
X127248548Y-74985999D01*
X127725669Y-74985999D01*
X127732490Y-74985629D01*
X127783352Y-74980105D01*
X127798604Y-74976479D01*
X127919054Y-74931324D01*
X127934649Y-74922786D01*
X128036724Y-74846285D01*
X128049285Y-74833724D01*
X128125786Y-74731649D01*
X128134325Y-74716052D01*
X128156751Y-74656231D01*
X128199392Y-74599466D01*
X128265954Y-74574766D01*
X128335303Y-74589973D01*
X128385421Y-74640259D01*
X128392715Y-74656231D01*
X128418385Y-74724705D01*
X128505739Y-74841261D01*
X128622295Y-74928615D01*
X128758684Y-74979745D01*
X128820866Y-74986500D01*
X128820742Y-74987639D01*
X128883234Y-75009711D01*
X128926768Y-75065794D01*
X128935500Y-75111884D01*
X128935500Y-79444116D01*
X128915498Y-79512237D01*
X128861842Y-79558730D01*
X128820793Y-79568826D01*
X128820866Y-79569500D01*
X128758684Y-79576255D01*
X128622295Y-79627385D01*
X128505739Y-79714739D01*
X128418385Y-79831295D01*
X128415233Y-79839703D01*
X128415232Y-79839705D01*
X128392715Y-79899769D01*
X128350074Y-79956534D01*
X128283512Y-79981234D01*
X128214163Y-79966027D01*
X128164045Y-79915741D01*
X128156751Y-79899769D01*
X128134325Y-79839948D01*
X128125786Y-79824351D01*
X128049285Y-79722276D01*
X128036724Y-79709715D01*
X127934649Y-79633214D01*
X127919054Y-79624676D01*
X127798606Y-79579522D01*
X127783351Y-79575895D01*
X127732486Y-79570369D01*
X127725672Y-79570000D01*
X127253115Y-79570000D01*
X127237876Y-79574475D01*
X127236671Y-79575865D01*
X127235000Y-79583548D01*
X127235000Y-82119573D01*
X127214998Y-82187694D01*
X127183846Y-82214687D01*
X127186603Y-82218108D01*
X127170884Y-82230776D01*
X127123501Y-82278159D01*
X127113854Y-82290595D01*
X127039230Y-82416778D01*
X127032981Y-82431217D01*
X126991662Y-82573436D01*
X126989363Y-82586023D01*
X126988740Y-82593943D01*
X126991910Y-82609030D01*
X127003374Y-82612000D01*
X127880500Y-82612000D01*
X127948621Y-82632002D01*
X127995114Y-82685658D01*
X128006500Y-82738000D01*
X128006501Y-82994000D01*
X127986499Y-83062120D01*
X127932844Y-83108613D01*
X127880501Y-83120000D01*
X127005434Y-83120000D01*
X126990639Y-83124344D01*
X126988579Y-83136003D01*
X126989363Y-83145977D01*
X126991662Y-83158564D01*
X127032981Y-83300783D01*
X127039230Y-83315222D01*
X127042294Y-83320404D01*
X127076228Y-83352088D01*
X127096737Y-83363787D01*
X127129597Y-83426721D01*
X127132000Y-83451210D01*
X127132000Y-83891885D01*
X127136475Y-83907124D01*
X127137865Y-83908329D01*
X127145548Y-83910000D01*
X127610000Y-83910000D01*
X127678121Y-83930002D01*
X127724614Y-83983658D01*
X127736000Y-84036000D01*
X127736000Y-84104885D01*
X127740475Y-84120124D01*
X127741865Y-84121329D01*
X127749548Y-84123000D01*
X128403000Y-84123000D01*
X128471121Y-84143002D01*
X128517614Y-84196658D01*
X128529000Y-84249000D01*
X128529000Y-84505000D01*
X128508998Y-84573121D01*
X128455342Y-84619614D01*
X128403000Y-84631000D01*
X127661902Y-84631000D01*
X127593781Y-84610998D01*
X127565545Y-84585159D01*
X127564488Y-84583371D01*
X127448629Y-84467512D01*
X127441808Y-84463478D01*
X127314420Y-84388141D01*
X127314419Y-84388141D01*
X127307597Y-84384106D01*
X127299986Y-84381895D01*
X127299984Y-84381894D01*
X127249005Y-84367084D01*
X127150254Y-84338394D01*
X127143849Y-84337890D01*
X127143844Y-84337889D01*
X127115940Y-84335693D01*
X127115932Y-84335693D01*
X127113484Y-84335500D01*
X126642516Y-84335500D01*
X126640068Y-84335693D01*
X126640060Y-84335693D01*
X126612156Y-84337889D01*
X126612151Y-84337890D01*
X126605746Y-84338394D01*
X126506995Y-84367084D01*
X126456016Y-84381894D01*
X126456014Y-84381895D01*
X126448403Y-84384106D01*
X126441581Y-84388141D01*
X126441580Y-84388141D01*
X126420760Y-84400454D01*
X126356621Y-84418000D01*
X126076588Y-84418000D01*
X126012447Y-84400452D01*
X126006427Y-84396892D01*
X126006428Y-84396892D01*
X125999601Y-84392855D01*
X125991990Y-84390644D01*
X125991988Y-84390643D01*
X125913797Y-84367927D01*
X125839831Y-84346438D01*
X125833426Y-84345934D01*
X125833421Y-84345933D01*
X125804958Y-84343693D01*
X125804950Y-84343693D01*
X125802502Y-84343500D01*
X124494498Y-84343500D01*
X124492050Y-84343693D01*
X124492042Y-84343693D01*
X124463579Y-84345933D01*
X124463574Y-84345934D01*
X124457169Y-84346438D01*
X124383203Y-84367927D01*
X124305012Y-84390643D01*
X124305010Y-84390644D01*
X124297399Y-84392855D01*
X124290572Y-84396892D01*
X124290573Y-84396892D01*
X124220297Y-84438453D01*
X124156158Y-84456000D01*
X123545615Y-84456000D01*
X123530376Y-84460475D01*
X123529171Y-84461865D01*
X123527500Y-84469548D01*
X123527500Y-84991884D01*
X123531975Y-85007123D01*
X123533365Y-85008328D01*
X123541048Y-85009999D01*
X123776500Y-85009999D01*
X123844621Y-85030001D01*
X123891114Y-85083657D01*
X123902500Y-85135999D01*
X123902500Y-85167500D01*
X123882498Y-85235621D01*
X123828842Y-85282114D01*
X123776500Y-85293500D01*
X123158276Y-85293500D01*
X123138565Y-85291949D01*
X123126386Y-85290020D01*
X123118557Y-85288780D01*
X123110665Y-85289526D01*
X123074539Y-85292941D01*
X123062681Y-85293500D01*
X122345379Y-85293500D01*
X122277258Y-85273498D01*
X122248116Y-85247106D01*
X122245752Y-85243287D01*
X122240568Y-85238112D01*
X122236022Y-85232376D01*
X122237829Y-85230944D01*
X122209098Y-85178425D01*
X122214108Y-85107605D01*
X122237499Y-85071147D01*
X122236448Y-85070317D01*
X122249998Y-85053160D01*
X122274650Y-85013167D01*
X122327422Y-84965674D01*
X122397494Y-84954250D01*
X122422488Y-84961067D01*
X122422600Y-84960682D01*
X122576065Y-85005269D01*
X122588667Y-85007570D01*
X122617084Y-85009807D01*
X122622014Y-85010000D01*
X123001385Y-85010000D01*
X123016624Y-85005525D01*
X123017829Y-85004135D01*
X123019500Y-84996452D01*
X123019500Y-84474115D01*
X123015025Y-84458876D01*
X123013635Y-84457671D01*
X123005952Y-84456000D01*
X122458115Y-84456000D01*
X122442876Y-84460475D01*
X122441671Y-84461865D01*
X122440000Y-84469548D01*
X122440000Y-84505000D01*
X122419998Y-84573121D01*
X122366342Y-84619614D01*
X122314000Y-84631000D01*
X121289000Y-84631000D01*
X121220879Y-84610998D01*
X121174386Y-84557342D01*
X121163000Y-84505000D01*
X121163000Y-84104885D01*
X121671000Y-84104885D01*
X121675475Y-84120124D01*
X121676865Y-84121329D01*
X121684548Y-84123000D01*
X121969885Y-84123000D01*
X121985124Y-84118525D01*
X121986329Y-84117135D01*
X121988000Y-84109452D01*
X121988000Y-84074000D01*
X122008002Y-84005879D01*
X122061658Y-83959386D01*
X122114000Y-83948000D01*
X123001385Y-83948000D01*
X123016624Y-83943525D01*
X123017829Y-83942135D01*
X123019500Y-83934452D01*
X123019500Y-83929885D01*
X123527500Y-83929885D01*
X123531975Y-83945124D01*
X123533365Y-83946329D01*
X123541048Y-83948000D01*
X124497878Y-83948000D01*
X124511409Y-83944027D01*
X124512544Y-83936129D01*
X124499899Y-83892605D01*
X126071381Y-83892605D01*
X126071421Y-83906705D01*
X126078691Y-83910000D01*
X126605885Y-83910000D01*
X126621124Y-83905525D01*
X126622329Y-83904135D01*
X126624000Y-83896452D01*
X126624000Y-83395576D01*
X126619656Y-83380781D01*
X126609225Y-83378937D01*
X126599641Y-83380688D01*
X126456216Y-83422357D01*
X126441780Y-83428604D01*
X126314501Y-83503876D01*
X126302074Y-83513516D01*
X126197516Y-83618074D01*
X126187876Y-83630501D01*
X126112604Y-83757780D01*
X126106357Y-83772216D01*
X126071381Y-83892605D01*
X124499899Y-83892605D01*
X124471893Y-83796210D01*
X124465648Y-83781779D01*
X124389089Y-83652322D01*
X124379449Y-83639896D01*
X124273104Y-83533551D01*
X124260678Y-83523911D01*
X124131221Y-83447352D01*
X124116790Y-83441107D01*
X123970935Y-83398731D01*
X123958333Y-83396430D01*
X123929916Y-83394193D01*
X123924986Y-83394000D01*
X123545615Y-83394000D01*
X123530376Y-83398475D01*
X123529171Y-83399865D01*
X123527500Y-83407548D01*
X123527500Y-83929885D01*
X123019500Y-83929885D01*
X123019500Y-83412116D01*
X123015025Y-83396877D01*
X123013635Y-83395672D01*
X123005952Y-83394001D01*
X122622017Y-83394001D01*
X122617080Y-83394195D01*
X122588664Y-83396430D01*
X122576069Y-83398730D01*
X122430210Y-83441107D01*
X122415779Y-83447352D01*
X122286322Y-83523911D01*
X122273896Y-83533551D01*
X122263002Y-83544445D01*
X122200690Y-83578471D01*
X122129875Y-83573406D01*
X122107792Y-83562610D01*
X121985125Y-83486998D01*
X121971939Y-83480849D01*
X121823186Y-83431509D01*
X121809810Y-83428642D01*
X121718903Y-83419328D01*
X121712486Y-83419000D01*
X121689115Y-83419000D01*
X121673876Y-83423475D01*
X121672671Y-83424865D01*
X121671000Y-83432548D01*
X121671000Y-84104885D01*
X121163000Y-84104885D01*
X121163000Y-83437115D01*
X121158525Y-83421876D01*
X121157135Y-83420671D01*
X121149452Y-83419000D01*
X121121562Y-83419000D01*
X121115047Y-83419337D01*
X121044505Y-83426657D01*
X120974683Y-83413793D01*
X120922901Y-83365222D01*
X120905500Y-83301330D01*
X120905500Y-83052657D01*
X120925502Y-82984536D01*
X120979158Y-82938043D01*
X121052897Y-82928863D01*
X121055534Y-82929629D01*
X121061941Y-82930133D01*
X121061945Y-82930134D01*
X121089556Y-82932307D01*
X121089562Y-82932307D01*
X121092011Y-82932500D01*
X121291878Y-82932500D01*
X121491988Y-82932499D01*
X121528466Y-82929629D01*
X121625270Y-82901505D01*
X121676983Y-82886481D01*
X121676985Y-82886480D01*
X121684596Y-82884269D01*
X121802093Y-82814782D01*
X121817720Y-82805540D01*
X121824541Y-82801506D01*
X121939506Y-82686541D01*
X122022269Y-82546596D01*
X122037008Y-82495866D01*
X122065834Y-82396644D01*
X122067629Y-82390466D01*
X122068135Y-82384047D01*
X122070307Y-82356444D01*
X122070307Y-82356438D01*
X122070500Y-82353989D01*
X122070500Y-82262522D01*
X122088013Y-82202878D01*
X122086087Y-82201819D01*
X122095846Y-82184068D01*
X122106699Y-82167545D01*
X122114253Y-82157806D01*
X122119113Y-82151541D01*
X122136676Y-82110957D01*
X122141883Y-82100327D01*
X122163195Y-82061560D01*
X122165166Y-82053883D01*
X122165168Y-82053878D01*
X122168232Y-82041942D01*
X122174638Y-82023230D01*
X122179533Y-82011919D01*
X122182681Y-82004645D01*
X122183921Y-81996817D01*
X122183923Y-81996810D01*
X122189599Y-81960976D01*
X122192005Y-81949356D01*
X122201028Y-81914211D01*
X122201028Y-81914210D01*
X122203000Y-81906530D01*
X122203000Y-81886276D01*
X122204551Y-81866565D01*
X122206480Y-81854386D01*
X122207720Y-81846557D01*
X122203559Y-81802538D01*
X122203000Y-81790681D01*
X122203000Y-81501647D01*
X122223002Y-81433526D01*
X122243680Y-81410694D01*
X122243055Y-81410071D01*
X122357693Y-81295233D01*
X122362864Y-81290053D01*
X122451849Y-81145692D01*
X122455836Y-81133671D01*
X122503072Y-80991262D01*
X122503072Y-80991260D01*
X122505238Y-80984731D01*
X122515500Y-80884572D01*
X122515500Y-80275428D01*
X122504978Y-80174018D01*
X122451308Y-80013151D01*
X122362071Y-79868945D01*
X122242053Y-79749136D01*
X122212461Y-79730895D01*
X122197899Y-79721919D01*
X122097692Y-79660151D01*
X122071137Y-79651343D01*
X121943262Y-79608928D01*
X121943260Y-79608928D01*
X121936731Y-79606762D01*
X121836572Y-79596500D01*
X121302428Y-79596500D01*
X121299182Y-79596837D01*
X121299178Y-79596837D01*
X121269890Y-79599876D01*
X121201018Y-79607022D01*
X121040151Y-79660692D01*
X120895945Y-79749929D01*
X120890776Y-79755107D01*
X120870759Y-79775159D01*
X120808477Y-79809238D01*
X120737657Y-79804235D01*
X120692568Y-79775314D01*
X120671920Y-79754702D01*
X120660509Y-79745690D01*
X120528709Y-79664447D01*
X120515532Y-79658303D01*
X120368157Y-79609421D01*
X120354790Y-79606555D01*
X120265300Y-79597386D01*
X120251376Y-79601475D01*
X120250171Y-79602865D01*
X120248500Y-79610548D01*
X120248500Y-80708000D01*
X120228498Y-80776121D01*
X120174842Y-80822614D01*
X120122500Y-80834000D01*
X119067115Y-80834000D01*
X119051876Y-80838475D01*
X119050671Y-80839865D01*
X119049000Y-80847548D01*
X119049000Y-80881266D01*
X119049337Y-80887782D01*
X119058804Y-80979021D01*
X119061697Y-80992417D01*
X119110830Y-81139687D01*
X119117004Y-81152866D01*
X119198470Y-81284514D01*
X119207506Y-81295915D01*
X119317080Y-81405298D01*
X119328491Y-81414310D01*
X119460291Y-81495553D01*
X119477626Y-81503636D01*
X119530911Y-81550552D01*
X119550373Y-81618829D01*
X119541402Y-81661308D01*
X119541731Y-81661404D01*
X119539523Y-81669005D01*
X119539521Y-81669009D01*
X119523932Y-81722669D01*
X119496371Y-81817534D01*
X119495867Y-81823941D01*
X119495866Y-81823945D01*
X119493693Y-81851556D01*
X119493500Y-81854011D01*
X119493501Y-82353988D01*
X119496371Y-82390466D01*
X119541731Y-82546596D01*
X119590517Y-82629088D01*
X119620954Y-82680555D01*
X119638500Y-82744694D01*
X119638500Y-84703233D01*
X119637973Y-84714416D01*
X119636298Y-84721909D01*
X119636547Y-84729835D01*
X119636547Y-84729836D01*
X119638438Y-84789986D01*
X119638500Y-84793945D01*
X119638500Y-84821856D01*
X119638997Y-84825790D01*
X119638997Y-84825791D01*
X119639005Y-84825856D01*
X119639938Y-84837693D01*
X119641327Y-84881889D01*
X119646057Y-84898169D01*
X119646978Y-84901339D01*
X119650987Y-84920700D01*
X119653526Y-84940797D01*
X119656445Y-84948168D01*
X119656445Y-84948170D01*
X119669804Y-84981912D01*
X119673649Y-84993142D01*
X119678491Y-85009807D01*
X119685982Y-85035593D01*
X119690015Y-85042412D01*
X119690017Y-85042417D01*
X119696293Y-85053028D01*
X119704988Y-85070776D01*
X119712448Y-85089617D01*
X119717110Y-85096033D01*
X119717110Y-85096034D01*
X119738436Y-85125387D01*
X119744952Y-85135307D01*
X119767458Y-85173362D01*
X119781779Y-85187683D01*
X119794619Y-85202716D01*
X119806528Y-85219107D01*
X119826490Y-85235621D01*
X119840605Y-85247298D01*
X119849384Y-85255288D01*
X120396595Y-85802499D01*
X120430621Y-85864811D01*
X120433500Y-85891594D01*
X120433500Y-86200732D01*
X120444113Y-86303019D01*
X120498244Y-86465268D01*
X120588248Y-86610713D01*
X120709298Y-86731552D01*
X120715528Y-86735392D01*
X120715529Y-86735393D01*
X120847766Y-86816905D01*
X120854899Y-86821302D01*
X121017243Y-86875149D01*
X121024080Y-86875849D01*
X121024082Y-86875850D01*
X121065401Y-86880083D01*
X121118268Y-86885500D01*
X121715732Y-86885500D01*
X121718978Y-86885163D01*
X121718982Y-86885163D01*
X121753083Y-86881625D01*
X121818019Y-86874887D01*
X121971726Y-86823606D01*
X121973324Y-86823073D01*
X121973326Y-86823072D01*
X121980268Y-86820756D01*
X122078279Y-86760105D01*
X122107448Y-86742055D01*
X122175900Y-86723218D01*
X122243669Y-86744380D01*
X122262845Y-86760105D01*
X122279193Y-86776453D01*
X122286017Y-86780489D01*
X122286020Y-86780491D01*
X122347593Y-86816905D01*
X122422399Y-86861145D01*
X122430010Y-86863356D01*
X122430012Y-86863357D01*
X122472147Y-86875598D01*
X122582169Y-86907562D01*
X122588574Y-86908066D01*
X122588579Y-86908067D01*
X122617042Y-86910307D01*
X122617050Y-86910307D01*
X122619498Y-86910500D01*
X123133905Y-86910500D01*
X123202026Y-86930502D01*
X123223001Y-86947405D01*
X123412533Y-87136938D01*
X123597853Y-87322258D01*
X123605387Y-87330537D01*
X123609500Y-87337018D01*
X123649004Y-87374114D01*
X123659151Y-87383643D01*
X123661993Y-87386398D01*
X123681730Y-87406135D01*
X123684927Y-87408615D01*
X123693947Y-87416318D01*
X123726179Y-87446586D01*
X123733125Y-87450405D01*
X123733128Y-87450407D01*
X123743934Y-87456348D01*
X123760453Y-87467199D01*
X123776459Y-87479614D01*
X123783728Y-87482759D01*
X123783732Y-87482762D01*
X123817037Y-87497174D01*
X123827687Y-87502391D01*
X123866440Y-87523695D01*
X123874115Y-87525666D01*
X123874116Y-87525666D01*
X123886062Y-87528733D01*
X123904767Y-87535137D01*
X123923355Y-87543181D01*
X123931178Y-87544420D01*
X123931188Y-87544423D01*
X123967024Y-87550099D01*
X123978644Y-87552505D01*
X124013789Y-87561528D01*
X124021470Y-87563500D01*
X124041724Y-87563500D01*
X124061434Y-87565051D01*
X124081443Y-87568220D01*
X124089335Y-87567474D01*
X124125461Y-87564059D01*
X124137319Y-87563500D01*
X131170500Y-87563500D01*
X131238621Y-87583502D01*
X131285114Y-87637158D01*
X131296500Y-87689500D01*
X131296500Y-91977951D01*
X131276498Y-92046072D01*
X131238924Y-92083754D01*
X131228030Y-92090799D01*
X131224000Y-92099691D01*
X131224000Y-92377621D01*
X131206454Y-92441760D01*
X131190106Y-92469403D01*
X131187895Y-92477014D01*
X131187894Y-92477016D01*
X131184641Y-92488214D01*
X131144394Y-92626746D01*
X131143890Y-92633151D01*
X131143889Y-92633156D01*
X131141693Y-92661060D01*
X131141500Y-92663516D01*
X131141500Y-93134484D01*
X131144394Y-93171254D01*
X131190106Y-93328597D01*
X131194141Y-93335419D01*
X131194141Y-93335420D01*
X131206454Y-93356240D01*
X131224000Y-93420379D01*
X131224000Y-93531050D01*
X131203998Y-93599171D01*
X131173568Y-93631873D01*
X131161739Y-93640739D01*
X131156358Y-93647919D01*
X131156357Y-93647920D01*
X131107490Y-93713123D01*
X131050631Y-93755638D01*
X131042163Y-93758454D01*
X131031876Y-93761475D01*
X131030671Y-93762865D01*
X131029000Y-93770548D01*
X131029000Y-93859014D01*
X131025699Y-93887165D01*
X131023255Y-93893684D01*
X131022402Y-93901532D01*
X131022402Y-93901534D01*
X131021374Y-93911000D01*
X131016500Y-93955866D01*
X131016500Y-95282000D01*
X130996498Y-95350121D01*
X130942842Y-95396614D01*
X130890500Y-95408000D01*
X130659500Y-95408000D01*
X130591379Y-95387998D01*
X130544886Y-95334342D01*
X130533500Y-95282000D01*
X130533500Y-93955866D01*
X130528626Y-93911000D01*
X130527598Y-93901534D01*
X130527598Y-93901532D01*
X130526745Y-93893684D01*
X130524301Y-93887165D01*
X130521000Y-93859014D01*
X130521000Y-93582000D01*
X130541002Y-93513879D01*
X130594658Y-93467386D01*
X130647000Y-93456000D01*
X130697885Y-93456000D01*
X130713124Y-93451525D01*
X130714329Y-93450135D01*
X130716000Y-93442452D01*
X130716000Y-92105442D01*
X130712027Y-92091911D01*
X130704129Y-92090776D01*
X130578216Y-92127357D01*
X130563780Y-92133604D01*
X130436501Y-92208876D01*
X130424074Y-92218516D01*
X130319516Y-92323074D01*
X130309876Y-92335501D01*
X130276848Y-92391349D01*
X130224955Y-92439802D01*
X130155105Y-92452507D01*
X130094333Y-92429146D01*
X130007094Y-92365763D01*
X130007093Y-92365762D01*
X130001752Y-92361882D01*
X129995718Y-92359196D01*
X129994018Y-92358214D01*
X129945024Y-92306833D01*
X129931586Y-92237119D01*
X129942820Y-92195846D01*
X129946698Y-92187528D01*
X129995579Y-92040157D01*
X129998445Y-92026790D01*
X130007672Y-91936730D01*
X130008000Y-91930315D01*
X130008000Y-91901115D01*
X130003525Y-91885876D01*
X130002135Y-91884671D01*
X129994452Y-91883000D01*
X128934500Y-91883000D01*
X128866379Y-91862998D01*
X128819886Y-91809342D01*
X128808500Y-91757000D01*
X128808500Y-91356885D01*
X129316500Y-91356885D01*
X129320975Y-91372124D01*
X129322365Y-91373329D01*
X129330048Y-91375000D01*
X129989885Y-91375000D01*
X130005124Y-91370525D01*
X130006329Y-91369135D01*
X130008000Y-91361452D01*
X130008000Y-91327734D01*
X130007663Y-91321218D01*
X129998196Y-91229979D01*
X129995303Y-91216583D01*
X129946170Y-91069313D01*
X129939996Y-91056134D01*
X129858530Y-90924486D01*
X129849494Y-90913085D01*
X129739920Y-90803702D01*
X129728509Y-90794690D01*
X129596709Y-90713447D01*
X129583532Y-90707303D01*
X129436157Y-90658421D01*
X129422790Y-90655555D01*
X129333300Y-90646386D01*
X129319376Y-90650475D01*
X129318171Y-90651865D01*
X129316500Y-90659548D01*
X129316500Y-91356885D01*
X128808500Y-91356885D01*
X128808500Y-90664115D01*
X128804025Y-90648876D01*
X128802635Y-90647671D01*
X128795679Y-90646158D01*
X128792218Y-90646337D01*
X128700979Y-90655804D01*
X128687583Y-90658697D01*
X128540313Y-90707830D01*
X128527134Y-90714004D01*
X128395486Y-90795470D01*
X128384085Y-90804506D01*
X128364467Y-90824158D01*
X128302184Y-90858237D01*
X128231364Y-90853234D01*
X128186277Y-90824314D01*
X128165234Y-90803308D01*
X128160053Y-90798136D01*
X128015692Y-90709151D01*
X128008743Y-90706846D01*
X127861262Y-90657928D01*
X127861260Y-90657928D01*
X127854731Y-90655762D01*
X127754572Y-90645500D01*
X127220428Y-90645500D01*
X127217182Y-90645837D01*
X127217178Y-90645837D01*
X127187890Y-90648876D01*
X127119018Y-90656022D01*
X126958151Y-90709692D01*
X126813945Y-90798929D01*
X126694136Y-90918947D01*
X126605151Y-91063308D01*
X126602846Y-91070256D01*
X126602846Y-91070257D01*
X126558299Y-91204562D01*
X126551762Y-91224269D01*
X126541500Y-91324428D01*
X126541500Y-91933572D01*
X126541837Y-91936816D01*
X126541837Y-91936824D01*
X126547462Y-91991037D01*
X126534597Y-92060858D01*
X126486026Y-92112640D01*
X126417170Y-92129942D01*
X126349890Y-92107271D01*
X126333040Y-92093135D01*
X125476652Y-91236747D01*
X125469112Y-91228461D01*
X125465000Y-91221982D01*
X125415348Y-91175356D01*
X125412507Y-91172602D01*
X125392770Y-91152865D01*
X125389573Y-91150385D01*
X125380551Y-91142680D01*
X125354100Y-91117841D01*
X125348321Y-91112414D01*
X125341375Y-91108595D01*
X125341372Y-91108593D01*
X125330566Y-91102652D01*
X125314047Y-91091801D01*
X125313583Y-91091441D01*
X125298041Y-91079386D01*
X125290772Y-91076241D01*
X125290768Y-91076238D01*
X125257463Y-91061826D01*
X125246813Y-91056609D01*
X125208060Y-91035305D01*
X125188437Y-91030267D01*
X125169734Y-91023863D01*
X125158420Y-91018967D01*
X125158419Y-91018967D01*
X125151145Y-91015819D01*
X125143322Y-91014580D01*
X125143312Y-91014577D01*
X125107476Y-91008901D01*
X125095856Y-91006495D01*
X125060711Y-90997472D01*
X125060710Y-90997472D01*
X125053030Y-90995500D01*
X125032776Y-90995500D01*
X125013065Y-90993949D01*
X125005224Y-90992707D01*
X124993057Y-90990780D01*
X124985165Y-90991526D01*
X124949039Y-90994941D01*
X124937181Y-90995500D01*
X123636594Y-90995500D01*
X123568473Y-90975498D01*
X123547499Y-90958595D01*
X119039405Y-86450500D01*
X119005379Y-86388188D01*
X119002500Y-86361405D01*
X119002500Y-85225763D01*
X119003027Y-85214579D01*
X119004701Y-85207091D01*
X119002562Y-85139032D01*
X119002500Y-85135075D01*
X119002500Y-85107144D01*
X119001994Y-85103138D01*
X119001061Y-85091292D01*
X119001009Y-85089617D01*
X118999673Y-85047110D01*
X118994022Y-85027658D01*
X118990014Y-85008306D01*
X118988468Y-84996068D01*
X118988467Y-84996066D01*
X118987474Y-84988203D01*
X118971194Y-84947086D01*
X118967359Y-84935885D01*
X118955018Y-84893406D01*
X118950985Y-84886587D01*
X118950983Y-84886582D01*
X118944707Y-84875971D01*
X118936010Y-84858221D01*
X118928552Y-84839383D01*
X118902571Y-84803623D01*
X118896053Y-84793701D01*
X118877578Y-84762460D01*
X118877574Y-84762455D01*
X118873542Y-84755637D01*
X118859218Y-84741313D01*
X118846376Y-84726278D01*
X118843202Y-84721909D01*
X118834472Y-84709893D01*
X118800406Y-84681711D01*
X118791627Y-84673722D01*
X118196218Y-84078313D01*
X118162192Y-84016001D01*
X118164755Y-83952589D01*
X118165583Y-83949866D01*
X118177370Y-83911069D01*
X118206529Y-83689590D01*
X118207440Y-83652322D01*
X118208074Y-83626365D01*
X118208074Y-83626361D01*
X118208156Y-83623000D01*
X118189852Y-83400361D01*
X118135431Y-83183702D01*
X118046354Y-82978840D01*
X117982563Y-82880234D01*
X117927822Y-82795617D01*
X117927820Y-82795614D01*
X117925014Y-82791277D01*
X117921540Y-82787459D01*
X117921533Y-82787450D01*
X117777435Y-82629088D01*
X117746383Y-82565242D01*
X117754779Y-82494744D01*
X117799956Y-82439976D01*
X117826400Y-82426307D01*
X117933052Y-82386325D01*
X117948649Y-82377786D01*
X118050724Y-82301285D01*
X118063285Y-82288724D01*
X118139786Y-82186649D01*
X118148324Y-82171054D01*
X118193478Y-82050606D01*
X118197105Y-82035351D01*
X118202631Y-81984486D01*
X118203000Y-81977672D01*
X118203000Y-81355115D01*
X118198525Y-81339876D01*
X118197135Y-81338671D01*
X118189452Y-81337000D01*
X116717000Y-81337000D01*
X116648879Y-81316998D01*
X116602386Y-81263342D01*
X116591000Y-81211000D01*
X116591000Y-80810885D01*
X117099000Y-80810885D01*
X117103475Y-80826124D01*
X117104865Y-80827329D01*
X117112548Y-80829000D01*
X118184884Y-80829000D01*
X118200123Y-80824525D01*
X118201328Y-80823135D01*
X118202999Y-80815452D01*
X118202999Y-80307885D01*
X119049000Y-80307885D01*
X119053475Y-80323124D01*
X119054865Y-80324329D01*
X119062548Y-80326000D01*
X119722385Y-80326000D01*
X119737624Y-80321525D01*
X119738829Y-80320135D01*
X119740500Y-80312452D01*
X119740500Y-79615115D01*
X119736025Y-79599876D01*
X119734635Y-79598671D01*
X119727679Y-79597158D01*
X119724218Y-79597337D01*
X119632979Y-79606804D01*
X119619583Y-79609697D01*
X119472313Y-79658830D01*
X119459134Y-79665004D01*
X119327486Y-79746470D01*
X119316085Y-79755506D01*
X119206702Y-79865080D01*
X119197690Y-79876491D01*
X119116447Y-80008291D01*
X119110303Y-80021468D01*
X119061421Y-80168843D01*
X119058555Y-80182210D01*
X119049328Y-80272270D01*
X119049000Y-80278685D01*
X119049000Y-80307885D01*
X118202999Y-80307885D01*
X118202999Y-80188331D01*
X118202629Y-80181510D01*
X118197105Y-80130648D01*
X118193479Y-80115396D01*
X118148324Y-79994946D01*
X118139786Y-79979351D01*
X118063285Y-79877276D01*
X118050724Y-79864715D01*
X117948649Y-79788214D01*
X117933054Y-79779676D01*
X117812606Y-79734522D01*
X117797351Y-79730895D01*
X117746486Y-79725369D01*
X117739672Y-79725000D01*
X117117115Y-79725000D01*
X117101876Y-79729475D01*
X117100671Y-79730865D01*
X117099000Y-79738548D01*
X117099000Y-80810885D01*
X116591000Y-80810885D01*
X116591000Y-79743116D01*
X116586525Y-79727877D01*
X116585135Y-79726672D01*
X116577452Y-79725001D01*
X116209500Y-79725001D01*
X116141379Y-79704999D01*
X116094886Y-79651343D01*
X116083500Y-79599001D01*
X116083500Y-76140703D01*
X117275743Y-76140703D01*
X117313268Y-76425734D01*
X117389129Y-76703036D01*
X117390813Y-76706984D01*
X117460239Y-76869749D01*
X117501923Y-76967476D01*
X117554035Y-77054549D01*
X117643243Y-77203604D01*
X117649561Y-77214161D01*
X117829313Y-77438528D01*
X117951272Y-77554263D01*
X118011293Y-77611220D01*
X118037851Y-77636423D01*
X118271317Y-77804186D01*
X118275112Y-77806195D01*
X118275113Y-77806196D01*
X118296869Y-77817715D01*
X118525392Y-77938712D01*
X118549699Y-77947607D01*
X118763817Y-78025963D01*
X118795373Y-78037511D01*
X119076264Y-78098755D01*
X119104841Y-78101004D01*
X119299282Y-78116307D01*
X119299291Y-78116307D01*
X119301739Y-78116500D01*
X119457271Y-78116500D01*
X119459407Y-78116354D01*
X119459418Y-78116354D01*
X119667548Y-78102165D01*
X119667554Y-78102164D01*
X119671825Y-78101873D01*
X119676020Y-78101004D01*
X119676022Y-78101004D01*
X119852071Y-78064546D01*
X119953342Y-78043574D01*
X120224343Y-77947607D01*
X120479812Y-77815750D01*
X120483313Y-77813289D01*
X120483317Y-77813287D01*
X120597417Y-77733096D01*
X120715023Y-77650441D01*
X120925622Y-77454740D01*
X121107713Y-77232268D01*
X121257927Y-76987142D01*
X121343052Y-76793223D01*
X121371757Y-76727830D01*
X121373483Y-76723898D01*
X121452244Y-76447406D01*
X121492751Y-76162784D01*
X121492845Y-76144951D01*
X121494235Y-75879583D01*
X121494235Y-75879576D01*
X121494257Y-75875297D01*
X121456732Y-75590266D01*
X121380871Y-75312964D01*
X121295103Y-75111884D01*
X121269763Y-75052476D01*
X121269761Y-75052472D01*
X121268077Y-75048524D01*
X121147253Y-74846642D01*
X121122643Y-74805521D01*
X121122640Y-74805517D01*
X121120439Y-74801839D01*
X120940687Y-74577472D01*
X120732149Y-74379577D01*
X120498683Y-74211814D01*
X120476843Y-74200250D01*
X120453654Y-74187972D01*
X120244608Y-74077288D01*
X119974627Y-73978489D01*
X119693736Y-73917245D01*
X119662685Y-73914801D01*
X119470718Y-73899693D01*
X119470709Y-73899693D01*
X119468261Y-73899500D01*
X119312729Y-73899500D01*
X119310593Y-73899646D01*
X119310582Y-73899646D01*
X119102452Y-73913835D01*
X119102446Y-73913836D01*
X119098175Y-73914127D01*
X119093980Y-73914996D01*
X119093978Y-73914996D01*
X119011869Y-73932000D01*
X118816658Y-73972426D01*
X118545657Y-74068393D01*
X118290188Y-74200250D01*
X118286687Y-74202711D01*
X118286683Y-74202713D01*
X118276594Y-74209804D01*
X118054977Y-74365559D01*
X118039892Y-74379577D01*
X117878567Y-74529490D01*
X117844378Y-74561260D01*
X117662287Y-74783732D01*
X117512073Y-75028858D01*
X117396517Y-75292102D01*
X117317756Y-75568594D01*
X117277249Y-75853216D01*
X117277227Y-75857505D01*
X117277226Y-75857512D01*
X117276068Y-76078635D01*
X117275743Y-76140703D01*
X116083500Y-76140703D01*
X116083500Y-76061250D01*
X116085246Y-76040345D01*
X116087770Y-76025344D01*
X116087770Y-76025341D01*
X116088576Y-76020552D01*
X116088729Y-76008000D01*
X116088039Y-76003180D01*
X116086644Y-75993437D01*
X116085545Y-75968983D01*
X116098029Y-75730774D01*
X116101240Y-75669499D01*
X116102618Y-75656383D01*
X116154613Y-75328102D01*
X116157355Y-75315202D01*
X116243379Y-74994154D01*
X116247455Y-74981610D01*
X116247844Y-74980598D01*
X116366562Y-74671328D01*
X116371926Y-74659280D01*
X116522820Y-74363133D01*
X116529414Y-74351712D01*
X116710437Y-74072960D01*
X116718190Y-74062290D01*
X116927352Y-73803996D01*
X116936177Y-73794195D01*
X117171195Y-73559177D01*
X117180996Y-73550352D01*
X117439290Y-73341190D01*
X117449960Y-73333437D01*
X117728712Y-73152414D01*
X117740133Y-73145820D01*
X118036280Y-72994926D01*
X118048328Y-72989562D01*
X118087532Y-72974513D01*
X118358618Y-72870453D01*
X118371154Y-72866379D01*
X118692202Y-72780355D01*
X118705102Y-72777613D01*
X119033383Y-72725618D01*
X119046499Y-72724240D01*
X119080152Y-72722476D01*
X119342298Y-72708738D01*
X119368273Y-72710065D01*
X119369843Y-72710309D01*
X119369849Y-72710309D01*
X119378724Y-72711691D01*
X119387626Y-72710527D01*
X119387628Y-72710527D01*
X119402677Y-72708559D01*
X119410286Y-72707564D01*
X119426621Y-72706500D01*
X122646500Y-72706500D01*
X122714621Y-72726502D01*
G37*
G04 #@! TD.AperFunction*
G04 #@! TA.AperFunction,Conductor*
G36*
X137135018Y-72708000D02*
G01*
X137149851Y-72710310D01*
X137149855Y-72710310D01*
X137158724Y-72711691D01*
X137177436Y-72709244D01*
X137200366Y-72708353D01*
X137503503Y-72724240D01*
X137516617Y-72725618D01*
X137844898Y-72777613D01*
X137857798Y-72780355D01*
X138178846Y-72866379D01*
X138191382Y-72870453D01*
X138462468Y-72974513D01*
X138501672Y-72989562D01*
X138513720Y-72994926D01*
X138809867Y-73145820D01*
X138821288Y-73152414D01*
X139100040Y-73333437D01*
X139110710Y-73341190D01*
X139369004Y-73550352D01*
X139378805Y-73559177D01*
X139613823Y-73794195D01*
X139622648Y-73803996D01*
X139831810Y-74062290D01*
X139839563Y-74072960D01*
X140020586Y-74351712D01*
X140027180Y-74363133D01*
X140178074Y-74659280D01*
X140183438Y-74671328D01*
X140302157Y-74980598D01*
X140302545Y-74981610D01*
X140306621Y-74994154D01*
X140392645Y-75315202D01*
X140395387Y-75328102D01*
X140447382Y-75656383D01*
X140448760Y-75669500D01*
X140464262Y-75965298D01*
X140462935Y-75991273D01*
X140462691Y-75992843D01*
X140462691Y-75992849D01*
X140461309Y-76001724D01*
X140462473Y-76010626D01*
X140462473Y-76010628D01*
X140465436Y-76033283D01*
X140466500Y-76049621D01*
X140466500Y-79738061D01*
X140446498Y-79806182D01*
X140392842Y-79852675D01*
X140322568Y-79862779D01*
X140279609Y-79848371D01*
X140263789Y-79839638D01*
X140258920Y-79837914D01*
X140258916Y-79837912D01*
X140058087Y-79766795D01*
X140058083Y-79766794D01*
X140053212Y-79765069D01*
X140048119Y-79764162D01*
X140048116Y-79764161D01*
X139838373Y-79726800D01*
X139838367Y-79726799D01*
X139833284Y-79725894D01*
X139759452Y-79724992D01*
X139615081Y-79723228D01*
X139615079Y-79723228D01*
X139609911Y-79723165D01*
X139389091Y-79756955D01*
X139176756Y-79826357D01*
X138978607Y-79929507D01*
X138974474Y-79932610D01*
X138974471Y-79932612D01*
X138844941Y-80029866D01*
X138799965Y-80063635D01*
X138645629Y-80225138D01*
X138642715Y-80229410D01*
X138642714Y-80229411D01*
X138589183Y-80307885D01*
X138519743Y-80409680D01*
X138517564Y-80414375D01*
X138474431Y-80507297D01*
X138424283Y-80562700D01*
X138404465Y-80574420D01*
X138404462Y-80574422D01*
X138397638Y-80578458D01*
X138383317Y-80592779D01*
X138368284Y-80605619D01*
X138351893Y-80617528D01*
X138346842Y-80623634D01*
X138323702Y-80651605D01*
X138315712Y-80660384D01*
X135523500Y-83452595D01*
X135461188Y-83486621D01*
X135434405Y-83489500D01*
X133675866Y-83489500D01*
X133613684Y-83496255D01*
X133477295Y-83547385D01*
X133360739Y-83634739D01*
X133273385Y-83751295D01*
X133222255Y-83887684D01*
X133215500Y-83949866D01*
X133215500Y-85846134D01*
X133222255Y-85908316D01*
X133273385Y-86044705D01*
X133278770Y-86051890D01*
X133278771Y-86051892D01*
X133311030Y-86094935D01*
X133335878Y-86161442D01*
X133320825Y-86230824D01*
X133270650Y-86281054D01*
X133210204Y-86296500D01*
X132737796Y-86296500D01*
X132669675Y-86276498D01*
X132623182Y-86222842D01*
X132613078Y-86152568D01*
X132636970Y-86094935D01*
X132669229Y-86051892D01*
X132669230Y-86051890D01*
X132674615Y-86044705D01*
X132725745Y-85908316D01*
X132732500Y-85846134D01*
X132732500Y-83949866D01*
X132725745Y-83887684D01*
X132674615Y-83751295D01*
X132587261Y-83634739D01*
X132470705Y-83547385D01*
X132334316Y-83496255D01*
X132272134Y-83489500D01*
X131214305Y-83489500D01*
X131146184Y-83469498D01*
X131099691Y-83415842D01*
X131089587Y-83345568D01*
X131105186Y-83300500D01*
X131138223Y-83243279D01*
X131138224Y-83243278D01*
X131141527Y-83237556D01*
X131200542Y-83055928D01*
X131217907Y-82890706D01*
X131244920Y-82825050D01*
X131254122Y-82814782D01*
X131845499Y-82223405D01*
X131907811Y-82189379D01*
X131934594Y-82186500D01*
X133317134Y-82186500D01*
X133379316Y-82179745D01*
X133515705Y-82128615D01*
X133632261Y-82041261D01*
X133719615Y-81924705D01*
X133770745Y-81788316D01*
X133777500Y-81726134D01*
X133777500Y-80029866D01*
X133770745Y-79967684D01*
X133719615Y-79831295D01*
X133632261Y-79714739D01*
X133515705Y-79627385D01*
X133379316Y-79576255D01*
X133317134Y-79569500D01*
X133317258Y-79568361D01*
X133254766Y-79546289D01*
X133211232Y-79490206D01*
X133202500Y-79444116D01*
X133202500Y-76140703D01*
X135055743Y-76140703D01*
X135093268Y-76425734D01*
X135169129Y-76703036D01*
X135170813Y-76706984D01*
X135240239Y-76869749D01*
X135281923Y-76967476D01*
X135334035Y-77054549D01*
X135423243Y-77203604D01*
X135429561Y-77214161D01*
X135609313Y-77438528D01*
X135731272Y-77554263D01*
X135791293Y-77611220D01*
X135817851Y-77636423D01*
X136051317Y-77804186D01*
X136055112Y-77806195D01*
X136055113Y-77806196D01*
X136076869Y-77817715D01*
X136305392Y-77938712D01*
X136329699Y-77947607D01*
X136543817Y-78025963D01*
X136575373Y-78037511D01*
X136856264Y-78098755D01*
X136884841Y-78101004D01*
X137079282Y-78116307D01*
X137079291Y-78116307D01*
X137081739Y-78116500D01*
X137237271Y-78116500D01*
X137239407Y-78116354D01*
X137239418Y-78116354D01*
X137447548Y-78102165D01*
X137447554Y-78102164D01*
X137451825Y-78101873D01*
X137456020Y-78101004D01*
X137456022Y-78101004D01*
X137632071Y-78064546D01*
X137733342Y-78043574D01*
X138004343Y-77947607D01*
X138259812Y-77815750D01*
X138263313Y-77813289D01*
X138263317Y-77813287D01*
X138377417Y-77733096D01*
X138495023Y-77650441D01*
X138705622Y-77454740D01*
X138887713Y-77232268D01*
X139037927Y-76987142D01*
X139123052Y-76793223D01*
X139151757Y-76727830D01*
X139153483Y-76723898D01*
X139232244Y-76447406D01*
X139272751Y-76162784D01*
X139272845Y-76144951D01*
X139274235Y-75879583D01*
X139274235Y-75879576D01*
X139274257Y-75875297D01*
X139236732Y-75590266D01*
X139160871Y-75312964D01*
X139075103Y-75111884D01*
X139049763Y-75052476D01*
X139049761Y-75052472D01*
X139048077Y-75048524D01*
X138927253Y-74846642D01*
X138902643Y-74805521D01*
X138902640Y-74805517D01*
X138900439Y-74801839D01*
X138720687Y-74577472D01*
X138512149Y-74379577D01*
X138278683Y-74211814D01*
X138256843Y-74200250D01*
X138233654Y-74187972D01*
X138024608Y-74077288D01*
X137754627Y-73978489D01*
X137473736Y-73917245D01*
X137442685Y-73914801D01*
X137250718Y-73899693D01*
X137250709Y-73899693D01*
X137248261Y-73899500D01*
X137092729Y-73899500D01*
X137090593Y-73899646D01*
X137090582Y-73899646D01*
X136882452Y-73913835D01*
X136882446Y-73913836D01*
X136878175Y-73914127D01*
X136873980Y-73914996D01*
X136873978Y-73914996D01*
X136791869Y-73932000D01*
X136596658Y-73972426D01*
X136325657Y-74068393D01*
X136070188Y-74200250D01*
X136066687Y-74202711D01*
X136066683Y-74202713D01*
X136056594Y-74209804D01*
X135834977Y-74365559D01*
X135819892Y-74379577D01*
X135658567Y-74529490D01*
X135624378Y-74561260D01*
X135442287Y-74783732D01*
X135292073Y-75028858D01*
X135176517Y-75292102D01*
X135097756Y-75568594D01*
X135057249Y-75853216D01*
X135057227Y-75857505D01*
X135057226Y-75857512D01*
X135056068Y-76078635D01*
X135055743Y-76140703D01*
X133202500Y-76140703D01*
X133202500Y-75111884D01*
X133222502Y-75043763D01*
X133276158Y-74997270D01*
X133317207Y-74987174D01*
X133317134Y-74986500D01*
X133379316Y-74979745D01*
X133515705Y-74928615D01*
X133632261Y-74841261D01*
X133719615Y-74724705D01*
X133770745Y-74588316D01*
X133777500Y-74526134D01*
X133777500Y-72832500D01*
X133797502Y-72764379D01*
X133851158Y-72717886D01*
X133903500Y-72706500D01*
X137115633Y-72706500D01*
X137135018Y-72708000D01*
G37*
G04 #@! TD.AperFunction*
G04 #@! TA.AperFunction,Conductor*
G36*
X126624000Y-105803500D02*
G01*
X126505252Y-105803500D01*
X126504685Y-105803613D01*
X126504683Y-105803613D01*
X126447899Y-105814908D01*
X126447898Y-105814908D01*
X126446769Y-105815133D01*
X126380448Y-105859448D01*
X126336133Y-105925769D01*
X126324500Y-105984252D01*
X126324500Y-108323748D01*
X126336133Y-108382231D01*
X126380448Y-108448552D01*
X126446769Y-108492867D01*
X126447898Y-108493092D01*
X126447899Y-108493092D01*
X126504683Y-108504387D01*
X126504685Y-108504387D01*
X126505252Y-108504500D01*
X126624000Y-108504500D01*
X126624000Y-113473000D01*
X128529000Y-113473000D01*
X128529000Y-117410000D01*
X122941000Y-117410000D01*
X122941000Y-108706004D01*
X123799474Y-108706004D01*
X123800994Y-108716554D01*
X123801034Y-108716745D01*
X123810431Y-108761928D01*
X123810596Y-108762949D01*
X123816602Y-108814458D01*
X123816835Y-108815100D01*
X123827452Y-108844350D01*
X123827909Y-108845960D01*
X124884755Y-113927214D01*
X124885000Y-113929596D01*
X124885000Y-114497216D01*
X124885039Y-114497547D01*
X124885039Y-114497554D01*
X124889349Y-114534517D01*
X124899602Y-114622458D01*
X124899835Y-114623100D01*
X124906798Y-114642283D01*
X124907500Y-114646275D01*
X124907500Y-114999748D01*
X124919133Y-115058231D01*
X124963448Y-115124552D01*
X125029769Y-115168867D01*
X125030898Y-115169092D01*
X125030899Y-115169092D01*
X125087683Y-115180387D01*
X125087685Y-115180387D01*
X125088252Y-115180500D01*
X125625122Y-115180500D01*
X125625846Y-115180522D01*
X125646687Y-115181815D01*
X125646688Y-115181815D01*
X125647365Y-115181857D01*
X125648033Y-115181742D01*
X125648036Y-115181742D01*
X125654279Y-115180669D01*
X125656260Y-115180500D01*
X126127748Y-115180500D01*
X126128315Y-115180387D01*
X126128317Y-115180387D01*
X126185101Y-115169092D01*
X126185102Y-115169092D01*
X126186231Y-115168867D01*
X126252552Y-115124552D01*
X126296867Y-115058231D01*
X126308500Y-114999748D01*
X126308500Y-114635637D01*
X126308835Y-114632856D01*
X126330217Y-114545476D01*
X126330218Y-114545472D01*
X126330340Y-114544972D01*
X126331000Y-114534334D01*
X126331000Y-113867524D01*
X126331007Y-113867116D01*
X126333508Y-113795520D01*
X126333508Y-113795517D01*
X126333526Y-113794996D01*
X126332006Y-113784446D01*
X126322568Y-113739067D01*
X126322403Y-113738045D01*
X126316477Y-113687222D01*
X126316398Y-113686542D01*
X126305548Y-113656650D01*
X126305091Y-113655040D01*
X125248245Y-108573786D01*
X125248000Y-108571404D01*
X125248000Y-107111784D01*
X125243673Y-107074666D01*
X125233477Y-106987222D01*
X125233398Y-106986542D01*
X125226202Y-106966717D01*
X125225500Y-106962725D01*
X125225500Y-105984252D01*
X125213867Y-105925769D01*
X125169552Y-105859448D01*
X125103231Y-105815133D01*
X125102102Y-105814908D01*
X125102101Y-105814908D01*
X125045317Y-105803613D01*
X125045315Y-105803613D01*
X125044748Y-105803500D01*
X124005252Y-105803500D01*
X124004685Y-105803613D01*
X124004683Y-105803613D01*
X123947899Y-105814908D01*
X123947898Y-105814908D01*
X123946769Y-105815133D01*
X123880448Y-105859448D01*
X123836133Y-105925769D01*
X123824500Y-105984252D01*
X123824500Y-106973363D01*
X123824165Y-106976144D01*
X123802660Y-107064028D01*
X123802000Y-107074666D01*
X123802000Y-108633476D01*
X123801993Y-108633884D01*
X123799474Y-108706004D01*
X122941000Y-108706004D01*
X122941000Y-105911999D01*
X123472775Y-105911999D01*
X123473396Y-105911966D01*
X123534479Y-105905331D01*
X123535895Y-105904994D01*
X123670679Y-105854466D01*
X123672131Y-105853671D01*
X123787237Y-105767404D01*
X123788404Y-105766237D01*
X123874671Y-105651131D01*
X123875466Y-105649679D01*
X123925993Y-105514897D01*
X123926331Y-105513479D01*
X123932967Y-105452396D01*
X123933000Y-105451776D01*
X123933000Y-105345000D01*
X126624000Y-105345000D01*
X126624000Y-105803500D01*
G37*
G04 #@! TD.AperFunction*
M02*
