G04 #@! TF.GenerationSoftware,KiCad,Pcbnew,(6.0.6)*
G04 #@! TF.CreationDate,2022-10-28T15:12:27+11:00*
G04 #@! TF.ProjectId,CE-LoRa-E5-Breakout-Module,43452d4c-6f52-4612-9d45-352d42726561,rev?*
G04 #@! TF.SameCoordinates,Original*
G04 #@! TF.FileFunction,Paste,Top*
G04 #@! TF.FilePolarity,Positive*
%FSLAX46Y46*%
G04 Gerber Fmt 4.6, Leading zero omitted, Abs format (unit mm)*
G04 Created by KiCad (PCBNEW (6.0.6)) date 2022-10-28 15:12:27*
%MOMM*%
%LPD*%
G01*
G04 APERTURE LIST*
G04 Aperture macros list*
%AMRoundRect*
0 Rectangle with rounded corners*
0 $1 Rounding radius*
0 $2 $3 $4 $5 $6 $7 $8 $9 X,Y pos of 4 corners*
0 Add a 4 corners polygon primitive as box body*
4,1,4,$2,$3,$4,$5,$6,$7,$8,$9,$2,$3,0*
0 Add four circle primitives for the rounded corners*
1,1,$1+$1,$2,$3*
1,1,$1+$1,$4,$5*
1,1,$1+$1,$6,$7*
1,1,$1+$1,$8,$9*
0 Add four rect primitives between the rounded corners*
20,1,$1+$1,$2,$3,$4,$5,0*
20,1,$1+$1,$4,$5,$6,$7,0*
20,1,$1+$1,$6,$7,$8,$9,0*
20,1,$1+$1,$8,$9,$2,$3,0*%
G04 Aperture macros list end*
%ADD10RoundRect,0.135000X0.135000X0.185000X-0.135000X0.185000X-0.135000X-0.185000X0.135000X-0.185000X0*%
%ADD11RoundRect,0.218750X0.218750X0.256250X-0.218750X0.256250X-0.218750X-0.256250X0.218750X-0.256250X0*%
%ADD12RoundRect,0.150000X-0.587500X-0.150000X0.587500X-0.150000X0.587500X0.150000X-0.587500X0.150000X0*%
%ADD13RoundRect,0.140000X0.170000X-0.140000X0.170000X0.140000X-0.170000X0.140000X-0.170000X-0.140000X0*%
%ADD14RoundRect,0.225000X0.250000X-0.225000X0.250000X0.225000X-0.250000X0.225000X-0.250000X-0.225000X0*%
%ADD15R,1.000000X2.300000*%
%ADD16R,2.300000X1.000000*%
%ADD17R,1.000000X1.050000*%
%ADD18R,1.050000X2.200000*%
%ADD19RoundRect,0.135000X-0.135000X-0.185000X0.135000X-0.185000X0.135000X0.185000X-0.135000X0.185000X0*%
%ADD20R,1.400000X1.600000*%
%ADD21RoundRect,0.140000X0.140000X0.170000X-0.140000X0.170000X-0.140000X-0.170000X0.140000X-0.170000X0*%
%ADD22R,2.500000X1.800000*%
%ADD23RoundRect,0.218750X-0.218750X-0.256250X0.218750X-0.256250X0.218750X0.256250X-0.218750X0.256250X0*%
G04 APERTURE END LIST*
D10*
X128785000Y-82866000D03*
X127765000Y-82866000D03*
D11*
X129062500Y-91629000D03*
X127487500Y-91629000D03*
D10*
X121292000Y-82104000D03*
X120272000Y-82104000D03*
D12*
X123273500Y-84202000D03*
X123273500Y-86102000D03*
X125148500Y-85152000D03*
D13*
X126878000Y-85124000D03*
X126878000Y-84164000D03*
D14*
X121417000Y-85927000D03*
X121417000Y-84377000D03*
D15*
X132025000Y-95154000D03*
X130775000Y-95154000D03*
X129525000Y-95154000D03*
X128275000Y-95154000D03*
X127025000Y-95154000D03*
X125775000Y-95154000D03*
X124525000Y-95154000D03*
D16*
X122275000Y-97404000D03*
X122275000Y-98654000D03*
X122275000Y-99904000D03*
X122275000Y-101154000D03*
X122275000Y-102404000D03*
X122275000Y-103654000D03*
X122275000Y-104904000D03*
D15*
X124525000Y-107154000D03*
X125775000Y-107154000D03*
X127025000Y-107154000D03*
X128275000Y-107154000D03*
X129525000Y-107154000D03*
X130775000Y-107154000D03*
X132025000Y-107154000D03*
D16*
X134275000Y-104904000D03*
X134275000Y-103654000D03*
X134275000Y-102404000D03*
X134275000Y-101154000D03*
X134275000Y-99904000D03*
X134275000Y-98654000D03*
X134275000Y-97404000D03*
D17*
X125608000Y-114455000D03*
D18*
X124133000Y-115980000D03*
X127083000Y-115980000D03*
D19*
X127765000Y-93026000D03*
X128785000Y-93026000D03*
D20*
X123981000Y-80878000D03*
X123981000Y-73678000D03*
X126981000Y-73678000D03*
X126981000Y-80878000D03*
D14*
X128275000Y-85927000D03*
X128275000Y-84377000D03*
D20*
X132569000Y-73678000D03*
X132569000Y-80878000D03*
X129569000Y-80878000D03*
X129569000Y-73678000D03*
D21*
X131930000Y-92899000D03*
X130970000Y-92899000D03*
D22*
X130974000Y-84898000D03*
X134974000Y-84898000D03*
D23*
X119994500Y-80580000D03*
X121569500Y-80580000D03*
M02*
